<?xml version="1.0" encoding="utf-8"?>
<!-- Generator: $$$/GeneralStr/196=Adobe Illustrator 27.6.0, SVG Export Plug-In . SVG Version: 6.00 Build 0)  -->
<svg version="1.1" id="Ebene_1" xmlns="http://www.w3.org/2000/svg" xmlns:xlink="http://www.w3.org/1999/xlink" x="0px" y="0px"
	 viewBox="0 0 1000 1000" style="enable-background:new 0 0 1000 1000;" xml:space="preserve">
<path d="M674.8,367H597c-5.3,0-9.9,3.9-10.7,9.1l-31.5,199.5c-0.6,3.9,2.4,7.5,6.4,7.5h39.9c3.7,0,6.9-2.7,7.5-6.4l8.9-56.5
	c0.8-5.2,5.3-9.1,10.7-9.1h24.6c51.2,0,80.8-24.8,88.5-73.9c3.5-21.5,0.1-38.4-9.9-50.2C720.4,373.9,700.8,367,674.8,367L674.8,367z
	 M683.8,439.9c-4.3,27.9-25.6,27.9-46.2,27.9h-11.7l8.2-52.1c0.5-3.1,3.2-5.5,6.4-5.5h5.4c14.1,0,27.3,0,34.1,8
	C684.1,423,685.3,430,683.8,439.9z M120,367H42.2c-5.3,0-9.9,3.9-10.7,9.1L0.1,575.6c-0.6,3.9,2.4,7.5,6.4,7.5h37.1
	c5.3,0,9.9-3.9,10.7-9.1l8.5-53.8c0.8-5.2,5.3-9.1,10.7-9.1h24.6c51.2,0,80.8-24.8,88.5-73.9c3.5-21.5,0.1-38.4-9.9-50.2
	C165.6,373.9,146,367,120,367z M129,439.9c-4.3,27.9-25.6,27.9-46.2,27.9H71.1l8.2-52.1c0.5-3.1,3.2-5.5,6.4-5.5h5.4
	c14.1,0,27.3,0,34.1,8C129.3,423,130.6,430,129,439.9z M352.5,439h-37.2c-3.2,0-5.9,2.3-6.4,5.5l-1.6,10.4l-2.6-3.8
	c-8.1-11.7-26.1-15.6-44-15.6c-41.1,0-76.3,31.2-83.2,74.9c-3.6,21.8,1.5,42.7,13.9,57.2c11.4,13.4,27.6,18.9,46.9,18.9
	c33.2,0,51.6-21.3,51.6-21.3l-1.7,10.4c-0.6,3.9,2.4,7.5,6.4,7.5h33.6c5.3,0,9.9-3.9,10.7-9.1L359,446.5
	C359.5,442.5,356.5,439,352.5,439L352.5,439z M300.6,511.4c-3.6,21.3-20.5,35.6-42,35.6c-10.8,0-19.4-3.5-25-10
	c-5.5-6.5-7.6-15.8-5.9-26.2c3.4-21.1,20.5-35.8,41.8-35.8c10.6,0,19.2,3.5,24.8,10.1C300,491.8,302.2,501.2,300.6,511.4
	L300.6,511.4z M907.3,439h-37.2c-3.2,0-5.9,2.3-6.4,5.5l-1.6,10.4l-2.6-3.8c-8.1-11.7-26-15.6-44-15.6c-41.1,0-76.3,31.2-83.2,74.9
	c-3.6,21.8,1.5,42.7,13.9,57.2c11.4,13.4,27.6,18.9,46.9,18.9c33.2,0,51.6-21.3,51.6-21.3l-1.7,10.4c-0.6,3.9,2.4,7.5,6.4,7.5H883
	c5.3,0,9.9-3.9,10.7-9.1l20.1-127.5C914.3,442.5,911.3,439,907.3,439L907.3,439z M855.4,511.4c-3.6,21.3-20.5,35.6-42,35.6
	c-10.8,0-19.5-3.5-25-10s-7.6-15.8-5.9-26.2c3.4-21.1,20.5-35.8,41.8-35.8c10.6,0,19.2,3.5,24.8,10.1
	C854.8,491.8,857,501.2,855.4,511.4L855.4,511.4z M550.9,439h-37.4c-3.6,0-6.9,1.8-9,4.7l-51.7,76.1L431,446.6
	c-1.4-4.6-5.6-7.7-10.4-7.7h-36.8c-4.4,0-7.6,4.4-6.1,8.6l41.2,121l-38.8,54.7c-3,4.3,0,10.2,5.3,10.2h37.4c3.5,0,6.9-1.7,8.9-4.7
	L556.2,449C559.2,444.8,556.1,439,550.9,439z M951.2,372.5l-31.9,203.1c-0.6,3.9,2.4,7.5,6.4,7.5h32.1c5.3,0,9.9-3.9,10.7-9.1
	l31.5-199.5c0.6-3.9-2.4-7.5-6.4-7.5h-35.9C954.4,367,951.7,369.3,951.2,372.5L951.2,372.5z"/>
</svg>
