<?xml version="1.0" encoding="utf-8"?>
<!-- Generator: $$$/GeneralStr/196=Adobe Illustrator 27.6.0, SVG Export Plug-In . SVG Version: 6.00 Build 0)  -->
<svg version="1.1" id="Ebene_1" xmlns="http://www.w3.org/2000/svg" xmlns:xlink="http://www.w3.org/1999/xlink" x="0px" y="0px"
	 viewBox="0 0 1000 1000" style="enable-background:new 0 0 1000 1000;" xml:space="preserve">
<path d="M591.5,279.4c-24.2,1.9-52.1,3.8-80,7.5c-42.8,5.5-85.6,13-121,29.8C321.6,344.7,275,404.4,275,492
	c0,110,70.8,165.9,160.1,165.9c29.8,0,54-3.6,76.3-9.3c35.4-11.2,65.2-31.7,100.5-69c20.5,28,26,41.1,61.5,70.8
	c9.3,3.8,18.6,3.8,26-1.9c22.3-18.7,61.4-52.2,81.9-70.8c9.3-7.5,7.4-18.7,1.9-28c-20.5-26.1-40.9-48.5-40.9-98.8V283.1
	c0-70.9,5.5-136.1-46.5-184.5C653,59.4,586,44.5,533.9,44.5h-22.4c-95,5.6-195.5,46.6-217.9,164.1c-3.7,14.9,7.5,20.5,14.9,22.4
	l104.2,13c11.2-1.9,16.7-11.2,18.6-20.6c9.4-41,42.8-61.5,80-65.2h7.5c22.3,0,46.5,9.4,59.6,27.9c14.8,22.4,13,52.3,13,78.4
	L591.5,279.4L591.5,279.4z M591.5,387.6c0,42.9,1.8,76.4-20.5,113.6c-13,26.1-35.4,42.9-59.6,48.5c-3.7,0-9.3,1.9-14.9,1.9
	c-40.9,0-65.2-31.7-65.2-78.4c0-59.6,35.4-87.7,80-100.7c24.2-5.6,52.2-7.4,80-7.4L591.5,387.6L591.5,387.6z M934.3,911
	c45.5-38.5,64.7-108.4,65.7-144.9V760c0-8.1-2-14.2-4-17.2c-9.1-11.1-75.9-21.3-133.5-4.1c-16.2,5.1-30.4,12.2-43.5,21.3
	c-10.1,7.1-8.1,16.2,2,15.2c11.1-2.1,25.3-3,41.5-5.1c35.4-2.9,76.9-4,87,9.2c14.1,17.2-16.2,92.2-29.4,124.6
	C916.1,914.1,925.2,918.2,934.3,911z M5,766.2c130.4,118.5,302.3,189.4,494.5,189.4c119.3,0,256.8-33.5,363-97.2
	c14.2-8.2,28.3-17.3,41.4-27.4c18.2-13.1,2-33.5-16.2-25.4l-25.3,10.2c-116.3,45.6-238.6,66.9-351.9,66.9
	C330.5,882.7,156.6,833,16,751C3,743.9-6.1,757,5,766.2L5,766.2z"/>
</svg>
