<?xml version="1.0" encoding="utf-8"?>
<!-- Generator: $$$/GeneralStr/196=Adobe Illustrator 27.6.0, SVG Export Plug-In . SVG Version: 6.00 Build 0)  -->
<svg version="1.1" id="Ebene_1" xmlns="http://www.w3.org/2000/svg" xmlns:xlink="http://www.w3.org/1999/xlink" x="0px" y="0px"
	 viewBox="0 0 1000 1000" style="enable-background:new 0 0 1000 1000;" xml:space="preserve">
<path d="M340.8,427c-45.1,0-81.8,34.3-81.8,81.5c0,46.9,36.7,81.5,81.8,81.5c45,0,81.8-34.6,81.8-81.5
	C422.5,461.3,385.8,427,340.8,427z M340.8,557.9c-24.7,0-46-20.4-46-49.4c0-29.3,21.3-49.3,46-49.3s46,20,46,49.3
	C386.7,537.5,365.4,557.9,340.8,557.9z M128.4,452v34.6h82.7c-2.5,19.4-9,33.6-18.8,43.5c-12.1,12-30.9,25.3-63.9,25.3
	c-50.9,0-90.7-41-90.7-92s39.8-92,90.7-92c27.4,0,47.5,10.8,62.3,24.7l24.4-24.4c-20.7-19.7-48.1-34.9-86.7-34.9
	C58.6,336.9,0,393.6,0,463.4S58.6,590,128.4,590c37.7,0,66-12.3,88.2-35.5c22.9-22.9,30-54.9,30-80.9c0-8.1-0.6-15.4-1.9-21.6
	L128.4,452L128.4,452z M796.6,345.5h35.8V585h-35.8V345.5z M930.6,557.9c-18.2,0-31.2-8.3-39.5-24.7l109-45.1l-3.7-9.2
	c-6.8-18.2-27.5-51.9-69.8-51.9c-42,0-76.9,33.1-76.9,81.5c0,45.7,34.6,81.5,80.9,81.5c37.3,0,59-22.8,67.9-36.1l-27.8-18.5
	C961.4,548.9,948.8,557.9,930.6,557.9L930.6,557.9z M927.8,458.5c14.2,0,26.2,7.1,30.3,17.3L885.2,506
	C884.3,474.6,909.6,458.5,927.8,458.5L927.8,458.5z M738,445.2h-1.2c-8.1-9.6-23.5-18.2-42.9-18.2c-40.8,0-78.1,35.8-78.1,81.8
	c0,45.7,37.3,81.2,78.1,81.2c19.4,0,34.8-8.6,42.9-18.5h1.2v11.7c0,31.2-16.7,47.8-43.5,47.8c-21.9,0-35.5-15.7-41.1-29l-31.1,13
	c9,21.6,32.7,48.1,72.2,48.1c41.9,0,77.5-24.7,77.5-84.9V431.9h-34L738,445.2L738,445.2z M696.9,557.9c-24.7,0-45.4-20.7-45.4-49.1
	c0-28.7,20.7-49.7,45.4-49.7c24.4,0,43.5,21,43.5,49.7C740.4,537.2,721.3,557.9,696.9,557.9z M519.1,427
	c-45.1,0-81.8,34.3-81.8,81.5c0,46.9,36.7,81.5,81.8,81.5s81.8-34.6,81.8-81.5C600.9,461.3,564.2,427,519.1,427L519.1,427z
	 M519.1,557.9c-24.7,0-46-20.4-46-49.4c0-29.3,21.3-49.3,46-49.3s46,20,46,49.3C565.1,537.5,543.8,557.9,519.1,557.9z"/>
</svg>
