<?xml version="1.0" encoding="UTF-8"?>
<svg id="Ebene_1" xmlns="http://www.w3.org/2000/svg" version="1.1" viewBox="0 0 1000 1000">
  <!-- Generator: Adobe Illustrator 29.0.1, SVG Export Plug-In . SVG Version: 2.1.0 Build 192)  -->
  <path fill="currentColor" d="M399,818.1c-10.1,8.2-20.2,16.3-30.2,24.5-14.8,12.1-29.6,24.5-44.5,36.6-13.9,11.4-24.5,10.3-37.6-2-27.4-25.7-23.6-30.2-6.8-58.6,9.5-16.1,18.7-32.3,26.3-50.1-18.1,12.6-36.2,25.1-54.3,37.6-4,2.8-7.9,6-12.8,7.1-20.9,4.5-28.4-13.8-40.2-24.3-8.1-7.2-8.1-17.4-3.5-27.1,6.8-14.3,13.9-28.4,20.7-42.7,1.6-3.3,4.3-6.2,3.7-12-13.9,6.8-27.3,13.1-40.4,19.8-26.3,13.6-30.4,13-50.8-8-8-8.1-16.3-15.7-24-24-9.5-10.3-10-21.5-1.3-32.7,13.8-17.7,28.1-35.1,40.7-54.6-16.8,8.8-33.7,17.4-50.5,26.3q-32.6,17.5-58.6-8.6c-9.3-9.4-18.9-18.5-27.9-28.1-12.1-13-8-31.9,8.6-37.6,43.8-14.8,81.7-40.1,119.3-65.8,54.5-37.3,105.9-78.6,156.2-121.3,20.6-17.5,28-17.4,46.8,1.3,88.6,88.4,177.1,177,265.6,265.4,9.3,9.4,18.6,18.7,27.9,28,12.7,12.8,13.2,23.8,1.5,37.7-31.2,37.3-63.1,74-93.8,111.7-36.1,44.3-67.3,91.8-91.8,143.4-2.8,5.8-4.9,11.8-7,17.9-7.6,22.8-25.8,27-43,9.8-12-11.9-24-23.9-36.1-35.8-13.3-13.2-14.8-20.5-6.8-37.2,14.2-29.6,28.7-59,43-88.4,1.1-2.3,2-4.6,3-6.9l-1.4-1.3h0ZM1000,146c-.5,36.7-10.7,66.8-31,93.5-6.2,8.2-13.5,14.9-22.3,20.5-75.4,47.1-150.7,94.5-225.9,141.9-17.2,10.8-31.2,24.8-39.7,43.7-4.3,9.8-3.8,18,5.1,26.2,13.5,12.5,27,25.1,38.3,39.9,22,28.5,23.4,68.5-6.8,94.4-5.7,4.9-10.6,10.8-16.1,16-12,11.4-23.8,11.5-35.7-.3-35-34.7-69.9-69.6-104.9-104.6l-175.1-175.1c-1-1.1-2.1-2.1-3.2-3.1-20.1-20.1-20.2-28.8-.1-48.7,12.2-12.2,23.3-25.8,41.3-30.3,27.1-6.8,49.9,2,69.8,19.6,12.1,10.7,23.2,22.7,34.7,34.1,11.2,11.1,16.8,12.3,30.9,4.7,17.6-9.6,31-23.8,41.6-40.6,44.3-70.5,89.4-140.5,132.4-211.8,24.1-39.8,59.9-58.7,103.7-63.6,87.3-9.7,163.1,59.3,163,143.6h0ZM888.2,148.9c.3-20.2-16.2-36.8-36.3-36.6-19.6,0-36.8,17.4-36.7,36.9,0,19.7,16.4,36.1,35.8,36.2,21.9.1,37-14.8,37.2-36.5Z"/>
</svg>
