<?xml version="1.0" encoding="UTF-8"?>
<svg id="Ebene_1" xmlns="http://www.w3.org/2000/svg" version="1.1" viewBox="0 0 1000 1000">
  <!-- Generator: Adobe Illustrator 29.0.1, SVG Export Plug-In . SVG Version: 2.1.0 Build 192)  -->
  <path fill="currentColor" d="M196.2,462.4c22.3,153.3,44.8,306.6,66.7,460,1.7,11.9,5.8,15.3,17.1,15.1,34.6-.5,69.4-.2,104.1-.2,111.4,0,222.8,0,334.2,0,11.2,0,19,0,20.6-15.3,2.8-27.7,8.7-55.1,13.1-82.8,4.2-26.7,8-53.5,11.9-79.8-27.1-1.6-52.2-.7-76.5-4.8-79.5-13.6-139-57.8-182.5-124.7-6.3-9.6-11.7-17.9-24.9-21.3-20.5-5.1-30.6-27.5-26.8-51.7,3.2-20.6,19.3-34.4,40.5-34.8,31.8-.6,50.1,24.5,43.7,58.6-1.1,6.2-.6,14.5,2.7,19.6,51,79.4,120.8,122.7,218.5,112.6,11-1.1,14.3-5.1,15.8-14.9,9.4-61.2,19.2-122.4,28.7-183.7,3.3-21.2,5.9-42.5,8.9-63.5H196.2c0,3.8-.5,7.7,0,11.5h0ZM228.1,321.1c12.9-7.6,13.7-17.8,3.3-37.9-8.5-16.3-13.8-33.1-2.2-49.9,12.2-17.5,30.4-20.6,50.2-18.5,20.1,2.3,35.3,12.6,46.4,28.9,4.4,6.5,5.9,15.5,11.3,20.5,6.9,6.5,16.4,13.4,24.9,13.6,6.1.2,13.7-9.4,18.5-16.1,4-5.7,4.8-13.6,7.3-20.5,19.8-55.9,73.9-91.6,129.8-85.6,71.9,7.7,116.9,57.7,121.4,135.7.7,11.9.4,26,13.7,28.4,9.6,1.8,22.7-2,30.9-8,31.8-22.9,61.5-17.7,81.5,15.7,3,5,10,11.5,14,10.8,5-.9,10.6-7.8,12.9-13.4,14.3-35.3-7.5-72.9-45.7-76.1-20.2-1.7-40.8,1.3-62.6,2.3-13.1-77.1-56.4-129.7-135.5-143.7-85.7-15.2-150.1,20.6-192,90-26.2-9.7-48.9-22.8-73.1-26.2-38.8-5.4-74,7.3-96.4,42-21.7,33.5-12.1,66.3,7.1,97.6,9.1,14.5,21.6,17.9,34.3,10.4h0ZM825.6,388.4c-1.8-15.1-10.7-24.2-25.8-26.2-7.2-1-14.5-1-21.9-1h-275.7c0-.1-273.9-.1-273.9-.1-7.3,0-14.6.2-21.9,1-16.3,1.8-25.4,12-26.8,27.5-1.5,15.7,6.6,26.9,21.8,31.8,6.2,1.9,13.1,2.4,19.7,2.4,187.4.1,374.8.1,562.4,0,7.2,0,14.8-.5,21.5-2.8,15.1-5.3,22.3-16.6,20.6-32.6h0ZM732.4,219.7c40-.1,71.6-31.8,71.7-71.8.2-40.7-32.7-73.9-72.6-73.5-38.9.4-72,33.6-72.4,72.6-.5,39.8,32.8,72.7,73.3,72.7ZM732.5,105.1c22.7.3,41.8,19.2,42.2,41.8.3,22.7-20.7,43.7-43.2,43.2-22.5-.4-41.4-19.7-41.6-42.4-.2-24.1,18.4-42.8,42.6-42.6h0ZM333.4,166.9c28.6.4,53.8-24.8,53.3-53.2s-24.1-51.3-52.8-51.2c-28.8,0-52,23.1-52.1,51.7-.2,28.3,23.4,52.3,51.6,52.7ZM333.9,92.3c13,0,20.7,8,22,22.2-1,12.5-7,21-20.9,21.7-13.1.7-24.1-9.4-23.1-22.1,1-13.1,8.8-21.8,22-21.8Z"/>
</svg>
