<?xml version="1.0" encoding="UTF-8"?>
<svg id="Ebene_1" xmlns="http://www.w3.org/2000/svg" version="1.1" viewBox="0 0 1000 1000">
  <!-- Generator: Adobe Illustrator 29.0.1, SVG Export Plug-In . SVG Version: 2.1.0 Build 192)  -->
  <path fill="currentColor" d="M996.2,566.6l-81.3-108-56-73.5c-74.1,42.3-216.6,54-301.3,57.5l-1.5,1.4c-17.9,16.7-46.8,14.7-64.4-4.2-17.9-19.1-18-48.1-.1-64.8,17.6-16.4,45.7-14.7,63.6,3.4,107.5-4.6,216.3-21.7,264.4-45.1l-57.4-75.7c68.6,2.3,96.3,19.2,106.8,33.4,10.3,13.5,6.9,27.5,6.5,29.9-26.4,56.1-235,73.7-334.2,76.4-.7-.8-1.2-1.8-1.7-2.3-8.9-9.5-22.8-10.2-31.4-2.2-8.5,8-8.8,22,.1,31.4,8.5,9.2,22.7,10.2,31.3,2.2,1.7-1.6,2.7-3.5,3.7-5.4,68.1-1.7,277.4-12.1,340-70.6,6.3-6,11-12.3,14.2-19.2l.2-.7c.3-1.2,9-27.1-9.6-52.4-21.8-29.8-70.3-44.9-144.3-44.6l-70.1-92.2c-2.7-3.8-7.1-6.1-11.3-6.7-4.7-.5-9.1.7-12.3,3.6l-367,343.2c-3.2,2.9-4.6,7.2-4.6,11.7.2,4.7,2.4,9,5.9,12.2l396.7,355.4c6.7,6.1,16.5,6.3,22.6.5l291.6-272.5c5.8-5.5,6.3-15.3.9-22.1h0ZM297.6,427.9c3.7-3.1,7.6-5.9,11.2-8.7-.1-1.5-1-1.4-1.6-1.4-55.1-2.7-109.8-.5-163.5,12.8-29.8,7.3-58.2,18.1-82.2,37.8-25.2,20.6-45.4,45.1-55.4,76.7-12.2,38.3-5.6,74.1,15.8,107.6,1.8,2.8,3.7,5.5,5.6,8h0s12.8,18.9,34.2,30.1c13.8,8.4,42,20.3,80,8.8.8-.2,1.6-.4,2.3-.6l.8-.3h0c28.2-8.8,48.2-28.8,61.7-57.5,12.7-27,19.5-55.7,22.8-85.1,6-51.8,28.4-94.6,68.3-128.2h0Z"/>
</svg>
