<?xml version="1.0" encoding="UTF-8"?>
<svg id="Ebene_1" xmlns="http://www.w3.org/2000/svg" version="1.1" viewBox="0 0 1000 1000">
  <!-- Generator: Adobe Illustrator 29.0.1, SVG Export Plug-In . SVG Version: 2.1.0 Build 192)  -->
  <path fill="currentColor" d="M769.3,525.1c-3.4-7.4-8.3-14-15-18.7-9.6-6.8-19.6-13.1-29.4-19.7l-108.5-72.4c-20.7-13.7-41.3-27.6-62-41.4-2.8-1.8-5.4-3.8-9.1-1.9-2.3,1.1-3.4-.4-3.9-2.5-1.8-10.2-6.9-18.6-15-25-2.5-2.1-2-3.7.2-5.3,3-2.3,3.6-5.2,3.3-8.8-.7-9.7-1.1-19.4-1.7-29.1l-4.5-65.7c-1.7-24.8-3.2-49.6-4.7-74.4-1.5-22.8-2.8-45.5-4.3-68.2-.6-9.4-4-17.8-9.2-25.4-3.4-5-7.6-5.2-11-.3-4.8,6.8-8.4,14.4-9,22.8-2.1,30.1-4.1,60.3-6,90.5-1.8,29.1-3.6,58.3-5.5,87.4l-3.6,54c-.3,3.5-.1,7.1-.6,10.5-.8,4.7,4.5,5.7,5.4,9.3-.9,1.7-2.5,2.6-3.9,3.9-6.6,5.9-10.8,13-13,21.5-.3,1-.4,2-.6,3.1-.3,1.4-1.2,2.5-2.5,2-5.4-2.5-9,1.3-12.9,3.9-41.7,27.8-83.4,55.7-125,83.6-23.5,15.7-46.9,31.2-70.3,46.9-7.4,5-12.7,11.9-16.5,19.9-2.7,5.7-.3,9.4,6,9.8,8.4.6,16.8-.3,24.2-3.9,33.9-16.5,67.6-33.3,101.3-50.1,37.5-18.6,75-37.1,112.4-55.6,3.6-1.8,7.1-3.3,7.7-8h1.2c-.7,16.5-1.3,33.1-2.2,49.5-1.4,28.4-3.1,56.7-4.5,85-1.5,30.2-2.8,60.5-4.2,90.7-1.1,22.6-2.3,45.2-3.4,67.6l-2.8,60.2-3.2,59.6c-1,18.6-1.9,37.2-2.5,55.9-.1,3.7-1.7,5.1-4.9,5.9-5.4,1.3-10.9,2.8-16.2,4.2l-52.2,13.9c-4.8,1.3-4.9,1.4-5,6.2-.1,5.4-.1,10.8-.1,16.2.1,4.5.4,4.8,5.1,5,5.3.2,10.8,0,16.2,0h56.5c0,0,54.7,0,54.7,0h72.4c8.5,0,17,0,25.5,0,3.9,0,4.4-.5,4.4-4.2,0-6-.2-12,0-18,0-3.2-1.3-4.3-4.1-5-13-3.4-26-6.9-39-10.4-10.2-2.7-20.3-5.5-30.5-8.1-3.2-.8-4.5-2.3-4.5-5.5,0-4.1-.2-8.3-.4-12.4l-4.6-87.5c-1.2-24.4-2.5-48.8-3.6-73.2l-4.2-89.4-4.7-94.9c-1.2-24.2-2.5-48.4-3.6-72.6-.6-11.6-1.1-23.2-1.5-34.7,0-1.6-.9-3.6,1.9-5.8-.6,6.8,4.2,8.1,8.1,10.2.9.5,1.8.9,2.8,1.3l104,51.5s69.4,34.3,104,51.5c8.2,4.1,16.9,5.3,26,4.9,6.9-.7,9.1-4.1,6.3-10.3h0ZM510,397.3c-6.6,3-13.1,3.2-19.8.2-1.5-.7-2.3-1.7-1.8-3.4,1.1-3.5,1.6-7.3,3.5-11.2,5.7,4.1,10.9,4.2,16.2-.3,2.4,3.8,2.7,7.6,3.7,11.3.4,1.6-.3,2.7-1.8,3.4h0ZM519.9,377.9c-3.2.7-6.3,1.9-10.2,2-.2-4.1.1-8.4-3.7-11.2-1.9-1.3-3.9-2.4-6.3-2.3-5.8.1-8.6,3.9-10.2,13.3-3.6,0-6.8-1.3-10.2-2.2-2.3-.6-3.1-2-2.8-4.1,1.1-7.4,4.9-13,11.2-17.2,1.6-1,3.1-1.2,4.5.3l.9.9c2.3,2.1,3.9,5.7,6.9,5.8,3.2.2,4.7-3.6,6.9-5.7,2-1.9,3.9-2.1,6-.5,5.5,3.9,8.8,9.2,9.9,15.8.6,2.7,0,4.5-2.9,5.1h0ZM741.8,678.7c2.4-37.5-35.8-64.1-70.5-49.4-4.4,1.8-4.3,1.8-7-2.4-11.7-17.7-30.5-26.7-52.7-22.7-29.2,5.3-47,34.7-39.4,63.5q1.4,5.2-2.9,8.4c-27.7,20.7-27.5,62,.5,82.2,2.7,1.9,4,3.9,4.4,7.4,3.7,33.6,34,51.5,61.4,45.3,3-.7,6-1.6,9.2-2.4,1.1,1.9.9,3.3.8,4.8-.6,13-1.3,26.1-2,39.1l-2.2,42.2c-.6,12.6-1.1,25.2-1.7,37.9-.2,4.5,0,4.6,4.4,4.7,5.6.2,11.2,0,16.8.2,5.8,0,6,0,5.6-6-.8-15.9-1.6-31.9-2.5-47.8l-3.2-63.3c-.3-5.9,0-6.2,5.8-5.1,6.4,1.3,12.8,1.3,19.1,0,20.9-4.8,34.2-17.7,39.5-38.5.9-3.5,2.5-5.5,5.7-7.4,27.8-15.2,35.4-51.8,15.3-76.3-3.7-4.5-4.8-8.6-4.4-14.3h0ZM359,854c15,3.4,34.2-4.6,40.1-25.1,1-3.4,2.6-5.1,5.4-6.8,17.8-10.6,22.4-34.7,9.6-50.7-2.8-3.5-3.8-6.8-3.6-11.2.7-24.9-22.8-41.9-46.3-33.8q-4.8,1.7-7.7-2.5c-9.4-13.1-27-18.2-41.5-12-15.3,6.6-24.2,22.5-20.7,38.3,1.1,5.2-.3,7.6-3.9,10.9-16.4,14.3-15.5,40,1.8,53.1,2.7,2.1,3.9,4.3,4.3,7.6,2.9,20,20.3,32.6,40.3,29.4,2.5-.4,4.6-1.8,8-1.2,0,1.9.1,3.6,0,5.3l-2.6,54c-.4,8.1-.7,16.2-1.1,24.2-.2,2.6.9,3.9,3.5,3.8,3.5,0,7,0,10.6,0,3.4.2,4.2-1.5,4-4.6-.6-9.5-1.1-19-1.6-28.5-.7-15.8-1.4-31.4-2.2-47.2,0-2.6.6-3.8,3.6-3.1h0Z"/>
</svg>
