<?xml version="1.0" encoding="UTF-8"?>
<svg id="Ebene_1" xmlns="http://www.w3.org/2000/svg" version="1.1" viewBox="0 0 1000 1000">
  <!-- Generator: Adobe Illustrator 29.0.1, SVG Export Plug-In . SVG Version: 2.1.0 Build 192)  -->
  <path fill="currentColor" d="M868.4,483.3c-1.7-8.4-3.7-16.6-6.3-24.8-34.2-109.8-103.9-187.9-208.8-235.5,8.4,18.7,12.4,39.4,31.9,51.8,68.2,43.2,115.2,103.4,142,179.7,47.1,134,0,291.6-113,378.7-61.1,47.1-130.1,72.3-206.8,72.9-47.1.3-79.8-26.2-66.5-82.7,4.8-20.5,12.8-39.5,21.4-58.6,3.2-7.2,8.7-11.3,14.9-15.6,133.8-92.6,194-221.8,188-382.5-3.1-84.6-30.4-161.3-86.1-226.4-28.8-33.8-79.1-64.1-122-76.7-5.6-2.3-.1-.8-1.9,6.4-1.6,6.5-2.8,13.1-4.9,19.5-11.5,34.5-29.4,65.8-47.9,96.8-80.7,135.1-110.2,278.7-72.2,433.5,13,53,28.4,105.2,48.8,159.7,81.9-128.2,143.2-258.9,125.1-414.1,6.2,28.9,12.1,57.4,11.7,86.9-1.1,103.8-31.9,199.7-78,291.3-15.3,30.4-27.7,61.5-30.5,95.9-3.8,47.1,23.1,83.9,68.9,94.6,25.2,5.9,50.3,3.7,75.6.5,124.9-15.7,234-96.9,288.3-208.8,22.7-48.8,30.6-113,31.8-124.5,5.7-55,.8-95.7-3.5-118h0ZM221.5,738.7c-10.1,1.8-13.4-.7-17.8-8.7-16.4-29.8-28.3-61.2-35.7-94.5-31-139.8,31.1-288.1,154.1-361.5,22.6-13.5,27.6-32.4,35.4-56-94.6,43.4-160.5,109.2-199.1,199.1-.3.6-63.6,114.5-12.4,260.2,7.9,24.5,18.5,48.2,31.6,71.2,4.5,7.8,3.1,12.6-1.9,19.4-21.6,29.5-21.9,65.1-2.1,94.8,4.1,6.3,8,10,14.3,3.9,12.2-11.5,19.2-5.9,24.9,6.6,1.9,4,5.2,7.4,7.1,11.5,4.5,9.7,9.4,10.9,19.3,5.2,13.1-7.4,15.5-14.3,5.2-25.5-2.6-2.9-3.9-6.9-6.5-9.9-8.8-10.1-6.6-16,4.8-23.2,11.7-7.3,19.3-9.7,25.2,5.2,1.4,3.6,4.5,6.6,6.2,10.1,5.2,10.8,10.3,14.9,22.7,6.6,11.2-7.5,12.9-13.3,4.5-23-1.8-2.1-2.8-5-4.7-7-11.7-12.9-10.7-22.8,6.3-29.7,9.6-3.8,10.4-8.9,4.3-17.8-20.7-30.9-49.4-43.7-85.7-37h0ZM257.7,785c-21.2,13.6-42.4,27-65.6,41.7-3.9-41.4,29.7-68.9,63.7-55,3.4,1.4,8.2,2.1,8.7,6.6.2,3.9-4.2,4.9-6.8,6.7Z"/>
</svg>
