<?xml version="1.0" encoding="UTF-8"?>
<svg id="Ebene_1" xmlns="http://www.w3.org/2000/svg" version="1.1" viewBox="0 0 1000 1000">
  <!-- Generator: Adobe Illustrator 29.0.1, SVG Export Plug-In . SVG Version: 2.1.0 Build 192)  -->
  <path fill="currentColor" d="M495.6,397.4c-.4-1.4-.8-2.8-1.2-4.1-12.9-41.5-40.7-71.4-76.7-93.2-60.9-36.8-143.6-26.9-196.5,20.3-67.8,60.4-70.9,159.4-29.4,218.9,24.7,35.4,55.9,59.4,96.8,71.7.7.2,1.3.4,1.9.5v-167c0-25.9,21.1-47,47-47h158.1q0-.1,0,0ZM140.1,417c14.2-90.2,88.1-160.2,182.9-165.5,81.1-4.5,162,42.7,194,125.7,2.4,6.1,2.5,14.2,4.8,20.3h37.3c-8.2-7.9-15.9-15.4-24-22.5-5.7-5.1-7.9-10.6-7.8-18.3.4-30.1-.3-60.3.4-90.4.3-10.7-3.4-13.1-13.4-12.9-30.1.6-60.3,0-90.4.3-7.1.1-12.3-2-17.4-7.2-21.9-22.4-44.5-44.2-66.3-66.7-5.3-5.5-8-5.3-13.3.1l-65.4,65.9c-5.7,5.9-11.5,8-19.5,7.9-30.5-.4-61,.2-91.5-.3-8.8-.2-11.1,2.7-11,11.2l.4,91.6c.1,8.2-2.5,13.7-8.2,19.3-21.6,21-42.5,42.7-64.1,63.6-6.1,5.9-7.8,9.2-.4,16.1,22.2,21,43.2,43.1,65.1,64.4,5.5,5.4,7.8,10.7,7.6,18.4l-.3,92.7c-.1,8.1,2.2,10.6,10.4,10.4l90.3-.3c8.9,0,15.7,1.7,21.7,8.7,9.1,10.6,18.8,20.7,28.3,30.9v-42.1c-101.6-24-166.4-118.8-150.2-221.3h0ZM890.5,421.8H360.4c-25.9,0-47,21.1-47,47v307.8c0,25.9,21.1,47,47,47h530.1c25.9,0,47-21.1,47-47v-307.7c0-25.9-21.1-47.1-47-47.1h0ZM836.7,503.1c0-19.9,1.3-20.8,26.9-20.6,17.5.1,18.8,2.2,18.7,28.9,0,17-1.9,18.4-23.9,18.3-21.7-.2-21.8-.3-21.7-26.6h0ZM882.3,568c0,18.1-2.5,20.2-23.4,20.2s-22.3-1.6-22.2-23.7q0-23.6,27-23.5c17.9,0,18.6,1,18.6,27h0ZM750.7,482.4c20.8,0,22.4,1.8,22.4,23.8s-.9,23.4-23.9,23.4-22.5-1.2-22.5-24.9,1.8-22.3,24-22.3ZM773.2,564.2c0,22.1-1.7,23.9-22.4,23.9s-24.1-1.5-24.1-23.6,1.3-23.7,22.5-23.7c23.2,0,24,.8,24,23.4h0ZM751.8,598.5c19.6,0,21.3,1.9,21.3,23.6s-1.4,23.6-23.8,23.6-22.7-1.3-22.7-26.1c0-19.5,1.9-21.1,25.2-21.1ZM572.4,482.4c19.9,0,20.9,1.3,21.1,25.1.2,18.2,0,23.1-25,22.2-19.8-.7-20.4-.9-20.4-24.2s1.1-23.1,24.3-23.1h0ZM478.3,503.7c0-19.8,1.7-21.2,25.1-21.2s20.4,2.2,20.4,23.4-.6,23.9-21.9,23.9q-23.6-.2-23.6-26.1h0ZM478.2,556.6c0-14.1,2.6-15.6,26.2-15.6s19.3,1.2,19.3,23.8-2.7,23.4-16.3,23.4q-29.3,0-29.2-31.6h0ZM451.8,482.4c13.7.2,17.2,3.7,17.4,17.6v7.4c-.4,7.5,2.8,17.4-6.3,20.7-10.7,3.8-22.5,3-33.5-.4-3.2-1-5.7-4.6-5.5-8.9.2-2.8,0-5.7,0-8.6-.3-27.7.2-28.1,27.9-27.8h0ZM469.2,565.7c0,21.4-1.2,22.4-25,22.4s-20.3-2.1-20.3-24.6.9-22.6,20.7-22.6,24.6,0,24.6,24.8h0ZM369.3,503c0-20,1-20.7,29.1-20.6,14.5,0,16.1,2.2,16,23.1q0,24.1-26.3,24.1c-18.6,0-18.9-.4-18.8-26.6h0ZM414.4,564.3c0,22.3-1.3,23.8-21,23.8s-24.2-.7-24.2-24.4.1-22.5,24.1-22.9c15.9-.2,22.7,0,21.1,23.5h0ZM369.1,620.6c.6-22.1.2-22.1,25-22.1s20.3.6,20.3,24.2-.8,22.6-23.1,23.1c-19,.5-22.9-1.8-22.2-25.2h0ZM414.4,683.5c0,19-.7,19.5-23.6,19.5s-21.6-.2-21.6-24,.5-23,25.5-23,19.7,1.2,19.7,27.5ZM381,760.9c-15.6-.5-11-14.2-11.8-23.8.7-7.5-2.9-17.6,6.1-21,10.7-4,22.6-3.3,33.8,0,2.8.8,5,4.2,5.1,7.9v8.6c2.2,34.2-6.2,29.2-33.2,28.3h0ZM469.2,737.9c0,21.3-1.7,23.4-20.2,23.4s-25.1-1-25.1-20.9,0-25.8,24.5-26.3c15.6-.3,22.3.5,20.8,23.8h0ZM423.8,681.1c0-24.1.9-25.1,22.2-25,22.2,0,23.1,1,23.1,24.2s-.8,22.8-20.5,22.8q-24.8,0-24.8-22h0ZM469.3,624.6c-.6,20.2-1.2,20.7-23.4,21.3-18.9.5-23.3-2.4-22-23.8-1-20.9,1.5-23.9,23.2-23.7,19.4,0,22.9,1.7,22.2,26.2h0ZM504.5,761.4c-25.1,0-26.2-1-26.2-21.1s.7-25.9,18.6-25.9q26.9,0,26.9,23.9c0,20.6-2.1,23.1-19.3,23.1h0ZM478.3,681.9c0-25,.8-26,21.4-26s24,1,24,23.4-.2,23.6-23.3,23.7c-21.2,0-22.1-.9-22.1-21.1h0ZM523.9,622.8c-.7,23-.2,23-26.6,23s-19.1-1.7-19.1-24.3c-.8-18.7.4-23.7,25.4-23.1,16.2.3,21.1,1.4,20.3,24.4h0ZM568.4,761.4c-18.8,0-20.3-1.8-20.3-24.5s.5-22.6,21.9-22.5q23.4,0,23.4,26.1c0,20.1-1,20.9-25,20.9h0ZM548.1,674.7c0-17.4,2.9-19.2,30-18.9,13,0,15.5,4.1,15.3,24.5q-.2,23-27.9,22.8c-17.1-.3-17.6-1-17.4-28.4h0ZM571,646.2c-20.5,0-23.2-2.8-23.2-23.6s1.1-24.1,27.2-24c17.3,0,18.4,1.5,18.4,23.7s-1.9,24-22.4,23.9h0ZM568.3,588.3c-18.5-.8-20.3-2.3-20.3-24.4s.4-22.9,22.6-22.9,22.4,0,22.9,25.1c.3,16.8-.6,23.2-25.2,22.2h0ZM627.7,482.2c19,.8,20.5,1.9,20.5,23.1s0,24.3-26.3,24.3-19.3-1.3-19.3-23.7c-1.5-19.1,2.6-24.6,25.1-23.7h0ZM623.1,588.2c-18.6,0-20.5-2.3-20.5-24.5s.6-22.7,23.2-22.7,22.4.6,22.4,23.6-.8,23.6-25.1,23.6h0ZM648.2,621.8c0,22.1-1.4,23.9-19.7,23.9s-25.9-.8-25.9-20.3.4-26.9,20.5-26.9,25,.2,25.1,23.3h0ZM627.8,761.5c-23.2.9-25.8-4.5-25.4-22.4.6-24.9,0-24.9,25-24.9s20.8,1.1,20.8,23.9-1.5,22.7-20.4,23.4h0ZM641,701.7c-10.8,2.7-22.8,3.7-33.7-1.3-3.4-1.6-4.9-5.2-4.8-9.4.2-7.4,0-14.8,0-22.2,0-3.1.8-5.6,3.1-7.7,10.3-9.6,22.8-5.2,34-3.9,9.1,1,8.6,10.6,8.5,18.1v6.2c0,7.6,2.3,17.9-7.1,20.2h0ZM682.7,761.4c-24.1,0-25.5-1.2-25.6-21.7,0-24.9.4-25.4,22.9-25.4s22.9.4,22.9,24-1.4,23-20.2,23.1h0ZM682.6,703c-23.8,0-25.4-1.1-25.4-19.3,0-26.4.8-27.5,21.1-27.6,24.1,0,24.6.4,24.7,23.9,0,21.9-.9,22.9-20.4,23h0ZM678.1,645.8c-19.8,0-21-1.6-21-26.3s1-20.9,27.5-20.8c16.9,0,18.3,1.9,18.3,23.7s-.7,23.4-24.8,23.4h0ZM657.1,561.9c0-20.5.6-21,27.2-21s18.6,1.7,18.6,23.4-.7,23.8-24.6,23.8-21.2-1.7-21.2-26.2ZM680.8,529.6c-22.8,0-23.1-.8-23.8-23.4-.7-19.7,3.5-24.8,23.7-24,21,.8,22.2,1.4,22.2,23.9s-.8,23.5-22.1,23.5h0ZM752.9,656c18,0,20.2,2.6,20.2,23.5s-.4,23.5-26.2,23.5-20.3-1-20.3-27c0-18.6,1.9-20,26.3-20ZM744.2,761.4c-14.9,0-17.5-3.4-17.5-23.7s1.5-23.3,21.6-23.4c22.3,0,24.9,1.8,24.9,17.4q0,29.5-29,29.7ZM781.1,504.5c.8-20.6,2-22.2,25.7-22.1,19.5,0,21,1.8,20.9,26.6,0,19.4-1.5,20.6-24.2,20.6-17.6,1.3-23.3-1.8-22.4-25.1ZM781.3,674.6c0-16.9,2.7-18.6,27.8-18.5,16.5,0,18.8,3,18.6,23.7q0,23.3-30.1,23.4c-14.8,0-16.5-3.1-16.3-28.6h0ZM781.3,622c0-21.1,2-23.4,20.3-23.4s26.2.6,26.2,22.4-1.6,24.8-21.4,24.8-25.1-1.2-25.1-23.8ZM804.2,761.4c-21.2,0-22.9-1.8-22.9-23.4s1-23.7,25-23.7,21.5,1.5,21.5,23.2c0,22.5-1.4,23.9-23.6,23.9ZM802.8,588.3c-20.2-.8-21.5-1.8-21.5-27.5s2.1-19.9,23.8-19.8c21.6,0,22.6,1.1,22.6,23.4,1.6,20.2-3.5,24.7-24.9,23.9h0ZM856.1,761.4c-18,0-19.5-1.9-19.4-24.2,0-22.8.2-23,26.7-22.9,17.4,0,18.9,2,18.9,23.3s-.8,23.8-26.2,23.8h0ZM882.4,682.7c-.7,18.8-1.6,20.4-20.4,20.3q-25.4,0-25.3-24c0-21.6,1.4-22.7,20.2-23.1,22.5-.6,26.4,1.8,25.5,26.8ZM852.8,646c-13.8,0-16.1-3.7-16.1-25s1.5-22.4,18.1-22.5c24.2,0,27.6,2.1,27.7,17.1.2,29.6-.8,30.6-29.7,30.4Z"/>
</svg>
