<?xml version="1.0" encoding="UTF-8"?>
<svg id="Ebene_1" xmlns="http://www.w3.org/2000/svg" version="1.1" viewBox="0 0 1000 1000">
  <!-- Generator: Adobe Illustrator 29.0.1, SVG Export Plug-In . SVG Version: 2.1.0 Build 192)  -->
  <path fill="currentColor" d="M688.2,325.9c-4.6-19.8-20.9-28.1-46.9-22.7-79.7,16.6-159.3,33.8-239,50.7-22.3,4.7-44.9,8.7-67,14.3-18.1,4.6-27.4,19.2-24.2,36.2,3.2,16.9,14.4,25.9,31.5,25.1,9-.4,14.3,2.1,16.4,10.6,2,8.3,9.2,17.2-3.7,23.7-4.4,2.2-6.9,7.4-6.6,12.6.5,9.2-2.8,12.8-12.6,13.3-12.2.6-18.9,9.3-19.6,20.9-4.2,69,5.3,133.3,59.9,183.4,17.9,16.5,32.6,35.7,39,59.9,3,10.9,9.5,14.4,20.4,14.3,41.4-.4,82.9-.4,124.4,0,10.8,0,16.9-3.2,20-14.4,5.4-19.3,15.8-37,30.7-50.1,58.6-51.3,73.6-117.5,68.4-191.3-.7-9.4-3.2-19.2-12.3-20.6-13.6-2.1-15-12.6-21.9-20.6-17.9-20.7-7.6-36,3.8-52.4,3.1-4.4,5.5-8.1,7.4-11.4,17.5-27.8,22.6-53.7,22.6-53.7,8.5-7.1,11.9-16.6,9.3-27.8h0ZM457.5,489.1c-8.6.1-14.3-1.2-14.4-11.6,0-4.7-1.6-11.2-6.3-12.8-16.3-5.5-14.3-20.2-18.8-32.3-5.3-13.9-.8-17.8,12.3-20.4,57.2-11.5,114.3-23.6,176.2-36.6-17.9,25.2-30.1,47.9-31.9,74.5-.4,6-3.9,8.1-9,9.9-8.2,3-13.2,9.4-12.6,18.5.7,9.5-4.1,11-12.3,10.9-27.6-.3-55.3-.4-83.2-.1ZM645.3,532.9c1.2,7.9.3,16,.3,24.1,1.1,49.9-13.9,93.2-51.6,127.7-13.3,12.3-22.8,27.4-29.1,44.5-3.9,10.7-23.2,17.5-33.3,12.3-5.4-2.7-2.1-6.3-1.2-9.2,4.6-15.1,12.5-28.8,24.2-38.9,49.3-42.7,63.2-97.8,59.3-160.2-.4-5.3-10-16.9,5.7-18.1,13.1-.9,23.5,3.3,25.7,17.8h0ZM648.7,209.4c-74.9,15.6-149.8,31.3-224.6,47-29,6-58,11.8-86.8,18.6-19,4.4-27.9,17.2-26.2,34.8,1.6,16.2,12.9,26.7,30.7,27.4,2.6-.2,6.4-.1,10-.9,103.8-21.9,207.6-43.6,311.3-65.9,19.3-4.2,28.6-19.8,24.7-37.1-4.3-18.5-19.6-28-39.1-23.9ZM336.1,182.9c-19,4.6-27.3,17.8-25,35.4,2.1,15.8,14,26.1,32.6,26.3,3.6-.4,9.2-.9,14.6-2,70-14.6,139.9-29.4,209.9-44.2,32.6-6.9,65.2-13.5,97.5-21.7,17.8-4.5,26-20.7,21.8-37.2-4.4-17.2-18-25.7-36.5-23.1-4.9.7-9.8,1.6-14.6,2.5-69.4,14.6-138.7,29.1-208,43.8-30.8,6.7-61.7,12.8-92.3,20.2h0ZM487.8,864.1c1.8-.5,3.7-.4,5.5-.6,26.3-3.6,52.5-7.4,78.9-10.7,6.2-.8,12-2.6,11.7-9.2-.4-7.6-6.7-9.6-13.6-8.9-4.3.4-8.6,1.1-12.9,1.6-25.1,3.1-50.2,6.2-75.4,9-4.5.4-11.6,2-12.1-4.7-.4-6.2,6.4-6,11.3-6.6,28.8-3.7,57.5-7.4,86.3-11.3,7.3-1,16.9-1.2,16.3-11.1-.7-11.5-10.9-7.7-17.5-7-27.7,2.7-55.2,6-82.9,9.2-5.4.6-13,3.4-14-3.9-1.1-7.7,7.7-6.3,12.5-7.4,6-1.5,12.3-1.4,18.4-2.3,6.6-.9,14.6,0,14.1-10.4-.5-9.8-8.3-7.2-13.9-7.4-10.5-.3-21,0-31.5,0s-19.8,0-29.7,0c-15.3.3-32,29.1-24.8,42.5,7.9,14.7,1.1,30.8,2.5,46,1.6,17,1.6,45.7,17.2,48.7,20.7,3.9,39.3,15.8,59,17.7,24.2,2.4,45.8-16.5,71-19.1,8-.8,14.2-11.2,13.1-22.1-.4-3.6.2-7.5,1.5-10.9,6.9-18.2,6.6-19.4-12.8-17.8-25.8,2.3-51.6,5.6-77.4,8-6.6.6-17.5,6.9-18.7-3.4-1-7.7,11.3-5.7,17.9-7.8h0ZM347.5,152.4c44-9.2,92.3-18.6,140.2-29.8,15.1-3.5,23-21,19.8-35.4-3.5-15.8-17.3-26.4-34.1-24.7-12.2,1.3-24.2,4.4-36.2,6.8-33.2,6.7-66.4,12.9-99.5,20-19.7,4.3-29.1,18.1-26.6,36,2.2,16.3,15.5,27.5,36.4,27.1h0Z"/>
</svg>
