<?xml version="1.0" encoding="UTF-8"?>
<svg id="Ebene_1" xmlns="http://www.w3.org/2000/svg" version="1.1" viewBox="0 0 1000 1000">
  <!-- Generator: Adobe Illustrator 29.0.1, SVG Export Plug-In . SVG Version: 2.1.0 Build 192)  -->
  <path fill="currentColor" d="M362.7,447.3c6.1,11.4,13.3,22.6,21.8,32.3,38.9,44.6,87.3,66.2,146.5,53,60.6-13.5,96.5-55.4,118.8-111,2.6-6.6,2.5-14.4,9.9-19,43.8-27.7,41.6-72.5,42.4-116,0-5.3-2.8-9.1-8.3-8.6-13.6,1.3-12.9-7-13.8-16.8-5.7-61.6-31.3-112.8-81.4-150.4-11.5-8.6-25.9-13.5-30.2-29.8-1.2-4.6-6.5-9.2-14.6-10.1-3.1,33.9-6.3,67.6-9.2,101.3-.9,10.8-2,21.9-16.3,20.7-14-1.1-11.6-13-11.4-22.4.8-30,.9-60.1,3.2-90.1,1.9-24.2-14.8-16.2-26.6-17.8-16.6-2.2-12.9,8.9-12.6,18.3,1,31.8,1.8,63.5,2.6,95.1.2,6.3,0,12.9-7.2,15.8-5.7,2.4-11.2,1.6-15.5-3.2-4-4.5-4.8-10.1-5.3-15.8-2.3-29.3-4.7-58.7-7.3-88-.4-4.8,1.5-12.2-4-13.5-6-1.4-9.1,5.4-12.5,9.9-4.7,6-4.9,14.5-12.9,19.2-59.9,34.9-89.6,89.1-98.3,156.3-1.4,10.7,2.1,23.8-16.3,21.7-3.4-.4-5.4,3.8-5.6,7.4-1.7,36.1-2.4,74.4,24.2,100.7,18.9,18.5,28.4,39.5,39.9,60.8h0ZM551.1,289c6.5-49.7,12.8-99.4,19.8-153.7,47.3,36.3,71.7,80.2,72.9,136.5.2,7.4-3.9,9.7-9.6,11.6-23.8,7.7-48.4,10.9-73.1,14.1-6.7.9-11.2-.1-10-8.5h0ZM357,263.4c4.7-48,24.1-88.7,62.1-119.6,5.1-4.2,11-10.8,12.8,3.2,5.3,44.9,10.9,89.8,17.2,134.5,1.9,13.8-1.7,18.4-15.8,15.5-20.5-4-41.2-6.1-61.4-12-12.2-3.4-17.6-9-14.9-21.6h0ZM343.5,340.5c3.9-11.2,17.9-6.8,25-3.8,76.4,33.6,154.7,25.1,233.4,12.7,8.4-1.3,16.5-4,23.3-9.5,2.1-1.8,4.8-3.7,7.4-3.9,9.5-1,21.1-6.2,26.5,5.8,4.4,9.7-6.1,22.9-19.3,24.6-15.8,1.9-17.4,14.7-20.7,25.6-6.9,22.4-16.3,43.5-31.3,61.6-24.3,29.3-51.5,42.9-96.1,45.2-30-3.1-59-19.6-81.4-48.2-13.8-17.7-23.4-37.6-28.5-59.2-3.4-14.2-8.6-23.2-24.7-25.5-13.4-2-17-15.7-13.6-25.4h0ZM323.8,714.8c1.2.2,3.7-1.6,3.9-2.7,2.5-12.3,1.8-24.8.6-37.1-.8-8.6-8.6-5.2-13.7-6-6.9-1.1-5.2-6.5-5.3-10.6-.2-15.8-.1-31.8-.1-47.6s-.1-32.9,0-49.3c.1-6.8-1.6-9.4-8.8-6.1-34.9,15.3-70.5,29.3-78.3,73.7-1.7,9.3-6.8,17.9-10.3,26.9-33.7,87.5-66.1,175.6-96.7,264.3-4.8,13.9-1.3,16.3,11.7,15.8,23.2-.8,46.5-.8,69.7,0,11.3.4,16.9-3.4,21.4-13.9,26.3-61.3,53.5-122.3,80.7-183.2,5.2-11.1,6.6-26.7,25.2-24.2h0ZM884.3,920.2c-30.6-88.7-62.9-176.8-96.7-264.3-3.5-9-8.7-17.6-10.3-26.9-7.8-44.4-43.5-58.5-78.3-73.7-7.3-3.2-8.9-.7-8.8,6.1.2,16.5,0,32.8,0,49.3h0c0,15.8,0,31.8,0,47.6,0,4.1,1.7,9.5-5.3,10.6-5,.9-12.8-2.6-13.7,6-1.1,12.3-1.9,24.9.6,37.1.3,1.1,2.7,2.9,3.9,2.7,18.6-2.5,20,13.1,25,24.2,27.2,60.9,54.3,121.8,80.7,183.2,4.6,10.6,10.2,14.4,21.4,13.9,23.2-.8,46.5-.8,69.7,0,13.3.5,16.8-1.8,11.9-15.8h0ZM647.2,891.5c2.6-16.7-4-20.6-20-20.5-74.7.8-149.4.3-224,.5-15.8,0-36.2-6.8-46,2.7-10.5,10.2-2.1,31.1-3.4,47.2-1,10.9,2,14.5,13.8,14.3,44.1-.8,88.3-.4,132.4-.4h0c17,0,34-.2,50.9,0,17,0,34,.9,50.9.3,14.5-.4,32.8,6.5,42.4-3.2,8.7-8.8.9-27,3-40.8h0ZM386.6,770.4c-.6-19.3-17.2-35.2-36.5-34.9-19.9.3-36.8,17.6-36.2,37,.6,19.5,18.4,36,38.2,35.2,18.3-.7,35.1-18.9,34.5-37.3ZM650.8,735.5c-20-.2-35.8,15.2-35.9,35.2-.2,20.8,15.9,37.4,36.2,37.1,18.6-.2,35.5-17.5,35.5-36.4s-16.4-35.7-35.8-35.9h0ZM641.8,577c0-9.3-.3-18.6-.4-27.8,0-4.3.5-9.5-4.5-12.3-8.8-5-31.2,1.1-37.2,10.4-22.1,34.2-44.3,68.4-65.9,102.8-5.3,8.4-11,13.4-21.7,11.9-6.7-1-13.7-1.1-20.3,0-13.1,2-20.1-3.9-26.9-14.9-20.8-34.2-43.4-67.6-64.6-101.6-2.5-4-5.3-6.5-8.3-8.1-8.2-4.2-18-1.1-26.6-.3-4.7.4-6.1,3-6.3,6.2l-5.3,147.7c-.3,3.4-.4,6.7-.5,10.2,0,.8,0,1.4.1,2.1v1.9c-.1,0,0,0,0,0,.8,8.1,4.7,10.5,14.3,10.4,44.2-.5,88.3-.2,132.5-.3,44.2,0,88.3-.3,132.5.2,10.6,0,14.3-2.3,14.4-14.1,0-2.1,0-4.3,0-6.4h0l-5.3-118h0Z"/>
</svg>
