<?xml version="1.0" encoding="UTF-8"?>
<svg id="Ebene_1" xmlns="http://www.w3.org/2000/svg" version="1.1" viewBox="0 0 1000 1000">
  <!-- Generator: Adobe Illustrator 29.0.1, SVG Export Plug-In . SVG Version: 2.1.0 Build 192)  -->
  <path fill="currentColor" d="M412.8,576.3c-24.3-24.3-48.5-48.6-72.8-72.7-16.3-16.2-35.6-17.7-49.5-4-14.2,14-12.7,34.3,3.7,50.8l145.5,145.5c20.8,20.8,48.7,17.9,58-6.2,5.7-14.6,1.3-27.1-9.3-37.7-25.1-25.3-50.4-50.5-75.6-75.7h0ZM974,308.2L682.7,16.9c-21.9-21.9-57.4-21.9-79.3,0L140.2,480.1c-82,82-82,214.8,0,296.8l73.8,73.8c82,82,214.8,82,296.8,0l463.2-463.2c21.8-21.9,21.8-57.4,0-79.3h0ZM586.4,709.3l-76.3,76.3c-82,82-214.8,82-296.8,0l-8-8c-82-82-82-214.8,0-296.8l76.3-76.3c15.9-15.9,41.8-15.9,57.7,0l247.1,247.1c15.9,15.9,15.9,41.7,0,57.7ZM317,953.3H46.7c-12.8,0-23.1,10.3-23.1,23.1s10.3,23.1,23.1,23.1h270.3c12.8,0,23.1-10.3,23.1-23.1s-10.3-23.1-23.1-23.1Z"/>
</svg>
