<?xml version="1.0" encoding="utf-8"?>
<!-- Generator: $$$/GeneralStr/196=Adobe Illustrator 27.6.0, SVG Export Plug-In . SVG Version: 6.00 Build 0)  -->
<svg version="1.1" id="Ebene_1" xmlns="http://www.w3.org/2000/svg" xmlns:xlink="http://www.w3.org/1999/xlink" x="0px" y="0px"
	 viewBox="0 0 1000 1000" style="enable-background:new 0 0 1000 1000;" xml:space="preserve">
<path d="M854.8,830.9c-6.6-23.2-15.1-45.8-25.3-67.7c-27.5,9.4-52.2,16.1-74.2,20s-47.5,5.9-76.6,5.9c-130,0-207.8-61.4-233.9-184
	h236.1l41.9-88.4H435.3c-0.1-5-0.4-9.8-0.4-15c0-11.2,0.4-22,0.9-32.6h287.1l45-88.4H448.6c10.1-39,25.6-71.7,46.9-97.6
	c40.4-49.1,98.4-73.6,173.7-73.6c29,0,54.2,1.9,75.3,5.9c21.2,3.9,45.5,10.6,73,20c9.5-22.8,18-45.3,25.9-67.7s12.5-45.3,14.2-68.9
	C820.7,83.9,786.4,74,754.5,69.3c-31.7-4.6-66.4-7-104.1-7c-63.6,0-120.3,11-170.2,33s-91.9,52.6-126,91.9s-60.3,85.8-78.3,139.6
	c-5.9,17.4-10.4,35.5-14.4,54h-85.8L132,469.2h118c-0.5,10.8-1.2,21.5-1.2,32.5c0,5.1,0.4,10,0.5,15H171l-40.7,88.4h127.4
	c4.2,24.4,9.7,48.2,17.1,71c17.2,53.4,43,99.5,77.2,138.3c34.1,38.9,76.3,69.1,126.6,90.6c50.2,21.6,108.8,32.4,175.4,32.4
	c37.7,0,72.8-2.4,105.4-7.1c32.6-4.7,69.3-14.5,110.1-29.4C866.4,877.5,861.5,854.1,854.8,830.9L854.8,830.9z"/>
</svg>
