<?xml version="1.0" encoding="UTF-8"?>
<svg id="Ebene_1" xmlns="http://www.w3.org/2000/svg" version="1.1" viewBox="0 0 1000 1000">
  <!-- Generator: Adobe Illustrator 29.0.1, SVG Export Plug-In . SVG Version: 2.1.0 Build 192)  -->
  <path fill="currentColor" d="M386.7,599c-40.4,0-73,32.8-73,73.1s32.6,73,73,73,73-32.8,73-73c.1-40.4-32.6-73.1-73-73.1ZM386.7,708.7c-20.2,0-36.5-16.4-36.5-36.5s16.3-36.5,36.5-36.5,36.5,16.3,36.5,36.5-16.3,36.5-36.5,36.5ZM937.5,545v78c0,19.5-15.8,35.2-35.2,35.2h-37.7c-6.8-46.7-47.1-82.7-95.7-82.7s-88.8,35.9-95.6,82.7h-191c-6.8-46.7-47.1-82.7-95.6-82.7s-88.8,35.9-95.6,82.7h-47.1c-19.5,0-35.2-15.8-35.2-35.2v-78h728.7ZM769,599c-40.4,0-73.1,32.8-73.1,73.1s32.8,73,73.1,73,73-32.8,73-73-32.7-73.1-73-73.1ZM769,708.7c-20.2,0-36.5-16.4-36.5-36.5s16.3-36.5,36.5-36.5,36.5,16.3,36.5,36.5-16.4,36.5-36.5,36.5ZM923.6,466.4l-138.4-136.9c-8.8-8.7-20.7-13.6-33-13.6h-69.8v-26.2c0-19.5-15.7-35.2-35.2-35.2H243.9c-19.4,0-35.2,15.7-35.2,35.2v5.5l-142.9,16.5,253.3,33-256.6,25.5,255.6,36.3-255.6,22.2,146.2,27.6v69.2h728.7v-25.7c0-12.6-5-24.5-13.8-33.4h0ZM863.3,471h-134c-3,0-5.5-2.5-5.5-5.5v-103.4c0-3,2.5-5.5,5.5-5.5h25.5c1.4,0,2.8.6,3.9,1.5l108.3,103.4c3.7,3.4,1.2,9.5-3.7,9.5Z"/>
</svg>
