<?xml version="1.0" encoding="utf-8"?>
<!-- Generator: $$$/GeneralStr/196=Adobe Illustrator 27.6.0, SVG Export Plug-In . SVG Version: 6.00 Build 0)  -->
<svg version="1.1" id="Ebene_1" xmlns="http://www.w3.org/2000/svg" xmlns:xlink="http://www.w3.org/1999/xlink" x="0px" y="0px"
	 viewBox="0 0 1000 1000" style="enable-background:new 0 0 1000 1000;" xml:space="preserve">
<path d="M842.1,0H176.3c-44,0-79.8,35.8-79.8,79.8v840.4c0,44,35.8,79.8,79.8,79.8h646.9c44,0,79.8-35.8,79.8-79.8V61
	C903,27.2,875.7,0,842.1,0z M834.6,556v364.2c0,6.3-5.1,11.4-11.4,11.4H176.3c-6.3,0-11.4-5.1-11.4-11.4V79.8
	c0-6.3,5.1-11.4,11.4-11.4h489.1c13.5,0,35.5,10,44.2,20.2l16.1,18.4c10.3,11.9,20.4,23.6,30.7,35.4c13.7,15.8,27.4,31.8,40.9,47.6
	l17.9,20.9c10,11.5,19.4,36.9,19.4,52.1V556z M741,555.4c-10.1-9.9-32.4-15.2-66.2-15.7h-3.7c-21.9,0-47.6,2-74.6,5.7
	c-12.6-7.3-25.6-15.2-35.9-24.8c-27.7-25.9-50.9-61.8-65.3-101.3c0.8-3.4,1.7-6.6,2.4-10c4.3-19.1,7.2-79.3,7.3-81.8l0.2-4.1
	c1.5-6.1,5.3-22.9,4.1-34.2c-0.3-2.3-0.9-5.3-2-8.5l-3-6.8c-4.8-9.1-13.3-17.8-26.5-17.8l-6.9-0.1c-15,0-27.7,8.1-30.9,19.7
	c-9.6,35.3,0.2,88,18,156.2l-4.4,10.7c-12.9,31.4-29,63-43.2,90.8l-1.4,2.8c-14.8,29-28.2,53.6-40.4,74.4l-12.3,6.5
	c0,0-22.6,11.9-27.7,15c-43.3,25.9-72,55.3-76.8,78.8c-2,10,1,18.6,8.2,22.7l12,6c5.5,2.7,11.2,4.1,17.1,4.1
	c31.1,0,66.9-38.3,116.1-123.9c56.4-18.3,120.4-33.5,176.5-41.9c43.1,24.2,96,41,129.6,41c6.1,0,11.3-0.6,15.5-1.7
	c5.8-1.5,12.1-5.8,16.1-11.2c2.2-3.6,4.4-12.5,5.5-17.5l-0.3-22.3C746.5,562.1,744.2,558.5,741,555.4L741,555.4z M284.7,717
	c7.1-15.7,28.7-44.2,58.9-69c1.1-0.8,2.9-2.5,5-4.4C319.2,689.1,298.8,709.4,284.7,717z M475.7,279.6c0.2-1.6,0.5-3,0.9-4.2
	c2.2,2.5,5.6,7.5,9.9,16.9c4.5,10,4.5,22.2,4.5,31.7v3c-1.5,5.8-6.9,27.2-10.5,41c-4.6-21.6-7.2-42.4-7.2-59.5
	C473.2,302.6,473.8,290,475.7,279.6L475.7,279.6z M421,588.9c6.4-11.5,13-23.5,19.7-36.2c17.1-32.4,28.2-58.1,36.5-79.3
	c16.5,29.4,36.9,54.5,60.8,74.8c2.4,2,4.9,4.1,7.6,6.1C498.4,563.8,457.3,575.2,421,588.9L421,588.9z M730.2,588.7
	c-1.1,0.5-3.8,1.4-9.5,1.4c-16.6,0-44.3-7.5-73.4-19.5c31.2-2.1,54.9-0.9,68.2,3.4c17.1,5.4,19.3,10,19.2,9.2l0.7,0.2
	C733.8,585.5,731.3,588.2,730.2,588.7L730.2,588.7z"/>
</svg>
