<?xml version="1.0" encoding="utf-8"?>
<!-- Generator: $$$/GeneralStr/196=Adobe Illustrator 27.6.0, SVG Export Plug-In . SVG Version: 6.00 Build 0)  -->
<svg version="1.1" id="Ebene_1" xmlns="http://www.w3.org/2000/svg" xmlns:xlink="http://www.w3.org/1999/xlink" x="0px" y="0px"
	 viewBox="0 0 1000 1000" style="enable-background:new 0 0 1000 1000;" xml:space="preserve">
<path d="M523.1,291.1h191.4v46.3H523.1V291.1z M523.1,367.4h191.4v46.3H523.1V367.4z M523.1,444.2h191.4v46.3H523.1V444.2z
	 M284.9,291.1h200v199.5h-200V291.1z M284.9,519.2h429.6v46.3H284.9L284.9,519.2L284.9,519.2z M284.9,591.5v46.3h429.6v-47.5H284.9
	L284.9,591.5L284.9,591.5z M284.9,662.6h429.6v46.3H284.9L284.9,662.6L284.9,662.6z M842.1,0H176.3c-44,0-79.8,35.8-79.8,79.8v840.4
	c0,44,35.8,79.8,79.8,79.8h646.9c44,0,79.8-35.8,79.8-79.8V61C903,27.2,875.7,0,842.1,0z M834.6,556v364.2c0,6.3-5.1,11.4-11.4,11.4
	H176.3c-6.3,0-11.4-5.1-11.4-11.4V79.8c0-6.3,5.1-11.4,11.4-11.4h489.1c13.5,0,35.5,10,44.2,20.2l16.1,18.4
	c10.3,11.9,20.4,23.6,30.7,35.4c13.7,15.8,27.4,31.8,40.9,47.6l17.9,20.9c10,11.5,19.4,36.9,19.4,52.1V556z"/>
</svg>
