<?xml version="1.0" encoding="utf-8"?>
<!-- Generator: $$$/GeneralStr/196=Adobe Illustrator 27.6.0, SVG Export Plug-In . SVG Version: 6.00 Build 0)  -->
<svg version="1.1" id="Ebene_1" xmlns="http://www.w3.org/2000/svg" xmlns:xlink="http://www.w3.org/1999/xlink" x="0px" y="0px"
	 viewBox="0 0 1000 1000" style="enable-background:new 0 0 1000 1000;" xml:space="preserve">
<path d="M611.5,540.2c19.1,0,33.8-14.7,34.3-33.3c0-19.1-14.7-34.8-33.8-35.3c-19.1,0-34.8,15.7-34.8,35.3
	C577.7,525,592.9,539.7,611.5,540.2z M610.8,281.1L239.4,436.7L358.6,719H760V412.8h-94L610.8,281.1L610.8,281.1z M358.6,671.2
	l-95.3-225.8l336.8-141.1l45.8,108.5H358.6V671.2z M741.9,687.5l-60.8-77.1c-5.6-6.9-15.1-6.9-20.1,0.6c-3.1,4.4-5.6,8.8-8.8,12.5
	c-5,7.5-14.4,8.2-20.7,1.3c-12.5-15.1-25.1-29.5-37.6-43.9c-6.3-6.9-15.7-6.9-22,0.6l-18.8,22.6c-5.6,6.9-15.1,8.8-20.1,4.4
	c-5-4.4-11.9-4.4-15.1,0c-3.8,4.4-9.4,2.5-13.2-3.8c-2.5-3.8-5-8.2-6.9-11.9c-1.9-3.1-4.4-5-5-4.4l-0.6,1.9
	c-12.5,23.2-25.1,46.4-37.6,70.2c-1.9,3.1-3.1,3.8-6.3,3.1c-13.8-3.1-27-3.8-40.8,0c-13.2,3.1-23.8,10.7-30.7,23.8v-257h365.1
	L741.9,687.5L741.9,687.5z M842.1,0H176.3c-44,0-79.8,35.8-79.8,79.8v840.4c0,44,35.8,79.8,79.8,79.8h646.9
	c44,0,79.8-35.8,79.8-79.8V61C903,27.2,875.7,0,842.1,0z M834.6,556v364.2c0,6.3-5.1,11.4-11.4,11.4H176.3
	c-6.3,0-11.4-5.1-11.4-11.4V79.8c0-6.3,5.1-11.4,11.4-11.4h489.1c13.5,0,35.5,10,44.2,20.2l16.1,18.4c10.3,11.9,20.4,23.6,30.7,35.4
	c13.7,15.8,27.4,31.8,40.9,47.6l17.9,20.9c10,11.5,19.4,36.9,19.4,52.1V556z"/>
</svg>
