<?xml version="1.0" encoding="utf-8"?>
<!-- Generator: $$$/GeneralStr/196=Adobe Illustrator 27.6.0, SVG Export Plug-In . SVG Version: 6.00 Build 0)  -->
<svg version="1.1" id="Ebene_1" xmlns="http://www.w3.org/2000/svg" xmlns:xlink="http://www.w3.org/1999/xlink" x="0px" y="0px"
	 viewBox="0 0 1000 1000" style="enable-background:new 0 0 1000 1000;" xml:space="preserve">
<path d="M623.2,277.8h-95.4v22h-22.3v22.3h22.3v22h-22.3v22.3h22.3v22h-22.3v22.1h22.3v22h-22.3V455h22.3v22h-22.3v22.3h22.3v21.8
	h-22.3v44.3c24.6,6.5,44.7,28.8,44.7,55.4c0,31-24.8,55.4-55.7,55.4c-31.4,0-55.7-24.4-55.7-55.4c0-28.8,20-51.1,44.5-55.4v-22H461
	v-22.3h22.3v-21.8H461V477h22.3v-22H461v-22.5h22.3v-22.1H461v-22h22.3v-22.1H461v-22.2h22.3V322H461v-22.2h22.3v-22.1h-107
	c-55.3,0-99.8,44.3-99.8,99.3v245.8c0,54.8,44.5,99.3,99.8,99.3h247c55.1,0,99.8-44.5,99.8-99.3V377.1
	C723,322.1,678.3,277.8,623.2,277.8L623.2,277.8z M476,593.5c-1.8,1.2-3.6,2.6-5,4.1c-1.4,1.2-2.6,2.6-3.8,4.2
	c-0.2,0.2-0.4,0.6-0.4,0.8c-1.4,1.8-2.4,3.6-3.2,5.6c-1,1.8-1.6,4-2,6c-0.6,2.2-0.8,4.4-0.8,6.5c0,2.2,0.2,4.4,0.8,6.5
	c0,0.4,0.2,1,0.4,1.6c0.4,1.6,0.8,3,1.6,4.6c0.8,1.8,1.8,3.6,3.2,5.3c0,0.2,0.2,0.6,0.4,0.8c1,1.4,2.2,2.8,3.4,4
	c3.4,3.4,7.4,6.1,11.8,7.7c1.6,0.8,3.2,1.4,4.8,1.6c0.4,0.2,0.6,0.4,1,0.2c2,0.6,4.2,0.8,6.2,0.8s4.2-0.2,6.2-0.8
	c0.2,0.2,0.6,0,1-0.2c1.6-0.2,3.2-0.8,4.8-1.6c4.4-1.6,8.4-4.4,11.8-7.7c1.2-1.2,2.2-2.6,3.4-4c1.2-2,2.6-4,3.4-6.1
	c1.8-4,2.8-8.3,2.8-12.7c0-2.2-0.2-4.4-0.8-6.5c-0.4-2-1-4.2-2-6c-0.6-1.8-1.6-3.6-2.6-5.1c-0.4-0.4-0.6-0.8-0.8-1.2
	c-1.2-1.6-2.4-3-3.8-4.2c-1.6-1.6-3.2-2.9-5-4.1c-1.4-1-2.8-1.8-4.2-2.4c-1.4-0.8-3-1.4-4.6-1.8c-1.4-0.6-3-1-4.6-1.2
	s-3.4-0.4-5-0.4s-3.4,0.2-5,0.4s-3.2,0.6-4.6,1.2c-1.6,0.4-3.2,1-4.6,1.8C478.8,591.7,477.2,592.5,476,593.5L476,593.5z M842.1,0
	H176.3c-44,0-79.8,35.8-79.8,79.8v840.4c0,44,35.8,79.8,79.8,79.8h646.9c44,0,79.8-35.8,79.8-79.8V61C903,27.2,875.7,0,842.1,0z
	 M834.6,556v364.2c0,6.3-5.1,11.4-11.4,11.4H176.3c-6.3,0-11.4-5.1-11.4-11.4V79.8c0-6.3,5.1-11.4,11.4-11.4h489.1
	c13.5,0,35.5,10,44.2,20.2l16.1,18.4c10.3,11.9,20.4,23.6,30.7,35.4c13.7,15.8,27.4,31.8,40.9,47.6l17.9,20.9
	c10,11.5,19.4,36.9,19.4,52.1V556z"/>
</svg>
