<?xml version="1.0" encoding="utf-8"?>
<!-- Generator: $$$/GeneralStr/196=Adobe Illustrator 27.6.0, SVG Export Plug-In . SVG Version: 6.00 Build 0)  -->
<svg version="1.1" id="Ebene_1" xmlns="http://www.w3.org/2000/svg" xmlns:xlink="http://www.w3.org/1999/xlink" x="0px" y="0px"
	 viewBox="0 0 1000 1000" style="enable-background:new 0 0 1000 1000;" xml:space="preserve">
<path d="M574.5,443.8c43.3-0.4,76.1-33.2,76.4-75c0.3-44-34-79-76.5-79.3c-43.3-0.3-79,36.1-77.8,80.1
	C497.8,411.5,532,444.2,574.5,443.8L574.5,443.8z M642.4,548.5c-9.9-12.8-25.8-12.1-35,0.9c-5.1,8.3-10.1,15.5-15.2,22.8
	c-9.1,13.5-25.1,14.6-36,2.4c-23.4-26.5-45.3-51.5-67.6-76.5c-10.9-12.2-28.4-12.1-38.6,0.4c-11.2,14-21.8,27-32.5,39.9
	c-10.7,13-26.6,16.7-35.4,9.1c-9.3-7.6-21.7-7.5-27.3,0.3c-6.6,7.8-16.4,4.3-23.7-7c-3.7-6.6-8.4-13.8-12.5-19.9
	c-3.2-6.7-6.8-9.7-8.3-8.1c-0.5,1.5-1.5,2.1-1.5,3.1c-13.6,26.4-27.2,52.2-40.9,78.1c-8.1,15.5-16.6,30.8-24.2,46.5
	c-2.7,5.6-11.3,55.1,5.3,68.9c60.7,0.9,133.2,0.7,203.1,1.1h0.5c150.7,0.1,291.6,0.2,291.6,0.2c15.9-0.2,21-11,10.6-23.2
	C716.9,639.8,681.5,595.4,642.4,548.5L642.4,548.5z M842.1,0H176.3c-44,0-79.8,35.8-79.8,79.8v840.4c0,44,35.8,79.8,79.8,79.8h646.9
	c44,0,79.8-35.8,79.8-79.8V61C903,27.2,875.7,0,842.1,0z M834.6,556v364.2c0,6.3-5.1,11.4-11.4,11.4H176.3
	c-6.3,0-11.4-5.1-11.4-11.4V79.8c0-6.3,5.1-11.4,11.4-11.4h489.1c13.5,0,35.5,10,44.2,20.2l16.1,18.4c10.3,11.9,20.4,23.6,30.7,35.4
	c13.7,15.8,27.4,31.8,40.9,47.6l17.9,20.9c10,11.5,19.4,36.9,19.4,52.1L834.6,556L834.6,556z"/>
</svg>
