<svg xmlns="http://www.w3.org/2000/svg" width="44.632" height="44.626" viewBox="0 0 44.632 44.626">
  <g transform="translate(-2971.779 -1563.946)">
    <path d="M1300.763,1213.9a.892.892,0,0,0-.764-.765,59.856,59.856,0,0,0-12.9-.013c-6.613.691-15.832,2.851-22.191,9.21a18.2,18.2,0,0,0-5.754,14.2,19.145,19.145,0,0,0,4.985,11.958l-7.4,7.4a.891.891,0,0,0,1.26,1.26l7.4-7.4a19.141,19.141,0,0,0,11.963,4.99q.492.025.98.025a18.269,18.269,0,0,0,13.225-5.778c6.36-6.36,8.519-15.578,9.21-22.191a59.646,59.646,0,0,0-.015-12.9m-10.455,33.832a16.5,16.5,0,0,1-12.855,5.233,17.373,17.373,0,0,1-10.792-4.472l6.687-6.686,9.747,3.069a.9.9,0,0,0,.268.041.891.891,0,0,0,.268-1.741l-8.862-2.79,7.3-7.3,7.207,2.27a.892.892,0,1,0,.536-1.7l-6.321-1.991,6.1-6.1a.891.891,0,0,0-1.26-1.26l-6.023,6.023-1.782-5.661a.892.892,0,0,0-1.7.536l2.061,6.547-7.3,7.3-2.72-8.639a.892.892,0,1,0-1.7.535l3,9.525-6.762,6.762a17.378,17.378,0,0,1-4.467-10.787,16.48,16.48,0,0,1,5.233-12.854c7.724-7.724,20.135-9.005,27.514-9.005,2.5,0,4.424.148,5.391.24.37,3.821,1.586,22.554-8.765,32.905" transform="translate(1715.299 351.158)" fill="currentColor"/>
  </g>
</svg>
