<?xml version="1.0" encoding="UTF-8"?>
<svg id="Ebene_1" xmlns="http://www.w3.org/2000/svg" version="1.1" viewBox="0 0 1000 1000">
  <!-- Generator: Adobe Illustrator 29.0.1, SVG Export Plug-In . SVG Version: 2.1.0 Build 192)  -->
  <path fill="currentColor" d="M722.6,318.6h-14.1c-5.1-18.2-12.9-38.7-25.7-60.3-42.5-70.5-118.4-109.2-212.3-109.2s-171.1,38.7-212.3,109.2c-12.9,22.7-20.6,45.5-25.7,63.7-100.5,16-170,86.5-170,178.6s63.1,155.8,158.3,176.3c27,5.7,55.3-9.1,61.8-34.1,6.4-23.9-10.3-48.9-38.6-54.6-47.6-10.2-78.5-44.4-78.5-87.6s45-91,111.9-91,50.2-19.3,51.5-44.4c0-12.5,7.7-126.3,140.3-126.3s96.5,19.3,121,58c20.6,33,23.2,68.3,23.2,68.3,1.3,23.9,24.5,43.2,51.5,43.2h57.9c66.9,0,111.9,36.4,111.9,91s-34.7,91-111.9,91-51.5,20.5-51.5,45.5,23.2,45.5,51.5,45.5c122.2,0,214.9-78.5,214.9-182-.2-103.4-90.3-180.8-215.1-180.8h0ZM612.2,498.4c-3.4-5.7-9.1-9.1-14.8-9.1h-125.1c-6.8,0-13.7,4.5-15.9,11.4l-69.4,179.7c-2.3,5.7-1.1,11.4,2.3,15.9s8,6.8,13.7,6.8h36.4l-47.8,125.1c-3.4,8,0,15.9,6.8,20.5,2.3,1.1,5.7,2.3,9.1,2.3s9.1-2.3,12.5-5.7l188.8-213.9c4.6-4.5,5.7-12.5,2.3-18.2s-6.8-9.1-12.5-9.1h-50.1l62.6-87.6c3.4-5.6,4.5-12.4,1.1-18.1h0Z"/>
</svg>
