<?xml version="1.0" encoding="utf-8"?>
<!-- Generator: $$$/GeneralStr/196=Adobe Illustrator 27.6.0, SVG Export Plug-In . SVG Version: 6.00 Build 0)  -->
<svg version="1.1" id="Ebene_1" xmlns="http://www.w3.org/2000/svg" xmlns:xlink="http://www.w3.org/1999/xlink" x="0px" y="0px"
	 viewBox="0 0 1000 1000" style="enable-background:new 0 0 1000 1000;" xml:space="preserve">
<path d="M894.4,195.8c-28.3-30.2-57.4-59.6-87.6-87.9C742.8,48,647,47.1,583,106.8c-45.7,42.7-88.9,88-133.2,132.1
	c-0.3,0.3-0.4,0.7-0.6,1.2c-0.2,0.7,0.1,1.5,0.7,1.7c0.4,0.2,0.7,0.3,1,0.3c1.6,0.1,3.3,0.1,4.9,0.1c39.2-0.5,76.1,8,110.4,27.1
	c5.5,3.1,8.1,0.8,11.5-2.7c25.3-25.4,50.5-50.9,76-76c24.1-23.8,57-23.7,80.9,0.1c25,24.8,49.9,49.7,74.6,74.6
	c23.4,23.6,23.8,56.6,0.3,80.2C732.7,423,655.5,500.1,578,577c-6.6,6.6-15.9,11.8-24.8,14.5c-22.1,6.8-40.7-1-56.6-17
	c-20.6-20.8-41.3-41.4-61.6-61.7c-6.4-6.4-16.7-6.4-23.1,0l-54,54.1c-6.4,6.4-6.4,16.7-0.1,23.2c22,22.5,44.1,45.5,67,67.7
	c63.5,61.6,165.3,61.2,227.7,0.4c25.4-24.8,50.6-49.8,75.6-75c55.9-56.1,112.6-111.3,167.1-168.7C951.7,354.8,950.8,256,894.4,195.8
	L894.4,195.8z M548.2,757.9c-0.9-0.1-1.7-0.1-2.6-0.1c-39.8,0.7-77.5-7.8-112.3-27.2c-5.7-3.2-8.2-0.4-11.5,2.9
	c-25.1,25.1-50.1,50.4-75.3,75.3c-25,24.7-57.4,24.5-82.3-0.3c-23.3-23.2-46.5-46.5-69.8-69.8c-29-29-29.1-59.6-0.1-88.6
	l222.5-222.5c2.3-2.3,4.6-4.6,7-6.8c17.6-15.9,42-19.5,62.5-8.2c7,3.8,13.2,9.5,18.9,15.2c20.2,19.8,40.1,39.9,59.8,59.6
	c6.4,6.4,16.7,6.4,23.1,0c18.3-18.3,36.5-36.4,55.3-55.1c6.4-6.4,6.3-16.6-0.1-23c-25.8-25.7-51.1-52.2-78.8-75.9
	c-60.4-51.9-154.5-49.6-212.7,4.8C310.4,377,271,417.7,230.9,457.8c-42.1,42.2-85,83.6-125.7,127.2c-57.5,61.5-56.7,158.4,0.9,220.1
	c28,30,57.1,59,87,87.1c63.3,59.5,159.5,60.7,223,1.5c45.9-42.9,89.4-88.4,134-132.7c0.3-0.3,0.4-0.8,0.5-1.4
	C550.6,758.8,549.6,758,548.2,757.9L548.2,757.9z"/>
</svg>
