<?xml version="1.0" encoding="UTF-8"?>
<svg id="Ebene_1" xmlns="http://www.w3.org/2000/svg" version="1.1" viewBox="0 0 1000 1000">
  <!-- Generator: Adobe Illustrator 29.0.1, SVG Export Plug-In . SVG Version: 2.1.0 Build 192)  -->
  <path fill="currentColor" d="M118.8,648.9c0,16.4,7.3,23.7,23.9,23.8h74.1c3.5,0,7.4.3,10.4,1.8,15.2,8,22.8,32.7,15.8,48.6-34.4,77.6-16.3,147.3,31.8,214.4,48.6-66.1,65.1-135.4,33.4-212.3-2.6-6.4-4-14-3.6-20.9,1.1-19.2,15-31.5,33.9-31.5s47.2,0,70.9,0c11.9,0,21.2-7,21.5-17.1.6-15.1.2-30.3.2-46H118.8c0,13.9,0,26.6,0,39.3h0ZM401.8,465.2h-1.6c-1.1-16.5-2.3-32.9-3.5-49.7-9.2,0-16.8.5-24.3-.2-8-.7-10.5,2.4-11.6,10.1-1.9,13.1-5.4,26-8.1,38.9l-1.6-.4c-1.7-15.8-3.6-31.6-5.4-47.9h-34.2c-2.6,16.1-5.2,31.8-7.6,47.3-3.7-13.3-5.6-26.8-8.1-40.2-.5-2.8-3.3-7.3-5.3-7.3-11.5-.7-23-.3-34.6-.3-2.8,16.7-5.4,32.2-8,47.7l-1.6-.3c-2.5-15.6-5.1-31.2-7.6-46.9h-34.1c-1.8,16.3-3.7,32.3-5.5,48.2-2.9-6.3-4.5-12.8-5.7-19.4-5.7-31.2-5.6-31.2-37.1-29.1-.7,0-1.3.5-3,1.1-1.1,15.7-2.3,31.9-3.4,48.2h-1.7c-4.1-16.3-8.3-32.6-12.5-49h-24.5c5,39.2,9.9,77.8,14.8,116.5h298.3c4.9-39,9.8-77.5,14.7-116.6h-24.3c-4.6,16.7-8.8,33-12.9,49.3h0ZM126.1,544.6v47.1h297.3v-47.1H126.1ZM829.4,166.7c-.6-5.2-2.5-10.7-1.8-16,5.6-49-23.8-82.6-84.3-82.2-103.8.8-207.5-3.5-311.4-4.8-82.9-1-165.9-1.5-248.7-.8-46.3.5-71.3,27.2-71.7,72.8-.3,29-.6,57.9,0,86.9.8,36,19.9,59.3,54.9,66.2,12.5,2.4,25.6,2.6,38.5,2.4,177.9-2.3,355.7-4.6,533.5-7.2,69.6-1,85.3-16.4,89.2-86.3,0-2.4,1-4.6,1.8-8,29.7-1.6,38.2,5.8,38.8,33.2.5,29.7.2,59.6,0,89.4,0,32.6-6.6,41.2-38.3,47.8-82.5,17-165,34-247.6,50.3-51.5,10.1-68.2,28.8-70.5,80.9-.3,6.4-2.7,16.5-6.7,18.1-27.8,10.7-27.1,33.5-21.2,54.4,10.3,36.4,2.3,71-.8,107-6.5,76.8-7.8,154.1-8.5,231.2-.1,8.4,7.6,20.3,26.5,24.6,10.9,2.4,23.8,2,35.8,1,20.6-1.7,32.4-12.5,31.3-34.6-.8-16.9-1.2-33.8-1.8-50.7-1.8-51.4-1-103.2-6.4-154.2-4.8-46.2-16.1-91.4-.8-137.9,5.2-15.7-2.4-29.7-18-38.2-4.1-2.3-8.5-7.3-9.4-11.8-7.8-36.1,11.4-62.7,48-70.1,87.3-17.4,174.5-35.2,261.7-53.2,31.5-6.6,46.3-25.3,46.7-58,.3-28.2.2-56.3,0-84.5-.5-48.4-11.3-60.9-59.1-67.7h0Z"/>
</svg>
