<svg xmlns="http://www.w3.org/2000/svg" width="44.863" height="44.864" viewBox="0 0 44.863 44.864">
  <g transform="translate(-877.712 -842.725)">
    <path d="M45.677,915.553H12.294a5.747,5.747,0,0,0-5.74,5.74v33.383a5.747,5.747,0,0,0,5.74,5.74H45.677a5.747,5.747,0,0,0,5.74-5.74V921.293a5.747,5.747,0,0,0-5.74-5.74m4.262,39.123a4.267,4.267,0,0,1-4.262,4.263H12.294a4.267,4.267,0,0,1-4.262-4.263V921.293a4.267,4.267,0,0,1,4.262-4.263H45.677a4.267,4.267,0,0,1,4.262,4.263Z" transform="translate(871.158 -72.828)" fill="currentColor"/>
    <path d="M41.027,926.641a.74.74,0,0,0-.458-.159H22.35a.74.74,0,0,0-.458.159,18.772,18.772,0,0,0-6.222,14.377c0,10.33,6.038,14.138,6.294,14.294a.734.734,0,0,0,.385.109H40.57a.73.73,0,0,0,.385-.109c.257-.156,6.295-3.964,6.295-14.294a18.772,18.772,0,0,0-6.222-14.377m-.681,27.3H22.573c-.94-.661-5.426-4.273-5.426-12.926a17.78,17.78,0,0,1,5.475-13.058H40.3a17.78,17.78,0,0,1,5.475,13.058c0,8.652-4.486,12.265-5.426,12.926" transform="translate(868.683 -75.794)" fill="currentColor"/>
    <path d="M36.49,948.988H35.117a3.443,3.443,0,0,0-3.438,3.439v2.021a.739.739,0,0,0,.739.739H39.19a.739.739,0,0,0,.739-.739v-2.021a3.443,3.443,0,0,0-3.438-3.439m1.961,4.721H33.157v-1.282a1.963,1.963,0,0,1,1.961-1.961H36.49a1.963,1.963,0,0,1,1.961,1.961Z" transform="translate(864.338 -81.903)" fill="currentColor"/>
    <path d="M29.507,936.126a.739.739,0,0,0-.739.739v5.805a.739.739,0,1,0,1.478,0v-5.805a.739.739,0,0,0-.739-.739" transform="translate(865.128 -78.412)" fill="currentColor"/>
    <path d="M44.565,936.126a.739.739,0,0,0-.739.739v5.805a.739.739,0,1,0,1.478,0v-5.805a.738.738,0,0,0-.739-.739" transform="translate(861.041 -78.412)" fill="currentColor"/>
  </g>
</svg>
