<?xml version="1.0" encoding="UTF-8"?>
<svg id="Ebene_1" xmlns="http://www.w3.org/2000/svg" version="1.1" viewBox="0 0 1000 1000">
  <!-- Generator: Adobe Illustrator 29.0.1, SVG Export Plug-In . SVG Version: 2.1.0 Build 192)  -->
  <path fill="currentColor" d="M857,331.7c-22.7-41-51.5-76.9-86.6-108-10.2-9-25.6-7-33.9,3.8-13.7,18-27.3,35.7-40.7,53.3-8.2,10.8-6.3,26.4,3.6,35.7,125,117.8,116.8,305.1,10.5,414.8-109.5,112.9-291.9,119.5-405.1,14.2-62.2-57.8-95.8-129.1-96.5-213.6-.7-85.8,31.3-157.3,92.5-215.1,9.9-9.4,11.7-25,3.5-35.8-13.7-17.9-27.2-35.6-40.8-53.3-8.2-10.8-23.7-12.9-33.9-3.9-121.3,106.8-172.4,281.6-114,442.8,62.2,172,239.9,294.9,441.8,266.7,175.9-24.5,326.7-167.5,348.6-358,9.8-86.2-7-167.6-49-243.6h0ZM467.2,470h66c13.6,0,24.6-11,24.6-24.6V87c0-13.6-10.9-24.6-24.6-24.6h-66c-13.6,0-24.6,11-24.6,24.6v358.3c0,13.7,11,24.7,24.6,24.7Z"/>
</svg>
