<?xml version="1.0" encoding="utf-8"?>
<!-- Generator: $$$/GeneralStr/196=Adobe Illustrator 27.6.0, SVG Export Plug-In . SVG Version: 6.00 Build 0)  -->
<svg version="1.1" id="Ebene_1" xmlns="http://www.w3.org/2000/svg" xmlns:xlink="http://www.w3.org/1999/xlink" x="0px" y="0px"
	 viewBox="0 0 16.6 21.6" style="enable-background:new 0 0 16.6 21.6;" xml:space="preserve">
<g id="Layer_2">
	<g id="Layer_9">
		<path d="M14.9,21.6H1.8c-1,0-1.7-0.8-1.8-1.8V1.7C0,0.8,0.8,0,1.8,0h6.6v1.5H1.8c-0.1,0-0.2,0.1-0.2,0.2v18.1
			c0,0.1,0.1,0.2,0.2,0.2h13.1c0.1,0,0.2-0.1,0.2-0.2V8.3h1.5v11.5C16.6,20.8,15.9,21.6,14.9,21.6z"/>
		<path d="M15.9,9.1H9.3c-1,0-1.7-0.8-1.7-1.7V0.7c0-0.3,0.2-0.6,0.4-0.7C8.3-0.1,8.6,0,8.8,0.2l7.6,7.6c0.2,0.2,0.3,0.5,0.2,0.8
			C16.4,8.9,16.2,9.1,15.9,9.1z M9.1,2.6v4.8c0,0.1,0.1,0.2,0.2,0.2h4.8L9.1,2.6z"/>
	</g>
</g>
</svg>
