<?xml version="1.0" encoding="UTF-8"?>
<svg id="Ebene_1" xmlns="http://www.w3.org/2000/svg" version="1.1" viewBox="0 0 1000 1000">
  <!-- Generator: Adobe Illustrator 29.0.1, SVG Export Plug-In . SVG Version: 2.1.0 Build 192)  -->
  <path fill="currentColor" d="M639.1,468.8c1.6,4.5,2,9.9,9.5,9.7,53.9-1.1,107.8-1.8,161.8-2.6,4.7-.1,6.9-1.7,6.7-6.7-1.1-23.7.6-47.7-5.4-70.9-14.5-55.3-30.3-110.3-44.3-165.7-3.2-12.8-8.6-15.4-20.6-14.8-63.6,3.2-127.2,5.4-190.9,8.1h0c-66.6,2.7-133.2,5.4-199.9,8.1-3.8.2-7.6,1.1-11.2,1.9-6,1.5-9.5,5.5-10.6,11.5-1.1,6.6,1.3,12,6.7,15.3,4.2,2.6,9.3,4.2,14.2,5.3,67.8,15,135.6,30.3,203.6,44.3,19.3,3.9,30.6,13.3,36.8,31.9,13.9,41.7,28.9,83.1,43.6,124.6h0ZM821.7,909.5l-2.4-378.5c0-6.7-1.6-9.8-9.1-10-51.8-1.1-103.6-2.5-155.4-4.2-6.9-.3-10,2-10.9,8.9-3.2,25.2-6.8,50.4-10.4,75.6-10.6,74.7-21.3,149.5-31.9,224.3-4,28.5-8,57.1-11.8,85.8-.4,2.5-3.2,6.1,1.4,7.5,3.6,1.1,6.7-.2,8.7-3.7l3.7-6.7c16.7-29.5,33.5-59,50.3-88.6,23.9-42,47.7-84,72.8-128.3,2.7,7.1,4.6,11.7,6.4,16.5,24.9,67.2,49.6,134.4,74.6,201.5,1.7,4.4,2.1,10.5,9.6,9.5,7-.6,4.4-6.1,4.4-9.6h0ZM709.9,184.6c33.2-.1,60.8-27.7,61.1-60.7.3-33.9-27.2-61.4-61.3-61.4s-60.6,27-60.9,60.4c-.3,33.7,27.6,61.9,61.1,61.7h0ZM257.6,523.4c22.8,32.5,13.2,29.7,50.1,14.1,30.9-13,53.5-36.8,74.2-62.6,12.4-15.4,22.7-33.2,41.7-42.1,4.5-2.1,3.3-5.6,2.9-8.7-3.7-22.5-10.7-43.7-25.3-61.6-14.6-17.9-21.9-18.9-41.2-6.3-20.8,13.6-34.1,34-48.7,53.2-16.5,21.5-36.6,37.8-62.7,45.5-7.5,2.2-10.7,6.2-9.5,13,.5,21,7.1,39.3,18.5,55.5h0ZM263.9,468.6c28.9-10.2,49.3-30.6,66.8-54.7,11.5-15.8,23.4-31.2,39.4-42.9,7.1-5.2,12.2-4.5,16.7,2.6,4.1,6.4,8.7,12.7,11.9,19.5,10.3,21.5,9.5,23.1-6.3,40.7-13.8,15.5-26.4,32.1-40.1,47.7-16.7,19-36.5,34.1-60.3,43.5-3.4,1.4-7.4,4.4-10.4.5-11.4-14.4-20.4-30.1-24.2-51.8-.7-1.9,2.7-3.8,6.5-5.1h0ZM475,578.3c-47.2.3-94.3,0-141.5,0s-96,.2-144,0c-8.7,0-13.6.4-10.6,11.6,3.1,11.4,3.9,23.4,5.9,35.1,16.7,100.4,33.7,200.7,50,301.1,1.6,9.5,4.7,11.4,13.6,11.3,55.2-.4,110.4-.6,165.7,0,11.7.2,15.8-3.2,17.6-14.5,17.8-111,35.8-221.8,54.6-332.6,1.9-12.2-2.5-12.1-11.3-12.1h0ZM235.1,804.1h-4.5c-1.7-9.5-3.5-19.2-5.1-28.8-.1-.7-.2-1.4-.1-2.1h9.7v30.9h0ZM235.1,747h-14.5c-1.2-9.2-2.6-18.3-4.5-27.4-.3-1.3-.4-2.5-.3-3.4h19.3v30.8h0ZM235.1,690.1h-24.3c-.4-1.4-.5-3-.5-5,0-3-.6-5.9-1.1-8.8-1.6-8.1-2.5-13-1.7-15.8h27.7v29.6q-.1,0,0,0ZM235.1,629.8c-.3,1.8-.6,3.2-1.1,4.6h-31.7c0,0,0-.3-.1-.4-.9-11.6-6.3-22.9-4.5-34.8h37.3v30.6h.1ZM279.1,913.1h-25.5v-26h25.5v26ZM279.1,860c-.1.4-.3.7-.4,1h-25.1v-30.9h25.5v29.9ZM279.1,804.1h-25.5v-30.1l.4-.8h25.1v30.9h0ZM279.1,747h-25.5v-30.8h25.5v30.8ZM279.1,689.8v.3h-25.5v-29.6h25.5v29.3ZM279.1,634.4h-25.5v-35.2h25.5v35.2ZM323.1,913.1h-25.5v-26h25.6v26ZM323.1,860.6l-.2.4h-25.4v-30.9h25.6v30.5ZM323.1,804.1h-25.5v-30.9h25.6v30.9ZM323.1,747h-25.5v-30.8h25.6v30.8ZM323.1,690.1h-25.5v-29.6h25.6v29.6ZM323.1,634.2h-25.6c0,0,0-32.7,0-32.7.3-.9.6-1.7,1-2.4h24.6v35.1h0ZM367.7,913.1h-26.2v-26h25.6l.5,1.3v24.7h.1ZM367.7,858.4c-.3.9-.6,1.8-1.1,2.6h-25.1v-30.9h25.7c.2.4.3.8.4,1.3v27h.1ZM367.7,803.7v.3h-26.2v-30.9h26.2v30.6h0ZM367.7,747h-26.2v-30.8h26.2v30.8ZM367.7,688.7l-.4,1.3h-25.7v-29.6h25.7c.2.4.4.9.4,1.4v26.9h0ZM367.7,634.4h-26.2v-35.2h26.2v35.2ZM411.7,913.1h-25.5v-20.7c.6-2.1,1.5-3.8,2.6-5.3h22.9v26ZM411.7,861h-25.5v-30.7h.1c0,0,25.5,0,25.5,0v30.8ZM411.7,804.1h-25.5v-27.4c.4-1.3.7-2.5,1.1-3.4h24.3v30.8q.1,0,.1,0ZM411.7,747h-25.5v-30.8h25.5v30.8ZM411.7,690.1h-25.5v-29.6h25.5v29.6ZM411.7,634.4h-25.5v-35.2h25.5v35.2ZM439.5,776.4c-1.5,9.2-3.2,18.5-4.7,27.6h-4.6v-30.9h9.5c.2,1.1,0,2.2-.2,3.3h0ZM448.2,724.2c-.8,6.7-2.6,13.3-3.2,20-.1,1.1-.2,1.9-.4,2.8h-14.5v-30.9h19.9c.1,2.6-1.5,5.6-1.8,8.1h0ZM458.2,662.4c-1.3,7.9-2.3,15.8-3.6,23.8-.3,1.4-.7,2.7-1.3,3.9h-23.1v-24.6c.4-1.9,1-3.7,1.8-5.1h26.4c0,.7-.1,1.3-.2,2h0ZM466.8,613c-.6,3.3-1.2,6.7-1.8,10.1-.8,5.3-1.3,8.9-2.2,11.5h-32.7v-32.6c.3-1,.5-1.8.9-2.5h37.3c.6,2.4-.2,6.6-1.5,13.5h0Z"/>
</svg>
