<?xml version="1.0" encoding="utf-8"?>
<!-- Generator: $$$/GeneralStr/196=Adobe Illustrator 27.6.0, SVG Export Plug-In . SVG Version: 6.00 Build 0)  -->
<svg version="1.1" id="Ebene_1" xmlns="http://www.w3.org/2000/svg" xmlns:xlink="http://www.w3.org/1999/xlink" x="0px" y="0px"
	 viewBox="0 0 1000 1000" style="enable-background:new 0 0 1000 1000;" xml:space="preserve">
<path d="M896.3,752.8c-6.1-6-6.9-16.6-2.4-23.9c22.4-36.2,35.5-78.8,35.5-124.4c0-131.2-106.8-238-238-238s-237.9,106.8-237.9,238
	s106.7,237.9,237.9,237.9c49.3,0,95-15.2,133-41c7.1-4.8,17.4-4.1,23.4,1.9l81.3,81.3c0.6,0.6,1.2,1.1,1.8,1.6
	c1,0.8,6.8,6.3,12.8,12.3l2.6,2.6c6.1,6.1,15.9,6.1,21.9,0l27.3-27.2c6-6.1,6-15.9,0-21.9L896.3,752.8L896.3,752.8z M835.4,715.4
	c-7.9,10.1-16.7,19.5-26.5,27.8c-31.7,26.9-72.7,43.2-117.5,43.2c-100.3,0-181.9-81.6-181.9-181.9s81.6-182,181.9-182
	c100.4,0,182,81.6,182,182C873.4,646.2,859.1,684.6,835.4,715.4L835.4,715.4z M291.4,669.6V140.9c0-8.5,6.2-12.3,13.8-8.4l222,112.7
	c7.7,3.9,13.9,14,13.9,22.5v65.1c0,8.6,5.9,12.1,13.5,8.7s14.1-12.8,14.1-21.3V266c0-8.5,6.2-18.6,13.9-22.4l208.1-104.2
	c7.7-3.8,13.9,0,13.9,8.5v181.5c0,8.5,6.2,18.4,13.7,22.6l0.9,0.4c7.4,4.2,13.2,1.1,13.2-7.5v-239c0-8.5-6.2-12.4-13.8-8.5
	l-249.9,126c-7.6,3.9-20,3.9-27.6,0l-249.7-126c-7.7-3.9-20.1-3.9-27.7,0l-249.9,126C6.2,227.3,0,237.3,0,245.9v584.9
	c0,8.5,6.2,12.4,13.8,8.5l249.9-126.2c7.6-3.8,20-3.8,27.7,0l144.4,73c7.6,3.9,9.4,1.7,4.3-5.2c-4.1-5.5-8-11.3-11.7-17.1
	c-4.5-7.3-14-16.5-21.7-20.4l-101.5-51.3C297.6,688.3,291.4,678.2,291.4,669.6L291.4,669.6z M249.7,692.1l-208,105.1
	c-7.7,3.9-13.8,0.1-13.8-8.5V259.9c0-8.6,6.1-18.6,13.8-22.5l208-105c7.6-3.8,13.8,0,13.8,8.5v528.7
	C263.5,678.2,257.3,688.3,249.7,692.1z"/>
</svg>
