<?xml version="1.0" encoding="utf-8"?>
<!-- Generator: $$$/GeneralStr/196=Adobe Illustrator 27.6.0, SVG Export Plug-In . SVG Version: 6.00 Build 0)  -->
<svg version="1.1" id="Ebene_1" xmlns="http://www.w3.org/2000/svg" xmlns:xlink="http://www.w3.org/1999/xlink" x="0px" y="0px"
	 viewBox="0 0 1000 1000" style="enable-background:new 0 0 1000 1000;" xml:space="preserve">
<path d="M901,563.3c3.3-20.7,5-41.8,5-63.4c0-224.2-181.8-406-406-406c-21.5,0-42.7,1.8-63.4,5c-37.4-23.1-81.5-36.5-128.8-36.5
	c-135.5,0-245.3,109.8-245.3,245.3c0,47.3,13.4,91.4,36.5,128.8c-3.2,20.7-5,41.8-5,63.3C94,724,275.8,905.7,499.9,905.7
	c21.5,0,42.7-1.7,63.4-4.9c37.4,23.1,81.5,36.5,128.8,36.5c135.5,0,245.3-109.8,245.3-245.4C937.5,644.9,924.1,600.8,901,563.3
	L901,563.3z M692.7,684.6c-17.2,24.7-42.4,44-75.4,57.9s-72.1,20.8-117.2,20.8c-54,0-98.8-9.4-134.1-28.5c-25-13.7-45.4-32-61-54.9
	c-15.7-22.9-23.6-45.3-23.6-67.2c0-12.9,4.9-24.1,14.5-33.2c9.7-9.2,22.1-13.8,36.8-13.8c12,0,22.4,3.6,30.8,10.8
	s15.4,17.6,21.1,31.4c6.9,16,14.3,29.3,22.3,40c7.9,10.5,19,19.3,33.4,26.2c14.2,6.9,33.2,10.3,56.9,10.3c32.4,0,58.7-7,78.7-20.9
	c20.2-14,29.9-31,29.9-51.5c0-16.4-5.2-29.4-15.9-39.5c-10.8-10.3-24.8-18.1-42.1-23.5c-17.4-5.5-40.7-11.4-70-17.5
	c-39.3-8.6-72.1-18.6-98.7-30c-26.6-11.5-47.9-27.2-63.6-47.1c-15.8-20.1-23.6-45-23.6-74.5c0-28.2,8.3-53.3,24.9-75.3
	c16.6-22,40.6-38.8,71.9-50.5c31.2-11.7,67.9-17.6,110-17.6c33.6,0,62.8,3.9,87.4,11.6c24.6,7.8,45.1,18.1,61.4,31
	c16.3,12.9,28.2,26.5,35.8,40.8s11.4,28.3,11.4,41.9c0,12.7-4.9,24.2-14.5,34.3c-9.6,10.1-21.8,15.2-36.1,15.2c-12.9,0-23-3-30-9.3
	c-6.8-6.1-14-15.8-21.8-29.3c-9.8-18.9-21.6-33.6-35.2-44.1c-13.3-10.3-35.3-15.7-65.8-15.6c-28.3,0-50.9,5.8-68,17.1
	c-17.2,11.5-25.4,24.8-25.4,40.4c0,9.8,2.8,18,8.5,25.1s13.7,13.3,24,18.5c10.3,5.3,20.7,9.4,31.2,12.3c10.6,3,28.3,7.4,52.8,13.1
	c30.7,6.6,58.6,14,83.7,22.1c25,8.1,46.3,17.9,64,29.5c17.8,11.6,31.7,26.4,41.6,44.3c10,17.9,15,39.8,15,65.5
	C718.6,632,709.9,659.9,692.7,684.6L692.7,684.6z"/>
</svg>
