<?xml version="1.0" encoding="utf-8"?>
<!-- Generator: $$$/GeneralStr/196=Adobe Illustrator 27.6.0, SVG Export Plug-In . SVG Version: 6.00 Build 0)  -->
<svg version="1.1" id="Ebene_1" xmlns="http://www.w3.org/2000/svg" xmlns:xlink="http://www.w3.org/1999/xlink" x="0px" y="0px"
	 viewBox="0 0 1000 1000" style="enable-background:new 0 0 1000 1000;" xml:space="preserve">
<path d="M936.2,267.1c-0.2-15.8-1.3-31.5-4.3-47c-3.6-18.9-8.7-37.4-17.7-54.5c-9.6-18.1-21.5-34.4-36.4-48.6
	c-22.7-21.8-48.9-37.2-79.5-45.3c-27.6-7.4-55.7-8.7-84-8.7c-0.1,0-0.2-0.2-0.2-0.2H285.5V63c-16.1,0.3-32.2,0-48.2,2
	c-17.5,2.2-34.9,5.4-51.4,11.5c-26.1,9.7-48.8,24.7-68.2,44.8C95.7,144,80.2,170.4,72,201c-7.3,27.4-8.8,55.2-8.9,83.3l-0.2,430.4
	c0,19.4,0.6,39,3.9,58.3c3.5,20.4,8.4,40.3,17.9,58.9c12.8,25.1,30.4,46.3,52.6,63.6c15.9,12.4,33.3,22.3,52.6,28.5
	c28.1,9.1,57.1,12.5,86.5,12.7c18.3,0.1,36.7,0.6,55,0.5c133.3-0.6,266.6,1,399.9-0.8c17.7-0.2,35.1-2.4,52.5-5.6
	c33.3-6.1,62.7-20.3,87.8-42.7c29.3-26.2,49-58.2,57.9-96.8c5.8-25.2,7.5-50.9,7.5-76.6v-5.1C936.9,707.6,936.2,272.8,936.2,267.1
	L936.2,267.1z M827.9,668c-0.1,2.3-0.7,4.6-1.6,6.8c-3.1,7.3-10.4,13.5-22.2,19c-14.4,6.7-36,12.3-64.2,16.7
	c-1.4,2.7-2.9,9.7-3.9,14.1c-1.1,5-2.2,10.2-3.8,15.4c-2.3,8-8.5,12.8-16.8,12.8H715l-0.4-0.2c-3.8,0-8.7-0.7-15.1-1.9
	c-9.7-1.9-20.6-3.7-34.4-3.7c-8,0-16.3,0.7-24.6,2.1c-16.1,2.7-29.9,12.5-46,23.8c-23.4,16.6-50,35.3-90.6,35.3
	c-1.8,0-3.4,0-4.8-0.1c-1.1,0.1-2.2,0.1-3.3,0.1c-40.6,0-67.2-18.8-90.6-35.4c-16-11.3-29.9-21.1-46-23.8
	c-8.3-1.4-16.6-2.1-24.6-2.1c-14.4,0-26,2.3-34.4,3.9c-5.8,1.1-10.7,2.1-15.1,2.1c-11.4,0-15.9-7-17.6-12.8
	c-1.6-5.4-2.7-10.5-3.8-15.4c-1-4.6-2.5-11.4-3.9-14.1c-28.1-4.4-49.7-10-64.2-16.7c-11.8-5.5-19.1-11.7-22.2-19.1
	c-0.9-2.2-1.5-4.4-1.6-6.7c-0.4-7.8,5.1-14.8,12.9-16c19.7-3.3,38.6-10.6,56-21.9c14.3-9.2,27.7-21.1,39.9-35.3
	c21.4-25,31.9-48.6,33-51.3c0.1-0.3,0.2-0.5,0.3-0.7c4.5-9.1,5.5-16.6,3.1-22.4c-4.8-11.3-23.2-17.1-35.3-21
	c-3.5-1.1-6.8-2.1-9.6-3.2c-10.6-4.2-18.8-8.9-24.4-14c-10.2-9.3-10.2-18.4-9.4-23.1c1.3-7,6.3-13.3,13.9-17.8
	c6.1-3.6,13-5.5,19.7-5.5c4.1,0,7.9,0.8,11.1,2.3c11.1,5.2,21,7.8,29.2,7.8c5.1,0,8.6-1,10.8-2l-0.9-14.6v-0.1
	c-2.8-44.5-6.3-99.9,8.4-132.8c10-22.5,23.4-41.8,40-57.5c13.8-13.2,29.9-23.8,47.8-31.7c31.3-13.8,60.4-15.6,75-15.6
	c0.6,0,7.2,0.1,11.3,0.1h1.6c14.6,0,43.7,1.8,75,15.5c18,7.9,34.1,18.5,48,31.6c16.6,15.7,30.1,35,40.1,57.6
	c14.7,32.9,11.2,88.3,8.4,132.8l-0.1,1.9c-0.3,4.4-0.5,8.6-0.8,12.7c1.9,0.9,4.8,1.8,9,2c7.9-0.4,17.1-3,27.3-7.8
	c4.8-2.2,9.9-2.7,13.3-2.7c5,0,9.9,1,14.3,2.7c12.8,4.6,20.8,13.9,21,24.5c0.1,4.4-1.2,11-8,18c-5.6,5.8-14.2,10.9-26.2,15.7
	c-2.8,1.1-6.1,2.1-9.6,3.2c-12.2,3.9-30.5,9.7-35.3,21c-2.4,5.7-1.4,13.3,3.1,22.4l0.3,0.7c1.6,3.8,41.1,93.9,128.9,108.4
	C822.8,653.2,828.3,660.2,827.9,668L827.9,668z"/>
</svg>
