<svg xmlns="http://www.w3.org/2000/svg" width="52.639" height="44.626" viewBox="0 0 52.639 44.626">
  <path d="M52.625,42.823c0-.022.006-.045,0-.067L47.583,18.047a3.629,3.629,0,0,0-3.543-2.894H8.6a3.629,3.629,0,0,0-3.543,2.894L.015,42.756c-.005.022,0,.045,0,.067S0,42.875,0,42.9v2.237a2.7,2.7,0,0,0,2.693,2.694H20.26l-.839,5.907-6.735,2.281a.741.741,0,0,0-.5.7v2.31a.743.743,0,0,0,.742.743H39.716a.742.742,0,0,0,.742-.743v-2.31a.741.741,0,0,0-.5-.7L33.22,53.743l-.839-5.907H49.946a2.7,2.7,0,0,0,2.694-2.694V42.9a.767.767,0,0,0-.016-.081m-38.74-.662,1.006-8.7H25.578v8.7ZM5.278,24.4h9.165l-.875,7.578H3.731Zm10.658,0h9.641v7.578H15.062ZM48.91,31.974H39.027L38.152,24.4h9.211Zm-11.377,0H27.063V24.4h9.594Zm-10.47-9.063V16.638h8.7l.725,6.274Zm-1.486,0H16.108l.725-6.274h8.744Zm1.486,10.547H37.7l1.005,8.7H27.063Zm13.141,8.7-1.005-8.7H49.213l1.776,8.7Zm5.923-23.818.932,4.569H37.98l-.725-6.274H44.04a2.138,2.138,0,0,1,2.088,1.705m-39.613,0A2.138,2.138,0,0,1,8.6,16.638h6.737l-.724,6.274H5.581ZM3.428,33.459H13.4l-1.006,8.7H1.653ZM31.815,54.4a.737.737,0,0,0,.5.6l6.662,2.256v1.035H13.667V57.259L20.329,55a.739.739,0,0,0,.5-.6l.933-6.568h9.123Zm19.34-9.263a1.211,1.211,0,0,1-1.21,1.209H2.694a1.21,1.21,0,0,1-1.209-1.209v-1.5h49.67Z" transform="translate(-0.001 -15.153)" fill="currentColor"/>
</svg>
