<?xml version="1.0" encoding="UTF-8"?>
<svg id="Ebene_1" xmlns="http://www.w3.org/2000/svg" version="1.1" viewBox="0 0 1000 1000">
  <!-- Generator: Adobe Illustrator 29.0.1, SVG Export Plug-In . SVG Version: 2.1.0 Build 192)  -->
  <path fill="currentColor" d="M63.1,544.6c3.6-74.4,24.5-143.7,64.1-206.3,85.5-135,209.7-204.6,351.7-212.6,7.2,0,14.2,0,21.1,0,6.9,0,13.9,0,21.1,0,141.9,8,266.1,77.6,351.7,212.6,39.7,62.6,60.5,131.9,64.1,206.3,5.9,120.8-30.8,226.6-109.5,318.2-13.5,15.7-23,16.1-37.7,1.6s-29.2-29.1-43.7-43.7c-16.1-16.1-16.7-23.2-2.3-40.5,31.2-37.5,54.6-79.4,65.7-126.9,30.8-131.4-4.1-243.6-104.4-333.4-53.2-47.6-117.3-72.6-189.4-76.2-5.2-.2-10.4-.4-15.5-.4s-10.3.2-15.5.4c-72.1,3.5-136.2,28.5-189.4,76.2-100.3,89.9-135.2,202-104.4,333.4,11.1,47.5,34.5,89.4,65.7,126.9,14.4,17.3,13.8,24.4-2.3,40.5-14.6,14.6-29.1,29.2-43.7,43.7-14.7,14.5-24.3,14.1-37.7-1.6-78.8-91.6-115.6-197.4-109.7-318.2ZM469.4,533.4c27-20.2,53.9-40.5,80.9-60.8,42.1-31.6,84.2-63.3,126.5-94.7,4.2-3.1,10.1-6.2,14.9-5.8,13.1,1,16.2,13.7,7,26.1-52.2,69.6-104.4,139.2-156.5,208.8-13.9,18.5-36.5,25.6-59.3,18.2-20.9-6.8-35-26.7-35-49.3s7.3-31.9,21.5-42.5h0Z"/>
</svg>
