<?xml version="1.0" encoding="UTF-8"?>
<svg id="Ebene_1" xmlns="http://www.w3.org/2000/svg" version="1.1" viewBox="0 0 1000 1000">
  <!-- Generator: Adobe Illustrator 29.0.1, SVG Export Plug-In . SVG Version: 2.1.0 Build 192)  -->
  <path fill="currentColor" d="M417.5,346.1c-28.4.5-40.3-2.9-29.2-36.4,19-57.4,31.7-116.7,48.9-174.7,6.6-22.5,1.1-29-21.3-28.6-53.3.9-106.6.8-159.8,0-17.2-.3-27.4,5-32.2,22.5-32,116.7-64.6,233.2-97,349.9-5.1,18.3-1,27.1,20.4,26.5,41.4-1.2,82.9,1.1,124.2-.8,31.2-1.4,44.3,1.2,34.2,40.2-33.1,128.4-61.2,258.1-91.3,387.3l7.1,5.6c138.5-195.1,277.1-390.2,420.5-591.8-82.6-.1-153.6-1-224.5.3h0ZM741.6,206.1c-17.1.3-24.1-1.7-17.5-21.8,11.4-34.4,19-69.9,29.3-104.6,4-13.5.7-17.3-12.8-17.1-31.9.5-63.9.4-95.7,0-10.3-.2-16.4,3-19.3,13.5-19.2,69.9-38.7,139.6-58.1,209.5-3.1,10.9-.6,16.3,12.2,15.8,24.8-.7,49.7.7,74.5-.4,18.7-.9,26.5.7,20.5,24.1-19.9,76.9-36.7,154.5-54.8,231.9l4.2,3.3c83-116.8,166.1-233.6,251.9-354.3-49.4-.1-92-.7-134.4.1Z"/>
</svg>
