<?xml version="1.0" encoding="UTF-8"?>
<svg id="Ebene_1" xmlns="http://www.w3.org/2000/svg" version="1.1" viewBox="0 0 1000 1000">
  <!-- Generator: Adobe Illustrator 29.0.1, SVG Export Plug-In . SVG Version: 2.1.0 Build 192)  -->
  <path fill="currentColor" d="M937,580.3l-39.7-124.4c-1.7-5.4-7.6-9.3-13.3-9.1-39.6,1.1-63.6-13-74.2-42.6-5.2-14.5-5.6-29.2-.8-43.9,5.8-18.3,18-30.7,33.6-39.4,5-2.8,7.8-9,6.1-14.5l-39.9-125.1c-1.7-5.4-7.5-8.4-12.9-6.7l-177.1,56.6,3.7,11.6c-4.8,2.4-9.8,4.5-15,6.2-5.3,1.7-10.6,2.9-15.9,3.7l-3.7-11.6L69.7,406.4c-5.4,1.7-8.4,7.5-6.7,12.9l39.8,124.7c1.8,5.5,7.7,9.4,13.4,9.3,39.9-1.1,63.9,13.5,74.1,44.4,10.5,32.3.3,57.2-34,81.2-4.7,3.2-7.2,10-5.4,15.4l39.7,124.3c1.8,5.5,7.5,8.4,12.9,6.7l518-165.4-3.8-11.8c4.7-2.4,9.7-4.4,14.9-6.1,5.4-1.7,10.6-3,16-3.8l3.8,11.8,177.9-56.8c5.5-1.8,8.4-7.5,6.7-12.9h0ZM598.9,275.8c4.7-2.4,9.7-4.4,14.9-6.1,5.4-1.7,10.6-3,16-3.8l16.3,51.1c-4.8,2.5-9.8,4.5-15,6.2-5.3,1.7-10.6,3-15.9,3.7l-16.3-51.1h0ZM622.7,350.3c4.7-2.4,9.7-4.4,14.9-6.1,5.4-1.7,10.6-3,16-3.8l16.3,51.1c-4.8,2.4-9.8,4.5-15,6.2-5.3,1.7-10.6,2.9-15.9,3.7l-16.3-51.1h0ZM646.5,424.7c4.7-2.4,9.7-4.4,14.9-6.1,5.4-1.7,10.6-3,16-3.8l16.3,51.1c-4.8,2.4-9.8,4.5-15,6.2-5.3,1.7-10.6,2.9-15.9,3.7l-16.3-51.1h0ZM670.3,499.2c4.7-2.4,9.7-4.4,14.9-6.1,5.4-1.7,10.6-3,16-3.8l16.3,51.1c-4.8,2.5-9.8,4.5-15,6.2-5.3,1.7-10.6,3-15.9,3.7l-16.3-51.1ZM726.3,621.1c-5.3,1.7-10.6,3-15.9,3.7l-16.4-51.2c4.7-2.4,9.7-4.4,14.9-6.1,5.4-1.7,10.6-3,16-3.8l16.3,51.1c-4.8,2.6-9.8,4.7-14.9,6.3h0Z"/>
</svg>
