<?xml version="1.0" encoding="utf-8"?>
<!-- Generator: $$$/GeneralStr/196=Adobe Illustrator 27.6.0, SVG Export Plug-In . SVG Version: 6.00 Build 0)  -->
<svg version="1.1" id="Ebene_1" xmlns="http://www.w3.org/2000/svg" xmlns:xlink="http://www.w3.org/1999/xlink" x="0px" y="0px"
	 viewBox="0 0 1000 1000" style="enable-background:new 0 0 1000 1000;" xml:space="preserve">
<path d="M758.1,267.5c-5.3-2.8-10.5-5.9-15.6-9.3c-14.7-9.9-28.1-21.7-40.1-34.9c-29.9-35.1-41.1-70.6-45.2-95.5h0.2
	c-3.5-20.7-2-34-1.8-34H519.4v539.5c0,7.3,0,14.4-0.3,21.5c0,0.9-0.1,1.7-0.2,2.6c0,0.4,0,0.8-0.1,1.2c0,0.1,0,0.3,0,0.4
	c-1.4,19.3-7.5,38-17.6,54.4c-10.2,16.4-24.1,30-40.6,39.6c-17.1,10-36.6,15.3-56.3,15.2c-63.5,0-114.9-53-114.9-118.5
	c0-65.4,51.4-118.4,114.9-118.4c12-0.1,23.9,1.9,35.4,5.7l0.1-142.1c-34.7-4.6-69.9-1.7-103.5,8.3c-33.5,10.1-64.7,27.1-91.5,50.1
	c-23.5,20.9-43.2,45.9-58.3,73.7c-5.8,10.2-27.5,51-30.1,117.2c-1.6,37.6,9.4,76.6,14.6,92.7v0.3c3.3,9.5,16.2,41.8,37,69.1
	c16.9,21.9,36.7,41.1,59,57V863l0.4,0.3c65.9,45.9,139,42.9,139,42.9c12.7-0.5,55.1,0,103.3-23.4c53.4-25.9,83.8-64.5,83.8-64.5
	c19.4-23.1,34.8-49.3,45.6-77.7c12.4-33.2,16.5-73,16.5-88.9V365.4c1.6,1,23.6,15.9,23.6,15.9s31.8,20.8,81.2,34.4
	c35.5,9.7,83.4,11.7,83.4,11.7V288.9C827,290.7,793,285.3,758.1,267.5L758.1,267.5z"/>
</svg>
