<?xml version="1.0" encoding="utf-8"?>
<!-- Generator: $$$/GeneralStr/196=Adobe Illustrator 27.6.0, SVG Export Plug-In . SVG Version: 6.00 Build 0)  -->
<svg version="1.1" id="Ebene_1" xmlns="http://www.w3.org/2000/svg" xmlns:xlink="http://www.w3.org/1999/xlink" x="0px" y="0px"
	 viewBox="0 0 1000 1000" style="enable-background:new 0 0 1000 1000;" xml:space="preserve">
<path d="M62.5,325.8L98,372.4c0,0,73.3-57.7,97.7-28.9c24.4,28.9,117.7,377.6,148.8,442c27.1,56.5,102.1,131.1,184.3,77.8
	s355.3-286.5,404.2-562c49-275.4-328.6-217.7-368.6,22.2c100-60,153.3,24.4,102.2,120c-51.1,95.4-97.7,157.7-122.1,157.7
	c-24.4,0-43.1-63.9-71.1-175.6c-28.9-115.4-28.7-323.4-148.8-299.8C211.3,148.1,62.5,325.8,62.5,325.8L62.5,325.8z"/>
</svg>
