<?xml version="1.0" encoding="utf-8"?>
<!-- Generator: $$$/GeneralStr/196=Adobe Illustrator 27.6.0, SVG Export Plug-In . SVG Version: 6.00 Build 0)  -->
<svg version="1.1" id="Ebene_1" xmlns="http://www.w3.org/2000/svg" xmlns:xlink="http://www.w3.org/1999/xlink" x="0px" y="0px"
	 viewBox="0 0 1000 1000" style="enable-background:new 0 0 1000 1000;" xml:space="preserve">
<path d="M507.9,62.5c-235.4,0-426.2,190.9-426.2,426.2c0,80.5,22.4,155.9,61.1,220.2L65.9,937.5l236-75.6
	c61.1,33.7,131.2,53.1,206,53.1c235.4,0,426.2-190.9,426.2-426.2S743.3,62.5,507.9,62.5L507.9,62.5z M716.7,636.4
	c-8.6,24.4-42.9,44.7-70.3,50.5c-18.7,4-43.2,7.2-125.6-26.9c-105.4-43.6-173.2-150.7-178.4-157.6c-5.1-7-42.6-56.7-42.6-108.1
	s26.2-76.5,36.7-87.2c8.6-8.9,23-12.8,36.6-12.8c4.5,0,8.4,0.2,12,0.4c10.5,0.4,15.8,1.1,22.8,17.7c8.6,20.8,29.7,72.2,32.2,77.5
	c2.6,5.3,5.1,12.4,1.5,19.4c-3.4,7.2-6.3,10.3-11.6,16.5c-5.3,6.1-10.3,10.7-15.6,17.2c-4.9,5.7-10.3,11.8-4.2,22.4
	c6.1,10.3,27.2,44.7,58.2,72.2c40,35.6,72.5,47,84.1,51.9c8.6,3.6,19,2.7,25.3-4c8-8.7,17.9-23,28-37.1c7.2-10.1,16.2-11.4,25.7-7.8
	c9.7,3.3,60.9,28.7,71.5,33.9c10.5,5.3,17.5,7.8,20,12.2C725.4,591.1,725.4,612,716.7,636.4L716.7,636.4z"/>
</svg>
