<svg xmlns="http://www.w3.org/2000/svg" width="44.626" height="44.626" viewBox="0 0 44.626 44.626">
  <g transform="translate(0 0)">
    <path d="M41.6,27a10.355,10.355,0,0,0-8.34-2.973L20.6,11.365A10.329,10.329,0,0,0,6.921.577a1.308,1.308,0,0,0-.494,2.159l5.715,5.715L8.451,12.142,2.736,6.427a1.308,1.308,0,0,0-2.159.494A10.329,10.329,0,0,0,11.359,20.6L24.023,33.267A10.329,10.329,0,0,0,37.706,44.05a1.308,1.308,0,0,0,.494-2.159l-5.715-5.715,3.691-3.691L41.89,38.2a1.308,1.308,0,0,0,2.159-.494A10.326,10.326,0,0,0,41.6,27Zm.4,7.62L37.1,29.711a1.307,1.307,0,0,0-1.849,0l-5.54,5.54a1.307,1.307,0,0,0,0,1.849l4.905,4.905a7.714,7.714,0,0,1-7.923-8.99,1.308,1.308,0,0,0-.365-1.141L12.752,18.3a1.307,1.307,0,0,0-.924-.383,7.963,7.963,0,0,1-6.954-2.134A7.7,7.7,0,0,1,2.621,10.01l4.906,4.905a1.307,1.307,0,0,0,1.849,0l5.54-5.54a1.307,1.307,0,0,0,0-1.849L10.01,2.621a7.714,7.714,0,0,1,7.922,8.995,1.308,1.308,0,0,0,.365,1.142L31.869,26.329a1.308,1.308,0,0,0,1.142.365,7.714,7.714,0,0,1,8.994,7.922Z" transform="translate(0)" fill="currentColor"/>
    <path d="M178.9,177.047a1.307,1.307,0,0,0-1.849,1.849L188.2,190.05a1.307,1.307,0,0,0,1.849-1.849Z" transform="translate(-161.265 -161.266)" fill="currentColor"/>
  </g>
</svg>
