<?xml version="1.0" encoding="utf-8"?>
<!-- Generator: $$$/GeneralStr/196=Adobe Illustrator 27.6.0, SVG Export Plug-In . SVG Version: 6.00 Build 0)  -->
<svg version="1.1" id="Ebene_1" xmlns="http://www.w3.org/2000/svg" xmlns:xlink="http://www.w3.org/1999/xlink" x="0px" y="0px"
	 viewBox="0 0 1000 1000" style="enable-background:new 0 0 1000 1000;" xml:space="preserve">
<path d="M332.8,256v135h48.8V257l29.4-93.9c16.2-51.6,30-95.4,30.7-97.2c1.1-2.8-3.5-3.4-24.3-3.4h-25.8L388,75.3
	c-2,7-9.5,35-16.6,62.1s-13.5,49.3-14.2,49.3s-8.3-26.9-17-59.7c-8.7-32.9-16.4-60.8-17.2-62.1c-0.9-1.4-11.6-2.1-25.9-1.7
	l-24.4,0.7l30.1,96.1L332.8,256z M604,377.1c2.5,5.1,7.4,10.8,11,12.7c8.2,4.4,25,4.6,35,0.3c4.3-1.8,13-7.9,19.4-13.6l11.6-10.3
	V391h46.2V145.2H681V334l-8.8,9.1c-9.9,10.2-18.7,13.5-24.1,9c-3.1-2.6-3.6-17.7-3.6-104.9v-102h-46.4l0.7,111.3
	C599.3,359.9,599.7,368.6,604,377.1L604,377.1z M451.9,374.5c8.1,8.8,14.8,13.4,24.6,16.7c16.5,5.7,24.7,5.8,41.2,0.9
	c17.6-5.2,34.9-21.5,40.8-38.4c3.8-11,4.4-21.5,4.4-84.4c0-79.4-1.2-87.4-15.8-105.1c-22-26.7-73.7-27.5-96-1.4
	c-15.9,18.6-17.1,26.1-17.1,105.3C433.9,350.4,434.8,355.9,451.9,374.5L451.9,374.5z M481.7,195.4c6.2-13.5,27.3-13.5,33.4,0
	c1.8,4,2.8,28.7,2.8,74.2c0,71.3-1.1,79.6-11.1,83.4c-2.2,0.8-6.3,1.4-9.2,1.3c-17.6-0.6-18.7-5.3-18.7-84.8
	C478.9,224.1,479.8,199.4,481.7,195.4L481.7,195.4z M580.6,635.8c-5.6-1.9-8.9-1.3-17.6,3.3l-10.8,5.7V794l9.1,5.3
	c11.7,6.8,15.8,6.7,24.2-0.5l6.8-5.9l0.7-67.8C593.9,649.3,592.6,640,580.6,635.8z M863,661.6c-0.7-43.7-2.6-90.5-4.1-103.8
	c-7.9-70.8-30.4-105-76.8-116.6c-23.7-5.9-89.4-8.9-228.7-10.4c-129.1-1.4-261.8,1.4-312.7,6.6c-51.8,5.3-80.2,30.8-92.3,82.9
	c-13.3,57.5-16.1,224.3-5,304.3c3.2,22.8,13.1,52.7,21.9,66c21.9,33.1,54.1,41.5,173,45.5c80,2.7,319.5,1.2,378.1-2.3
	c54-3.2,66.5-5.4,85.6-14.7C852.7,894.3,866,838.2,863,661.6z M323.4,561.4h-26.8v279.9H248V561.4h-51.2v-46.2h153.4v46.2
	L323.4,561.4L323.4,561.4z M471.8,719.6v121.7h-46.2v-25l-10.7,9.8c-5.9,5.4-14,11.6-18.1,13.7c-10.8,5.6-31.6,4.9-39.9-1.3
	c-13.1-9.8-14-19-14-135.3V597.9h46.2v99.6c0,87.3,0.5,100.1,3.8,103.4c6,6,10.6,4.6,22.1-6.8l10.6-10.6V597.9h46.2V719.6
	L471.8,719.6z M639.4,730.6c-0.8,78.9-0.9,80.5-6.6,92.1c-3.3,6.6-9.1,13.8-13.4,16.4c-9,5.5-28.3,6-39.6,1.1
	c-4.2-1.8-12.1-7.4-17.6-12.4l-10-9v22.4h-43.8v-326h43.8v105.2l11.9-10.7c10.9-9.8,25.2-16.5,35.2-16.5c10.4,0,23.8,8.2,29.5,17.9
	C638.8,628.5,640.2,644.1,639.4,730.6L639.4,730.6z M802.3,777.4c-1.9,32.5-12.4,50.6-36,61.2c-16.7,7.6-43.8,7-60.4-1.2
	c-14.7-7.3-25.4-19.3-31.3-34.9c-3.5-9.2-4.4-22.2-5.2-75.6c-1.2-82.2,1.9-98.3,22.5-116.4c12.6-11.1,24.7-15.6,42.6-15.9
	c21.7-0.4,36.1,5.5,49.5,20.4c15.2,16.9,18.7,31.2,18.7,76.2v35.7h-87.6v28.6c0,22.4,0.9,30.4,4.3,37.1c5.5,11,17,14.8,26.2,8.8
	c8.2-5.4,10.9-13.1,10.9-30.8v-14.4h47L802.3,777.4L802.3,777.4z M756.6,690.4v-18.3c0-23.2-4.3-34.2-14.1-36.3
	c-19.5-4.3-27.3,6-27.3,36.3v18.3H756.6L756.6,690.4z"/>
</svg>
