<?xml version="1.0" encoding="UTF-8"?><svg xmlns="http://www.w3.org/2000/svg" xmlns:xlink="http://www.w3.org/1999/xlink" id="Ebene_2" data-name="Ebene 2" viewBox="0 0 180 180"><defs><linearGradient id="Unbenannter_Verlauf_5" data-name="Unbenannter Verlauf 5" x1="90" y1="0" x2="90" y2="180" gradientUnits="userSpaceOnUse"><stop offset="0" stop-color="#fff"/><stop offset=".9999" stop-color="#cdcdcd"/></linearGradient></defs><g id="Ebene_1-2" data-name="Ebene 1"><rect width="180" height="180" rx="16.806" ry="16.806" style="fill: url(#Unbenannter_Verlauf_5);"/><g><path d="M102.5687,121.9742h-58.637v-18.5771h57.9399c1.299,0,6.915-2.5583,8.2905-3.3251,9.8503-5.4912,13.7209-15.6176,13.0067-26.6288-.7974-12.2932-12.0429-24.4896-24.5516-25.1565-9.8032-.5226-17.7872,2.5427-24.2444,9.8247-.9654,1.0887-1.7017,2.2105-2.3969,3.4873h-7.9774c-.005-2.7935.6081-5.6016-.4619-8.285-1.1835-2.9679-5.682-3.9778-4.577-8.2842.4998-1.9476,4.0264-5.4296,5.7667-6.4666,5.0558-3.0129,6.7515,2.6408,10.573,4.5432,6.0419,3.0077,13.735-1.3372,14.3939-7.9211.1837-1.8353-.306-5.6793,1.2639-6.9417,2.5172-2.0242,10.6528-2.1567,12.516.7932,1.0432,1.6517.7226,4.2807.9733,6.1485,1.2499,9.3128,10.9405,12.6016,17.801,6.3723,1.1025-1.0011,1.8321-2.4115,3.6255-2.5678,4.5583-.3971,10.7099,6.8942,7.9583,11.3581-1.729,2.805-4.3934,3.685-5.1706,7.6818-.8767,4.5083,2.9685,11.0214,7.639,11.889,2.659.494,7.485-.609,8.6007,2.7054.6865,2.0392.6459,7.2537-.1238,9.2523-1.5899,4.1276-4.3911,2.6871-7.8953,2.946-3.6818.272-5.3307,1.5316-7.2081,4.5616-2.0942,3.38-2.2293,6.1383-.6911,9.831,1.3945,3.3477,5.2041,4.9428,4.4978,8.9899-.4558,2.6119-5.4006,6.7845-8.0799,7.0962-3.3201.3862-3.6776-1.6515-5.7192-3.3845-4.8708-4.1344-13.3159-4.0379-15.9909,2.4316-.3778.9138-1.121,3.3829-1.121,4.298v3.3284Z" style="fill: #cdcdcd;"/><g><path d="M85.0983,87.7615v12.2299h-13.0116v-36.5349h19.44c1.2687,0,4.2868,1.0414,5.4476,1.6768,7.656,4.1904,7.3761,16.4766-.1006,20.696-3.5814,2.0212-7.7662,2.0051-11.7754,1.9322ZM84.9434,71.971v7.0438l.2324.2322h2.3235c.1474,0,1.2316-.3347,1.4253-.4332,1.9527-.9934,2.1289-5.3989.1858-6.4405-.1279-.0685-.938-.4023-.9915-.4023h-3.1755Z" style="fill: #01215c;"/><polygon points="67.1429 63.4565 67.1429 74.1383 57.3842 74.1383 57.3842 99.9914 44.3726 99.9914 44.3726 74.1383 34.6139 74.1383 34.6139 63.4565 67.1429 63.4565" style="fill: #01215c;"/></g></g><g><polygon points="79.1301 142.5988 82.2929 147.3396 82.3931 147.2679 85.5109 142.5988 89.6612 142.5988 89.6612 155.9171 84.918 155.9171 84.9739 150.1045 82.2929 153.9983 79.6107 150.048 79.723 155.9171 74.9798 155.9171 74.9798 142.5988 79.1301 142.5988" style="fill: #01215c;"/><polygon points="147.5962 142.5988 152.6776 148.355 152.5088 142.5988 157.3085 142.5988 157.3085 155.9171 153.3276 155.9171 148.2179 150.2173 148.3867 155.9171 143.587 155.9171 143.587 142.5988 147.5962 142.5988" style="fill: #01215c;"/><polygon points="40.1398 142.5988 40.1398 147.1699 43.7254 147.1699 43.8101 147.0853 43.8101 142.5988 48.4969 142.5988 48.4969 155.9171 43.8101 155.9171 43.8101 151.1767 40.1398 151.1767 40.1398 155.9171 35.453 155.9171 35.453 142.5988 40.1398 142.5988" style="fill: #01215c;"/><path d="M74.0199,155.9171h-4.7432c-.2776-.833-.5798-1.6818-.9176-2.4972-.2949-.7118-.8355-2.1127-1.4575-2.5501-.0465-.0327-.3428-.201-.3635-.201h-.9317v5.2483h-4.7432v-13.3183h7.7642c.4135,0,1.448.3401,1.8377.5336,2.4368,1.2097,2.7635,4.7724.5633,6.3795.5063.49.8244,1.1291,1.1202,1.7574.7087,1.5051,1.2376,3.1104,1.8714,4.6478ZM65.6063,147.96h1.214c.0469,0,.4256-.1408.5011-.1764.8406-.3961.9115-1.7894.0947-2.2249-.0997-.0531-.5085-.1947-.5958-.1947h-1.214v2.5959Z" style="fill: #01215c;"/><path d="M96.6518,142.4464c4.77-.4026,7.7316,2.8278,7.4079,7.5164-.3075,4.4529-4.1277,6.9933-8.4132,5.9264-6.6782-1.6627-6.1559-12.8382,1.0054-13.4427ZM97.1013,146.9024c-1.8819.271-1.8923,4.4196-.0012,4.7122,1.2611.1951,2.0742-.5377,2.2109-1.7701.1739-1.567-.3113-3.2155-2.2098-2.9421Z" style="fill: #01215c;"/><path d="M127.0987,155.9171l5.4285-13.3107,4.6531-.0115,5.5033,13.3222h-4.715l-.7702-2.0237-4.6287.0256-.756,1.9981h-4.715ZM133.7053,150.8381h2.3716l-1.1581-3.3864-1.2135,3.3864Z" style="fill: #01215c;"/><polygon points="59.395 142.5988 59.395 145.9848 54.8776 145.9848 54.8776 147.4521 59.0562 147.4521 59.0562 150.8099 58.9715 150.8945 54.8776 150.8945 54.8776 152.5311 59.5079 152.5311 59.5079 155.9171 50.1344 155.9171 50.1344 142.5988 59.395 142.5988" style="fill: #01215c;"/><path d="M109.9893,151.4589v4.4583h-4.7432v-13.3183h7.0866c.4625,0,1.5627.3796,1.9859.6113,2.7909,1.5276,2.6889,6.0063-.0367,7.5445-1.3055.7368-2.8311.7309-4.2926.7043ZM109.9328,145.7026v2.5677l.0847.0847h.847c.0537,0,.449-.122.5196-.1579.7118-.3621.7761-1.9681.0677-2.3478-.0466-.025-.3419-.1467-.3614-.1467h-1.1576Z" style="fill: #01215c;"/><polygon points="34.5496 142.5988 34.5496 146.4927 30.9921 146.4927 30.9921 155.9171 26.2489 155.9171 26.2489 146.4927 22.6915 146.4927 22.6915 142.5988 34.5496 142.5988" style="fill: #01215c;"/><polygon points="122.0167 142.5988 122.0167 152.0232 126.4776 152.0232 126.4776 155.9171 117.2735 155.9171 117.2735 142.5988 122.0167 142.5988" style="fill: #01215c;"/></g></g></svg>