<?xml version="1.0" encoding="UTF-8"?><svg xmlns="http://www.w3.org/2000/svg" id="Ebene_2" data-name="Ebene 2" viewBox="0 0 180 180"><g id="Ebene_1-2" data-name="Ebene 1"><rect width="180" height="180" rx="16.806" ry="16.806" style="fill: #fff;"/><g><path d="M106.8132,146.6801H28.3741v-24.8507h77.5066c1.7377,0,9.2502-3.4222,11.0902-4.448,13.1769-7.3456,18.3546-20.8918,17.3992-35.6216-1.0666-16.4447-16.1099-32.7599-32.8429-33.652-13.1138-.6991-23.794,3.4014-32.4319,13.1426-1.2914,1.4563-2.2763,2.957-3.2063,4.665h-10.6714c-.0067-3.7369.8135-7.4933-.6179-11.0829-1.5832-3.9702-7.6009-5.3212-6.1227-11.0818.6686-2.6053,5.3862-7.2632,7.7141-8.6504,6.7632-4.0304,9.0315,3.5327,14.1435,6.0774,8.0823,4.0234,18.3734-1.7888,19.2548-10.5961.2457-2.4551-.4093-7.5973,1.6907-9.286,3.3673-2.7078,14.2504-2.885,16.7428,1.0611,1.3955,2.2094.9666,5.7263,1.3019,8.2249,1.672,12.4578,14.6352,16.8572,23.8125,8.5242,1.4748-1.3392,2.4509-3.2259,4.8498-3.4349,6.0977-.5312,14.3268,9.2224,10.6459,15.1938-2.3129,3.7522-5.877,4.9294-6.9167,10.2759-1.1727,6.0308,3.971,14.7433,10.2187,15.904,3.5569.6608,10.0127-.8146,11.5053,3.619.9183,2.7279.8641,9.7034-.1657,12.3768-2.1268,5.5215-5.874,3.5946-10.5616,3.9409-4.9251.3638-7.1309,2.0488-9.6423,6.1021-2.8015,4.5215-2.9822,8.2112-.9245,13.151,1.8655,4.4783,6.9616,6.612,6.0167,12.0258-.6098,3.4939-7.2245,9.0757-10.8085,9.4926-4.4413.5166-4.9195-2.2092-7.6506-4.5274-6.5156-5.5306-17.8127-5.4016-21.3911,3.2528-.5054,1.2224-1.4996,4.5254-1.4996,5.7494v4.4524Z" style="fill: #cdcdcd;"/><g><path d="M83.443,100.9135v16.36h-17.4057v-48.873h26.005c1.6972,0,5.7344,1.3931,7.2873,2.2431,10.2415,5.6055,9.867,22.0408-.1346,27.6852-4.7908,2.7037-10.3889,2.6823-15.752,2.5847ZM83.2358,79.7904v9.4225l.3108.3106h3.1082c.1972,0,1.6475-.4477,1.9067-.5795,2.6121-1.3288,2.8478-7.2221.2486-8.6154-.171-.0917-1.2548-.5382-1.3264-.5382h-4.2478Z" style="fill: #01215c;"/><polygon points="59.424 68.4006 59.424 82.6897 46.3697 82.6897 46.3697 117.2735 28.964 117.2735 28.964 82.6897 15.9097 82.6897 15.9097 68.4006 59.424 68.4006" style="fill: #01215c;"/></g></g></g></svg>