<?xml version="1.0" encoding="UTF-8"?><svg xmlns="http://www.w3.org/2000/svg" id="Ebene_2" data-name="Ebene 2" viewBox="0 0 173.3132 148.9615"><g id="Ebene_1-2" data-name="Ebene 1"><g><path d="M106.3214,148.9615H14.5785v-29.0655h90.6523c2.0325,0,10.8191-4.0027,12.9712-5.2024,15.4117-8.5915,21.4676-24.4352,20.3502-41.6633-1.2476-19.2338-18.8422-38.3162-38.4133-39.3596-15.338-.8177-27.8297,3.9783-37.9326,15.3717-1.5104,1.7033-2.6624,3.4586-3.7501,5.4562h-12.4813c-.0078-4.3707.9514-8.7642-.7228-12.9627-1.8517-4.6436-8.8901-6.2237-7.1611-12.9614.7819-3.0472,6.2997-8.495,9.0225-10.1176,7.9103-4.7139,10.5634,4.1318,16.5424,7.1082,9.4531,4.7058,21.4896-2.0922,22.5206-12.3932.2874-2.8715-.4788-8.8858,1.9774-10.861,3.9384-3.1671,16.6673-3.3744,19.5825,1.2411,1.6322,2.5842,1.1305,6.6975,1.5228,9.6199,1.9555,14.5707,17.1174,19.7163,27.8512,9.97,1.725-1.5663,2.8665-3.7731,5.6724-4.0175,7.1319-.6213,16.7567,10.7866,12.4515,17.7708-2.7052,4.3886-6.8738,5.7655-8.0898,12.0188-1.3716,7.0536,4.6445,17.2439,11.9519,18.6015,4.1602.7729,11.7109-.9528,13.4566,4.2328,1.0741,3.1905,1.0106,11.3491-.1938,14.476-2.4875,6.458-6.8703,4.2042-12.3529,4.6092-5.7605.4256-8.3404,2.3963-11.2778,7.137-3.2766,5.2883-3.488,9.6039-1.0813,15.3815,2.1818,5.2378,8.1423,7.7334,7.0372,14.0655-.7132,4.0865-8.4498,10.615-12.6417,11.1026-5.1946.6042-5.7539-2.584-8.9482-5.2953-7.6207-6.4686-20.8339-6.3177-25.0192,3.8045-.5912,1.4298-1.7539,5.2929-1.7539,6.7246v5.2076Z" style="fill: #cdcdcd;"/><g><path d="M78.9874,95.4325v19.1348h-20.3579v-57.1622h30.4156c1.985,0,6.707,1.6294,8.5233,2.6235,11.9785,6.5562,11.5405,25.7791-.1574,32.3808-5.6034,3.1623-12.151,3.1372-18.4236,3.023ZM78.7451,70.7268v11.0207l.3635.3633h3.6353c.2307,0,1.927-.5236,2.23-.6778,3.0552-1.5542,3.3309-8.4471.2907-10.0767-.2-.1072-1.4676-.6295-1.5513-.6295h-4.9683Z" style="fill: #01215c;"/><polygon points="50.8946 57.4051 50.8946 74.1178 35.6263 74.1178 35.6263 114.5673 15.2684 114.5673 15.2684 74.1178 0 74.1178 0 57.4051 50.8946 57.4051" style="fill: #01215c;"/></g></g></g></svg>