<?xml version="1.0" encoding="UTF-8"?><svg xmlns="http://www.w3.org/2000/svg" id="Ebene_2" data-name="Ebene 2" viewBox="0 0 645.7366 148.9615"><g id="Ebene_1-2" data-name="Ebene 1"><g><path d="M578.7449,148.9615v-5.2076c0-1.4316,1.1628-5.2948,1.7539-6.7246,4.1853-10.1222,17.3984-10.2731,25.0192-3.8045,3.1943,2.7114,3.7536,5.8996,8.9482,5.2953,4.1919-.4876,11.9285-7.0161,12.6417-11.1026,1.1051-6.3321-4.8553-8.8277-7.0372-14.0655-2.4067-5.7776-2.1953-10.0931,1.0813-15.3815,2.9374-4.7408,5.5173-6.7115,11.2778-7.137,5.4826-.405,9.8654,1.8488,12.3529-4.6092,1.2044-3.1268,1.2679-11.2855.1938-14.476-1.7457-5.1856-9.2964-3.4599-13.4566-4.2328-7.3074-1.3576-13.3236-11.5479-11.9519-18.6015,1.216-6.2533,5.3846-7.6302,8.0898-12.0188,4.3052-6.9842-5.3195-18.3921-12.4515-17.7708-2.8058.2444-3.9474,2.4512-5.6724,4.0175-10.7338,9.7464-25.8957,4.6008-27.8512-9.97-.3922-2.9224.1094-7.0357-1.5228-9.6199-2.9152-4.6155-15.6441-4.4082-19.5825-1.2411-2.4562,1.9752-1.6901,7.9895-1.9774,10.861-1.0309,10.3011-13.0675,17.0991-22.5206,12.3932-5.979-2.9764-8.6321-11.8222-16.5424-7.1082-2.7228,1.6226-8.2406,7.0704-9.0225,10.1176-1.729,6.7377,5.3094,8.3178,7.1611,12.9614,1.6742,4.1984.7149,8.592.7228,12.9627h12.4813c1.0877-1.9976,2.2397-3.7529,3.7501-5.4562,10.1029-11.3933,22.5946-16.1894,37.9326-15.3717,19.571,1.0434,37.1657,20.1258,38.4133,39.3596,1.1175,17.2281-4.9384,33.0717-20.3502,41.6633-2.1521,1.1997-10.9387,5.2024-12.9712,5.2024H.2424v29.0655h578.5025Z" style="fill: #fff;"/><path d="M578.7449,148.9615H.2424v-29.0655h577.4119c2.0325,0,10.8191-4.0027,12.9712-5.2024,15.4117-8.5915,21.4676-24.4352,20.3502-41.6633-1.2476-19.2338-18.8422-38.3162-38.4133-39.3596-15.338-.8177-27.8297,3.9783-37.9326,15.3717-1.5104,1.7033-2.6624,3.4586-3.7501,5.4562h-12.4813c-.0078-4.3707.9514-8.7642-.7228-12.9627-1.8517-4.6436-8.8901-6.2237-7.1611-12.9614.7819-3.0472,6.2997-8.495,9.0225-10.1176,7.9103-4.7139,10.5634,4.1318,16.5424,7.1082,9.4531,4.7058,21.4896-2.0922,22.5206-12.3932.2874-2.8715-.4788-8.8858,1.9774-10.861,3.9384-3.1671,16.6673-3.3744,19.5825,1.2411,1.6322,2.5842,1.1305,6.6975,1.5228,9.6199,1.9555,14.5707,17.1174,19.7163,27.8512,9.97,1.725-1.5663,2.8665-3.7731,5.6724-4.0175,7.1319-.6213,16.7567,10.7866,12.4515,17.7708-2.7052,4.3886-6.8738,5.7655-8.0898,12.0188-1.3716,7.0536,4.6445,17.2439,11.9519,18.6015,4.1602.7729,11.7109-.9528,13.4566,4.2328,1.0741,3.1905,1.0106,11.3491-.1938,14.476-2.4875,6.458-6.8703,4.2042-12.3529,4.6092-5.7605.4256-8.3404,2.3963-11.2778,7.137-3.2766,5.2883-3.488,9.6039-1.0813,15.3815,2.1818,5.2378,8.1423,7.7334,7.0372,14.0655-.7132,4.0865-8.4498,10.615-12.6417,11.1026-5.1946.6042-5.7539-2.584-8.9482-5.2953-7.6207-6.4686-20.8339-6.3177-25.0192,3.8045-.5912,1.4298-1.7539,5.2929-1.7539,6.7246v5.2076Z" style="fill: #cdcdcd;"/><g><polygon points="242.2343 57.4051 255.8088 77.7525 256.2388 77.4448 269.6205 57.4051 287.4336 57.4051 287.4336 114.5673 267.0757 114.5673 267.3157 89.6195 255.8089 106.3317 244.2967 89.3772 244.779 114.5673 224.4212 114.5673 224.4212 57.4051 242.2343 57.4051" style="fill: #fff;"/><polygon points="536.0903 57.4051 557.8999 82.1107 557.1752 57.4051 577.7754 57.4051 577.7754 114.5673 560.6894 114.5673 538.7586 90.1039 539.4833 114.5673 518.8831 114.5673 518.8831 57.4051 536.0903 57.4051" style="fill: #fff;"/><polygon points="74.8878 57.4051 74.8878 77.0243 90.2774 77.0243 90.6409 76.661 90.6409 57.4051 110.7564 57.4051 110.7564 114.5673 90.6409 114.5673 90.6409 94.2214 74.8878 94.2214 74.8878 114.5673 54.7723 114.5673 54.7723 57.4051 74.8878 57.4051" style="fill: #fff;"/><path d="M220.3011,114.5673h-20.3579c-1.1913-3.5751-2.4885-7.2185-3.9382-10.7179-1.2655-3.0549-3.586-9.0676-6.2557-10.9451-.1995-.1403-1.4712-.8627-1.5603-.8627h-3.9989v22.5258h-20.3579v-57.1622h33.3239c1.7748,0,6.2147,1.4598,7.8874,2.2901,10.4589,5.1918,11.8607,20.483,2.4177,27.3809,2.1729,2.1033,3.5382,4.8462,4.8079,7.5428,3.0415,6.4597,5.3118,13.3499,8.0319,19.9484ZM184.1902,80.4153h5.2106c.2012,0,1.8269-.6045,2.1507-.7571,3.6077-1.7001,3.912-7.6801.4063-9.5491-.4278-.2281-2.1826-.8355-2.557-.8355h-5.2106v11.1418Z" style="fill: #fff;"/><path d="M317.4372,56.7511c20.473-1.7281,33.1841,12.137,31.7945,32.2602-1.3197,19.1117-17.716,30.0154-36.1095,25.4359-28.6627-7.1362-26.421-55.1017,4.315-57.6961ZM319.3665,75.8764c-8.0773,1.1632-8.122,18.9691-.005,20.2246,5.4127.8372,8.9024-2.3079,9.4893-7.5971.7463-6.7256-1.3362-13.8009-9.4843-12.6275Z" style="fill: #fff;"/><path d="M448.1153,114.5673l23.2991-57.1294,19.9709-.0492,23.6201,57.1787h-20.2367l-3.3057-8.6859-19.8665.11-3.2445,8.5759h-20.2367ZM476.4708,92.7681h10.1789l-4.9707-14.5343-5.2082,14.5343Z" style="fill: #fff;"/><polygon points="157.5311 57.4051 157.5311 71.9379 138.1426 71.9379 138.1426 78.2354 156.0769 78.2354 156.0769 92.647 155.7134 93.0104 138.1426 93.0104 138.1426 100.0345 158.0158 100.0345 158.0158 114.5673 117.7848 114.5673 117.7848 57.4051 157.5311 57.4051" style="fill: #fff;"/><path d="M374.6816,95.4325v19.1348h-20.3579v-57.1622h30.4156c1.985,0,6.707,1.6294,8.5233,2.6235,11.9785,6.5562,11.5405,25.7791-.1574,32.3808-5.6034,3.1623-12.151,3.1372-18.4236,3.023ZM374.4392,70.7268v11.0207l.3635.3633h3.6353c.2307,0,1.927-.5236,2.23-.6778,3.0552-1.5542,3.3309-8.4471.2907-10.0767-.2-.1072-1.4676-.6295-1.5513-.6295h-4.9683Z" style="fill: #fff;"/><polygon points="50.8946 57.4051 50.8946 74.1178 35.6263 74.1178 35.6263 114.5673 15.2684 114.5673 15.2684 74.1178 0 74.1178 0 57.4051 50.8946 57.4051" style="fill: #fff;"/><polygon points="426.3033 57.4051 426.3033 97.8546 445.4493 97.8546 445.4493 114.5673 405.9454 114.5673 405.9454 57.4051 426.3033 57.4051" style="fill: #fff;"/></g><g><path d="M19.0532,139.4362h-2.3584l-.9375-2.4629h-4.292l-.8862,2.4629h-2.2998l4.1821-10.8447h2.2925l4.2993,10.8447ZM15.0615,135.1452l-1.4795-4.0234-1.4502,4.0234h2.9297Z" style="fill: #01215c;"/><path d="M22.8027,139.4362v-10.8447h2.1094l4.3945,7.2422v-7.2422h2.0142v10.8447h-2.1753l-4.3286-7.0723v7.0723h-2.0142Z" style="fill: #01215c;"/><path d="M36.249,139.4362v-10.7559h2.168v8.9287h5.3906v1.8271h-7.5586Z" style="fill: #01215c;"/><path d="M57.6831,139.4362h-2.3584l-.9375-2.4629h-4.292l-.8862,2.4629h-2.2998l4.1821-10.8447h2.2925l4.2993,10.8447ZM53.6914,135.1452l-1.4795-4.0234-1.4502,4.0234h2.9297Z" style="fill: #01215c;"/><path d="M66.4058,135.4489v-1.8271h4.6729v4.3203c-.4541.4434-1.1123.835-1.9741,1.1719-.8618.3379-1.7344.5068-2.6182.5068-1.123,0-2.1021-.2373-2.937-.7139-.835-.4756-1.4624-1.1562-1.8823-2.041-.4199-.8857-.6299-1.8486-.6299-2.8887,0-1.1299.2344-2.1328.7031-3.0107s1.1548-1.5518,2.0581-2.0195c.6885-.3604,1.5454-.54,2.5708-.54,1.333,0,2.374.2822,3.124.8467.749.5645,1.2314,1.3447,1.4463,2.3408l-2.1533.4072c-.1514-.5322-.4355-.9531-.8535-1.2607-.417-.3086-.9385-.4629-1.5635-.4629-.9473,0-1.7007.3037-2.2598.9102s-.8384,1.5068-.8384,2.7002c0,1.2871.2832,2.252.8496,2.8955s1.3086.9658,2.2266.9658c.4541,0,.9092-.0898,1.3657-.2705.4565-.1797.8486-.3975,1.1758-.6543v-1.376h-2.4829Z" style="fill: #01215c;"/><path d="M75.7207,139.4362v-10.8447h7.9614v1.835h-5.7935v2.4043h5.3906v1.8271h-5.3906v2.9512h5.9985v1.8271h-8.1665Z" style="fill: #01215c;"/><path d="M88.3525,139.4362v-10.8447h2.1094l4.3945,7.2422v-7.2422h2.0142v10.8447h-2.1753l-4.3286-7.0723v7.0723h-2.0142Z" style="fill: #01215c;"/><path d="M101.748,128.5915h4.292c.8496,0,1.4834.0361,1.9004.1074.418.0713.791.2207,1.1211.4473.3291.2275.604.5293.8237.9062s.3296.8008.3296,1.2686c0,.5078-.1357.9746-.4062,1.3984-.2715.4238-.6387.7422-1.1025.9541.6543.1924,1.1572.5205,1.5088.9844.3516.4629.5273,1.0078.5273,1.6348,0,.4932-.1133.9727-.3408,1.4385-.2266.4658-.5371.8389-.9297,1.1172-.3936.2783-.8779.4502-1.4541.5137-.3613.04-1.2329.0645-2.6147.0742h-3.6548v-10.8447ZM103.916,130.3962v2.5078h1.4209c.8447,0,1.3696-.0117,1.5747-.0371.3711-.0439.6626-.1738.8755-.3877.2119-.2148.3184-.4971.3184-.8477,0-.335-.0918-.6074-.2744-.8174-.1836-.209-.4556-.3359-.8169-.3809-.2148-.0244-.8325-.0371-1.853-.0371h-1.2451ZM103.916,134.7096v2.8994h2.0068c.7812,0,1.2769-.0225,1.4868-.0664.3223-.0596.5845-.2041.7876-.4326.2021-.2295.3037-.5371.3037-.9209,0-.3262-.0781-.6016-.2344-.8291-.1562-.2266-.3823-.3916-.6777-.4951s-.936-.1553-1.9224-.1553h-1.7505Z" style="fill: #01215c;"/><path d="M124.833,139.4362h-2.3584l-.9375-2.4629h-4.292l-.8862,2.4629h-2.2998l4.1821-10.8447h2.2925l4.2993,10.8447ZM120.8413,135.1452l-1.4795-4.0234-1.4502,4.0234h2.9297Z" style="fill: #01215c;"/><path d="M128.5459,128.5915h2.168v5.874c0,.9316.0269,1.5361.0806,1.8115.0928.4443.3135.8008.6631,1.0693.3486.2686.8262.4033,1.4316.4033.6152,0,1.0791-.127,1.3916-.3809s.5005-.5664.564-.9355c.0635-.3701.0952-.9844.0952-1.8428v-5.999h2.168v5.6963c0,1.3018-.0586,2.2217-.1758,2.7588-.1172.5381-.333.9912-.6484,1.3613-.3145.3701-.7358.665-1.2632.8838-.5273.2197-1.2158.3291-2.0654.3291-1.0254,0-1.8032-.1191-2.3325-.3584-.5303-.2393-.9487-.5498-1.2563-.9316-.3076-.3828-.5103-.7832-.6079-1.2021-.1416-.6221-.2124-1.5391-.2124-2.752v-5.7852Z" style="fill: #01215c;"/><path d="M148.5317,136.5436v-2.0781h4.043v2.0781h-4.043Z" style="fill: #01215c;"/><path d="M163.2007,139.4362v-10.8447h7.9614v1.835h-5.7935v2.4043h5.3906v1.8271h-5.3906v2.9512h5.9985v1.8271h-8.1665Z" style="fill: #01215c;"/><path d="M175.8691,139.4362v-10.7559h2.168v8.9287h5.3906v1.8271h-7.5586Z" style="fill: #01215c;"/><path d="M187.6206,139.4362v-10.8447h7.9614v1.835h-5.7935v2.4043h5.3906v1.8271h-5.3906v2.9512h5.9985v1.8271h-8.1665Z" style="fill: #01215c;"/><path d="M200.2598,139.4362v-10.8447h2.168v4.8154l4.3799-4.8154h2.915l-4.043,4.2236,4.2627,6.6211h-2.8052l-2.9517-5.0898-1.7578,1.8125v3.2773h-2.168Z" style="fill: #01215c;"/><path d="M216.0576,139.4362v-9.0098h-3.186v-1.835h8.5327v1.835h-3.1787v9.0098h-2.168Z" style="fill: #01215c;"/><path d="M225.458,139.4362v-10.8447h4.563c1.1475,0,1.981.0977,2.5015.292.5195.1953.936.542,1.2485,1.04s.4688,1.0674.4688,1.708c0,.8145-.2368,1.4863-.7104,2.0166-.4736.5293-1.1816.8643-2.124,1.002.4688.2764.8555.5791,1.1611.9102.3047.3301.7163.917,1.2339,1.7607l1.311,2.1152h-2.5928l-1.5674-2.3594c-.5566-.8438-.9375-1.375-1.1426-1.5947-.2051-.2188-.4224-.3701-.6519-.4512s-.5933-.1221-1.0913-.1221h-.4395v4.5273h-2.168ZM227.626,133.1784h1.604c1.04,0,1.6895-.0449,1.9482-.1338s.4614-.2412.6079-.458c.1465-.2178.2197-.4883.2197-.8145,0-.3643-.0967-.6592-.2891-.8838-.1934-.2246-.4653-.3662-.8169-.4248-.1758-.0254-.7031-.0371-1.582-.0371h-1.6919v2.752Z" style="fill: #01215c;"/><path d="M238.4214,134.0807c0-1.1045.1636-2.0322.4907-2.7812.2441-.5527.5771-1.0488,1-1.4873.4219-.4385.8848-.7646,1.3877-.9766.6689-.2861,1.4404-.4287,2.3145-.4287,1.582,0,2.8477.4951,3.7979,1.4863.9492.9912,1.4243,2.3701,1.4243,4.1357,0,1.75-.4712,3.1201-1.4136,4.1094-.9424.9883-2.2021,1.4824-3.7793,1.4824-1.5967,0-2.8662-.4912-3.8086-1.4756-.9424-.9834-1.4136-2.3389-1.4136-4.0645ZM240.6553,134.0065c0,1.2275.2808,2.1592.8423,2.793.5615.6328,1.2744.9502,2.1387.9502s1.5732-.3145,2.1274-.9434.8315-1.5723.8315-2.8291c0-1.2432-.27-2.1699-.8091-2.7822-.54-.6113-1.2563-.917-2.1499-.917s-1.6138.3096-2.1606.9287-.8203,1.5518-.8203,2.7998Z" style="fill: #01215c;"/><path d="M255.5874,139.4362v-9.0098h-3.186v-1.835h8.5327v1.835h-3.1787v9.0098h-2.168Z" style="fill: #01215c;"/><path d="M264.9805,139.4362v-10.8447h7.9614v1.835h-5.7935v2.4043h5.3906v1.8271h-5.3906v2.9512h5.9985v1.8271h-8.1665Z" style="fill: #01215c;"/><path d="M284.4609,135.4489l2.1021.6729c-.3223,1.1836-.8584,2.0635-1.6074,2.6377-.75.5742-1.7007.8613-2.853.8613-1.4258,0-2.5977-.4912-3.5156-1.4756-.918-.9834-1.377-2.3291-1.377-4.0352,0-1.8047.4614-3.207,1.3843-4.2051.9229-.999,2.1362-1.498,3.6401-1.498,1.3135,0,2.3804.3916,3.2007,1.1758.4883.4639.8545,1.1299,1.0986,1.9971l-2.146.5186c-.127-.5625-.3921-1.0068-.7944-1.332-.4033-.3252-.8926-.4883-1.4688-.4883-.7959,0-1.4419.2891-1.9375.8652-.4956.5771-.7432,1.5117-.7432,2.8037,0,1.3711.2441,2.3477.7324,2.9297s1.123.873,1.9043.873c.5762,0,1.0718-.1846,1.4868-.5547s.7129-.9521.8936-1.7461Z" style="fill: #01215c;"/><path d="M291.0078,139.4362v-10.8447h2.168v4.2686h4.248v-4.2686h2.168v10.8447h-2.168v-4.7422h-4.248v4.7422h-2.168Z" style="fill: #01215c;"/><path d="M304.4326,139.4362v-10.8447h2.1094l4.3945,7.2422v-7.2422h2.0142v10.8447h-2.1753l-4.3286-7.0723v7.0723h-2.0142Z" style="fill: #01215c;"/><path d="M317.7549,139.4362v-10.8447h2.168v10.8447h-2.168Z" style="fill: #01215c;"/><path d="M324.6601,139.4362v-10.8447h2.168v4.8154l4.3799-4.8154h2.915l-4.043,4.2236,4.2627,6.6211h-2.8057l-2.9512-5.0898-1.7578,1.8125v3.2773h-2.168Z" style="fill: #01215c;"/><path d="M344.6016,136.5436v-2.0781h4.043v2.0781h-4.043Z" style="fill: #01215c;"/><path d="M362.0098,139.4362l-3.8379-10.8447h2.3516l2.7168,8.0264,2.6299-8.0264h2.2998l-3.8457,10.8447h-2.3145Z" style="fill: #01215c;"/><path d="M371.8809,139.4362v-10.8447h7.9609v1.835h-5.793v2.4043h5.3906v1.8271h-5.3906v2.9512h5.998v1.8271h-8.166Z" style="fill: #01215c;"/><path d="M384.498,139.4362v-10.8447h4.5635c1.1465,0,1.9805.0977,2.501.292.5195.1953.9355.542,1.249,1.04.3115.498.4688,1.0674.4688,1.708,0,.8145-.2373,1.4863-.7109,2.0166-.4736.5293-1.1816.8643-2.124,1.002.4688.2764.8555.5791,1.1611.9102.3047.3301.7158.917,1.2344,1.7607l1.3105,2.1152h-2.5928l-1.5674-2.3594c-.5566-.8438-.9375-1.375-1.1426-1.5947-.2051-.2188-.4229-.3701-.6523-.4512s-.5928-.1221-1.0908-.1221h-.4395v4.5273h-2.168ZM386.666,133.1784h1.6045c1.0391,0,1.6885-.0449,1.9473-.1338s.4619-.2412.6084-.458c.1465-.2178.2197-.4883.2197-.8145,0-.3643-.0967-.6592-.2891-.8838-.1934-.2246-.4648-.3662-.8164-.4248-.1758-.0254-.7031-.0371-1.582-.0371h-1.6924v2.752Z" style="fill: #01215c;"/><path d="M397.915,139.4362v-10.8447h7.3613v1.835h-5.1934v2.5664h4.4824v1.835h-4.4824v4.6084h-2.168Z" style="fill: #01215c;"/><path d="M418.5928,139.4362h-2.3574l-.9375-2.4629h-4.293l-.8857,2.4629h-2.2998l4.1816-10.8447h2.293l4.2988,10.8447ZM414.6016,135.1452l-1.4795-4.0234-1.4502,4.0234h2.9297Z" style="fill: #01215c;"/><path d="M422.3281,139.4362v-10.8447h2.168v4.2686h4.248v-4.2686h2.168v10.8447h-2.168v-4.7422h-4.248v4.7422h-2.168Z" style="fill: #01215c;"/><path d="M435.7383,139.4362v-10.8447h4.5635c1.1465,0,1.9805.0977,2.501.292.5195.1953.9355.542,1.249,1.04.3115.498.4688,1.0674.4688,1.708,0,.8145-.2373,1.4863-.7109,2.0166-.4736.5293-1.1816.8643-2.124,1.002.4688.2764.8555.5791,1.1611.9102.3047.3301.7158.917,1.2344,1.7607l1.3105,2.1152h-2.5928l-1.5674-2.3594c-.5566-.8438-.9375-1.375-1.1426-1.5947-.2051-.2188-.4229-.3701-.6523-.4512s-.5928-.1221-1.0908-.1221h-.4395v4.5273h-2.168ZM437.9062,133.1784h1.6045c1.0391,0,1.6885-.0449,1.9473-.1338s.4619-.2412.6084-.458c.1465-.2178.2197-.4883.2197-.8145,0-.3643-.0967-.6592-.2891-.8838-.1934-.2246-.4648-.3662-.8164-.4248-.1758-.0254-.7031-.0371-1.582-.0371h-1.6924v2.752Z" style="fill: #01215c;"/><path d="M449.1406,139.4362v-10.8447h7.9609v1.835h-5.793v2.4043h5.3906v1.8271h-5.3906v2.9512h5.998v1.8271h-8.166Z" style="fill: #01215c;"/><path d="M461.7725,139.4362v-10.8447h2.1094l4.3945,7.2422v-7.2422h2.0137v10.8447h-2.1748l-4.3291-7.0723v7.0723h-2.0137Z" style="fill: #01215c;"/><path d="M474.6113,135.9079l2.1094-.207c.127.7148.3848,1.2402.7725,1.5752.3887.3359.9121.5029,1.5713.5029.6982,0,1.2246-.1484,1.5781-.4473.3545-.2988.5312-.6475.5312-1.0469,0-.2559-.0742-.4746-.2236-.6543-.1484-.1807-.4092-.3369-.7793-.4697-.2549-.0889-.833-.2471-1.7363-.4736-1.1621-.291-1.9775-.6484-2.4463-1.0732-.6592-.5957-.9893-1.3232-.9893-2.1816,0-.5527.1553-1.0693.4658-1.5498.3096-.4805.7568-.8467,1.3398-1.0986.584-.252,1.2881-.377,2.1133-.377,1.3477,0,2.3623.2979,3.043.8945.6816.5967,1.0391,1.3936,1.0732,2.3896l-2.168.0957c-.0928-.5566-.292-.958-.5967-1.2012-.3057-.2441-.7637-.3662-1.374-.3662-.6289,0-1.123.1299-1.4785.3916-.2305.168-.3447.3916-.3447.6729,0,.2568.1074.4766.3223.6592.2734.2314.9375.4727,1.9922.7246,1.0547.251,1.835.5117,2.3398.7803.5059.2686.9014.6357,1.1865,1.1025.2861.4658.4287,1.042.4287,1.7266,0,.6221-.1709,1.2041-.5127,1.7461-.3418.543-.8252.9463-1.4502,1.21s-1.4043.3955-2.3369.3955c-1.3574,0-2.3994-.3164-3.127-.9502s-1.1621-1.5576-1.3037-2.7705Z" style="fill: #01215c;"/><path d="M490.1875,139.4362v-9.0098h-3.1855v-1.835h8.5332v1.835h-3.1797v9.0098h-2.168Z" style="fill: #01215c;"/><path d="M499.581,139.4362v-10.8447h7.9609v1.835h-5.793v2.4043h5.3906v1.8271h-5.3906v2.9512h5.998v1.8271h-8.166Z" style="fill: #01215c;"/><path d="M519.0605,135.4489l2.1025.6729c-.3223,1.1836-.8584,2.0635-1.6074,2.6377-.75.5742-1.7012.8613-2.8526.8613-1.4267,0-2.5986-.4912-3.5156-1.4756-.9189-.9834-1.377-2.3291-1.377-4.0352,0-1.8047.4609-3.207,1.3838-4.2051.9229-.999,2.1357-1.498,3.6396-1.498,1.3135,0,2.3809.3916,3.2012,1.1758.4883.4639.8545,1.1299,1.0986,1.9971l-2.1455.5186c-.1279-.5625-.3926-1.0068-.7949-1.332-.4033-.3252-.8926-.4883-1.4688-.4883-.7959,0-1.4414.2891-1.9375.8652-.4951.5771-.7432,1.5117-.7432,2.8037,0,1.3711.2441,2.3477.7324,2.9297s1.123.873,1.9043.873c.5762,0,1.0713-.1846,1.4873-.5547.4141-.3701.7119-.9521.8926-1.7461Z" style="fill: #01215c;"/><path d="M525.6084,139.4362v-10.8447h2.168v4.2686h4.248v-4.2686h2.168v10.8447h-2.168v-4.7422h-4.248v4.7422h-2.168Z" style="fill: #01215c;"/><path d="M539.0322,139.4362v-10.8447h2.1094l4.3945,7.2422v-7.2422h2.0137v10.8447h-2.1748l-4.3291-7.0723v7.0723h-2.0137Z" style="fill: #01215c;"/><path d="M552.3545,139.4362v-10.8447h2.168v10.8447h-2.168Z" style="fill: #01215c;"/><path d="M559.2607,139.4362v-10.8447h2.168v4.8154l4.3789-4.8154h2.916l-4.043,4.2236,4.2617,6.6211h-2.8047l-2.9512-5.0898-1.7578,1.8125v3.2773h-2.168Z" style="fill: #01215c;"/></g></g></g></svg>