<svg xmlns="http://www.w3.org/2000/svg" width="305.601" height="48.095" viewBox="0 0 305.601 48.095"><g id="creaton-gmbh-logo-vector" transform="translate(-21.5 -274.989)"><g id="Gruppe_7" data-name="Gruppe 7" transform="translate(21.5 275.911)"><path id="Pfad_103" data-name="Pfad 103" d="M55.326,293.347a12.524,12.524,0,0,0-10.087-4.89c-7.03,0-11.819,5.4-11.819,12.277,0,6.979,4.839,12.022,11.971,12.022a13.292,13.292,0,0,0,9.934-4.687v13.805c-3.821,1.172-6.572,2.038-10.137,2.038a24.6,24.6,0,0,1-16.607-6.521c-4.89-4.381-7.081-10.137-7.081-16.709a23.1,23.1,0,0,1,6.521-16.2A23.937,23.937,0,0,1,44.882,277.3a26.586,26.586,0,0,1,10.494,2.241v13.805Z" transform="translate(-21.5 -277.045)" fill="#01215c"/><path id="Pfad_104" data-name="Pfad 104" d="M129.431,323.969H115.116l-10.851-17.015h-.1v17.015H92.6V279.7h17.218c8.762,0,15.385,4.177,15.385,13.6,0,6.113-3.413,11.411-9.679,12.481Zm-25.318-24.452h1.121c3.77,0,8-.713,8-5.5,0-4.84-4.228-5.5-8-5.5h-1.121Z" transform="translate(-56.38 -278.223)" fill="#01215c"/><path id="Pfad_105" data-name="Pfad 105" d="M172.113,289.43v7.387h12.939V306.6H172.113v7.59h13.652v9.781H160.6V279.7h25.165v9.73Z" transform="translate(-89.74 -278.223)" fill="#01215c"/><path id="Pfad_106" data-name="Pfad 106" d="M216.383,316.276l-3.057,7.692H201.1L218.115,279.7H230.7l16.658,44.269H235.078l-2.853-7.692Zm8.049-22.924h-.1l-4.738,14.111h9.577Z" transform="translate(-109.608 -278.223)" fill="#01215c"/><path id="Pfad_107" data-name="Pfad 107" d="M295.739,323.969H284.226V289.43H274.7V279.7h30.565v9.73h-9.526Z" transform="translate(-145.715 -278.223)" fill="#01215c"/><path id="Pfad_108" data-name="Pfad 108" d="M377.006,299.571c0,14.315-10.29,24.4-24.5,24.4s-24.5-10.087-24.5-24.4c0-13.4,11.768-22.771,24.5-22.771s24.5,9.373,24.5,22.771m-36.984.051c0,7.641,5.655,13.194,12.481,13.194,6.877,0,12.481-5.553,12.481-13.194,0-6.113-5.655-11.666-12.481-11.666s-12.481,5.553-12.481,11.666" transform="translate(-171.863 -276.8)" fill="#01215c"/></g><g id="Gruppe_8" data-name="Gruppe 8" transform="translate(227.714 274.989)"><path id="Pfad_109" data-name="Pfad 109" d="M426.3,279.7h11.513l21.039,27.05h.1V279.7h11.513v44.269H458.954l-21.039-27.152h-.1v27.152H426.3Z" transform="translate(-426.3 -277.3)" fill="#01215c"/><path id="Pfad_110" data-name="Pfad 110" d="M608.2,283.862a3.362,3.362,0,1,1,3.362,3.362,3.359,3.359,0,0,1-3.362-3.362m6.215,0a2.837,2.837,0,0,0-2.853-2.8,2.8,2.8,0,1,0,0,5.6,2.837,2.837,0,0,0,2.853-2.8m-1.274,1.783h-.611l-1.121-1.681H610.8v1.681h-.509v-3.668h1.579c.662,0,1.324.2,1.324.968,0,.713-.509.968-1.172,1.019Zm-1.681-2.19c.458,0,1.274.1,1.274-.509,0-.357-.509-.458-.866-.458H610.9v.917h.56Z" transform="translate(-515.536 -277.692)" fill="#01215c"/><path id="Pfad_111" data-name="Pfad 111" d="M572.773,318.5v24.045H536.4" transform="translate(-480.313 -296.334)" fill="none" stroke="#01215c" stroke-linecap="round" stroke-width="2.165"/><path id="Pfad_112" data-name="Pfad 112" d="M567.633,296.8c.051.051.1.153.2.255a1.9,1.9,0,0,1,.611-.1.747.747,0,0,1,.1.2c.153.051.306-.051.408,0,.2.1.2.458.306.713l.357.051c.1.1.051.458.1.611l.1.051v.2c.051.051.255.051.306.1.153.458-.153.713,0,1.223,0,.051.2.153.255.2-.051.1,0,.255,0,.357l-.2.051a1.522,1.522,0,0,0,.1.764v.1l-.1.051c0,.1-.051.458.051.458,0,0-.051.2-.051.1a1.056,1.056,0,0,1,.1.306h-.051a7.942,7.942,0,0,0-.306.764c-.051.051-.2,0-.255.051-.051.153,0,.255-.051.408-.051.1-.255.153-.306.255v.1a3.067,3.067,0,0,1-.408.408c-.1.051-.306.051-.357.1-.1.1,0,.306-.051.408-.051.051-.153,0-.153.051-.1.051-.2.357-.306.408-.153.1-.357,0-.458.1v.1c-.2.1-.051.2-.2.408-.153.255-.458.2-.713.357l-.306.458c-.1,0-.153-.051-.306-.051a1.333,1.333,0,0,1-.306.662c-.153.1-.306,0-.408.1s0,.255-.051.408c-.1.306-.611.408-.764.662-.1.153-.153.458-.306.56a.641.641,0,0,1-.407.051c-.255.1-.306.408-.458.611-.2.153-.458.2-.662.357-.1.051,0,.153-.051.255a1.155,1.155,0,0,1-.2.051c-.153.1-.153.357-.306.458-.051.051-.153,0-.2,0v.1c-.051.051-.1-.051-.2,0s-.2.306-.306.357c-.1.1-.306.1-.408.2-.051.051-.153.255-.255.306-.153.051-.306,0-.408.051s-.051.255-.1.357a2.905,2.905,0,0,1-.56.56c-.2.1-.357,0-.56.1-.051,0,0,.153,0,.2a1.9,1.9,0,0,1-.306.357c-.2.153-.357.1-.611.2l-.051.1c-.051,0-.153-.051-.2,0-.051,0,0,.153,0,.2l-.255.255c-.153.1-.357-.051-.56.051-.255.1-.1.408-.255.662h-.1c-.153.051-.1.255-.2.357h-.2v.1c-.2.1-.306-.1-.56,0a1.12,1.12,0,0,1-.255.306c-.1.051-.306,0-.357.051s0,.306-.051.357c-.2.153-.408,0-.713.1v.2c0,.051-.306.306-.357.357v.051c-.153.051-.306,0-.458.051-.1.051-.2.255-.306.306s-.2,0-.306,0c-.357.051-.56.408-.662.713a.867.867,0,0,0-.357-.051c-.051.153-.051.408-.1.458h-.2l-.2.2c-.153.051-.357-.051-.458,0v.2c0,.051-.2.153-.255.2l-.051.1c-.153.051-.357-.051-.458,0s-.2.306-.306.357c-.051,0-.2-.051-.255,0s-.2.357-.306.408c-.051.051-.2-.051-.306,0-.051,0-.1.2-.2.255s-.2-.051-.306,0v.051c-.1.051-.2.306-.306.357s-.2,0-.306.051c-.153.1-.255.408-.408.458s-.408-.051-.56,0c0,0-.509.56-.56.611-.153.051-.357-.051-.56.051l-.153.306c-.153.1-.306.051-.408.1-.153.1-.2.357-.357.458-.255.2-.611.153-.917.306-.051,0-.1.153-.1.2-.1.1-.255.1-.357.2s-.153.306-.255.357c-.051,0-.153-.051-.2,0s-.1.255-.2.306a1.353,1.353,0,0,1-.306-.255l-.1.051c-.051.1,0,.306-.051.357s-.2,0-.255,0c-.153.051-.255.2-.408.306a1,1,0,0,0-.357.051s-.2.408-.306.458c-.306.2-.713.153-.917.255v.2c-.051.051-.1-.051-.2,0l-.1.2h-.051c-.051,0-.1-.153-.1-.2a1.087,1.087,0,0,0-.408,0c-.153.255-.306.56-.56.662-.1.051-.2,0-.306.051l-.051.1c-.1.051-.2-.051-.306,0a.747.747,0,0,0-.1.2c-.153.051-.306-.051-.407,0-.051,0-.1.153-.1.2-.1.051-.255.051-.306.2-.1.153.051.357-.051.458-.051.051-.153.051-.2.1a1.92,1.92,0,0,0-.815-.2c-.153.051-.2.408-.357.458-.1.051-.306-.051-.408,0v.051a2.828,2.828,0,0,0-.408.306c-.051,0-.153-.051-.2,0s-.1.255-.2.306c-.153.051-.306,0-.408.051-.1.1-.1.255-.2.408-.153-.051-.255-.051-.408-.1-.051,0-.051-.153-.051-.2-.051-.051-.2.051-.255,0-.1.051-.2.255-.306.306-.051,0-.153-.051-.255,0-.051,0-.1.153-.1.2-.153.051-.357-.051-.458,0v.2c-.051.051-.1-.051-.2,0-.051,0-.1.153-.1.2a2.444,2.444,0,0,1-.611,0v-.2c-.051-.051-.153.051-.255,0v.2c-.051.051-.153-.051-.255,0a2.45,2.45,0,0,1,.458-.56c.051-.051.153,0,.2-.051.1-.153.051-.408.255-.56.051-.051.2,0,.255,0s.051-.153.1-.2c.153-.051.357.051.56,0,.153-.051.2-.306.306-.357.153-.1.306,0,.458-.1.2-.153.051-.255.2-.408.051-.1.255-.1.306-.2s0-.255,0-.357c.1-.051.1.051.1-.1.153,0,.153.051.255.051a1.548,1.548,0,0,0,.357-.255c.2-.051.255.1.458-.051.1-.051,0-.2.051-.306l.357-.357c.153-.051.2.153.357.051.051-.051.306-.662.408-.713.051-.051.2,0,.255,0a3.884,3.884,0,0,0,.458-.458c.051-.1.051-.2.1-.306.051-.051.255-.1.306-.2v-.1c.255-.2.509-.051.713-.2,0,0,.153-.458.255-.458.1-.051.255.051.357,0,.1,0,.611-.509.662-.56h.2a1.384,1.384,0,0,0,0-.458h.2c.1,0,.153.051.306.051.051-.051-.051-.153,0-.255.051-.051.1,0,.2-.051.051,0,.1-.2.1-.255.1,0,.306.051.407,0,.051-.051.1-.2.2-.255l.357-.051c.153-.2-.051-.458.255-.611.1-.051.306.051.408,0v-.2c0-.051.1-.051.2-.051v-.1c.1-.051.306.051.408,0,.153-.051.1-.306.255-.357.153-.1.458-.051.662-.1,0-.153-.051-.255-.051-.408-.1,0-.1,0-.153-.1h.1c.051,0,.1-.2.1-.255.1,0,.255.051.357,0,.051,0,.153-.153.2-.2.051,0,.153.051.2,0s.051-.306.1-.357c0-.051.153,0,.2,0l.051-.2h.1c.1-.1.051-.255.1-.408h.2a4.04,4.04,0,0,1,.2-.458l.1.051.051.255a.646.646,0,0,1,.306-.051,2.286,2.286,0,0,0,.051-.56l.357-.1c.1-.1.153-.357.255-.458.2-.255.866-.611.968-.815a1.267,1.267,0,0,0,.051-.408c.306-.1.509-.051.611-.306,0-.051-.051-.153,0-.2s.2,0,.255,0l.051-.1c.153-.051.255,0,.357-.051v-.1c.051,0,.153.051.2,0s.153-.357.255-.357h.1c.051-.051,0-.2,0-.255s.2-.153.255-.255c0-.1-.051-.255,0-.306.051-.1.509-.153.662-.255.2-.153.153-.306.2-.611.051,0,.153-.1.2-.1-.051,0,.255.255.458-.1.1-.2,0-.357.1-.56.051-.1.306-.255.357-.306.1-.153.1-.255.2-.408.2,0,.255.051.458.051.1-.2.1-.357.2-.56.051-.051.153-.051.2-.1s0-.2.051-.255.153,0,.255-.051.2-.306.306-.357c.1-.1.255-.051.357-.1.255-.2.408-.56.662-.764l.051-.051c.051,0,.2.051.255,0v-.2c.051-.1.255-.153.357-.255.051-.051,0-.153.051-.2s.153,0,.2,0c.1-.051.2-.306.306-.357.051,0,.153.051.2,0s.153-.306.2-.357h.051c0-.051-.051-.153,0-.255,0-.051.153-.1.2-.1,0-.051-.051-.2,0-.255.153-.2.458-.1.662-.255a2.127,2.127,0,0,0,.306-.408c0-.051-.051-.2,0-.255.1-.1.357-.1.408-.255s0-.255.051-.357c.051-.051.255.051.306,0v-.2c0-.051.255-.255.306-.306a9.563,9.563,0,0,0,1.274-1.223c.1-.153.1-.306.255-.408s.357-.1.56-.2c.255-.153.255-.611.458-.713h.051c0-.051-.051-.153,0-.2.153-.2.509-.255.662-.458.051-.051,0-.153,0-.2.051-.153.255-.2.306-.306s0-.2.051-.255.153,0,.2,0c0,0,.306-.255.306-.306.051-.1.051-.458.1-.56.051-.051.408-.255.458-.306.153-.153.255-.509.357-.611.051-.051.153,0,.153,0,.153-.051.509-.611.662-.713s.357-.1.458-.255c.1-.1.051-.255.1-.357h.2v.2c.1.051.2-.051.306,0,0-.1-.051-.255,0-.357.051-.153.255-.1.357-.2v-.2a4.961,4.961,0,0,0,.56-.255c.051,0,.1-.153.1-.2.255-.1.56.051.815,0a.578.578,0,0,0,.866-.051" transform="translate(-477.517 -285.689)" fill="#01215c"/><path id="Pfad_113" data-name="Pfad 113" d="M560.65,274.994c.2-.051.2.255.611.255,0,0,.2-.153.255-.2.153,0,.713.051.764.051v.1a1.586,1.586,0,0,1,.306.2c.1.051.255,0,.357,0l.611.408c.1.153.051.306.2.458l.306.357c.1.051.2,0,.255.051.051.1,0,.255.051.408,0,.051.153.1.2.1.051.2-.051.408,0,.611l.1.1a4.6,4.6,0,0,1-.1,1.477c-.1.255-.357.458-.458.662a3.111,3.111,0,0,1-.357.713,1.156,1.156,0,0,1-.2.051c-.1.2-.051.306-.1.56h-.1a3.122,3.122,0,0,1-.255.611h-.1c-.051.1,0,.2-.051.306s-.255.1-.306.2c-.153.2-.306.662-.458.815-.1.1-.357.1-.408.2s.1.1.051.255h-.051c-.051.051-.1.306-.2.357s-.2,0-.306.051l-.306.255a.306.306,0,0,0-.051.2c-.051.051-.255.1-.306.2s-.051.2-.1.306c-.1.1-.2.1-.306.2-.051.051-.051.255-.1.306h-.1c-.1.1-.1.255-.2.357-.051.051-.306.1-.357.2s0,.2-.051.306c-.1.153-.306.2-.408.306-.051.051,0,.153-.051.2h-.1c-.051.1.051.255,0,.357a1.156,1.156,0,0,1-.2.051v.1a1.451,1.451,0,0,0-.56.662.641.641,0,0,1-.2.357c-.153.1-.255.051-.408.1s-.2.357-.357.408c-.051,0-.153-.051-.2,0-.153.153-.1.306-.255.458-.051.051-.1,0-.2.051s-.051.2-.1.306c-.1.1-.255.1-.357.2a3.121,3.121,0,0,1-.2.306.538.538,0,0,1-.255.1c-.051.1,0,.255-.051.357h-.1s-.357.611-.407.662c-.153.153-.458.2-.611.408-.051.051,0,.1,0,.2a3.427,3.427,0,0,1-.357.56h-.1c-.2.051-.357.458-.56.611-.051.051-.2,0-.255.051s-.051.255-.1.306-.509.153-.56.2c-.051,0,0,.153,0,.2h-.1s-.2.408-.306.458-.255.051-.357.1c-.153.153,0,.306-.1.458-.051.1-.255.153-.357.255s-.1.306-.255.408c-.051.051-.2,0-.255.051v.1c-.1.051-.2.051-.306.2-.153.2-.153.357-.408.458v.1c-.051.051-.408.153-.408.2-.051.051-.051.306-.1.408-.051.051-.255.2-.306.255-.051.1-.051.2-.1.306-.153.153-.306.153-.458.255v.1c-.2.1-.357,0-.458.2-.051.051.051.2,0,.306h-.1c-.051.1,0,.153-.051.255s-.153.051-.255.1c-.153.153-.153.255-.357.357v.1c-.1.051-.2.051-.306.1-.051,0-.051.153-.051.2h-.1c-.1.1-.051.357-.2.458-.1.1-.255.1-.407.2-.051,0-.051.153-.051.2-.1.051-.255,0-.357.051v.1c-.2.1-.255.357-.458.458v.1h-.2l-.408.357c-.1.153-.1.357-.255.458s-.306,0-.458.1-.153.408-.306.56c-.051.051-.153,0-.2.051v.1c-.153.1-.357,0-.458.2l-.1.408a2.063,2.063,0,0,0-.56,0v.2h-.1c-.051,0-.051.2-.051.255-.051.051-.2.1-.255.2-.1.153-.1.357-.255.458-.255.255-.408.1-.662.255v.1c0,.051-.2.1-.255.1-.1.1-.1.255-.2.408a2.554,2.554,0,0,1-.408.357c-.153,0-.1-.1-.255-.051-.051,0-.1.153-.2.2v.458c-.153.051-.458.051-.611.1-.306.153-.407.611-.611.815-.051.051-.306.255-.357.306-.051,0-.1-.051-.2,0-.1.1-.2.306-.306.357-.153.1-.56.1-.662.2s-.1.56-.306.662c-.306.153-.56-.051-.815.2-.051.051-.051.2-.051.255h-.255c-.051.1,0,.2-.051.306-.051.051-.255.2-.306.255-.051.1-.2.509-.306.56-.153.051-.408-.1-.458-.051-.1,0-.2.408-.306.458-.051.051-.153,0-.2,0v.1c-.153.1-.255.051-.357.2-.1.051-.1.306-.153.357-.306.2-.662.051-.917.255a2.483,2.483,0,0,0-.153.357c-.051.051-.153,0-.255.051v.1h-.2c-.255.051-.153.306-.255.56-.051-.051-.1.051-.2,0v-.2h-.1a.867.867,0,0,0-.051.357,1.487,1.487,0,0,0-.458.1c-.1.051-.153.255-.306.306h-.255l-.1.1c-.2.051-.2-.051-.357-.051,0,.255.051.408-.255.611v.1c-.1.051-.306,0-.407,0v.1c-.153.051-.1-.1-.255-.051v.1a1.156,1.156,0,0,0-.2.051h-.2c-.1.1-.051.408-.2.458-.1.1-.306.051-.407.1v.2c-.051,0-.1.1-.1.1a1.375,1.375,0,0,1-.458,0,.306.306,0,0,1-.051.2c-.153.051-.2-.1-.306-.051-.051.051-.153.509-.306.56s-.2-.1-.407-.051c-.1.051-.255.408-.357.408-.051,0-.153-.153-.306-.051,0,0-.2.357-.255.357-.1.051-.2-.051-.306,0-.051,0-.1.153-.1.2-.2.1-.357,0-.56-.051v-.255h-.1c0,.2-.051.408-.051.56a.866.866,0,0,0-.357-.051v-.255a2.932,2.932,0,0,0-.968.764c.1-.051-.153-.051-.153-.051.1-.1.306-.153.357-.306.051-.1-.051-.2,0-.306s.306-.458.408-.458c.051-.051.1.051.2,0,.1.1.051.1.2.2a5.545,5.545,0,0,1,.051-.968c.1.051.2-.255.255-.2,0,0,.051-.051.153,0v.255c.1,0,.051-.1.1,0,.051-.1.051.2.051.2-.357.255-.1.306.1.458a4.041,4.041,0,0,1,.2-.458h.255c.051-.051-.051-.255.051-.306s.255.051.357,0a1.569,1.569,0,0,1,0-.968h.2v-.1c.051,0,.2.051.255,0s0-.2,0-.255c.051-.153.306-.153.357-.306v-.408c.1,0,.2.051.306.051.2-.255.306-.509.611-.662.153-.1.357-.051.458-.2.1-.1.153-.764.1-.611v-.2l.2-.051v-.2h.051v-.051c.051-.051.2,0,.255-.051.051-.1,0-.255.051-.357.051-.051.1,0,.2-.051.051-.051.051-.1.051-.2.1.051.2,0,.306.051s.051.1.051.255h.1c.051-.1,0-.153.051-.255.153-.2.255-.051.357-.408v-.408l.255-.1c-.1-.051.255-.153.1-.051h.051v.1c.1,0,.255-.051.357,0v-.458a2.007,2.007,0,0,1-.306.1c-.051,0-.1-.255,0-.2a.4.4,0,0,1,0-.255h.1l.051-.2h.1l.051.1c.1.051.153.051.255.1.051-.051.1,0,.2-.051.051-.051.051-.306.1-.357.153-.1.357,0,.458-.1a3.862,3.862,0,0,1,.2-.56c.153-.153.357-.1.56-.255s0-.2.051-.408c.1-.306.815-.611,1.019-.662-.2-.051,0-.509.051-.662.1.051.2-.051.306,0,0,0-.051.1.1.2.051-.1,0-.2.051-.357h.1c.051,0,.051-.255.051-.306.051-.051.255-.051.306-.1v-.1c.051-.2.408-.306.611-.408.1.051.1.1.255.2.051-.1.1-.153.1-.2.051-.153-.051-.357,0-.458s.458-.306.458-.357c.051-.153-.051-.255.051-.357s.306,0,.408-.1l.2-.408c.1.051.2-.051.306,0l.2.255a.386.386,0,0,1,.2-.1c-.1-.815.153-.866.56-1.324.051.051.2.255.255.306a1.066,1.066,0,0,0,.306-.2c.051-.051.051-.2.1-.255h.1c.153-.2.051-.408.2-.713.051-.1.255-.2.306-.306v-.1c.1-.051.2,0,.306-.051,0-.1-.051-.408,0-.458,0-.051.2-.051.255-.051v-.2c.1.051.153,0,.306.051v.2s.357-.1.2-.1a1.066,1.066,0,0,1,.2-.306s-.1-.1-.051-.2c.051-.051.306-.1.255-.051.1.051.1.1.255.051.051,0,0-.1.1-.051,0-.1.1-.153.1-.306,0-.1-.1-.255-.1-.357.1-.051.1-.1.1-.1.1-.051.2.051.306,0,.1-.611,0-.357.357-.662.051-.051,0-.153.051-.2s.153,0,.2-.051c.051-.1-.051-.255,0-.357,0-.051.357-.255.408-.306.1-.1.1-.458.255-.56.1-.051.2,0,.306-.051.051-.051,0-.2,0-.255s.153-.1.2-.1c.051-.1.051-.2.1-.306.051.051.153-.051.255,0l.051.2h.2c.051-.051,0-.153,0-.255.051-.153.357-.153.56-.255a1.363,1.363,0,0,1,.1-.56l-.2-.051c0,.255-.051,0-.051.255h-.255l-.1-.051v-.255c0-.051-.1-.051-.1-.051a1.6,1.6,0,0,1-.408.56h-.051c0,.051.051.2,0,.255-.051,0-.153-.051-.2,0s0,.1,0,.2a6.114,6.114,0,0,1-.56.611c-.051.051-.2,0-.255,0s-.1.2-.2.255-.2.051-.306.1c-.051.051,0,.153-.051.255h-.1s-.306.408-.357.408c-.051.051-.1-.051-.2,0s-.255.357-.357.408c-.1.1-.306.1-.408.255-.051.051,0,.153-.051.255s-.306.153-.408.255v.1c-.1.051-.56.1-.408.051h-.306c-.051.051-.153.357-.255.408-.051,0-.153-.051-.2,0-.153.2-.051.509-.306.611h-.1c-.051.051.051.2,0,.255-.1,0-.255-.1-.357-.051v.255a1.292,1.292,0,0,1-.611.1,5.977,5.977,0,0,0,.255-.56c.051,0,.255.051.306,0s.051-.255.051-.306c.051-.1.255-.2.306-.306.1-.153.1-.408.2-.56.1-.1.2-.051.357-.1.051-.255,0-.408.1-.611.051-.051.2,0,.255-.051l.255-.306c.1-.153.1-.408.255-.56.1-.1.407-.2.458-.306a4.65,4.65,0,0,0,.407-.662l.764-.662h.2c.051-.1,0-.357.051-.458l.306-.1c.153-.255.051-.509.2-.713s.357-.153.611-.255c.051-.051,0-.153.051-.2h.1c.1-.2.051-.56.153-.713s.2-.1.357-.2c.1-.051.1-.255.2-.306.153-.153.357-.153.458-.306.051-.051.306-.458.306-.458,0-.051-.051-.1,0-.2s.255-.2.306-.306v-.1c.1-.051.2,0,.306-.051.051-.051.153-.408.255-.458.051-.051.255-.051.306-.1v-.2c.051-.1.306-.255.357-.357s0-.2.051-.306.306-.2.357-.255c.1-.153.1-.306.2-.408.153-.255.662-.509.764-.764.051-.1,0-.2.051-.306h.1l.051-.051c.1-.357.255-.255.357-.408s.051-.357.2-.56c.1-.1.306-.153.357-.255v-.2c.051-.153.306-.306.357-.408.051-.051,0-.2.051-.255h.1c.153-.051.153-.357.306-.408h.1c.1-.1.051-.306.1-.408.1-.2.306-.1.408-.2s.153-.357.255-.458c.153-.153.408-.306.56-.458.051-.1,0-.2.051-.357h.1c.051-.051-.051-.1,0-.2h.051c.153-.051.2-.408.306-.56.051-.051.153-.051.2-.1.051-.1.051-.306.1-.408h.1c.051-.051-.051-.1,0-.2a1.155,1.155,0,0,1,.2-.051c.051-.051,0-.153.051-.255.153-.2.458-.357.611-.56.153-.153.153-.408.306-.56a.306.306,0,0,1,.2-.051c.051-.051,0-.153,0-.2.051-.051.2-.1.255-.2.1-.153.051-.255.1-.408.051-.051.2-.1.255-.2a3.111,3.111,0,0,1,.255-.611c.051-.1.2-.051.306-.1s.153-.306.255-.408c.051-.051.2-.1.255-.2.1-.153.051-.306.2-.458l.1-.051c.051-.153,0-.255.051-.357.1-.153.357-.255.458-.408.051-.051,0-.1,0-.2.051-.1.2-.1.306-.2h0c.255-.153.662-.153.968-.306.1-.051.153-.255.255-.306s.2,0,.306-.051l.051-.1a4.658,4.658,0,0,1,.713-.357v-.2c.153-.051.357,0,.458-.051s.2-.306.306-.357c.2-.051.153.1.306.1.1,0,.306-.255.56-.2.1,0,.1.2.255.2v-.1a1.036,1.036,0,0,0,.255-.051c.255-.051.407.1.662.051a.734.734,0,0,1,.357-.306" transform="translate(-473.641 -274.989)" fill="#01215c"/></g><g id="Gruppe_9" data-name="Gruppe 9" transform="translate(277.025 277.847)"><path id="Pfad_114" data-name="Pfad 114" d="M523.1,316.514V280.6h29.19" transform="translate(-523.1 -280.6)" fill="none" stroke="#01215c" stroke-linecap="round" stroke-width="2.165"/></g></g></svg>