<svg xmlns="http://www.w3.org/2000/svg" id="deppe-logo-neg" width="166.581" height="48.095" viewBox="0 0 166.581 48.095"><g id="g3" transform="translate(0.001 39.621)"><path id="path5" d="M385.835,443.837v-8.132h.774v4.373l4.726-4.373h1.049l-3.632,3.36,3.8,4.772h-1l-3.381-4.236-1.56,1.447v2.789ZM380,435.706h.774v8.134H380Zm-12.924,8.133v-8.134h1.14l2.813,7.13,2.8-7.13h1.138v8.132H374.2V436.81h-.024l-2.778,7.027h-.729l-2.79-7.027h-.024v7.029h-.772Zm-7.731-7.36-1.627,4.17h3.2Zm-3.679,7.36,3.281-8.134h.865L363,443.839h-.831l-.99-2.529h-3.7l-.979,2.529h-.832Zm-9.28-7.471v3.2h2.895a1.615,1.615,0,0,0,1.753-1.582,1.533,1.533,0,0,0-1.753-1.618H346.39Zm-.773,7.471v-8.134h3.724c1.342,0,2.472.65,2.472,2.12a1.953,1.953,0,0,1-1.582,2.071v.024c1.058.137,1.367.864,1.421,1.832a4.66,4.66,0,0,0,.376,2.087h-.854a3.19,3.19,0,0,1-.214-1.265c-.07-1.138-.16-2.4-1.629-2.347H346.39v3.612h-.773Zm-10.11,0v-8.132h5.613v.661h-4.838V439.3h4.531v.661h-4.531v3.211h4.895v.659h-5.669Zm-10.739,0v-8.132h.774v4.373l4.727-4.373h1.049l-3.633,3.36,3.8,4.772h-1L327.1,439.6l-1.56,1.447v2.789h-.775Zm-4.86-2.8h-2.848v-.661h2.848Zm-14.1,2.8v-8.134h.865l4.737,6.88h.023v-6.88h.774v8.134h-.864l-4.737-6.88h-.023v6.88Zm-5.818-8.133h.774v8.134h-.774Zm-10.168,8.13v-8.132h5.613v.661H290.6V439.3h4.531v.661H290.6v3.211h4.895v.659h-5.669Zm-10.57-7.469v-.661H285.7v.661h-2.836v7.471h-.774v-7.471Zm-10.064,4.794h.774c-.033,1.674,1.173,2.187,2.654,2.187.854,0,2.152-.466,2.152-1.652,0-.923-.923-1.287-1.674-1.469l-1.81-.444c-.958-.239-1.833-.694-1.833-1.958,0-.8.512-2.288,2.8-2.288,1.605,0,3.018.864,3.006,2.527h-.774a2,2,0,0,0-2.22-1.868c-1.06,0-2.038.409-2.038,1.618,0,.763.569,1.081,1.229,1.24l1.982.491c1.15.307,2.106.808,2.106,2.14,0,.558-.228,2.325-3.109,2.325-1.924,0-3.337-.865-3.246-2.848h0m-10.327,2.676v-8.132h.774v4.373l4.724-4.373h1.047l-3.631,3.36,3.8,4.772h-1L261.2,439.6l-1.56,1.447v2.789Zm-4.657-5.672h-.774a2.465,2.465,0,0,0-2.495-1.969c-2.15,0-3.062,1.8-3.062,3.577s.911,3.577,3.062,3.577a2.663,2.663,0,0,0,2.61-2.609h.773a3.321,3.321,0,0,1-3.383,3.27c-2.56,0-3.836-2.016-3.836-4.238s1.276-4.236,3.836-4.236a3.115,3.115,0,0,1,3.269,2.628h0m-14.473-1.686-1.627,4.17h3.2Zm-3.679,7.36,3.281-8.134h.865l3.188,8.134h-.831l-.991-2.529h-3.7l-.978,2.529Zm-9.279-7.471v2.9h2.665c1.241,0,1.833-.614,1.833-1.377,0-1.015-.626-1.526-1.833-1.526h-2.665ZM226,443.837v-8.132h3.44c1.367,0,2.608.482,2.608,1.993a1.848,1.848,0,0,1-1.412,1.823v.023a1.9,1.9,0,0,1,1.719,1.981c0,.774-.273,2.311-2.915,2.311Zm.774-3.9v3.245h2.665c1.15.012,2.141-.376,2.141-1.674,0-1.037-.786-1.571-2.141-1.571Z" transform="translate(-226.001 -435.537)" fill="#01215c"/></g><path id="polygon7" d="M355.239,427.954v-6.581H374.27v-6.966H355.239V408.36h19.014v-7.208H346.24v34.542h28.012v-7.74Z" transform="translate(-207.689 -401.152)" fill="#01215c"/><g id="g9" transform="translate(0 0)"><path id="path11" d="M317.482,435.7V401.152h16.4c6.434,0,12.482,2.952,12.482,11.126,0,8.561-4.886,11.9-12.482,11.9h-7.4V435.7h-9Zm9-27.344v8.854h6.047c2.806,0,4.837-1.16,4.837-4.3,0-3.241-2.08-4.548-4.837-4.548h-6.047Z" transform="translate(-212.069 -401.152)" fill="#01215c"/><path id="path13" d="M288.723,435.7V401.152h16.4c6.434,0,12.48,2.952,12.48,11.126,0,8.561-4.885,11.9-12.48,11.9h-7.4V435.7h-9Zm9-27.344v8.854h6.046c2.807,0,4.838-1.16,4.838-4.3,0-3.241-2.081-4.548-4.838-4.548h-6.046Z" transform="translate(-216.448 -401.152)" fill="#01215c"/><path id="path15" d="M226,435.694V401.152h14.852c10.594,0,16.93,6.433,16.93,17.125,0,11.32-6.434,17.417-16.93,17.417Zm9-26.8v19.062h4.257c6.822-.149,9.529-2.807,9.529-9.726,0-6.288-3.385-9.337-9.529-9.337H235Z" transform="translate(-226 -401.152)" fill="#01215c"/></g><path id="path17" d="M30.158,34.528H63.545V24.65H30.158v9.877Zm0-12.318H63.545V12.334H30.158V22.21Zm0-12.317H63.545V.017H30.158V9.893Z" transform="translate(4.593 0.003)" fill="#01215c"/></svg>