<svg xmlns="http://www.w3.org/2000/svg" width="169.357" height="48.095" viewBox="0 0 169.357 48.095"><g id="ect_kema" transform="translate(-1147 -122)"><path id="Pfad_115" data-name="Pfad 115" d="M20.789,41.579h0A20.871,20.871,0,0,1,0,20.789H0A20.871,20.871,0,0,1,20.789,0h0A20.871,20.871,0,0,1,41.579,20.789h0A20.871,20.871,0,0,1,20.789,41.579Z" transform="translate(1147 122)" fill="none"/><path id="Pfad_116" data-name="Pfad 116" d="M74.433,20.682c.559-1.427,1.614-1.924,4.53-1.924,3.972,0,4.778.745,4.778,4.53v.931H74.061a10.546,10.546,0,0,1,.372-3.537m4.592,14.087c-2.11,0-3.351-.372-4.034-1.117C74.371,32.907,74,31.17,74,28.811V27.88H89.017c0-5.275-.124-6.454-.621-8.13C87.28,15.965,84.859,14.6,79.026,14.6,70.648,14.6,68.6,17.082,68.6,26.763c0,10.115,1.986,12.412,10.86,12.412,7.323,0,9.557-1.862,9.557-7.943H83.68c-.062,2.979-.745,3.537-4.654,3.537" transform="translate(1120.972 116.46)" fill="#01215c"/><path id="Pfad_117" data-name="Pfad 117" d="M120.894,29.58c0,4.282-.621,4.9-4.406,4.9-2.048,0-3.289-.31-3.848-.869-.869-.931-1.179-2.855-1.179-6.764,0-6.951.559-7.819,4.9-7.819,2.3,0,3.351.434,3.91,1.365a8.994,8.994,0,0,1,.434,2.731v.124h5.213a12.168,12.168,0,0,0-.745-5.151c-1.117-2.482-3.786-3.6-9.061-3.6-4.344,0-6.951.993-8.378,3.1-1.3,1.8-1.738,4.22-1.738,9.185,0,5.833.683,8.5,2.544,10.24,1.614,1.489,3.91,2.048,8.192,2.048,4.965,0,7.137-.745,8.44-2.979.745-1.241,1.117-2.979,1.117-5.647v-.807h-5.4Z" transform="translate(1106.782 116.498)" fill="#01215c"/><path id="Pfad_118" data-name="Pfad 118" d="M151.574,19.282h6.268V15H140.9v4.282h6.144v19.61h4.53Z" transform="translate(1093.54 116.309)" fill="#01215c"/><path id="Pfad_119" data-name="Pfad 119" d="M24.635,7.5A16.17,16.17,0,0,0,8.5,23.759a13.763,13.763,0,0,0,.186,2.3,14.5,14.5,0,0,1,2.358-8.688,15.024,15.024,0,0,1,6.33-5.461,14.526,14.526,0,0,1,6.951-1.241,13.8,13.8,0,0,1,7.385,2.917c5.213,4.22,6.516,12.163,2.234,17.376a12.942,12.942,0,0,1-3.351,2.731,10.566,10.566,0,0,1-4.1,1.241A9.877,9.877,0,0,1,15.637,28.1a9.141,9.141,0,0,1,.248-5.9,7.716,7.716,0,0,1,4.965-4.654,7.59,7.59,0,0,1,7.819,1.862,5.789,5.789,0,0,1,1.551,4.716A5.532,5.532,0,1,1,24.7,18.174a6.114,6.114,0,0,1,1.055.124,6.285,6.285,0,0,0-4.965.124,7.711,7.711,0,0,0-2.669,1.986,7.057,7.057,0,0,0-1.614,3.6,8.022,8.022,0,0,0,1.055,5.461,9.2,9.2,0,0,0,3.6,3.289,10.3,10.3,0,0,0,4.53.807A8.882,8.882,0,0,0,32.144,30.4a10.123,10.123,0,0,0,2.3-7.881,10.577,10.577,0,0,0-4.716-7.447,11.088,11.088,0,0,0-5.089-1.738,12.425,12.425,0,0,0-4.53.5,13.384,13.384,0,0,0-5.089,3.227,12.5,12.5,0,0,0-2.793,5.4,14.214,14.214,0,0,0,.062,5.833A12.632,12.632,0,0,0,15.7,34.371a13.054,13.054,0,0,0,3.351,2.482,13.049,13.049,0,0,0,5.337,1.179,16.18,16.18,0,0,0,2.979-.31c.124.745.186,1.489.31,2.234a16.215,16.215,0,0,0,13.28-16.011A16.488,16.488,0,0,0,24.635,7.5" transform="translate(1143.775 119.154)" fill="#01215c"/><path id="Pfad_120" data-name="Pfad 120" d="M71.2,69h3.91v-.621a2.328,2.328,0,0,1,.062-.621h-.434c0,.5-.186.683-.745.683H72.751a.723.723,0,0,1-.434-.124c.062-.124,0-.186,0-.372V66.02h2.11l.062-.621H72.317V63.848c0-.31,0-.31.062-.372a.465.465,0,0,1,.31-.062h1.3c.372,0,.5.124.5.5v.062h.434c0-.31-.062-.434-.062-.683v-.5h-3.6v.434a.525.525,0,0,1,.372.124c.062.062.062.124.062.248v4.468c0,.248,0,.31-.062.372,0,.062,0,.062-.062.062-.062.062-.124.062-.31.124Zm4.406,0h1.551l.062-.31h-.062c-.124,0-.31-.124-.31-.248,0-.062,0-.124.062-.124l.124-.124.807-1.179.931,1.365a.228.228,0,0,1,.062.186c0,.124-.062.124-.31.124l-.062.31h1.551l.062-.372a.522.522,0,0,1-.434-.248l-1.365-1.862,1.3-1.676c.124-.186.186-.248.372-.248l.062-.372H78.523l-.062.372c.186,0,.248.062.248.248,0,.062,0,.124-.124.248l-.745,1.055L77.1,65.027c-.062-.124-.124-.186-.124-.248a.2.2,0,0,1,.186-.186h.062l.062-.372H75.73l-.062.434h.124c.124,0,.124,0,.31.248l1.3,1.738-1.365,1.676a.642.642,0,0,1-.434.31Zm4.841-4.22h.559V67.82c0,.621,0,.683.124.869a.927.927,0,0,0,.869.434,1.483,1.483,0,0,0,.869-.31l.372-.372-.372-.31a1.073,1.073,0,0,1-.745.372.41.41,0,0,1-.434-.372V64.779h1.241l.062-.559h-1.3V62.979l-.621.186-.062,1.055h-.5ZM83.55,69h1.676l.062-.372h-.062a.375.375,0,0,1-.372-.186c-.062-.062-.062-.248-.062-.5V66.454l.124-.31.124-.434a1.1,1.1,0,0,1,.993-.869.83.83,0,0,1,.31.062l.124-.683a1.212,1.212,0,0,0-.434-.062.937.937,0,0,0-.869.5,2.279,2.279,0,0,0-.372.869V64.158h-.434l-.683.062-.062.372h.124c.248,0,.372.124.372.621v2.731c0,.372,0,.5-.062.559s-.124.062-.372.124Zm3.289-4.344h.124c.31.062.372.124.372.5V67.82c0,.621.062.807.248.993a1.238,1.238,0,0,0,.807.248,1.615,1.615,0,0,0,1.427-.931,2.091,2.091,0,0,0,.372-.745v.559a2.111,2.111,0,0,0,.062.621.675.675,0,0,0,.062.31h.993l.062-.372h0A.375.375,0,0,1,91,68.316c-.062-.062-.062-.186-.062-.434V64.406A.922.922,0,0,1,91,64.034h-.683l-.683.062-.062.372h.062c.248,0,.372.062.434.186a1.353,1.353,0,0,1,.062.372v1.427l-.372.745a.322.322,0,0,0-.124.248c-.434.621-.683.869-1.117.869-.248,0-.434-.062-.434-.248a2.194,2.194,0,0,1-.062-.372V64.965a3.816,3.816,0,0,1,.062-.869h-.559l-.621.062Zm5.027,3.1v1.179a2.194,2.194,0,0,1,.372.062l.5.062a2.111,2.111,0,0,0,.621.062,1.418,1.418,0,0,0,1.614-1.614,1.126,1.126,0,0,0-.559-1.117,8.921,8.921,0,0,0-1.055-.372c-.5-.124-.559-.124-.683-.248-.062-.062-.062-.248-.062-.434q0-.745.931-.745c.559,0,.931.248.931.683v.062h.434V64.282h-.372l-.5-.062a2.111,2.111,0,0,0-.621-.062,1.29,1.29,0,0,0-1.551,1.365,1.136,1.136,0,0,0,.993,1.179l.683.186c.5.124.683.372.683.807a.9.9,0,0,1-.993.931c-.683,0-1.055-.31-1.055-.807v-.062Zm3.661-3.1h0l.186.062c.248.062.31.124.31.248v3.041c0,.5-.062.559-.5.621L95.465,69h1.551l.062-.372a.474.474,0,0,1-.31-.124c-.062-.062-.062-.124-.062-.248V65.337a6.034,6.034,0,0,1,.062-1.117h-.559l-.683.062Zm.807-1.055a.605.605,0,0,0,.683-.621c0-.248-.124-.31-.434-.31-.434,0-.683.186-.683.621-.062.186.124.31.434.31M97.7,66.578c0,1.117.31,1.924.931,2.234a2.641,2.641,0,0,0,1.055.248,1.575,1.575,0,0,0,1.614-.807,4.181,4.181,0,0,0,.372-1.676c0-1.179-.31-1.986-.931-2.3a2.593,2.593,0,0,0-1.117-.186,1.645,1.645,0,0,0-1.614.745,4.829,4.829,0,0,0-.31,1.738m1.986-1.862c.869,0,1.241.559,1.241,1.8a5.064,5.064,0,0,1-.124,1.117,1.086,1.086,0,0,1-1.117.807c-.869,0-1.241-.559-1.241-1.862s.372-1.862,1.241-1.862M102.229,69h1.489l.062-.372h-.062c-.186,0-.31-.124-.31-.372V66.578l.248-.5a2.59,2.59,0,0,1,.372-.5c.5-.683.683-.807,1.055-.807a.41.41,0,0,1,.434.372v2.855c0,.372,0,.372-.062.5s-.124.124-.31.124l-.062.372h1.427l.062-.372a.525.525,0,0,1-.372-.124,1.515,1.515,0,0,1-.062-.434V65.337a1.6,1.6,0,0,0-.186-.931,1.072,1.072,0,0,0-.807-.31,1.427,1.427,0,0,0-1.117.5,3.732,3.732,0,0,0-.559.807,1.357,1.357,0,0,0-.186.31v-.869a2.546,2.546,0,0,1,.062-.683h-.5l-.559.062-.062.31h.062c.124,0,.248.062.248.186a1.717,1.717,0,0,1,.062.5V68.13h0c0,.31-.124.434-.31.434h0Zm7.075-4.22h.621v3.227a.893.893,0,0,1-.124.559c-.062.062-.124.062-.31.062l-.062.372h1.614l.062-.372h0c-.31,0-.5-.124-.5-.31V64.779h.993l.062-.559h-.993V63.1c0-.559.186-.683.807-.683h.434l.124-.621h-.248c-.683,0-.993.062-1.241.372a1.829,1.829,0,0,0-.5,1.365v.621h-.559Zm2.606,1.8c0,1.117.31,1.924.931,2.234a2.641,2.641,0,0,0,1.055.248,1.575,1.575,0,0,0,1.614-.807,4.181,4.181,0,0,0,.372-1.676c0-1.179-.31-1.986-.931-2.3a2.593,2.593,0,0,0-1.117-.186,1.645,1.645,0,0,0-1.614.745,6.7,6.7,0,0,0-.31,1.738m1.986-1.862c.869,0,1.241.559,1.241,1.8a5.064,5.064,0,0,1-.124,1.117,1.086,1.086,0,0,1-1.117.807c-.869,0-1.241-.559-1.241-1.862s.372-1.862,1.241-1.862M116.378,69h1.676l.062-.372h-.062a.375.375,0,0,1-.372-.186c-.062-.062-.062-.248-.062-.5V66.454l.124-.31.124-.434a1.1,1.1,0,0,1,.993-.869.83.83,0,0,1,.31.062l.124-.683a1.212,1.212,0,0,0-.434-.062.937.937,0,0,0-.869.5,2.279,2.279,0,0,0-.372.869V64.158h-.434l-.683.062-.062.372h.124c.248,0,.372.124.372.621v2.731c0,.372,0,.5-.062.559s-.124.062-.372.124Zm9.495-6.206H125.5a3.876,3.876,0,0,1-.745-.062,3.341,3.341,0,0,0-.683-.062c-1.427,0-2.234,1.179-2.234,3.351a3.834,3.834,0,0,0,.559,2.234,1.9,1.9,0,0,0,1.738.807,2.29,2.29,0,0,0,1.427-.434,1.873,1.873,0,0,0,.5-.5l-.372-.434a1.644,1.644,0,0,1-1.365.683c-1.179,0-1.676-.745-1.676-2.482,0-1.862.5-2.669,1.738-2.669.745,0,1.117.186,1.179.745L126,63.91c0-.31-.062-.434-.062-.745-.062-.062-.062-.124-.062-.372m4.282,3.786v-.31c0-1.427-.559-2.172-1.614-2.172a1.625,1.625,0,0,0-1.489.745,3.457,3.457,0,0,0-.5,1.862c0,1.614.559,2.42,1.738,2.42a2.115,2.115,0,0,0,1.365-.434,1.447,1.447,0,0,0,.434-.559l-.372-.372a1.459,1.459,0,0,1-1.3.745c-.745,0-1.179-.559-1.179-1.676v-.248Zm-1.738-1.986c.621,0,1.055.559,1.055,1.3v.186H127.3c.062-.931.434-1.489,1.117-1.489M130.652,69h1.676l.062-.372h-.062a.375.375,0,0,1-.372-.186c-.062-.062-.062-.248-.062-.5V66.454l.124-.31.124-.434a1.1,1.1,0,0,1,.993-.869.83.83,0,0,1,.31.062l.124-.683a1.212,1.212,0,0,0-.434-.062.937.937,0,0,0-.869.5,2.279,2.279,0,0,0-.372.869V64.158h-.434l-.683.062-.062.372h.124c.248,0,.372.124.372.621v2.731c0,.372,0,.5-.062.559s-.124.062-.372.124Zm6.02-1.055v.248a1.87,1.87,0,0,0,.186.745h.869l.062-.372c-.31,0-.434-.248-.434-.931v-2.3c0-.931-.434-1.3-1.365-1.3a4.1,4.1,0,0,0-.869.062c-.248.062-.5.124-.869.248l-.062.621a3.864,3.864,0,0,1,1.614-.372c.621,0,.931.248.931.869v.372h-1.117a1.853,1.853,0,0,0-1.241.372,1.778,1.778,0,0,0-.5,1.3c0,.931.5,1.489,1.241,1.489.621.062,1.055-.248,1.551-1.055m-1.489.5c-.434,0-.683-.31-.683-.807a1.474,1.474,0,0,1,.186-.745c.124-.248.372-.372.807-.372h1.117c0,1.055-.621,1.924-1.427,1.924m3.165.559h1.614l.062-.372H139.9c-.248,0-.372-.186-.372-.683V66.392c.559-1.117,1.055-1.614,1.489-1.614a.348.348,0,0,1,.372.31v2.979c0,.31,0,.31-.124.434-.062.124-.186.124-.372.124h0l-.062.372H142.5v-.372c-.372,0-.5-.124-.5-.5V66.392l.248-.5c.31-.559.372-.683.621-.869a1.31,1.31,0,0,1,.621-.248.467.467,0,0,1,.434.31c.062.062.062.186.062.372v2.482c0,.559-.062.683-.5.683l-.062.372h1.614v-.372h-.062a.358.358,0,0,1-.372-.372V65.213A1,1,0,0,0,143.56,64.1c-.683,0-1.241.434-1.614,1.489v-.5c0-.621-.31-.931-.869-.931-.745,0-1.055.31-1.738,1.489v-.869a2.138,2.138,0,0,1,.062-.559h-.434l-.621.062v.372h.062c.31,0,.372.124.372.5v3.227c0,.062,0,.062-.062.062a.322.322,0,0,1-.248.124h-.124Zm7.447-4.344h0l.186.062c.248.062.31.124.31.248v3.041c0,.5-.062.559-.5.621l-.062.372h1.551l.062-.372a.474.474,0,0,1-.31-.124c-.062-.062-.062-.124-.062-.248V65.337a6.034,6.034,0,0,1,.062-1.117h-.559l-.683.062Zm.745-1.055a.605.605,0,0,0,.683-.621c0-.248-.124-.31-.434-.31-.434,0-.683.186-.683.621,0,.186.186.31.434.31m4.716.559a2.689,2.689,0,0,0-.31.062,1.4,1.4,0,0,1-.434-.062,3.817,3.817,0,0,0-.807-.062c-1.117,0-1.8.931-1.8,2.544,0,1.551.621,2.42,1.8,2.42a1.844,1.844,0,0,0,1.3-.434,3.148,3.148,0,0,0,.372-.434l-.31-.434-.372.372c-.062.062-.124.062-.186.124a1.251,1.251,0,0,1-.683.186,1.012,1.012,0,0,1-1.055-.745,2.915,2.915,0,0,1-.124-1.117c0-1.3.372-1.862,1.3-1.862.621,0,.931.186,1.055.621l.372-.062v-.5c-.062-.31-.062-.372-.124-.621m2.793-.186h.434a.465.465,0,0,1,.559-.559h.745v4.654c0,.434-.124.621-.372.621h-.062l-.062.372h1.551l.062-.372h-.062a.474.474,0,0,1-.31-.124.228.228,0,0,1-.062-.186v-4.9h.745c.5,0,.559.062.559.434v.124h.5V62.855c-.993.062-1.365,0-2.11.062h-.248c-.621,0-.993,0-1.924-.062v.372c.124.186.124.372.062.745m7.571,2.606v-.31c0-1.427-.559-2.172-1.614-2.172a1.625,1.625,0,0,0-1.489.745,3.457,3.457,0,0,0-.5,1.862c0,1.614.621,2.42,1.8,2.42a2.115,2.115,0,0,0,1.365-.434,1.447,1.447,0,0,0,.434-.559l-.372-.372a1.459,1.459,0,0,1-1.3.745c-.745,0-1.179-.559-1.179-1.676v-.248Zm-1.738-1.986c.621,0,1.055.559,1.055,1.3v.186h-2.172c.062-.931.5-1.489,1.117-1.489m5.771-.434a2.688,2.688,0,0,0-.31.062,1.4,1.4,0,0,1-.434-.062,3.817,3.817,0,0,0-.807-.062c-1.117,0-1.8.931-1.8,2.544,0,1.551.621,2.42,1.8,2.42a1.844,1.844,0,0,0,1.3-.434,3.149,3.149,0,0,0,.372-.434l-.31-.434-.372.372c-.062.062-.124.062-.186.124a1.251,1.251,0,0,1-.683.186,1.06,1.06,0,0,1-1.055-.745,2.915,2.915,0,0,1-.124-1.117c0-1.3.372-1.862,1.3-1.862.621,0,.931.186,1.055.621l.372-.062v-.5a1.227,1.227,0,0,1-.124-.621M166.335,69h1.427v-.372H167.7c-.124,0-.248-.062-.248-.186-.062-.062-.062-.186-.062-.434V66.641c.683-1.3,1.179-1.862,1.676-1.862.248,0,.434.124.434.372v2.855c0,.31,0,.372-.062.5s-.124.124-.31.124l-.062.372h1.427l.062-.372a.525.525,0,0,1-.372-.124V65.337a1.6,1.6,0,0,0-.186-.931,1.072,1.072,0,0,0-.807-.31,1.427,1.427,0,0,0-1.117.5,3.732,3.732,0,0,0-.559.807.663.663,0,0,0-.186.31V62.545a2.326,2.326,0,0,1,.062-.683h-.559l-.559.062-.062.31h.062a.47.47,0,0,1,.248.124c.062.062.062.124.062.31v5.523c0,.31-.062.372-.31.434Zm4.965,0h1.489l.062-.372h-.062c-.186,0-.31-.124-.31-.372V66.578l.248-.5a2.59,2.59,0,0,1,.372-.5c.5-.683.683-.807,1.055-.807a.41.41,0,0,1,.434.372v2.855c0,.372,0,.372-.062.5s-.124.124-.31.124l-.062.372h1.427l.062-.372a.525.525,0,0,1-.372-.124,1.515,1.515,0,0,1-.062-.434V65.337a1.6,1.6,0,0,0-.186-.931,1.072,1.072,0,0,0-.807-.31,1.427,1.427,0,0,0-1.117.5,3.732,3.732,0,0,0-.559.807,1.357,1.357,0,0,0-.186.31v-.869a2.546,2.546,0,0,1,.062-.683h-.5l-.559.062-.062.31h.062c.124,0,.248.062.248.186a1.717,1.717,0,0,1,.062.5V68.13h0c0,.31-.124.434-.31.434h0Zm4.841-2.42c0,1.117.31,1.924.931,2.234a2.924,2.924,0,0,0,1.055.248,1.575,1.575,0,0,0,1.614-.807,4.181,4.181,0,0,0,.372-1.676c0-1.179-.31-1.986-.869-2.3a2.593,2.593,0,0,0-1.117-.186,1.645,1.645,0,0,0-1.614.745,3.778,3.778,0,0,0-.372,1.738m1.986-1.862c.869,0,1.241.559,1.241,1.8a5.064,5.064,0,0,1-.124,1.117,1.086,1.086,0,0,1-1.117.807c-.869,0-1.241-.559-1.241-1.862s.372-1.862,1.241-1.862m2.358-2.482h.124a.442.442,0,0,1,.372.186.8.8,0,0,1,.124.5V68.13c0,.31-.062.372-.248.434-.062,0-.124.062-.186.062l-.062.372h1.676v-.372h-.124a.536.536,0,0,1-.372-.186c-.062-.062-.062-.186-.062-.434V63.041a6.4,6.4,0,0,1,.062-1.179h-.559l-.745.062Zm2.234,4.344c0,1.117.31,1.924.931,2.234a2.641,2.641,0,0,0,1.055.248,1.575,1.575,0,0,0,1.614-.807,4.181,4.181,0,0,0,.372-1.676c0-1.179-.31-1.986-.931-2.3a2.593,2.593,0,0,0-1.117-.186,1.645,1.645,0,0,0-1.614.745,4.83,4.83,0,0,0-.31,1.738m1.986-1.862c.869,0,1.241.559,1.241,1.8a5.064,5.064,0,0,1-.124,1.117,1.086,1.086,0,0,1-1.117.807c-.869,0-1.241-.559-1.241-1.862s.372-1.862,1.241-1.862m3.041,4.53a2.319,2.319,0,0,0-.372.434,1.812,1.812,0,0,0-.124.559c0,.807.745,1.3,1.862,1.3,1.179,0,1.924-.621,1.924-1.551a1,1,0,0,0-.683-1.117,3,3,0,0,0-1.3-.186c-.31,0-.5-.124-.5-.31a.322.322,0,0,1,.124-.248c.124-.124.248-.186.5-.434h.186a1.581,1.581,0,0,0,1.676-1.614,1.982,1.982,0,0,0-.186-.869c-.062-.062-.062-.124-.124-.248l.621-.186.062-.434-1.055.124a2.614,2.614,0,0,0-1.117-.248,1.778,1.778,0,0,0-1.862,1.8,1.683,1.683,0,0,0,.683,1.427,1.509,1.509,0,0,0,.683.186c-.31.186-.621.372-.683.559a.474.474,0,0,0-.124.31.942.942,0,0,0,1.055.869h.559c.559,0,.869.248.869.745,0,.559-.5.869-1.241.869-.807,0-1.241-.248-1.241-.869a.866.866,0,0,1,.186-.559Zm1.489-4.53a1.078,1.078,0,0,1,1.179,1.179,1.222,1.222,0,0,1-.372.993,1.331,1.331,0,0,1-.745.248,1.158,1.158,0,0,1-1.241-1.179,1.125,1.125,0,0,1,1.179-1.241m2.544-.186a.365.365,0,0,1,.31.124l.124.248a5.7,5.7,0,0,1,.186.559c.062.124.124.372.31.745.5,1.241.621,1.676.807,2.234.062.124.124.372.248.683-.248.559-.372.807-.559,1.179s-.31.559-.621,1.117h.807a30.375,30.375,0,0,0,1.3-3.041l.931-2.731.186-.5c.062-.124.062-.186.124-.248.124-.248.124-.248.372-.31l.062-.372H194.82l-.062.372h.062c.248,0,.372.124.372.248V64.9l-.062.248-.124.434-.248.807-.434,1.3a1.227,1.227,0,0,0-.124.621,1.211,1.211,0,0,1-.062-.434l-.062-.124-.248-.807-.248-.621-.248-.683-.186-.5a.469.469,0,0,1-.062-.248c0-.186.124-.248.31-.248l.062-.372h-1.427Z" transform="translate(1119.985 98.552)" fill="#01215c"/><path id="Pfad_121" data-name="Pfad 121" d="M172.706,43.168l3.661-4.468H173.7l-2.855,3.537h-.372V38.7H168.3v9.185h2.172V44.161h.372l3.165,3.723h2.731Z" transform="translate(1083.144 107.317)" fill="#01215c"/><path id="Pfad_122" data-name="Pfad 122" d="M189.006,41.913c0-1.427-.31-1.738-1.986-1.738-1.179,0-1.614.186-1.862.745a3.493,3.493,0,0,0-.124,1.365h3.972Zm2.172,2.979c0,2.358-.931,3.041-3.91,3.041-3.661,0-4.468-.869-4.468-4.778,0-3.723.869-4.654,4.282-4.654,2.358,0,3.413.559,3.848,1.986a9.883,9.883,0,0,1,.248,3.1h-6.144v.372a2.978,2.978,0,0,0,.434,1.862c.248.31.807.434,1.676.434,1.614,0,1.862-.186,1.924-1.365Z" transform="translate(1077.642 107.392)" fill="#01215c"/><path id="Pfad_123" data-name="Pfad 123" d="M201.586,38.624l-.062,1.427h.062a2.672,2.672,0,0,1,2.793-1.551c1.614,0,2.544.559,2.731,1.738h.062a2.631,2.631,0,0,1,2.855-1.738,3.067,3.067,0,0,1,2.731,1.117,4.289,4.289,0,0,1,.434,2.11v6.082h-2.172V42.223a3.775,3.775,0,0,0-.186-1.365c-.186-.372-.621-.559-1.365-.559-.869,0-1.614.31-1.8.807a3.553,3.553,0,0,0-.186,1.365v5.337h-2.172V42.1a4.639,4.639,0,0,0-.124-1.241c-.186-.372-.683-.559-1.365-.559-1.427,0-2.048.621-2.048,2.172v5.337H199.6V38.624Z" transform="translate(1071.268 107.392)" fill="#01215c"/><path id="Pfad_124" data-name="Pfad 124" d="M226.572,44.954c0,1.117.372,1.365,1.924,1.365s2.048-.31,2.048-1.365-.434-1.365-2.048-1.365c-1.551.062-1.924.372-1.924,1.365m-1.862-3.661a3.241,3.241,0,0,1,.372-1.8c.5-.683,1.427-.993,3.475-.993,3.165,0,4.1.745,4.1,3.289v6.02h-2.172l.124-1.241h-.062c-.5,1.055-1.179,1.365-2.855,1.365-2.42,0-3.289-.745-3.289-2.855s.931-2.855,3.351-2.855c1.8,0,2.42.248,2.793,1.055h.062V41.789c0-1.427-.372-1.8-1.862-1.8-1.365,0-1.676.248-1.738,1.3Z" transform="translate(1061.859 107.392)" fill="#01215c"/></g></svg>