<svg xmlns="http://www.w3.org/2000/svg" width="143.315" height="48.095" viewBox="0 0 143.315 48.095"><g id="Gasser_Ceramic" transform="translate(-0.3 -13.4)"><path id="Pfad_127" data-name="Pfad 127" d="M91.3,61.027h0A3.7,3.7,0,0,1,95.078,57.3a3.977,3.977,0,0,1,2.808.97l-.97,1.174a2.623,2.623,0,0,0-1.889-.715,2.165,2.165,0,0,0-2.042,2.246h0a2.174,2.174,0,0,0,2.2,2.3,2.791,2.791,0,0,0,1.481-.408V61.844H95.078V60.465h3.114V63.58A4.632,4.632,0,0,1,95.129,64.7,3.608,3.608,0,0,1,91.3,61.027" transform="translate(-44.539 -21.486)" fill="#01215c"/><path id="Pfad_128" data-name="Pfad 128" d="M109.063,57.4h1.481l3.063,7.2h-1.634l-.664-1.583H108.3l-.664,1.583H106Zm1.634,4.238-.97-2.349-.97,2.349Z" transform="translate(-51.733 -21.535)" fill="#01215c"/><path id="Pfad_129" data-name="Pfad 129" d="M121.4,63.578l.919-1.123a3.46,3.46,0,0,0,2.144.868c.664,0,1.021-.255,1.021-.664h0c0-.408-.255-.613-1.43-.919-1.43-.357-2.4-.766-2.4-2.2h0a2.229,2.229,0,0,1,2.5-2.144,4,4,0,0,1,2.655.919L126,59.493a3.234,3.234,0,0,0-1.889-.715c-.613,0-.919.255-.919.613h0c0,.46.306.613,1.532.919,1.43.357,2.3.919,2.3,2.144h0c0,1.43-1.072,2.246-2.655,2.246a4.578,4.578,0,0,1-2.961-1.123" transform="translate(-59.271 -21.535)" fill="#01215c"/><path id="Pfad_130" data-name="Pfad 130" d="M134.7,63.578l.919-1.123a3.46,3.46,0,0,0,2.144.868c.664,0,1.021-.255,1.021-.664h0c0-.408-.255-.613-1.43-.919-1.43-.357-2.4-.766-2.4-2.2h0a2.229,2.229,0,0,1,2.5-2.144,4,4,0,0,1,2.655.919l-.817,1.174a3.234,3.234,0,0,0-1.889-.715c-.613,0-.919.255-.919.613h0c0,.46.306.613,1.532.919,1.43.357,2.3.919,2.3,2.144h0c0,1.43-1.072,2.246-2.655,2.246a4.387,4.387,0,0,1-2.961-1.123" transform="translate(-65.78 -21.535)" fill="#01215c"/><path id="Pfad_131" data-name="Pfad 131" d="M149,57.5h5.412v1.379h-3.88v1.481h3.421v1.379h-3.421v1.532h3.931v1.379H149Z" transform="translate(-72.779 -21.584)" fill="#01215c"/><path id="Pfad_132" data-name="Pfad 132" d="M163.1,57.5h3.268a2.881,2.881,0,0,1,2.093.715,2.235,2.235,0,0,1,.613,1.634h0a2.246,2.246,0,0,1-1.532,2.246l1.736,2.553H167.44l-1.532-2.3h-1.225v2.3H163.1Zm3.165,3.472c.766,0,1.225-.408,1.225-1.021h0c0-.664-.46-1.021-1.225-1.021h-1.583v2.042Z" transform="translate(-79.68 -21.584)" fill="#01215c"/><path id="Pfad_133" data-name="Pfad 133" d="M183.8,60.927h0a3.827,3.827,0,0,1,6.535-2.6L189.314,59.5a2.648,2.648,0,0,0-1.838-.817,2.139,2.139,0,0,0-2.093,2.246h0a2.139,2.139,0,0,0,2.093,2.246,2.584,2.584,0,0,0,1.889-.817l1.021,1.021a3.678,3.678,0,0,1-2.961,1.276,3.6,3.6,0,0,1-3.625-3.727" transform="translate(-89.812 -21.437)" fill="#01215c"/><path id="Pfad_134" data-name="Pfad 134" d="M199.5,57.5h5.412v1.379h-3.829v1.481h3.37v1.379h-3.37v1.532h3.88v1.379H199.5Z" transform="translate(-97.496 -21.584)" fill="#01215c"/><path id="Pfad_135" data-name="Pfad 135" d="M213.6,57.5h3.268a2.881,2.881,0,0,1,2.093.715,2.235,2.235,0,0,1,.613,1.634h0a2.246,2.246,0,0,1-1.532,2.246l1.736,2.553H217.94l-1.532-2.3h-1.225v2.3H213.6V57.5Zm3.165,3.472c.766,0,1.225-.408,1.225-1.021h0c0-.664-.46-1.021-1.225-1.021h-1.583v2.042Z" transform="translate(-104.397 -21.584)" fill="#01215c"/><path id="Pfad_136" data-name="Pfad 136" d="M230.063,57.4h1.481l3.063,7.25h-1.634l-.664-1.634H229.3l-.664,1.634H227Zm1.685,4.187-.97-2.349-.97,2.349Z" transform="translate(-110.955 -21.535)" fill="#01215c"/><path id="Pfad_137" data-name="Pfad 137" d="M243.7,57.5h1.685l1.889,3.012,1.889-3.012h1.685v7.148h-1.532V60l-2.042,3.063h-.051L245.232,60v4.646H243.7Z" transform="translate(-119.129 -21.584)" fill="#01215c"/><rect id="Rechteck_11" data-name="Rechteck 11" width="1.583" height="7.148" transform="translate(133.812 35.916)" fill="#01215c"/><path id="Pfad_138" data-name="Pfad 138" d="M268.1,60.927h0a3.827,3.827,0,0,1,6.535-2.6L273.614,59.5a2.648,2.648,0,0,0-1.838-.817,2.139,2.139,0,0,0-2.093,2.246h0a2.139,2.139,0,0,0,2.093,2.246,2.584,2.584,0,0,0,1.889-.817l1.021,1.021a3.678,3.678,0,0,1-2.961,1.276,3.63,3.63,0,0,1-3.625-3.727" transform="translate(-131.071 -21.437)" fill="#01215c"/><path id="Pfad_139" data-name="Pfad 139" d="M44.719,46.689A22.4,22.4,0,1,1,24.348,14.983a22.131,22.131,0,0,1,12.3,3.727h2.706a24.029,24.029,0,1,0,7.148,28.03H44.719Z" transform="translate(0 0)" fill="#01215c"/><path id="Pfad_140" data-name="Pfad 140" d="M37.3,43.3v5.718h2.706a9.3,9.3,0,1,1-2.553-11.488h8.782a16.233,16.233,0,1,0,1.736,7.3c0-.511-.051-1.021-.051-1.532Z" transform="translate(-7.439 -7.439)" fill="#01215c"/><rect id="Rechteck_12" data-name="Rechteck 12" width="5.718" height="5.718" transform="translate(22.254 35.865)" fill="#01215c"/><rect id="Rechteck_13" data-name="Rechteck 13" width="1.072" height="5.718" transform="translate(28.789 35.865)" fill="#01215c"/></g></svg>