<svg xmlns="http://www.w3.org/2000/svg" width="71.695" height="100.005" viewBox="0 0 71.695 100.005"><g id="icon_trocknung" transform="translate(-366.603 -1595.283)"><path id="Pfad_244" data-name="Pfad 244" d="M166.609,211.678a23.141,23.141,0,0,1,3.147,4.608,1.465,1.465,0,0,0,2.6-1.35,25.811,25.811,0,1,0,2.129,5.631,1.465,1.465,0,0,0-2.843.708,23.014,23.014,0,0,1,.635,4.1H167.47a18.079,18.079,0,0,0-4.271-10.291Zm-2.08,16.63a15.159,15.159,0,0,1-3.409,8.212l-5.488-5.488a7.5,7.5,0,0,0,1.131-2.724h7.766ZM166.6,242l-3.4-3.4a18.079,18.079,0,0,0,4.271-10.291h4.807A22.859,22.859,0,0,1,166.6,242Zm-40.131-13.688h4.807a18.08,18.08,0,0,0,4.271,10.291l-3.4,3.4A22.859,22.859,0,0,1,126.466,228.309Zm5.681-16.618,3.4,3.4a18.079,18.079,0,0,0-4.271,10.291h-4.807A22.856,22.856,0,0,1,132.146,211.691Zm13.036,8.893-5.488-5.488a15.159,15.159,0,0,1,8.212-3.409v7.766A7.5,7.5,0,0,0,145.183,220.583Zm-2.072,2.072a7.5,7.5,0,0,0-1.131,2.724h-7.766a15.159,15.159,0,0,1,3.409-8.212Zm-1.131,5.654a7.5,7.5,0,0,0,1.131,2.724l-5.488,5.489a15.16,15.16,0,0,1-3.409-8.212Zm3.2,4.8a7.489,7.489,0,0,0,2.724,1.131V242a15.159,15.159,0,0,1-8.212-3.409Zm5.654,1.131a7.5,7.5,0,0,0,2.724-1.131l5.488,5.488A15.16,15.16,0,0,1,150.836,242Zm3.14-7.392a4.605,4.605,0,1,1-4.605-4.605A4.61,4.61,0,0,1,153.976,226.844Zm-6.07-18.1a18.079,18.079,0,0,0-10.291,4.271l-3.4-3.4a22.859,22.859,0,0,1,13.688-5.681Zm-10.291,31.926a18.081,18.081,0,0,0,10.291,4.271v4.807a22.859,22.859,0,0,1-13.688-5.681Zm13.221,4.271a18.079,18.079,0,0,0,10.291-4.271l3.4,3.4a22.858,22.858,0,0,1-13.688,5.681Zm2.724-24.359a7.49,7.49,0,0,0-2.724-1.131v-7.766a15.16,15.16,0,0,1,8.212,3.409Zm-2.724-11.838v-4.807a22.868,22.868,0,0,1,13.7,5.666l-3.412,3.412A18.08,18.08,0,0,0,150.836,208.745Zm13.693,16.634h-7.766a7.5,7.5,0,0,0-1.131-2.724l5.488-5.488A15.162,15.162,0,0,1,164.529,225.379Z" transform="translate(253.079 1433.573)" fill="#fff"/><path id="Pfad_245" data-name="Pfad 245" d="M110.369,195.363a1.465,1.465,0,0,0-1.465,1.465V198.2a1.465,1.465,0,0,0,2.93,0v-1.376A1.465,1.465,0,0,0,110.369,195.363Z" transform="translate(264.815 1438.079)" fill="#fff"/><path id="Pfad_246" data-name="Pfad 246" d="M391.026,196.828a1.465,1.465,0,0,0-2.93,0V198.2a1.465,1.465,0,0,0,2.93,0Z" transform="translate(40.156 1438.079)" fill="#fff"/><path id="Pfad_247" data-name="Pfad 247" d="M108.9,452.373a1.465,1.465,0,1,0,2.93,0V451a1.465,1.465,0,0,0-2.93,0Z" transform="translate(264.815 1233.555)" fill="#fff"/><path id="Pfad_248" data-name="Pfad 248" d="M389.561,449.532A1.465,1.465,0,0,0,388.1,451v1.376a1.465,1.465,0,1,0,2.93,0V451A1.465,1.465,0,0,0,389.561,449.532Z" transform="translate(40.156 1233.555)" fill="#fff"/><path id="Pfad_249" data-name="Pfad 249" d="M140.689,30.264H127.634v-2.4a3.7,3.7,0,0,0-3.692-3.692h-6.775V17.735h20.375a1.465,1.465,0,0,0,1.465-1.465V1.465A1.465,1.465,0,0,0,137.542,0H129a1.465,1.465,0,0,0,0,2.93h7.076V14.805H115.7a1.465,1.465,0,0,0-1.465,1.465v7.906H102.361V15.25A12.335,12.335,0,0,1,114.682,2.93h8.655a1.465,1.465,0,0,0,0-2.93h-8.655A15.268,15.268,0,0,0,99.431,15.25v8.926H92.7A3.7,3.7,0,0,0,89,27.869v2.4H75.947a3.48,3.48,0,0,0-3.476,3.476V83.812a1.465,1.465,0,1,0,2.93,0V33.74a.547.547,0,0,1,.546-.546h64.742a.547.547,0,0,1,.546.546V96.529a.547.547,0,0,1-.546.546H75.947a.547.547,0,0,1-.546-.546V89.476a1.465,1.465,0,0,0-2.93,0v7.052A3.48,3.48,0,0,0,75.947,100h64.742a3.48,3.48,0,0,0,3.476-3.476V33.74a3.48,3.48,0,0,0-3.476-3.476Zm-48.757,0v-2.4a.763.763,0,0,1,.762-.763h31.246a.763.763,0,0,1,.763.763v2.4Z" transform="translate(294.132 1595.283)" fill="#fff"/></g></svg>