<svg xmlns="http://www.w3.org/2000/svg" width="94.992" height="100.464" viewBox="0 0 94.992 100.464"><g id="icon_ersatzteile" transform="translate(-1464.554 -712)"><path id="Pfad_268" data-name="Pfad 268" d="M51.019,87.037a40.688,40.688,0,0,1-12.22-5.5L36.88,83.461a4.693,4.693,0,0,1-6.636,0l-4.767-4.767A4.656,4.656,0,0,1,24.1,75.379a4.753,4.753,0,0,1,1.379-3.332L27.4,70.134c-.295-.44-.584-.89-.857-1.341-.506-.823-.973-1.652-1.4-2.47a1.47,1.47,0,0,1,2.609-1.357c.417.806.846,1.574,1.29,2.3s.907,1.429,1.391,2.114a1.47,1.47,0,0,1-.095,1.974l-2.781,2.786a1.765,1.765,0,0,0,0,2.475l4.767,4.767a1.739,1.739,0,0,0,1.235.512,1.768,1.768,0,0,0,1.246-.506l2.764-2.764a1.465,1.465,0,0,1,1.908-.178,37.873,37.873,0,0,0,6.385,3.66,36.553,36.553,0,0,0,5.156,1.885V66.857A21.986,21.986,0,0,1,55.007,26.47L56.96,14.333a1.466,1.466,0,0,1,1.468-1.357h6.035a1.472,1.472,0,0,1,1.446,1.24l1.969,12.253a21.991,21.991,0,0,1,3.988,40.387v5.407a1.471,1.471,0,1,1-2.942,0V67.435H53.962v22.6a7.481,7.481,0,0,0,14.962,0V78.933a1.471,1.471,0,1,1,2.942,0v5.056A37.29,37.29,0,0,0,77.022,82.1a37.783,37.783,0,0,0,6.38-3.655,1.47,1.47,0,0,1,1.891.15l2.8,2.8a1.745,1.745,0,0,0,2.464-.016l4.767-4.767a1.7,1.7,0,0,0,.512-1.224,1.787,1.787,0,0,0-.512-1.252l-2.781-2.786a1.466,1.466,0,0,1-.156-1.891A37.706,37.706,0,0,0,98.86,53.848a1.461,1.461,0,0,1,1.446-1.224h3.938A1.776,1.776,0,0,0,106,50.866V44.125a1.766,1.766,0,0,0-1.752-1.752h-3.938a1.467,1.467,0,0,1-1.446-1.23c-.15-.885-.323-1.724-.512-2.531s-.423-1.63-.69-2.48a1.468,1.468,0,1,1,2.8-.873c.267.84.512,1.735.734,2.675.122.506.233,1,.334,1.5h2.714a4.709,4.709,0,0,1,4.695,4.694v6.741a4.7,4.7,0,0,1-4.695,4.689H101.53a40.568,40.568,0,0,1-6.04,14.579l1.919,1.924a4.759,4.759,0,0,1,1.374,3.332,4.628,4.628,0,0,1-1.374,3.3l-4.761,4.767a4.714,4.714,0,0,1-6.608.033l-1.952-1.952a40.688,40.688,0,0,1-12.22,5.5v3a10.424,10.424,0,0,1-20.848,0ZM55.8,29.29A19.058,19.058,0,0,0,51.82,63.942l2.314-4.905a1.479,1.479,0,0,1,1.374-.94h1.446V54.375a4.508,4.508,0,0,1,3.015-4.238V33.217H58.428a1.465,1.465,0,0,1-1.352-.9Zm7.12,3.927v16.92a4.509,4.509,0,0,1,3.015,4.238V58.1h1.446a1.476,1.476,0,0,1,1.329.846l2.359,5A19.068,19.068,0,0,0,67.088,29.29l-1.224,2.9a1.469,1.469,0,0,1-1.4,1.023ZM59.4,30.275h4.094l1.469-3.482L63.211,15.919H59.674L57.927,26.793ZM59.9,58.1h3.093V54.375a1.546,1.546,0,0,0-3.093,0V58.1Zm-5.09,6.4H68.078l-1.63-3.448H56.436Zm-29.519-5.44a1.467,1.467,0,0,1-2.8.885c-.295-.923-.551-1.852-.779-2.776-.128-.54-.25-1.074-.356-1.608H18.641a4.7,4.7,0,0,1-4.694-4.689V44.125a4.709,4.709,0,0,1,4.694-4.694h2.714A40.6,40.6,0,0,1,27.4,24.858l-1.919-1.925a4.706,4.706,0,0,1,0-6.636l4.767-4.767a4.693,4.693,0,0,1,6.636,0L38.8,13.449A40.571,40.571,0,0,1,53.382,7.409V4.694A4.7,4.7,0,0,1,58.072,0h6.741A4.7,4.7,0,0,1,69.5,4.694V7.408A40.575,40.575,0,0,1,84.08,13.449L86,11.53a4.792,4.792,0,0,1,3.332-1.374,4.627,4.627,0,0,1,3.3,1.374L97.407,16.3a4.708,4.708,0,0,1,.039,6.6l-1.958,1.958c.306.467.612.946.912,1.441q.768,1.26,1.435,2.57A1.465,1.465,0,0,1,95.227,30.2q-.626-1.227-1.335-2.386c-.456-.756-.957-1.518-1.5-2.275a1.471,1.471,0,0,1,.15-1.891l2.8-2.8a1.787,1.787,0,0,0,.5-1.246,1.762,1.762,0,0,0-.517-1.224L90.56,13.611a1.7,1.7,0,0,0-1.224-.512,1.787,1.787,0,0,0-1.251.512L85.3,16.391a1.467,1.467,0,0,1-1.891.156,37.7,37.7,0,0,0-15.613-6.469A1.461,1.461,0,0,1,66.57,8.632V4.694a1.776,1.776,0,0,0-1.758-1.752H58.071a1.776,1.776,0,0,0-1.758,1.752V8.543a1.46,1.46,0,0,1-1.224,1.535,37.732,37.732,0,0,0-15.53,6.407,1.464,1.464,0,0,1-1.975-.095L34.8,13.611a1.753,1.753,0,0,0-2.475,0l-4.767,4.767a1.749,1.749,0,0,0,0,2.475l2.781,2.786a1.467,1.467,0,0,1,.156,1.891,37.675,37.675,0,0,0-6.452,15.524,1.472,1.472,0,0,1-1.463,1.318H18.641a1.766,1.766,0,0,0-1.752,1.752v6.741a1.776,1.776,0,0,0,1.752,1.758H22.49a1.465,1.465,0,0,1,1.535,1.224c.156.9.334,1.78.54,2.625.211.885.456,1.747.723,2.581Z" transform="translate(1450.607 712)" fill="#fff"/></g></svg>