<svg xmlns="http://www.w3.org/2000/svg" width="104.192" height="99.603" viewBox="0 0 104.192 99.603"><g id="icon_werksleittechnik" transform="translate(-1.4 -2.7)"><path id="Pfad_292" data-name="Pfad 292" d="M89.566,74.4H9a1.7,1.7,0,0,1-1.7-1.7V26.3a6.806,6.806,0,0,1,6.8-6.8H84.466a6.807,6.807,0,0,1,6.8,6.8V72.7A1.7,1.7,0,0,1,89.566,74.4ZM10.7,71H87.866V26.3a3.4,3.4,0,0,0-3.4-3.4H14.1a3.4,3.4,0,0,0-3.4,3.4Z" transform="translate(4.128 11.755)" fill="#fff"/><path id="Pfad_293" data-name="Pfad 293" d="M97.6,69.347H9.219A7.793,7.793,0,0,1,1.4,61.528V51.5a1.7,1.7,0,0,1,1.7-1.7H103.892a1.7,1.7,0,0,1,1.7,1.7V61.528q0,.042,0,.085A8.06,8.06,0,0,1,97.6,69.347ZM4.8,53.2v8.329a4.394,4.394,0,0,0,4.419,4.419H97.6a4.662,4.662,0,0,0,4.589-4.465V53.2Z" transform="translate(0 32.956)" fill="#fff"/><path id="Rechteck_22" data-name="Rechteck 22" d="M.7-1H45.742a1.7,1.7,0,0,1,1.7,1.7V23.476a1.7,1.7,0,0,1-1.7,1.7H.7a1.7,1.7,0,0,1-1.7-1.7V.7A1.7,1.7,0,0,1,.7-1ZM44.042,2.4H2.4V21.776H44.042Z" transform="translate(30.275 42.623)" fill="#fff"/><path id="Pfad_294" data-name="Pfad 294" d="M30.348,43.238a1.693,1.693,0,0,1-1.126-.427l-5.949-5.269a1.7,1.7,0,0,1,0-2.545l5.949-5.269a1.7,1.7,0,1,1,2.254,2.545l-4.512,4,4.512,4a1.7,1.7,0,0,1-1.128,2.972Z" transform="translate(14.904 18.612)" fill="#fff"/><path id="Pfad_295" data-name="Pfad 295" d="M37.5,43.238a1.7,1.7,0,0,1-1.128-2.972l4.512-4-4.512-4a1.7,1.7,0,0,1,2.254-2.545L44.576,35a1.7,1.7,0,0,1,0,2.545L38.627,42.81A1.693,1.693,0,0,1,37.5,43.238Z" transform="translate(24.07 18.612)" fill="#fff"/><path id="Linie_1" data-name="Linie 1" d="M.7,12.6A1.7,1.7,0,0,1-.84,10.179L3.919-.019A1.7,1.7,0,0,1,7,1.419L2.24,11.617A1.7,1.7,0,0,1,.7,12.6Z" transform="translate(50.331 48.742)" fill="#fff"/><path id="Pfad_296" data-name="Pfad 296" d="M32.356,40.614a1.7,1.7,0,0,1-1.7-1.7V22.428H14a1.7,1.7,0,0,1-1.7-1.7V10.7a1.7,1.7,0,1,1,3.4,0v8.329H32.356a1.7,1.7,0,0,1,1.7,1.7V38.915A1.7,1.7,0,0,1,32.356,40.614Z" transform="translate(7.627 4.408)" fill="#fff"/><path id="Pfad_297" data-name="Pfad 297" d="M32.7,40.614a1.7,1.7,0,0,1-1.7-1.7V10.7a1.7,1.7,0,1,1,3.4,0V38.915A1.7,1.7,0,0,1,32.7,40.614Z" transform="translate(20.711 4.408)" fill="#fff"/><path id="Rechteck_23" data-name="Rechteck 23" d="M.7-1H11.408a1.7,1.7,0,0,1,1.7,1.7V11.408a1.7,1.7,0,0,1-1.7,1.7H.7a1.7,1.7,0,0,1-1.7-1.7V.7A1.7,1.7,0,0,1,.7-1ZM9.708,2.4H2.4V9.708H9.708Z" transform="translate(15.488 3.7)" fill="#fff"/><path id="Rechteck_24" data-name="Rechteck 24" d="M.7-1H11.408a1.7,1.7,0,0,1,1.7,1.7V11.408a1.7,1.7,0,0,1-1.7,1.7H.7a1.7,1.7,0,0,1-1.7-1.7V.7A1.7,1.7,0,0,1,.7-1ZM9.708,2.4H2.4V9.708H9.708Z" transform="translate(47.442 3.7)" fill="#fff"/><path id="Pfad_298" data-name="Pfad 298" d="M40.5,40.614a1.7,1.7,0,0,1-1.7-1.7V20.728a1.7,1.7,0,0,1,1.7-1.7H57.327V10.7a1.7,1.7,0,1,1,3.4,0V20.728a1.7,1.7,0,0,1-1.7,1.7H42.2V38.915A1.7,1.7,0,0,1,40.5,40.614Z" transform="translate(26.169 4.408)" fill="#fff"/><path id="Rechteck_25" data-name="Rechteck 25" d="M1.7,0H12.408a1.7,1.7,0,0,1,1.7,1.7V12.408a1.7,1.7,0,0,1-1.7,1.7H1.7a1.7,1.7,0,0,1-1.7-1.7V1.7A1.7,1.7,0,0,1,1.7,0Zm9.008,3.4H3.4v7.309h7.309Z" transform="translate(92.345 16.843) rotate(180)" fill="#fff"/><path id="Pfad_299" data-name="Pfad 299" d="M40.787,61.188H31.779A5.856,5.856,0,0,1,26,55.409V51.5a1.7,1.7,0,0,1,1.7-1.7H45.037a1.7,1.7,0,0,1,1.7,1.7v3.909q0,.065-.005.13a6.185,6.185,0,0,1-1.87,3.957A5.835,5.835,0,0,1,40.787,61.188ZM29.4,53.2v2.21a2.442,2.442,0,0,0,2.38,2.38h9.008a2.716,2.716,0,0,0,2.55-2.453V53.2Z" transform="translate(17.213 32.956)" fill="#fff"/><path id="Linie_2" data-name="Linie 2" d="M81.266,2.4H.7A1.7,1.7,0,1,1,.7-1H81.266a1.7,1.7,0,0,1,0,3.4Z" transform="translate(12.428 73.898)" fill="#fff"/></g></svg>