<svg xmlns="http://www.w3.org/2000/svg" width="100.019" height="100.005" viewBox="0 0 100.019 100.005"><g id="icon_giessen" transform="translate(-722.308 -1221.459)"><path id="Pfad_239" data-name="Pfad 239" d="M96.8,69.924H81.106L74.14,54.385A31.86,31.86,0,0,0,48.295,35.76l-9.143-.913-5.108-9.53A2.767,2.767,0,0,0,30.3,24.185l-.112.06V12.772H72.491a6.024,6.024,0,0,0,6.017-6.017V1.5A1.465,1.465,0,0,0,77.043.034H34.233a1.465,1.465,0,1,0,0,2.93H75.578V6.755a3.091,3.091,0,0,1-3.087,3.087H68.514V7.805a2.87,2.87,0,0,0-2.867-2.867H57.061a2.87,2.87,0,0,0-2.867,2.867V9.842L24.327,9.715V7.805A2.87,2.87,0,0,0,21.46,4.938H12.874a2.87,2.87,0,0,0-2.867,2.867V9.842H6.017A3.09,3.09,0,0,1,2.943,6.756V2.964H28.568a1.465,1.465,0,1,0,0-2.93H1.478A1.465,1.465,0,0,0,.013,1.5V6.755a6.026,6.026,0,0,0,5.1,5.947l2.8,5.286a1.066,1.066,0,0,1-.092,1.139L6.46,20.916a3.992,3.992,0,0,0,.92,5.7A4,4,0,0,0,11,27.08L14.7,25.741v8.389A63.56,63.56,0,0,0,7.6,37.96,16.318,16.318,0,0,0,1.936,59.466L3.778,62.9c.082.152.168.3.254.449l.024.041A1.465,1.465,0,0,0,6.59,61.922l-.025-.042c-.069-.119-.139-.238-.2-.361L4.519,58.082A13.38,13.38,0,0,1,9.15,40.445,60.525,60.525,0,0,1,14.7,37.371V48.6a7.744,7.744,0,1,0,15.488,0V36.427L40.631,55.915A61.913,61.913,0,0,1,23.612,67.427,13.275,13.275,0,0,1,9.946,65.771a1.465,1.465,0,1,0-1.8,2.312A16.185,16.185,0,0,0,24.821,70.1,64.691,64.691,0,0,0,42.063,58.587l.353.658a2.767,2.767,0,0,0,3.746,1.132l2.745-1.472a2.767,2.767,0,0,0,1.208-3.592,5.03,5.03,0,0,1,1.2.781,4.956,4.956,0,0,1,1.71,3.539l.476,10.292H40.629a3.227,3.227,0,0,0-3.223,3.223v3.58a3.227,3.227,0,0,0,3.223,3.223h1.3L47.183,96a5.851,5.851,0,0,0,5.572,4.038H67.3a1.465,1.465,0,0,0,0-2.93H52.755a2.927,2.927,0,0,1-2.788-2.02L45.01,79.95h47.4L87.457,95.089a2.926,2.926,0,0,1-2.787,2.02H72.964a1.465,1.465,0,0,0,0,2.93H84.669A5.85,5.85,0,0,0,90.241,96L95.5,79.95h1.3a3.227,3.227,0,0,0,3.223-3.223v-3.58A3.227,3.227,0,0,0,96.8,69.924ZM57.124,7.868h8.46V9.842h-8.46Zm-44.187,0H21.4V9.842h-8.46ZM10,24.326a1.063,1.063,0,0,1-1.411-.83,1.052,1.052,0,0,1,.2-.811l1.356-1.79a4.006,4.006,0,0,0,.346-4.279L8.463,12.772H14.7v9.852ZM22.442,53.41A4.819,4.819,0,0,1,17.628,48.6V12.772h9.628V48.6A4.82,4.82,0,0,1,22.442,53.41Zm22.479,4.308L30.186,30.226V27.57l1.353-.725L47.379,56.4ZM55.957,59.5a7.933,7.933,0,0,0-7.646-7.56L40.819,37.959,48,38.676A28.923,28.923,0,0,1,71.466,55.584l6.429,14.341H56.44Zm41.132,17.23a.294.294,0,0,1-.293.293H40.628a.294.294,0,0,1-.293-.293v-3.58a.294.294,0,0,1,.293-.293H96.8a.294.294,0,0,1,.293.293Z" transform="translate(722.308 1221.425)" fill="#fff"/><path id="Pfad_240" data-name="Pfad 240" d="M108.861,234.552a1.465,1.465,0,0,0-1.465,1.465v2.064a1.465,1.465,0,1,0,2.93,0v-2.064A1.465,1.465,0,0,0,108.861,234.552Z" transform="translate(635.888 1032.714)" fill="#fff"/><path id="Pfad_241" data-name="Pfad 241" d="M280.778,432.717a1.465,1.465,0,1,0,0,2.93h2.838a1.465,1.465,0,1,0,0-2.93Z" transform="translate(497.551 873.255)" fill="#fff"/><path id="Pfad_242" data-name="Pfad 242" d="M341.324,432.717h-2.838a1.465,1.465,0,0,0,0,2.93h2.838a1.465,1.465,0,1,0,0-2.93Z" transform="translate(451.114 873.255)" fill="#fff"/><path id="Pfad_243" data-name="Pfad 243" d="M399.032,435.647a1.465,1.465,0,0,0,0-2.93h-2.838a1.465,1.465,0,0,0,0,2.93Z" transform="translate(404.678 873.255)" fill="#fff"/></g></svg>