<svg xmlns="http://www.w3.org/2000/svg" width="100.464" height="100.464" viewBox="0 0 100.464 100.464"><g id="icon_plastische_formgebung" transform="translate(-1461.818 -1221)"><path id="Pfad_258" data-name="Pfad 258" d="M61.108,12.8h2.658l2.146,4.187a3.828,3.828,0,0,0,3.421,2.091h5.239v7.551A1.471,1.471,0,0,0,76.043,28.1h2.265v2.219a3.272,3.272,0,0,0,3.268,3.268H84.53v5.564a1.472,1.472,0,1,0,2.943,0V33.583h14.036V50.705l-7.018,5.938-7.018-5.938V44.837a1.472,1.472,0,1,0-2.943,0v6.55a1.473,1.473,0,0,0,.521,1.124l8.49,7.183a1.472,1.472,0,0,0,1.9,0l8.49-7.183a1.472,1.472,0,0,0,.521-1.124v-4.92L117.267,43a7.713,7.713,0,0,0,5.541-8.81,4.736,4.736,0,0,1,2.289-4.963l.445-.257a7.672,7.672,0,0,0,1.131-12.5l-2.33-1.975.873-1.7h2.658a6.051,6.051,0,0,0,6.044-6.044V1.472A1.471,1.471,0,0,0,132.447,0H89.441a1.472,1.472,0,1,0,0,2.943h41.535V6.752a3.1,3.1,0,0,1-3.1,3.1h-4V7.807A2.883,2.883,0,0,0,121,4.926h-8.626a2.883,2.883,0,0,0-2.88,2.88V9.853h-30V7.807a2.883,2.883,0,0,0-2.88-2.88H67.983a2.883,2.883,0,0,0-2.88,2.88V9.853h-4a3.1,3.1,0,0,1-3.1-3.1V2.943H83.75A1.472,1.472,0,1,0,83.75,0H56.536a1.471,1.471,0,0,0-1.472,1.472V6.752A6.051,6.051,0,0,0,61.108,12.8Zm7.423,2.844L67.074,12.8h54.836l-1.458,2.844a.9.9,0,0,1-.8.49H69.333a.9.9,0,0,1-.8-.49Zm8.983,3.433h33.953v6.079H77.515ZM81.577,30.64a.325.325,0,0,1-.325-.325V28.1h26.479v2.219a.325.325,0,0,1-.325.325Zm44.845-7.887a4.673,4.673,0,0,1-2.35,3.672l-.445.257a7.684,7.684,0,0,0-3.713,8.051,4.754,4.754,0,0,1-3.415,5.43l-12.046,3.256V33.583h2.953a3.272,3.272,0,0,0,3.268-3.268V28.1h2.266a1.471,1.471,0,0,0,1.472-1.472V19.074h5.239a3.827,3.827,0,0,0,3.31-1.889l1.81,1.534a4.673,4.673,0,0,1,1.652,4.034ZM112.437,7.87h8.5V9.853h-8.5Zm-44.39,0h8.5V9.853h-8.5Z" transform="translate(1417.559 1221)" fill="#fff"/><path id="Pfad_259" data-name="Pfad 259" d="M42.029,235.074l30.151,15.279a18.155,18.155,0,0,0,16.356,0l30.151-15.279a8.314,8.314,0,0,0,3.653-11.161,3.271,3.271,0,0,0-4.4-1.44L82.876,240.242a5.59,5.59,0,0,1-5.037,0L42.774,222.473a3.271,3.271,0,0,0-4.4,1.44,8.314,8.314,0,0,0,3.654,11.161ZM41,225.243a.329.329,0,0,1,.443-.145l35.064,17.769a8.545,8.545,0,0,0,7.7,0l35.064-17.77a.329.329,0,0,1,.443.145,5.367,5.367,0,0,1-2.359,7.2L87.2,247.727a15.2,15.2,0,0,1-13.694,0L43.359,232.448a5.367,5.367,0,0,1-2.359-7.2Z" transform="translate(1431.692 1042.466)" fill="#fff"/><path id="Pfad_260" data-name="Pfad 260" d="M413.822,386.242h-5.012a1.472,1.472,0,0,0,0,2.943h5.012a1.472,1.472,0,1,0,0-2.943Z" transform="translate(1134.406 910.546)" fill="#fff"/><path id="Pfad_261" data-name="Pfad 261" d="M413.822,417.509h-5.012a1.472,1.472,0,0,0,0,2.943h5.012a1.472,1.472,0,0,0,0-2.943Z" transform="translate(1134.406 885.414)" fill="#fff"/><path id="Pfad_262" data-name="Pfad 262" d="M70.6,386.242H65.593a1.472,1.472,0,1,0,0,2.943H70.6a1.472,1.472,0,1,0,0-2.943Z" transform="translate(1410.278 910.546)" fill="#fff"/><path id="Pfad_263" data-name="Pfad 263" d="M70.6,417.509H65.593a1.472,1.472,0,0,0,0,2.943H70.6a1.472,1.472,0,0,0,0-2.943Z" transform="translate(1410.278 885.414)" fill="#fff"/><path id="Pfad_264" data-name="Pfad 264" d="M97.918,372.931H95.787V353.146a1.471,1.471,0,0,0-1.472-1.472H77.672a1.472,1.472,0,0,0-1.1.493l-7.73,8.674H31.621l-7.73-8.674a1.472,1.472,0,0,0-1.1-.493H6.149a1.471,1.471,0,0,0-1.472,1.472v19.785H2.547A2.549,2.549,0,0,0,0,375.477v5.109a2.549,2.549,0,0,0,2.547,2.547H72.618a1.472,1.472,0,1,0,0-2.943H2.943v-4.315H97.521v4.315H78.308a1.472,1.472,0,1,0,0,2.943H97.918a2.549,2.549,0,0,0,2.546-2.547v-5.109a2.549,2.549,0,0,0-2.547-2.546Zm-59.262,0v-2.338a.466.466,0,0,1,.465-.465H61.343a.466.466,0,0,1,.465.465v2.338Zm26.1,0v-2.338a3.412,3.412,0,0,0-3.409-3.408H39.121a3.412,3.412,0,0,0-3.408,3.408v2.338H7.621V354.617H22.132l7.73,8.674a1.472,1.472,0,0,0,1.1.493H69.5a1.472,1.472,0,0,0,1.1-.493l7.73-8.674H92.844v18.314Z" transform="translate(1461.818 938.331)" fill="#fff"/></g></svg>