<svg xmlns="http://www.w3.org/2000/svg" width="98.355" height="100.005" viewBox="0 0 98.355 100.005"><g id="icon_verfahrenstechnik" transform="translate(-2.2 -1.7)"><path id="Pfad_292" data-name="Pfad 292" d="M93.889,77.22H8.736A6.443,6.443,0,0,1,2.3,70.784V18.636A6.443,6.443,0,0,1,8.736,12.2H21.113a1.65,1.65,0,0,1,0,3.3H8.736A3.139,3.139,0,0,0,5.6,18.636V70.784a3.139,3.139,0,0,0,3.135,3.135H93.889a3.139,3.139,0,0,0,3.135-3.135V18.636A3.139,3.139,0,0,0,93.889,15.5H81.512a1.65,1.65,0,1,1,0-3.3H93.889a6.443,6.443,0,0,1,6.436,6.436V70.784A6.443,6.443,0,0,1,93.889,77.22Z" transform="translate(0.065 6.828)" fill="#fff"/><path id="Pfad_293" data-name="Pfad 293" d="M39.589,1.7h6.6a3.846,3.846,0,0,1,3.8,3.8V8.3a.7.7,0,0,0,.384.584,11.265,11.265,0,0,1,2.018.835,2.2,2.2,0,0,0,.508.067.683.683,0,0,0,.544-.177l1.98-1.98a3.944,3.944,0,0,1,5.469,0l4.621,4.621a3.945,3.945,0,0,1,.027,5.442l-1.961,2.125-.046.048a.659.659,0,0,0-.144.656c.182.377.319.74.44,1.064a8.77,8.77,0,0,0,.343.832q.031.061.056.125a.706.706,0,0,0,.613.448h2.805a3.846,3.846,0,0,1,3.8,3.8v6.6a3.846,3.846,0,0,1-3.8,3.8H64.837a.7.7,0,0,0-.584.384,11.616,11.616,0,0,1-.87,2.088.658.658,0,0,0,.145.652l1.98,1.98a3.944,3.944,0,0,1,0,5.469l-4.621,4.621a3.946,3.946,0,0,1-5.407.06l-1.932-1.61q-.057-.048-.11-.1a.63.63,0,0,0-.447-.177.684.684,0,0,0-.208.032c-.377.183-.741.319-1.064.44a8.768,8.768,0,0,0-.832.343q-.061.031-.125.056a.706.706,0,0,0-.448.613v2.805a3.846,3.846,0,0,1-3.8,3.8h-6.6a3.846,3.846,0,0,1-3.8-3.8V52.032a.7.7,0,0,0-.384-.584,11.62,11.62,0,0,1-2.088-.87.685.685,0,0,0-.2-.031.63.63,0,0,0-.447.177l-1.98,1.98a3.944,3.944,0,0,1-5.469,0l-4.621-4.621a3.944,3.944,0,0,1,0-5.469l1.98-1.98a.659.659,0,0,0,.144-.656c-.182-.377-.319-.74-.44-1.063a8.766,8.766,0,0,0-.343-.832q-.031-.061-.056-.125a.706.706,0,0,0-.613-.448H18.8a3.846,3.846,0,0,1-3.8-3.8v-6.6a3.846,3.846,0,0,1,3.8-3.8H21.6a.7.7,0,0,0,.584-.384,10.325,10.325,0,0,1,.729-1.8,2,2,0,0,0-.334-1.266l-1.98-1.98a3.944,3.944,0,0,1-.011-5.458L25.2,7.65l.02-.021a3.944,3.944,0,0,1,5.469,0l1.98,1.98a.63.63,0,0,0,.447.177.684.684,0,0,0,.208-.032c.377-.183.741-.319,1.064-.44a8.767,8.767,0,0,0,.832-.343q.061-.031.125-.056a.706.706,0,0,0,.448-.613V5.5A3.846,3.846,0,0,1,39.589,1.7ZM52.895,13.087a5.65,5.65,0,0,1-1.547-.229,1.651,1.651,0,0,1-.285-.111,8.911,8.911,0,0,0-1.642-.7,1.651,1.651,0,0,1-.213-.069A4.01,4.01,0,0,1,46.685,8.3V5.5a.536.536,0,0,0-.5-.5h-6.6a.536.536,0,0,0-.5.5V8.3a4.009,4.009,0,0,1-2.455,3.65c-.387.189-.76.329-1.091.453a8.767,8.767,0,0,0-.832.343q-.061.031-.125.056a3.953,3.953,0,0,1-1.475.283,3.9,3.9,0,0,1-2.78-1.143l-1.98-1.98a.585.585,0,0,0-.4-.136.592.592,0,0,0-.4.13l-4.606,4.77-.02.021a.663.663,0,0,0,0,.8l1.98,1.98A5.373,5.373,0,0,1,26.222,21.5a1.65,1.65,0,0,1-.174.738,8.912,8.912,0,0,0-.7,1.643,1.651,1.651,0,0,1-.069.213A4.01,4.01,0,0,1,21.6,26.619H18.8a.536.536,0,0,0-.5.5v6.6a.536.536,0,0,0,.5.5H21.6a4.009,4.009,0,0,1,3.65,2.455c.189.387.329.76.453,1.091a8.768,8.768,0,0,0,.343.832q.031.061.056.125a3.939,3.939,0,0,1-.86,4.255l-1.98,1.98a.663.663,0,0,0,0,.8l4.621,4.621a.661.661,0,0,0,.8,0l1.98-1.98a3.9,3.9,0,0,1,2.78-1.143,3.953,3.953,0,0,1,1.475.283q.064.025.125.056a8.912,8.912,0,0,0,1.643.7,1.65,1.65,0,0,1,.213.069,4.01,4.01,0,0,1,2.523,3.678v2.805a.536.536,0,0,0,.5.5h6.6a.536.536,0,0,0,.5-.5V52.032a4.009,4.009,0,0,1,2.455-3.65c.387-.189.76-.329,1.091-.453a8.767,8.767,0,0,0,.832-.343q.061-.031.125-.056a3.953,3.953,0,0,1,1.475-.283,3.9,3.9,0,0,1,2.72,1.084l1.93,1.609q.057.048.11.1a.661.661,0,0,0,.8,0l4.621-4.621a.663.663,0,0,0,0-.8l-1.98-1.98a3.939,3.939,0,0,1-.86-4.255q.025-.064.056-.125a8.912,8.912,0,0,0,.7-1.643,1.652,1.652,0,0,1,.069-.213,4.01,4.01,0,0,1,3.678-2.523h2.805a.536.536,0,0,0,.5-.5v-6.6a.536.536,0,0,0-.5-.5H64.837a4.009,4.009,0,0,1-3.65-2.455c-.189-.387-.329-.76-.453-1.091a8.768,8.768,0,0,0-.343-.832q-.031-.061-.056-.125a3.939,3.939,0,0,1,.834-4.229l1.961-2.124.046-.048a.663.663,0,0,0,0-.8L58.555,9.963a.661.661,0,0,0-.8,0l-1.98,1.98A3.971,3.971,0,0,1,52.895,13.087Z" transform="translate(8.323)" fill="#fff"/><path id="Rechteck_22" data-name="Rechteck 22" d="M.65-1H19.793A1.65,1.65,0,0,1,21.443.65V18.143a1.65,1.65,0,0,1-1.65,1.65H.65A1.65,1.65,0,0,1-1,18.143V.65A1.65,1.65,0,0,1,.65-1ZM18.143,2.3H2.3V16.493H18.143Z" transform="translate(41.156 81.912)" fill="#fff"/><path id="Linie_1" data-name="Linie 1" d="M39.431,2.3H.65A1.65,1.65,0,0,1,.65-1H39.431a1.65,1.65,0,1,1,0,3.3Z" transform="translate(31.584 99.404)" fill="#fff"/><path id="Pfad_294" data-name="Pfad 294" d="M36.977,10.5a1.649,1.649,0,0,1,.816.216L48.52,16.822a1.65,1.65,0,0,1,.834,1.434V30.633a1.65,1.65,0,0,1-.817,1.425L37.81,38.329a1.65,1.65,0,0,1-1.666,0L25.417,32.058a1.65,1.65,0,0,1-.817-1.425V18.256a1.65,1.65,0,0,1,.834-1.434L36.16,10.716A1.649,1.649,0,0,1,36.977,10.5Zm9.076,8.716-9.076-5.167L27.9,19.216V29.686l9.076,5.306,9.076-5.306Z" transform="translate(14.565 5.722)" fill="#fff"/><path id="Pfad_295" data-name="Pfad 295" d="M36.977,23.772a1.649,1.649,0,0,1-.833-.226L25.417,17.275a1.65,1.65,0,0,1,1.666-2.849l9.894,5.784,9.894-5.784a1.65,1.65,0,1,1,1.666,2.849L37.81,23.546A1.649,1.649,0,0,1,36.977,23.772Z" transform="translate(14.565 8.128)" fill="#fff"/><path id="Linie_2" data-name="Linie 2" d="M.65,14.677A1.65,1.65,0,0,1-1,13.027V.65a1.65,1.65,0,0,1,3.3,0V13.027A1.65,1.65,0,0,1,.65,14.677Z" transform="translate(50.892 29.599)" fill="#fff"/><path id="Linie_3" data-name="Linie 3" d="M95.7,2.3H.65A1.65,1.65,0,0,1,.65-1H95.7a1.65,1.65,0,1,1,0,3.3Z" transform="translate(3.2 65.739)" fill="#fff"/><path id="Linie_4" data-name="Linie 4" d="M8.571,2.3H.65A1.65,1.65,0,0,1,.65-1H8.571a1.65,1.65,0,0,1,0,3.3Z" transform="translate(46.766 73.661)" fill="#fff"/></g></svg>