<svg xmlns="http://www.w3.org/2000/svg" width="86.933" height="100.005" viewBox="0 0 86.933 100.005"><g id="icon_retrofit" transform="translate(-728.85 -712.459)"><path id="Pfad_267" data-name="Pfad 267" d="M95.131,83.8a4.139,4.139,0,1,0,2.923,1.212A4.127,4.127,0,0,0,95.131,83.8Zm18.2-5a4.131,4.131,0,1,0,2.929,1.213A4.135,4.135,0,0,0,113.33,78.8Zm-3.848-1.788a7.079,7.079,0,1,1-2.071,2.071L101.3,72.98a1.464,1.464,0,0,1-.432-1.041v-10.2H91.177v9.972L94.3,80.925a6.791,6.791,0,0,1,.831-.05,7.07,7.07,0,1,1-4.994,2.071,7.176,7.176,0,0,1,1.39-1.085L88.354,72.5a1.543,1.543,0,0,1-.105-.559v-10.2H78.393v8.753a1.465,1.465,0,0,1-2.929,0V61.735h-9.85v10.2a1.438,1.438,0,0,1-.111.559l-3.172,9.363a7.2,7.2,0,0,1,1.4,1.085,7.064,7.064,0,1,1-5-2.071,6.882,6.882,0,0,1,.836.05l3.123-9.219V61.735H53v10.2a1.482,1.482,0,0,1-.437,1.046l-6.107,6.1a7.058,7.058,0,1,1-2.071-2.071l5.681-5.681v-9.6H47.525a1.465,1.465,0,0,1-1.462-1.467V56.735H37.316a1.465,1.465,0,0,1-1.462-1.467v-6A1.46,1.46,0,0,1,37.316,47.8h8.748V42.467H37.316A1.465,1.465,0,0,1,35.854,41V35a1.461,1.461,0,0,1,1.462-1.467h8.748V28.2H37.316a1.462,1.462,0,0,1-1.462-1.467v-6a1.465,1.465,0,0,1,1.462-1.467h8.748V13.931H37.316a1.46,1.46,0,0,1-1.462-1.462v-6A1.465,1.465,0,0,1,37.316,5h8.748V1.467A1.465,1.465,0,0,1,47.525,0H73.609a1.465,1.465,0,1,1,0,2.929H48.993V58.806h55.871V2.929H80.248a1.465,1.465,0,1,1,0-2.929h26.084A1.47,1.47,0,0,1,107.8,1.467V5h8.742a1.47,1.47,0,0,1,1.467,1.467v6a1.465,1.465,0,0,1-1.467,1.462H107.8v5.337h8.742a1.47,1.47,0,0,1,1.467,1.467v6a1.466,1.466,0,0,1-1.467,1.467H107.8v5.337h8.742A1.466,1.466,0,0,1,118.009,35v6a1.47,1.47,0,0,1-1.467,1.467H107.8V47.8h8.742a1.465,1.465,0,0,1,1.467,1.462v6a1.47,1.47,0,0,1-1.467,1.467H107.8v3.532a1.47,1.47,0,0,1-1.467,1.467H103.8v9.6ZM40.527,78.8a4.135,4.135,0,1,0,4.136,4.136A4.127,4.127,0,0,0,40.527,78.8Zm21.128,6.212a4.144,4.144,0,1,0,1.207,2.923A4.14,4.14,0,0,0,61.656,85.017ZM78.393,86.03a7.068,7.068,0,1,1-2.929,0V77.122a1.465,1.465,0,0,1,2.929,0Zm1.462,3.987a4.131,4.131,0,1,0,1.213,2.924A4.127,4.127,0,0,0,79.855,90.017ZM107.8,7.928V11h7.281V7.928Zm0,14.268V25.27h7.281V22.2Zm0,14.268v3.073h7.281V36.465Zm0,14.268v3.073h7.281V50.733ZM46.064,53.806V50.733H38.783v3.073Zm0-14.268V36.465H38.783v3.073Zm0-14.268V22.2H38.783V25.27Zm0-14.268V7.928H38.783V11ZM74.5,34.876a1.46,1.46,0,1,1-1.523,2.492,7.624,7.624,0,1,1,7.912,0,1.459,1.459,0,1,1-1.517-2.492,4.714,4.714,0,0,0,1.65-1.716,4.685,4.685,0,1,0-8.77-2.292,4.69,4.69,0,0,0,.592,2.292A4.779,4.779,0,0,0,74.5,34.876Zm-19.5-17.308a1.464,1.464,0,0,1-2.929,0V7.463A1.46,1.46,0,0,1,53.527,6h10.1a1.465,1.465,0,0,1,0,2.929H54.995v8.637Zm-2.929,26.6a1.464,1.464,0,0,1,2.929,0V52.8h8.637a1.465,1.465,0,0,1,0,2.929h-10.1a1.46,1.46,0,0,1-1.462-1.462v-10.1Zm46.8,0a1.465,1.465,0,0,1,2.929,0v10.1a1.465,1.465,0,0,1-1.467,1.462h-10.1a1.465,1.465,0,1,1,0-2.929h8.637Zm2.929-26.6a1.465,1.465,0,0,1-2.929,0V8.931H90.231a1.465,1.465,0,1,1,0-2.929h10.1A1.465,1.465,0,0,1,101.8,7.463ZM90.746,15.032l2.021,2.021a2.848,2.848,0,0,1,.022,3.975l-.365.36a18.063,18.063,0,0,1,2.165,5.221h.476a2.836,2.836,0,0,1,2.829,2.829V32.3a2.826,2.826,0,0,1-2.829,2.824h-.476a17.754,17.754,0,0,1-.875,2.691,18.38,18.38,0,0,1-1.285,2.53l.338.338a2.9,2.9,0,0,1,.825,2.01,2.8,2.8,0,0,1-.825,1.993L90.745,46.7a2.848,2.848,0,0,1-3.981.017l-.354-.354a18.751,18.751,0,0,1-2.536,1.284,18.406,18.406,0,0,1-2.691.881V49a2.826,2.826,0,0,1-2.824,2.835H75.5A2.838,2.838,0,0,1,72.679,49V48.53a18.485,18.485,0,0,1-2.7-.881,18.672,18.672,0,0,1-2.53-1.284l-.338.332a2.827,2.827,0,0,1-4,.005L61.1,44.682a2.827,2.827,0,0,1,0-4l.338-.338a18.055,18.055,0,0,1-2.165-5.221h-.476A2.826,2.826,0,0,1,55.964,32.3V29.439a2.836,2.836,0,0,1,2.829-2.829h.476a18.105,18.105,0,0,1,2.165-5.216l-.338-.338a2.837,2.837,0,0,1,0-4l2.021-2.021a2.84,2.84,0,0,1,4,0l.338.338a18.072,18.072,0,0,1,2.525-1.29,18.506,18.506,0,0,1,2.7-.875v-.471A2.838,2.838,0,0,1,75.5,9.9H78.36a2.826,2.826,0,0,1,2.824,2.835v.471a19.093,19.093,0,0,1,2.691.875,18.135,18.135,0,0,1,2.53,1.29,6.039,6.039,0,0,1,.465-.454,2.858,2.858,0,0,1,1.883-.709,2.8,2.8,0,0,1,1.993.825Zm-.122,4.025-1.883-1.883-1.107,1.107a1.46,1.46,0,0,1-1.883.155,15.05,15.05,0,0,0-6.268-2.6,1.454,1.454,0,0,1-1.218-1.44V12.829H75.6v1.478a1.465,1.465,0,0,1-1.218,1.534,15.087,15.087,0,0,0-6.185,2.536,1.47,1.47,0,0,1-1.971-.094l-1.107-1.107-1.877,1.877,1.107,1.113a1.46,1.46,0,0,1,.155,1.883,15.016,15.016,0,0,0-2.58,6.179,1.469,1.469,0,0,1-1.456,1.312H58.892V32.2h1.478A1.46,1.46,0,0,1,61.9,33.42a15.042,15.042,0,0,0,.941,3.283,15.418,15.418,0,0,0,1.595,2.9,1.463,1.463,0,0,1-.094,1.966l-1.107,1.113,1.883,1.883,1.091-1.1a1.464,1.464,0,0,1,1.9-.172A15.088,15.088,0,0,0,71.1,44.953a15.26,15.26,0,0,0,3.283.941,1.459,1.459,0,0,1,1.218,1.44V48.9h2.669V47.422a1.453,1.453,0,0,1,1.218-1.528A15.082,15.082,0,0,0,85.746,43.3a1.451,1.451,0,0,1,1.883.15l1.113,1.113,1.883-1.883L89.516,41.57a1.46,1.46,0,0,1-.155-1.883,15.138,15.138,0,0,0,2.591-6.267A1.465,1.465,0,0,1,93.4,32.2h1.567V29.539H93.4a1.47,1.47,0,0,1-1.445-1.224,14.742,14.742,0,0,0-.941-3.283,15.023,15.023,0,0,0-1.65-2.979,1.458,1.458,0,0,1,.155-1.883Z" transform="translate(695.388 712.459)" fill="#fff"/></g></svg>