<svg xmlns="http://www.w3.org/2000/svg" width="100.005" height="100.005" viewBox="0 0 100.005 100.005"><g id="icon_schleifen" transform="translate(-352.456 -1221.459)"><path id="Pfad_232" data-name="Pfad 232" d="M98.54,97.075H92.119l-4.651-5.963a5.349,5.349,0,0,0-4.244-2.072H64.617a5.647,5.647,0,0,0,.712-2.751V79.083a5.646,5.646,0,0,0-.712-2.751H91.309a2.724,2.724,0,0,0,2.721-2.721V68.9a2.724,2.724,0,0,0-2.721-2.721H89.584L80.869,51.046a4.575,4.575,0,0,0-3.954-2.285H71.365V46.4a3.336,3.336,0,0,0-3.332-3.332H58.377V40.21a1.465,1.465,0,1,0-2.93,0v2.855H44.557V31.691H55.447v2.854a1.465,1.465,0,0,0,2.93,0V31.691h9.675a3.316,3.316,0,0,0,3.313-3.313V26h3.7a1.465,1.465,0,0,0,1.465-1.465V12.738h6.707a6.023,6.023,0,0,0,6.017-6.017V1.465A1.465,1.465,0,0,0,87.784,0H44.975a1.465,1.465,0,1,0,0,2.93H86.32V6.721a3.09,3.09,0,0,1-3.087,3.087H79.256V7.771A2.87,2.87,0,0,0,76.389,4.9H67.8a2.87,2.87,0,0,0-2.867,2.867V9.808H35.069V7.771A2.87,2.87,0,0,0,32.2,4.9H23.616a2.87,2.87,0,0,0-2.867,2.867V9.808H16.772a3.09,3.09,0,0,1-3.087-3.087V2.93H39.311a1.465,1.465,0,0,0,0-2.93H12.22a1.465,1.465,0,0,0-1.465,1.465V6.721a6.023,6.023,0,0,0,6.017,6.017h6.707V24.531A1.465,1.465,0,0,0,24.943,26h3.7v2.383a3.316,3.316,0,0,0,3.313,3.313h9.675V43.065H31.971A3.336,3.336,0,0,0,28.639,46.4V48.76H23.09a4.575,4.575,0,0,0-3.954,2.285L10.421,66.177H8.7A2.724,2.724,0,0,0,5.975,68.9v4.713A2.724,2.724,0,0,0,8.7,76.333H35.387a5.646,5.646,0,0,0-.712,2.751V86.29a5.647,5.647,0,0,0,.712,2.751H27.776a1.465,1.465,0,1,0,0,2.93H83.225a2.437,2.437,0,0,1,1.933.944L88.4,97.075H11.6l3.245-4.161a2.437,2.437,0,0,1,1.933-.944h5.331a1.465,1.465,0,0,0,0-2.93H16.78a5.348,5.348,0,0,0-4.244,2.072L7.886,97.075H1.465a1.465,1.465,0,1,0,0,2.93H98.54a1.465,1.465,0,0,0,0-2.93ZM67.866,7.834h8.46V9.808h-8.46Zm-44.187,0h8.46V9.808h-8.46Zm2.73,4.9H73.6V23.066H26.408Zm5.161,15.64V26H68.436v2.383a.384.384,0,0,1-.383.383h-36.1A.384.384,0,0,1,31.569,28.379ZM47,73.4l1.161-4.3h4.85l-1.161,4.3Zm-6.691-4.3-1.161,4.3h-4.85l1.161-4.3Zm3.035,0h1.782l-1.161,4.3H42.18Zm12.7,0h1.782l-1.161,4.3H54.882Zm9.667,0-1.161,4.3H59.7l1.161-4.3Zm1.874,4.3,1.161-4.3h1.782l-1.161,4.3Zm10.828-4.3-1.161,4.3H72.4l1.161-4.3Zm1.874,4.3,1.161-4.3h1.782l-1.161,4.3Zm10.814,0h-6l1.161-4.3H91.1ZM31.569,46.4a.4.4,0,0,1,.4-.4H68.034a.4.4,0,0,1,.4.4V48.76H31.569Zm-9.894,6.111a1.638,1.638,0,0,1,1.415-.818H76.915a1.637,1.637,0,0,1,1.415.818L86.2,66.177H13.8ZM21.592,73.4l1.161-4.3H27.6l-1.161,4.3ZM8.9,69.107h6L13.74,73.4H8.9Zm7.871,4.3,1.161-4.3h1.782l-1.161,4.3Zm12.7,0,1.161-4.3h1.782l-1.161,4.3ZM40.356,89.04a2.754,2.754,0,0,1-2.751-2.751V79.083a2.754,2.754,0,0,1,2.751-2.751H59.649A2.754,2.754,0,0,1,62.4,79.083V86.29a2.754,2.754,0,0,1-2.751,2.751Z" transform="translate(352.456 1221.459)" fill="#fff"/><path id="Pfad_233" data-name="Pfad 233" d="M165.543,82.97a1.465,1.465,0,0,0,1.465-1.465V79.011a1.465,1.465,0,1,0-2.93,0v2.494A1.465,1.465,0,0,0,165.543,82.97Z" transform="translate(220.426 1159.059)" fill="#fff"/><path id="Pfad_234" data-name="Pfad 234" d="M207.754,82.97a1.465,1.465,0,0,0,1.465-1.465V79.011a1.465,1.465,0,1,0-2.93,0v2.494A1.465,1.465,0,0,0,207.754,82.97Z" transform="translate(186.459 1159.059)" fill="#fff"/><path id="Pfad_235" data-name="Pfad 235" d="M249.965,82.97a1.465,1.465,0,0,0,1.465-1.465V79.011a1.465,1.465,0,1,0-2.93,0v2.494A1.465,1.465,0,0,0,249.965,82.97Z" transform="translate(152.493 1159.059)" fill="#fff"/><path id="Pfad_236" data-name="Pfad 236" d="M292.177,82.97a1.465,1.465,0,0,0,1.465-1.465V79.011a1.465,1.465,0,1,0-2.93,0v2.494A1.465,1.465,0,0,0,292.177,82.97Z" transform="translate(118.526 1159.059)" fill="#fff"/><path id="Pfad_237" data-name="Pfad 237" d="M334.388,82.97a1.465,1.465,0,0,0,1.465-1.465V79.011a1.465,1.465,0,1,0-2.93,0v2.494A1.465,1.465,0,0,0,334.388,82.97Z" transform="translate(84.56 1159.059)" fill="#fff"/><path id="Pfad_238" data-name="Pfad 238" d="M207.691,302.109h16.514a1.465,1.465,0,1,0,0-2.93H207.691a1.465,1.465,0,1,0,0,2.93Z" transform="translate(186.51 980.716)" fill="#fff"/></g></svg>