<svg xmlns="http://www.w3.org/2000/svg" width="100.034" height="100.005" viewBox="0 0 100.034 100.005"><g id="icon_glasieren" transform="translate(-1092.166 -1221.459)"><path id="Pfad_250" data-name="Pfad 250" d="M91.479,63.044H88.7a7.962,7.962,0,0,0,1.816-5.069V48.937a1.465,1.465,0,0,0-1.465-1.465H75.981a1.465,1.465,0,0,0-1.465,1.465v9.038a7.962,7.962,0,0,0,1.816,5.069H66.966a7.962,7.962,0,0,0,1.816-5.069V48.937a1.465,1.465,0,0,0-1.465-1.465h-2.1v-6.5H69.4a2.994,2.994,0,0,0,2.991-2.991V33.4h4.448v.019a1.465,1.465,0,0,0,2.93,0V30.452a1.465,1.465,0,1,0-2.93,0v.019H72.395V22.711A2.994,2.994,0,0,0,69.4,19.72H63.423a1.465,1.465,0,1,0,0,2.93H69.4a.061.061,0,0,1,.061.061V37.979a.061.061,0,0,1-.061.061H52.157a.061.061,0,0,1-.061-.061V22.711a.061.061,0,0,1,.061-.061h5.6a1.465,1.465,0,0,0,0-2.93h-5.6a2.994,2.994,0,0,0-2.991,2.991v.849H41.16v-1.21a2.633,2.633,0,0,0-2.63-2.63H35.239a3.969,3.969,0,0,0-3.954-3.681H28.607v-2a3.1,3.1,0,0,0-3.032-3.1V8.12A8.054,8.054,0,0,0,17.53.075a7.964,7.964,0,0,0-3.585.843A1.465,1.465,0,1,0,15.252,3.54,5.063,5.063,0,0,1,17.53,3,5.121,5.121,0,0,1,22.645,8.12v2.82H12.415V8.12a5.161,5.161,0,0,1,.1-1.017,1.465,1.465,0,0,0-2.872-.578,8.112,8.112,0,0,0-.159,1.6v2.821a3.1,3.1,0,0,0-3.032,3.1v2H3.964A3.969,3.969,0,0,0,0,20V96.116a3.969,3.969,0,0,0,3.964,3.964H85.016a4.326,4.326,0,0,0,4.321-4.321V80.29h2.143a8.565,8.565,0,0,0,8.555-8.555V71.6A8.565,8.565,0,0,0,91.479,63.044ZM87.584,50.4v2.662a2.174,2.174,0,0,1-.892.152,2.289,2.289,0,0,1-1.372-.4,5.475,5.475,0,0,0-5.61,0,2.288,2.288,0,0,1-1.372.4,2.174,2.174,0,0,1-.892-.151V50.4ZM77.446,57.975V56.081a5.918,5.918,0,0,0,.892.064,5.156,5.156,0,0,0,2.805-.773,2.559,2.559,0,0,1,2.743,0,5.159,5.159,0,0,0,2.806.773,5.922,5.922,0,0,0,.892-.064v1.893a5.069,5.069,0,0,1-10.138,0Zm-21.732,0V56.081a5.913,5.913,0,0,0,.891.064,5.156,5.156,0,0,0,2.805-.773,2.56,2.56,0,0,1,2.743,0,5.159,5.159,0,0,0,2.805.773,5.922,5.922,0,0,0,.892-.064v1.893a5.069,5.069,0,1,1-10.138,0Zm10.138-4.91a2.174,2.174,0,0,1-.892.152,2.288,2.288,0,0,1-1.372-.4,5.475,5.475,0,0,0-5.611,0,2.288,2.288,0,0,1-1.372.4,2.173,2.173,0,0,1-.891-.151V50.4H65.852v2.662ZM62.283,40.97v6.5H59.278v-6.5Zm-10.126,0h4.191v6.5h-2.1a1.465,1.465,0,0,0-1.465,1.465v9.038A7.962,7.962,0,0,0,54.6,63.044H45.234a7.962,7.962,0,0,0,1.816-5.069V48.937a1.465,1.465,0,0,0-1.465-1.465H32.517a1.465,1.465,0,0,0-1.465,1.465v9.038a7.962,7.962,0,0,0,1.816,5.069H24.646V51.567a1.034,1.034,0,0,1,.451-.855l8.423-5.747a3.962,3.962,0,0,0,1.73-3.275V40.97H38.53a2.633,2.633,0,0,0,2.63-2.63V37.13h8.005v.849a3,3,0,0,0,2.991,2.991Zm-18.175,17V50.4H44.12v7.573a5.069,5.069,0,0,1-10.138,0ZM49.166,26.489V34.2H41.16V26.489ZM38.23,38.04H35.25V22.649h2.981V38.04Zm-28.848-24a.168.168,0,0,1,.167-.167H25.509a.168.168,0,0,1,.167.167v2H9.383ZM32.615,97.15,31.05,92.562a3.617,3.617,0,0,0-3.423-2.449H23.239a1.465,1.465,0,0,0,0,2.93h4.387a.687.687,0,0,1,.65.465L29.52,97.15H11.294l1.243-3.643a.687.687,0,0,1,.65-.465h4.387a1.465,1.465,0,0,0,0-2.93H13.188a3.616,3.616,0,0,0-3.423,2.449L8.2,97.15H3.964A1.036,1.036,0,0,1,2.93,96.116V20a1.036,1.036,0,0,1,1.034-1.034H31.285A1.036,1.036,0,0,1,32.32,20V41.692a1.034,1.034,0,0,1-.451.854l-8.422,5.747a3.961,3.961,0,0,0-1.73,3.275V68.38a3.965,3.965,0,0,0,2.373,3.631l13.522,5.924a1.034,1.034,0,0,1,.619.948V97.15Zm53.791-1.391a1.392,1.392,0,0,1-1.391,1.391H41.16V80.29H86.406V95.759ZM97.1,71.735a5.632,5.632,0,0,1-5.625,5.625H40.856a3.964,3.964,0,0,0-2.069-2.109L25.265,69.328a1.034,1.034,0,0,1-.619-.947V65.974H91.479A5.632,5.632,0,0,1,97.1,71.6Z" transform="translate(1092.166 1221.384)" fill="#fff"/><path id="Pfad_251" data-name="Pfad 251" d="M427.461,346.554h-3.955a3.917,3.917,0,1,0,0,7.834h3.955a3.917,3.917,0,1,0,0-7.834Zm0,4.9h-3.955a.987.987,0,1,1,0-1.975h3.955a.987.987,0,1,1,0,1.975Z" transform="translate(754.531 942.58)" fill="#fff"/><path id="Pfad_252" data-name="Pfad 252" d="M237.4,352h-4.733v-.26a1.465,1.465,0,0,0-2.93,0V352H224.42v-.26a1.465,1.465,0,0,0-2.93,0V352h-5.319v-.26a1.465,1.465,0,0,0-2.93,0V352h-5.319v-.26a1.465,1.465,0,0,0-2.93,0V352h-4.429a1.465,1.465,0,1,0,0,2.93h4.429v.26a1.465,1.465,0,0,0,2.93,0v-.26h5.319v.26a1.465,1.465,0,0,0,2.93,0v-.26h5.319v.26a1.465,1.465,0,0,0,2.93,0v-.26h5.319v.26a1.465,1.465,0,0,0,2.93,0v-.26H237.4a1.465,1.465,0,0,0,0-2.93Z" transform="translate(931.955 939.583)" fill="#fff"/><path id="Pfad_253" data-name="Pfad 253" d="M46.264,273.071H38.873a1.465,1.465,0,1,0,0,2.93h7.391a1.465,1.465,0,1,0,0-2.93Z" transform="translate(1062.064 1001.71)" fill="#fff"/><path id="Pfad_254" data-name="Pfad 254" d="M46.264,307.9H38.873a1.465,1.465,0,1,0,0,2.93h7.391a1.465,1.465,0,1,0,0-2.93Z" transform="translate(1062.064 973.681)" fill="#fff"/><path id="Pfad_255" data-name="Pfad 255" d="M46.264,342.735H38.873a1.465,1.465,0,1,0,0,2.93h7.391a1.465,1.465,0,1,0,0-2.93Z" transform="translate(1062.064 945.653)" fill="#fff"/><path id="Pfad_256" data-name="Pfad 256" d="M60.744,121.774a1.465,1.465,0,0,0-1.465-1.465H43.615a1.465,1.465,0,1,0,0,2.93H59.279a1.465,1.465,0,0,0,1.465-1.465Z" transform="translate(1058.248 1124.634)" fill="#fff"/><path id="Pfad_257" data-name="Pfad 257" d="M270.148,459.741h22.13a1.465,1.465,0,1,0,0-2.93h-22.13a1.465,1.465,0,0,0,0,2.93Z" transform="translate(875.962 853.858)" fill="#fff"/></g></svg>