<svg xmlns="http://www.w3.org/2000/svg" width="110.449" height="100.005" viewBox="0 0 110.449 100.005"><g id="icon_bluebox" transform="translate(0 -24.207)"><path id="Pfad_271" data-name="Pfad 271" d="M108.831,120.976h-21.1V105.552a6.716,6.716,0,0,0,4.469-2.8l4.5-6.465h4.228a9.524,9.524,0,0,0,0-19.047h-2.32q0-.084,0-.168V57.1a3.408,3.408,0,0,0-3.4-3.4H73.319a3.408,3.408,0,0,0-3.4,3.4V77.073c0,.057,0,.113,0,.168H60.373q0-.084,0-.168V57.1a3.408,3.408,0,0,0-3.4-3.4H45.6V45.259a3.425,3.425,0,0,0-3.422-3.422H35.032v-2.21a3.425,3.425,0,0,0-3.348-3.42V33.092A8.9,8.9,0,0,0,22.8,24.207a8.8,8.8,0,0,0-3.959.931,1.618,1.618,0,1,0,1.444,2.9,5.589,5.589,0,0,1,2.515-.591,5.656,5.656,0,0,1,5.649,5.649v3.115h-11.3V33.092a5.7,5.7,0,0,1,.112-1.123,1.618,1.618,0,1,0-3.172-.639,8.942,8.942,0,0,0-.175,1.762v3.116a3.425,3.425,0,0,0-3.349,3.42v2.21H3.422A3.425,3.425,0,0,0,0,45.259V79.666a1.618,1.618,0,1,0,3.236,0V45.259a.186.186,0,0,1,.186-.186H42.175a.186.186,0,0,1,.186.186V98.408H3.279a.043.043,0,0,1-.043-.043V85.922a1.618,1.618,0,1,0-3.236,0V98.365a3.283,3.283,0,0,0,3.279,3.279H6.647v19.333H1.618a1.618,1.618,0,1,0,0,3.236H108.831a1.618,1.618,0,0,0,0-3.236ZM13.8,41.838v-2.21a.185.185,0,0,1,.185-.185H31.611a.185.185,0,0,1,.185.185v2.21Zm75.744,59.068A3.478,3.478,0,0,1,86.69,102.4H71.533a1.618,1.618,0,0,0,0,3.236h7.6v15.343H53.846V105.633h11.43a1.618,1.618,0,1,0,0-3.236H45.6V96.288H92.756Zm17.669-14.141a6.3,6.3,0,0,1-6.288,6.288H45.6V80.477h55.329a6.3,6.3,0,0,1,6.288,6.288ZM86.159,56.936v5.137H82.365V56.936ZM73.151,77.072V57.1a.169.169,0,0,1,.169-.169h5.81V63.69a1.618,1.618,0,0,0,1.618,1.618h7.03a1.618,1.618,0,0,0,1.618-1.618V56.936h5.81a.169.169,0,0,1,.168.169V77.072a.169.169,0,0,1-.168.168H73.319A.169.169,0,0,1,73.151,77.072ZM57.142,57.1V77.072a.169.169,0,0,1-.168.168H45.6V65.308h3.949a1.618,1.618,0,0,0,1.618-1.618V56.936h5.81A.169.169,0,0,1,57.142,57.1Zm-9.215-.169v5.137H45.6V56.936Zm-2.684,48.7v15.344H15.25V101.644H42.36v1.016a2.978,2.978,0,0,0,2.883,2.973ZM9.883,120.976V101.643h2.132v19.333Zm38.6,0V105.633h2.132v15.343Zm33.886,0V105.633H84.5v15.343Z" transform="translate(0)" fill="#fff"/><path id="Pfad_272" data-name="Pfad 272" d="M419.438,298.472a4.331,4.331,0,0,0,4.326,4.326h4.368a4.326,4.326,0,0,0,0-8.653h-4.368A4.331,4.331,0,0,0,419.438,298.472Zm9.785,0a1.092,1.092,0,0,1-1.09,1.09h-4.368a1.09,1.09,0,0,1,0-2.181h4.368A1.092,1.092,0,0,1,429.223,298.472Z" transform="translate(-328.957 -211.708)" fill="#fff"/><path id="Pfad_273" data-name="Pfad 273" d="M262.417,299.776h-1.992v-.287a1.618,1.618,0,0,0-3.236,0v.287h-6.359v-.287a1.618,1.618,0,0,0-3.236,0v.287h-6.359v-.287a1.618,1.618,0,0,0-3.236,0v.287h-6.359v-.287a1.618,1.618,0,0,0-3.236,0v.287h-1.992a1.618,1.618,0,1,0,0,3.236h1.992v.287a1.618,1.618,0,0,0,3.236,0v-.287H238v.287a1.618,1.618,0,0,0,3.236,0v-.287H247.6v.287a1.618,1.618,0,0,0,3.236,0v-.287h6.359v.287a1.618,1.618,0,0,0,3.236,0v-.287h1.992a1.618,1.618,0,1,0,0-3.236Z" transform="translate(-176.303 -214.629)" fill="#fff"/><path id="Pfad_274" data-name="Pfad 274" d="M62.737,151.875v-13.33a2.851,2.851,0,0,0-2.848-2.848H33a2.851,2.851,0,0,0-2.848,2.848v13.33A2.851,2.851,0,0,0,33,154.723H59.889A2.851,2.851,0,0,0,62.737,151.875Zm-3.236-.388H33.384V138.933H59.5v12.554Z" transform="translate(-23.644 -87.439)" fill="#fff"/><path id="Pfad_275" data-name="Pfad 275" d="M48.316,245.752H44.873a1.618,1.618,0,0,0,0,3.236h3.444a1.618,1.618,0,0,0,0-3.236Z" transform="translate(-33.924 -173.753)" fill="#fff"/><path id="Pfad_276" data-name="Pfad 276" d="M95.263,245.752H91.82a1.618,1.618,0,0,0,0,3.236h3.444a1.618,1.618,0,0,0,0-3.236Z" transform="translate(-70.744 -173.753)" fill="#fff"/><path id="Pfad_277" data-name="Pfad 277" d="M142.211,245.752h-3.444a1.618,1.618,0,0,0,0,3.236h3.444a1.618,1.618,0,0,0,0-3.236Z" transform="translate(-107.563 -173.753)" fill="#fff"/><path id="Pfad_278" data-name="Pfad 278" d="M48.316,285.385H44.873a1.618,1.618,0,0,0,0,3.236h3.444a1.618,1.618,0,1,0,0-3.236Z" transform="translate(-33.924 -204.837)" fill="#fff"/><path id="Pfad_279" data-name="Pfad 279" d="M95.263,285.385H91.82a1.618,1.618,0,0,0,0,3.236h3.444a1.618,1.618,0,0,0,0-3.236Z" transform="translate(-70.744 -204.837)" fill="#fff"/><path id="Pfad_280" data-name="Pfad 280" d="M142.211,285.385h-3.444a1.618,1.618,0,1,0,0,3.236h3.444a1.618,1.618,0,0,0,0-3.236Z" transform="translate(-107.563 -204.837)" fill="#fff"/><path id="Pfad_281" data-name="Pfad 281" d="M48.316,325.018H44.873a1.618,1.618,0,1,0,0,3.236h3.444a1.618,1.618,0,1,0,0-3.236Z" transform="translate(-33.924 -235.92)" fill="#fff"/><path id="Pfad_282" data-name="Pfad 282" d="M95.263,325.018H91.82a1.618,1.618,0,1,0,0,3.236h3.444a1.618,1.618,0,1,0,0-3.236Z" transform="translate(-70.744 -235.92)" fill="#fff"/><path id="Pfad_283" data-name="Pfad 283" d="M142.211,325.018h-3.444a1.618,1.618,0,1,0,0,3.236h3.444a1.618,1.618,0,0,0,0-3.236Z" transform="translate(-107.563 -235.92)" fill="#fff"/></g></svg>