<svg xmlns="http://www.w3.org/2000/svg" width="74.376" height="100.005" viewBox="0 0 74.376 100.005"><g id="icon_brenntechnik" transform="translate(-65.609)"><path id="Pfad_290" data-name="Pfad 290" d="M134.237,16.107V45.961a1.465,1.465,0,1,1-2.929,0V17.574H94.167l-1.932,5.31a1.464,1.464,0,0,1-1.871.875l-8.1-2.951a1.458,1.458,0,0,1-.875-1.871l.5-1.362h-7.6V84.3H91.526c-.57-.5-1.1-1.013-1.55-1.473A22.774,22.774,0,0,1,83.415,70.5a23.654,23.654,0,0,1,2.253-13.936,22.829,22.829,0,0,1,2.137-3.853,1.855,1.855,0,0,1,1.567-.62,1.891,1.891,0,0,1,1.334.775,4.193,4.193,0,0,1,.487.77c.2.382.781,1.356,1.429,2.32.033-.3.072-.614.111-.924a30.236,30.236,0,0,1,1.539-6.24,19.969,19.969,0,0,1,5.282-8,19.173,19.173,0,0,1,5.2-3.272,8.837,8.837,0,0,1,1.794-.664c1.146-.227,2.1.039,2.359,1.357a4.706,4.706,0,0,1-.648,2.442,15.948,15.948,0,0,0-.664,2.625,10.492,10.492,0,0,0,.238,5.221c.93,2.635,3.15,3.71,4.163,7.5a12.827,12.827,0,0,1,.432,2.89c.161-.282.31-.565.448-.853a10.685,10.685,0,0,0,.924-2.984,8.368,8.368,0,0,0,.055-1.2c-.022-1.888.548-2.707,1.733-2.724.808-.006,1.467.609,2.165,1.65s1.329,2.06,1.9,3.1a29.085,29.085,0,0,1,1.556,3.211,1.459,1.459,0,0,1-2.7,1.1,25.765,25.765,0,0,0-1.406-2.9c-.183-.327-.371-.659-.57-.991a13.927,13.927,0,0,1-1.019,2.979,16.043,16.043,0,0,1-2.231,3.422A5.41,5.41,0,0,1,111.7,64.21c-1.739.836-2.862.443-2.359-2.713a11.189,11.189,0,0,0-.161-4.745c-.886-3.3-3.068-4.374-4.1-7.281a13.448,13.448,0,0,1-.365-6.677,20.771,20.771,0,0,1,.52-2.281,15.777,15.777,0,0,0-3.732,2.453,17.113,17.113,0,0,0-4.5,6.844,27.2,27.2,0,0,0-1.379,5.625,18.886,18.886,0,0,0-.188,2.032c-.033,1.1.2,2.514-.986,3.128a1.987,1.987,0,0,1-2.409-.631,12.017,12.017,0,0,1-1.185-1.423c-.6-.814-1.207-1.766-1.661-2.508-.3.587-.609,1.179-.886,1.766A20.74,20.74,0,0,0,86.3,70.03a19.922,19.922,0,0,0,5.758,10.753,27.124,27.124,0,0,0,3.15,2.752c-1.179-4.612-1.307-9.839,1.357-13.98,1.34-2.093,6.495-6.423,9.512-6a1.618,1.618,0,0,1,1.534,2.082,14.408,14.408,0,0,1-.493,1.594,10.608,10.608,0,0,0-.31,2.049,7.062,7.062,0,0,0,.4,3.2,12.524,12.524,0,0,0,1.517,2.143,13.605,13.605,0,0,1,2.464,6.207,8.617,8.617,0,0,1-.066,2.569,18.844,18.844,0,0,0,6.484-5.636,15.254,15.254,0,0,0,2.658-8.615,20.723,20.723,0,0,0-.177-2.929A1.464,1.464,0,1,1,123,65.866a23.422,23.422,0,0,1,.188,3.355,18.065,18.065,0,0,1-3.173,10.2,20.3,20.3,0,0,1-4.856,4.878h16.151V52.6a1.465,1.465,0,1,1,2.929,0V85.765a1.47,1.47,0,0,1-1.467,1.467H72.822a1.466,1.466,0,0,1-1.467-1.467V16.107a1.449,1.449,0,0,1,.858-1.329l4.762-2.752c.393-.282.631-.4.77-.93a1.364,1.364,0,0,0-.172-1.135,1.431,1.431,0,0,0-1.888-.454l-7.147,4.125V45.961a1.464,1.464,0,1,1-2.929,0V12.79a1.463,1.463,0,0,1,.858-1.334l7.757-4.474a4.332,4.332,0,0,1,6.351,4.867,4.363,4.363,0,0,1-2.3,2.8H82.95l1.39-3.8a1.465,1.465,0,0,1,1.871-.88l8.095,2.951a1.461,1.461,0,0,1,.919,1.733h32.091A4.354,4.354,0,0,1,125.489,8.5a4.326,4.326,0,0,1,5.958-1.473l7.8,4.5a1.464,1.464,0,0,1,.742,1.262V98.543A1.465,1.465,0,0,1,138.517,100H67.076a1.465,1.465,0,0,1-1.467-1.462V52.6a1.464,1.464,0,1,1,2.929,0V97.076h68.517V13.632l-7.065-4.08a1.416,1.416,0,1,0-1.495,2.4l4.883,2.824a1.454,1.454,0,0,1,.858,1.329ZM74.285,93.245a1.465,1.465,0,1,1-2.929,0V91.063a1.465,1.465,0,1,1,2.929,0Zm59.952,0a1.465,1.465,0,1,1-2.929,0V91.063a1.465,1.465,0,1,1,2.929,0Zm-7.5,0a1.465,1.465,0,1,1-2.929,0V91.063a1.465,1.465,0,1,1,2.929,0Zm-7.491,0a1.464,1.464,0,1,1-2.929,0V91.063a1.464,1.464,0,1,1,2.929,0Zm-7.5,0a1.465,1.465,0,1,1-2.929,0V91.063a1.465,1.465,0,1,1,2.929,0Zm-7.491,0a1.464,1.464,0,1,1-2.929,0V91.063a1.464,1.464,0,1,1,2.929,0Zm-7.491,0a1.467,1.467,0,1,1-2.935,0V91.063a1.467,1.467,0,1,1,2.935,0Zm-7.5,0a1.464,1.464,0,1,1-2.929,0V91.063a1.464,1.464,0,1,1,2.929,0Zm-7.491,0a1.467,1.467,0,1,1-2.935,0V91.063a1.467,1.467,0,1,1,2.935,0ZM107.35,0h8.621a1.465,1.465,0,0,1,1.462,1.467v8.615a1.462,1.462,0,0,1-1.462,1.467H107.35a1.466,1.466,0,0,1-1.467-1.467V1.467A1.47,1.47,0,0,1,107.35,0ZM114.5,2.929h-5.686V8.621H114.5ZM103.862,33.985l-6.605-5.537a1.459,1.459,0,0,1-.183-2.06l5.542-6.605a1.464,1.464,0,0,1,2.06-.183l6.6,5.542a1.459,1.459,0,0,1,.183,2.06l-5.537,6.6a1.46,1.46,0,0,1-2.06.183Zm-3.6-6.838,4.363,3.66,3.66-4.363-4.363-3.66Zm16.129,15.287-2.231-8.322a1.465,1.465,0,0,1,1.035-1.794l8.327-2.231a1.461,1.461,0,0,1,1.788,1.035l2.231,8.327a1.457,1.457,0,0,1-1.035,1.788l-8.322,2.232A1.465,1.465,0,0,1,116.387,42.434Zm.974-7.669,1.473,5.5,5.5-1.473-1.473-5.5ZM91.936,15.16l-5.354-1.949q-.972,2.674-1.949,5.354l5.354,1.949q.98-2.682,1.949-5.354ZM76,41.836l7.059-4.944a1.462,1.462,0,0,1,2.032.36l4.944,7.06a1.461,1.461,0,0,1-.36,2.032l-7.059,4.944a1.462,1.462,0,0,1-2.032-.36l-4.944-7.059A1.458,1.458,0,0,1,76,41.836Zm7.536-1.717-4.667,3.272,3.267,4.667L86.8,44.792ZM97.921,82.3c.161.7.349,1.379.559,2h9.1a3.92,3.92,0,0,0,.709-3.15,10.582,10.582,0,0,0-1.938-4.833,11.577,11.577,0,0,1-1.822-2.691,9.9,9.9,0,0,1-.642-4.518,15.19,15.19,0,0,1,.271-2.071,10.963,10.963,0,0,0-5.132,4.092c-2.1,3.278-1.96,7.5-1.1,11.173Z" fill="#fff"/></g></svg>