<svg xmlns="http://www.w3.org/2000/svg" id="icon_lagerung" width="99.715" height="99.715" viewBox="0 0 99.715 99.715"><path id="Pfad_285" data-name="Pfad 285" d="M98.157,31.161A1.558,1.558,0,0,0,99.715,29.6V23.371a1.558,1.558,0,0,0-1.558-1.558H93.483V1.558A1.558,1.558,0,0,0,91.925,0H85.692a1.558,1.558,0,0,0-1.558,1.558V21.813H79.173a4.619,4.619,0,0,0,.287-1.558V10.906a4.679,4.679,0,0,0-4.674-4.674H62.322a4.638,4.638,0,0,0-3.116,1.216A4.638,4.638,0,0,0,56.09,6.232H43.625a4.638,4.638,0,0,0-3.116,1.216,4.638,4.638,0,0,0-3.116-1.216H24.929a4.679,4.679,0,0,0-4.674,4.674v9.348a4.619,4.619,0,0,0,.287,1.558H15.58V1.558A1.558,1.558,0,0,0,14.022,0H7.79A1.558,1.558,0,0,0,6.232,1.558V21.813H1.558A1.558,1.558,0,0,0,0,23.371V29.6a1.558,1.558,0,0,0,1.558,1.558H6.232V51.415H1.558A1.558,1.558,0,0,0,0,52.974v6.232a1.558,1.558,0,0,0,1.558,1.558H6.232V81.018H1.558A1.558,1.558,0,0,0,0,82.576v6.232a1.558,1.558,0,0,0,1.558,1.558H6.232V96.6H1.558a1.558,1.558,0,0,0,0,3.116h96.6a1.558,1.558,0,0,0,0-3.116H93.483V90.367h4.674a1.558,1.558,0,0,0,1.558-1.558V82.576a1.558,1.558,0,0,0-1.558-1.558H93.483V60.764h4.674a1.558,1.558,0,0,0,1.558-1.558V52.974a1.558,1.558,0,0,0-1.558-1.558H93.483V31.161ZM96.6,24.929v3.116H93.483V24.929ZM23.371,49.857V40.509a1.56,1.56,0,0,1,1.558-1.558h1.558v4.674a1.558,1.558,0,0,0,1.558,1.558h6.232a1.558,1.558,0,0,0,1.558-1.558V38.951h1.558a1.56,1.56,0,0,1,1.558,1.558v9.348a1.56,1.56,0,0,1-1.558,1.558H24.929A1.56,1.56,0,0,1,23.371,49.857Zm9.348-10.906v3.116H29.6V38.951Zm18.7,0v3.116H48.3V38.951Zm-4.674,6.232h6.232a1.558,1.558,0,0,0,1.558-1.558V38.951H56.09a1.56,1.56,0,0,1,1.558,1.558v9.348a1.56,1.56,0,0,1-1.558,1.558H43.625a1.56,1.56,0,0,1-1.558-1.558V40.509a1.56,1.56,0,0,1,1.558-1.558h1.558v4.674A1.558,1.558,0,0,0,46.741,45.183Zm23.371-6.232v3.116H67V38.951Zm-4.674,6.232H71.67a1.558,1.558,0,0,0,1.558-1.558V38.951h1.558a1.56,1.56,0,0,1,1.558,1.558v9.348a1.56,1.56,0,0,1-1.558,1.558H62.322a1.56,1.56,0,0,1-1.558-1.558V40.509a1.56,1.56,0,0,1,1.558-1.558H63.88v4.674A1.558,1.558,0,0,0,65.438,45.183Zm18.7,9.348v3.116H15.58V54.532ZM62.322,81.018a1.56,1.56,0,0,1-1.558-1.558V70.112a1.56,1.56,0,0,1,1.558-1.558H63.88v4.674a1.558,1.558,0,0,0,1.558,1.558H71.67a1.558,1.558,0,0,0,1.558-1.558V68.554h1.558a1.56,1.56,0,0,1,1.558,1.558V79.46a1.56,1.56,0,0,1-1.558,1.558Zm-18.7,0a1.56,1.56,0,0,1-1.558-1.558V70.112a1.56,1.56,0,0,1,1.558-1.558h1.558v4.674a1.558,1.558,0,0,0,1.558,1.558h6.232a1.558,1.558,0,0,0,1.558-1.558V68.554H56.09a1.56,1.56,0,0,1,1.558,1.558V79.46a1.56,1.56,0,0,1-1.558,1.558Zm-18.7,0a1.56,1.56,0,0,1-1.558-1.558V70.112a1.56,1.56,0,0,1,1.558-1.558h1.558v4.674a1.558,1.558,0,0,0,1.558,1.558h6.232a1.558,1.558,0,0,0,1.558-1.558V68.554h1.558a1.56,1.56,0,0,1,1.558,1.558V79.46a1.56,1.56,0,0,1-1.558,1.558Zm7.79-12.464V71.67H29.6V68.554Zm18.7,0V71.67H48.3V68.554Zm18.7,0V71.67H67V68.554Zm4.674-3.116H62.322a4.638,4.638,0,0,0-3.116,1.216,4.639,4.639,0,0,0-3.116-1.216H43.625a4.638,4.638,0,0,0-3.116,1.216,4.638,4.638,0,0,0-3.116-1.216H24.929a4.679,4.679,0,0,0-4.674,4.674V79.46a4.619,4.619,0,0,0,.287,1.558H15.58V60.764H84.134V81.018H79.173a4.619,4.619,0,0,0,.287-1.558V70.112a4.679,4.679,0,0,0-4.674-4.674ZM15.58,84.134H84.134V87.25H15.58ZM84.134,51.415H79.173a4.619,4.619,0,0,0,.287-1.558V40.509a4.679,4.679,0,0,0-4.674-4.674H62.322a4.638,4.638,0,0,0-3.116,1.216,4.638,4.638,0,0,0-3.116-1.216H43.625a4.638,4.638,0,0,0-3.116,1.216,4.638,4.638,0,0,0-3.116-1.216H24.929a4.679,4.679,0,0,0-4.674,4.674v9.348a4.619,4.619,0,0,0,.287,1.558H15.58V31.161H84.134ZM15.58,90.367H84.134V96.6H15.58ZM67,9.348h3.116v3.116H67Zm-4.674,0H63.88v4.674a1.558,1.558,0,0,0,1.558,1.558H71.67a1.558,1.558,0,0,0,1.558-1.558V9.348h1.558a1.56,1.56,0,0,1,1.558,1.558v9.348a1.56,1.56,0,0,1-1.558,1.558H62.322a1.56,1.56,0,0,1-1.558-1.558V10.906A1.56,1.56,0,0,1,62.322,9.348Zm-14.022,0h3.116v3.116H48.3Zm-4.674,0h1.558v4.674a1.558,1.558,0,0,0,1.558,1.558h6.232a1.558,1.558,0,0,0,1.558-1.558V9.348H56.09a1.56,1.56,0,0,1,1.558,1.558v9.348a1.56,1.56,0,0,1-1.558,1.558H43.625a1.56,1.56,0,0,1-1.558-1.558V10.906A1.56,1.56,0,0,1,43.625,9.348Zm-14.022,0h3.116v3.116H29.6ZM23.371,20.255V10.906a1.56,1.56,0,0,1,1.558-1.558h1.558v4.674a1.558,1.558,0,0,0,1.558,1.558h6.232a1.558,1.558,0,0,0,1.558-1.558V9.348h1.558a1.56,1.56,0,0,1,1.558,1.558v9.348a1.56,1.56,0,0,1-1.558,1.558H24.929A1.56,1.56,0,0,1,23.371,20.255Zm60.764,4.674v3.116H15.58V24.929ZM3.116,28.045V24.929H6.232v3.116Zm0,29.6V54.532H6.232v3.116Zm0,29.6V84.134H6.232V87.25ZM9.348,29.6V3.116h3.116V96.6H9.348Zm77.9,67V3.116h3.116V96.6ZM96.6,84.134V87.25H93.483V84.134Zm0-29.6v3.116H93.483V54.532Z" fill="#fff"/></svg>