<svg xmlns="http://www.w3.org/2000/svg" width="104.137" height="100.464" viewBox="0 0 104.137 100.464"><g id="icon_service" transform="translate(-1077.282 -712)"><path id="Pfad_266" data-name="Pfad 266" d="M7.818,46.9l3.165-3.165a3.675,3.675,0,0,1,5.149-.029l.992.992a28.331,28.331,0,0,1,4.37-2.289,27.526,27.526,0,0,1,4.693-1.464V39.582a3.671,3.671,0,0,1,3.667-3.667H32.1v-7.87a1.519,1.519,0,0,1,.455-1.09L50.033,9.481a1.505,1.505,0,0,1,1.078-.45h51.5a1.525,1.525,0,0,1,1.522,1.528V55.807a1.525,1.525,0,1,1-3.05,0V12.08H52.633V28.045a1.521,1.521,0,0,1-1.522,1.522H35.147v76.877h65.94V62.719a1.525,1.525,0,1,1,3.05,0v45.248a1.526,1.526,0,0,1-1.522,1.528H33.625a1.531,1.531,0,0,1-1.528-1.528v-7.876H29.854a3.661,3.661,0,0,1-3.667-3.667V95.069a27.624,27.624,0,0,1-9.058-3.753l-.963.963a3.668,3.668,0,0,1-5.183,0L7.818,89.114a3.674,3.674,0,0,1,0-5.189l.957-.957A27.727,27.727,0,0,1,5.022,73.9H3.667A3.671,3.671,0,0,1,0,70.243V65.769a3.661,3.661,0,0,1,3.667-3.661H5.022a27.591,27.591,0,0,1,3.754-9.063l-.957-.963a3.728,3.728,0,0,1-1.072-2.6A3.617,3.617,0,0,1,7.818,46.9ZM42.054,87.361a1.525,1.525,0,0,1,0-3.05H79.045a1.525,1.525,0,1,1,0,3.05Zm0-5.927a1.525,1.525,0,0,1,0-3.05H94.18a1.525,1.525,0,1,1,0,3.05Zm0-5.921a1.525,1.525,0,0,1,0-3.05H94.18a1.525,1.525,0,1,1,0,3.05ZM85.872,36.647H94.18a1.53,1.53,0,0,1,1.528,1.528v28.9a1.53,1.53,0,0,1-1.528,1.528H85.872a1.531,1.531,0,0,1-1.528-1.528v-28.9a1.531,1.531,0,0,1,1.528-1.528Zm6.78,3.05H87.394V65.55h5.258Zm-14.6,13.878a1.525,1.525,0,1,1,3.05,0v13.5a1.526,1.526,0,0,1-1.522,1.528H71.267a1.531,1.531,0,0,1-1.528-1.528V41.727A1.531,1.531,0,0,1,71.267,40.2h8.308A1.526,1.526,0,0,1,81.1,41.727v4.935a1.525,1.525,0,1,1-3.05,0V43.255H72.789v22.3h5.258Zm-21.384-2h8.308A1.521,1.521,0,0,1,66.494,53.1V67.078a1.526,1.526,0,0,1-1.522,1.528H56.664a1.527,1.527,0,0,1-1.528-1.528V53.1A1.522,1.522,0,0,1,56.664,51.574Zm6.78,3.05H58.186V65.55h5.258ZM48.84,58.9a1.525,1.525,0,0,1,3.05,0v8.176a1.526,1.526,0,0,1-1.522,1.528H42.054a1.525,1.525,0,0,1-1.522-1.528V47.06a1.526,1.526,0,0,1,1.522-1.528h8.314A1.526,1.526,0,0,1,51.89,47.06V52a1.525,1.525,0,0,1-3.05,0V48.582H43.582V65.55H48.84ZM19.626,64.916a1.522,1.522,0,1,1-2.975-.64A17.4,17.4,0,0,1,32.1,50.692V38.965H29.854a.633.633,0,0,0-.438.184.615.615,0,0,0-.179.432v2.612a1.531,1.531,0,0,1-1.274,1.5,24.434,24.434,0,0,0-10.142,4.2,1.525,1.525,0,0,1-1.96-.156L14.01,45.884a.623.623,0,0,0-.444-.179.611.611,0,0,0-.427.184L9.974,49.055a.593.593,0,0,0-.179.427.669.669,0,0,0,.15.415l1.874,1.88a1.521,1.521,0,0,1,.161,1.96,24.509,24.509,0,0,0-4.2,10.119,1.525,1.525,0,0,1-1.5,1.292H3.667a.63.63,0,0,0-.617.623v4.474a.6.6,0,0,0,.184.432.623.623,0,0,0,.432.19h2.52a1.523,1.523,0,0,1,1.6,1.268,24.432,24.432,0,0,0,1.522,5.31,24.825,24.825,0,0,0,2.612,4.745,1.517,1.517,0,0,1-.1,2.047L9.975,86.087a.6.6,0,0,0-.179.432.609.609,0,0,0,.179.438l3.165,3.165a.615.615,0,0,0,.432.173.627.627,0,0,0,.438-.173l1.845-1.851a1.521,1.521,0,0,1,1.96-.161A24.584,24.584,0,0,0,27.871,92.3a1.526,1.526,0,0,1,1.366,1.516v2.612a.611.611,0,0,0,.617.617H32.1V85.32A17.4,17.4,0,0,1,16.651,71.736a1.522,1.522,0,0,1,2.975-.646A14.32,14.32,0,0,0,32.1,82.252V53.759A14.324,14.324,0,0,0,19.626,64.916ZM49.584,14.237,37.3,26.517H49.584Z" transform="translate(1077.282 702.969)" fill="#fff"/></g></svg>