<svg xmlns="http://www.w3.org/2000/svg" width="86.324" height="99.715" viewBox="0 0 86.324 99.715"><g id="icon_elektrotechnik" transform="translate(-5.6 -1.525)"><path id="Pfad_287" data-name="Pfad 287" d="M85.044,93.536h-72.4A7.091,7.091,0,0,1,5.6,86.492V20.644A7.091,7.091,0,0,1,12.644,13.6H84.881a7.091,7.091,0,0,1,7.044,7.044V86.492a7.1,7.1,0,0,1-1.983,5.016A6.786,6.786,0,0,1,85.044,93.536Zm-72.4-76.66a3.818,3.818,0,0,0-3.767,3.767V86.492a3.818,3.818,0,0,0,3.767,3.767h72.4a3.567,3.567,0,0,0,3.6-3.767V20.644a3.818,3.818,0,0,0-3.767-3.767Z" transform="translate(0 7.704)" fill="#fff"/><path id="Pfad_288" data-name="Pfad 288" d="M61.386,45.108H36.652A6.56,6.56,0,0,1,30.1,38.556v-13.1A6.56,6.56,0,0,1,36.652,18.9h24.9A6.56,6.56,0,0,1,68.1,25.452v13.1q0,.048,0,.1A6.715,6.715,0,0,1,61.386,45.108ZM36.652,22.176a3.28,3.28,0,0,0-3.276,3.276v13.1a3.28,3.28,0,0,0,3.276,3.276H61.386a3.432,3.432,0,0,0,3.44-3.328V25.452a3.28,3.28,0,0,0-3.276-3.276Z" transform="translate(15.632 11.086)" fill="#fff"/><path id="Pfad_289" data-name="Pfad 289" d="M64.771,37.5a1.632,1.632,0,0,1-1.111-.434,22.6,22.6,0,0,0-30.211,0,1.638,1.638,0,0,1-2.222-2.407,25.874,25.874,0,0,1,34.655,0A1.638,1.638,0,0,1,64.771,37.5Z" transform="translate(16.014 16.892)" fill="#fff"/><path id="Linie_1" data-name="Linie 1" d="M.638,8.992A1.638,1.638,0,0,1-.534,6.21L6.018-.506A1.638,1.638,0,1,1,8.363,1.782L1.81,8.5A1.633,1.633,0,0,1,.638,8.992Z" transform="translate(65.241 39.176)" fill="#fff"/><path id="Linie_2" data-name="Linie 2" d="M16.2,2.276H.638A1.638,1.638,0,0,1,.638-1H16.2a1.638,1.638,0,0,1,0,3.276Z" transform="translate(56.232 63.255)" fill="#fff"/><path id="Linie_3" data-name="Linie 3" d="M16.2,2.276H.638A1.638,1.638,0,0,1,.638-1H16.2a1.638,1.638,0,0,1,0,3.276Z" transform="translate(56.232 71.117)" fill="#fff"/><path id="Linie_4" data-name="Linie 4" d="M16.2,2.276H.638A1.638,1.638,0,0,1,.638-1H16.2a1.638,1.638,0,0,1,0,3.276Z" transform="translate(56.232 78.98)" fill="#fff"/><path id="Pfad_290" data-name="Pfad 290" d="M17.952,72.485a1.638,1.638,0,0,1-1.56-2.135L20.286,58.11l-7.22.124a1.638,1.638,0,0,1-1.182-2.8L33.506,33.975a1.638,1.638,0,0,1,2.715,1.659L32.326,47.876l7.22-.124a1.638,1.638,0,0,1,1.182,2.8L19.106,72.01A1.637,1.637,0,0,1,17.952,72.485Zm4.587-17.691A1.638,1.638,0,0,1,24.1,56.929l-2.562,8.052L35.528,51.1,30.1,51.19a1.638,1.638,0,0,1-1.589-2.134L31.075,41,17.084,54.888l5.426-.094Z" transform="translate(3.701 20.401)" fill="#fff"/><path id="Ellipse_4" data-name="Ellipse 4" d="M4.733-1A5.733,5.733,0,1,1-1,4.733,5.74,5.74,0,0,1,4.733-1Zm0,8.19A2.457,2.457,0,1,0,2.276,4.733,2.46,2.46,0,0,0,4.733,7.19Z" transform="translate(16.264 35.081)" fill="#fff"/><path id="Ellipse_5" data-name="Ellipse 5" d="M4.733-1A5.733,5.733,0,1,1-1,4.733,5.74,5.74,0,0,1,4.733-1Zm0,8.19A2.457,2.457,0,1,0,2.276,4.733,2.46,2.46,0,0,0,4.733,7.19Z" transform="translate(29.369 35.081)" fill="#fff"/><path id="Pfad_291" data-name="Pfad 291" d="M27.99,24.744H21.438A1.638,1.638,0,0,1,19.8,23.106V7.709a7.353,7.353,0,0,1,2.118-5.09q.053-.053.11-.1a4.128,4.128,0,0,1,5.373,0q.057.048.11.1a7.061,7.061,0,0,1,2.118,5.09v15.4A1.638,1.638,0,0,1,27.99,24.744Zm-4.914-3.276h3.276V7.709A3.791,3.791,0,0,0,25.253,5a.854.854,0,0,0-1.076,0,4.07,4.07,0,0,0-1.1,2.714Z" transform="translate(9.06)" fill="#fff"/><path id="Linie_5" data-name="Linie 5" d="M15.053,2.276H.638A1.638,1.638,0,0,1,.638-1H15.053a1.638,1.638,0,0,1,0,3.276Z" transform="translate(25.929 9.036)" fill="#fff"/><path id="Linie_6" data-name="Linie 6" d="M15.053,2.276H.638A1.638,1.638,0,0,1,.638-1H15.053a1.638,1.638,0,0,1,0,3.276Z" transform="translate(25.929 15.916)" fill="#fff"/><path id="Pfad_292" data-name="Pfad 292" d="M44.89,24.744H38.338A1.638,1.638,0,0,1,36.7,23.106V7.709a7.353,7.353,0,0,1,2.118-5.09q.053-.053.11-.1a4.128,4.128,0,0,1,5.373,0q.057.048.11.1a7.061,7.061,0,0,1,2.118,5.09v15.4A1.638,1.638,0,0,1,44.89,24.744Zm-4.914-3.276h3.276V7.709A3.791,3.791,0,0,0,42.153,5a.854.854,0,0,0-1.076,0,4.07,4.07,0,0,0-1.1,2.714Z" transform="translate(19.843)" fill="#fff"/><path id="Linie_7" data-name="Linie 7" d="M15.053,2.276H.638A1.638,1.638,0,0,1,.638-1H15.053a1.638,1.638,0,0,1,0,3.276Z" transform="translate(53.611 9.036)" fill="#fff"/><path id="Linie_8" data-name="Linie 8" d="M15.053,2.276H.638A1.638,1.638,0,0,1,.638-1H15.053a1.638,1.638,0,0,1,0,3.276Z" transform="translate(53.611 15.916)" fill="#fff"/></g></svg>