<svg xmlns="http://www.w3.org/2000/svg" width="102.747" height="100.005" viewBox="0 0 102.747 100.005"><g id="icon_anlagenbau" transform="translate(-351.077 -712.459)"><path id="Pfad_265" data-name="Pfad 265" d="M19.438,61.839a10.857,10.857,0,1,0-7.68-3.18,10.811,10.811,0,0,0,7.68,3.18ZM81.489,42.9,96.017,54.808a1.5,1.5,0,0,1,.142,2.184L85.487,68.626v9.352a1.51,1.51,0,0,1-1.507,1.507H64.11a1.505,1.505,0,0,1-1.5-1.507V68.626L51.948,57.01a1.5,1.5,0,0,1,.131-2.2L66.607,42.9a8.531,8.531,0,0,1-1.086-4.278L54.968,28.066a10.585,10.585,0,0,1-2,.2L45.337,35.9a1.5,1.5,0,1,1-2.128-2.128l6.1-6.1a10.76,10.76,0,0,1-6.565-6.559L25.4,38.46a13.947,13.947,0,0,1,6.559,6.565L38.386,38.6a1.5,1.5,0,1,1,2.128,2.128l-7.486,7.492a13.93,13.93,0,0,1-4.2,12.976V83.729H91.2a11.553,11.553,0,0,1,0,23.107H11.553a11.556,11.556,0,0,1-1.507-23.01V76.283a1.5,1.5,0,1,1,3.009,0v7.446H25.815V63.3a13.882,13.882,0,0,1-12.759,0v6.161a1.5,1.5,0,1,1-3.009,0V61.191A13.87,13.87,0,0,1,22.208,37.4L42.146,17.451a10.72,10.72,0,1,1,21.235,2.2L73.934,30.211A8.523,8.523,0,0,1,81.489,42.9Zm4,21.287,7.395-8.066-13.294-10.9a8.519,8.519,0,0,1-11.081,0l-13.3,10.9,7.4,8.066V58.108a1.5,1.5,0,0,1,1.5-1.5h6.53a1.5,1.5,0,0,1,0,3.009H65.618V76.471h16.86V59.615H77.456a1.5,1.5,0,0,1,0-3.009H83.98a1.505,1.505,0,0,1,1.507,1.5v6.075ZM70.464,31l-8.226-8.231a10.844,10.844,0,0,1-4.158,4.158l8.231,8.226A8.506,8.506,0,0,1,70.464,31Zm7.48,3.84a5.514,5.514,0,1,0,1.616,3.9,5.471,5.471,0,0,0-1.616-3.9ZM58.319,12.1a7.711,7.711,0,1,0,2.258,5.455A7.688,7.688,0,0,0,58.319,12.1ZM11.553,103.827H91.2a8.544,8.544,0,0,0,0-17.088H11.553a8.544,8.544,0,0,0,0,17.088Zm11.019-7.042a1.5,1.5,0,0,1,0-3.009H25.3a1.5,1.5,0,0,1,0,3.009Zm53.575,0a1.5,1.5,0,1,1,0-3.009h2.725a1.5,1.5,0,1,1,0,3.009Zm-10.717,0a1.5,1.5,0,0,1,0-3.009H68.16a1.5,1.5,0,0,1,0,3.009Zm-10.712,0a1.5,1.5,0,1,1,0-3.009h2.725a1.5,1.5,0,1,1,0,3.009ZM44,96.784a1.5,1.5,0,0,1,0-3.009h2.73a1.5,1.5,0,0,1,0,3.009Zm-10.712,0a1.5,1.5,0,1,1,0-3.009h2.725a1.5,1.5,0,1,1,0,3.009ZM91.2,89.571a5.71,5.71,0,1,1-4.039,1.672A5.7,5.7,0,0,1,91.2,89.571Zm1.906,3.8a2.7,2.7,0,1,0,.791,1.911A2.7,2.7,0,0,0,93.1,93.371Zm-81.551-3.8a5.71,5.71,0,1,1-4.039,1.672A5.692,5.692,0,0,1,11.553,89.571Zm1.906,3.8a2.7,2.7,0,1,0,.791,1.911A2.691,2.691,0,0,0,13.459,93.371Z" transform="translate(351.077 705.628)" fill="#fff"/></g></svg>