<svg xmlns="http://www.w3.org/2000/svg" width="257.211" height="48.095" viewBox="0 0 257.211 48.095"><g id="wienerberger_logo_horizontal" transform="translate(-1 -0.187)"><g id="Gruppe_11" data-name="Gruppe 11" transform="translate(58.79 9.89)"><path id="Pfad_141" data-name="Pfad 141" d="M151.727,9.9c-1.853,0-3.358,1.412-4.142,3.8l-.282-3.419h-4.04V26.318h4.617V17.437a3.669,3.669,0,0,1,3.623-3.751,4.645,4.645,0,0,1,1.507.257l.224-3.783a5.075,5.075,0,0,0-1.507-.256" transform="translate(46.188 -2.721)" fill="#01215c"/><path id="Pfad_142" data-name="Pfad 142" d="M123.5,9.9c-1.853,0-3.358,1.412-4.142,3.8l-.282-3.419h-4.04V26.318h4.617V17.437a3.669,3.669,0,0,1,3.623-3.751,4.644,4.644,0,0,1,1.507.257l.224-3.783A5.074,5.074,0,0,0,123.5,9.9" transform="translate(25.36 -2.721)" fill="#01215c"/><path id="Pfad_143" data-name="Pfad 143" d="M94.98,9.9c-1.853,0-3.358,1.412-4.142,3.8l-.282-3.419h-4.04V26.318h4.617V17.437a3.669,3.669,0,0,1,3.623-3.751,4.644,4.644,0,0,1,1.507.257l.224-3.783A5.075,5.075,0,0,0,94.98,9.9" transform="translate(4.314 -2.721)" fill="#01215c"/><path id="Pfad_144" data-name="Pfad 144" d="M74.9,9.9a5.191,5.191,0,0,0-5.186,3.2l-.233-2.82H65.5V26.318H70.12V16.571a3.36,3.36,0,0,1,3.238-3.238,2.9,2.9,0,0,1,2.789,3.11v9.875h4.617V15.706A5.537,5.537,0,0,0,74.9,9.9" transform="translate(-11.192 -2.721)" fill="#01215c"/><rect id="Rechteck_14" data-name="Rechteck 14" width="4.617" height="16.031" transform="translate(28.278 7.567)" fill="#01215c"/><path id="Pfad_145" data-name="Pfad 145" d="M52.927,10.836A2.533,2.533,0,1,0,50.395,8.3a2.518,2.518,0,0,0,2.533,2.533" transform="translate(-22.341 -5.77)" fill="#01215c"/><path id="Pfad_146" data-name="Pfad 146" d="M55.926,10.124l-2.052,7.791c-.417,1.59-.792,3.158-1.175,4.929-.309-1.684-.774-3.818-1.1-5.025l-2.052-7.695H45.378l-2.052,7.791c-.417,1.59-.792,3.158-1.175,4.929-.309-1.684-.774-3.818-1.1-5.025L39,10.124H34.252l5.034,16.031h5.162l1.6-5.643c.488-1.746.873-3.286,1.2-4.851.282,1.733.661,3.58,1.1,5.3l1.347,5.194h5.226l5.515-16.031H55.926Z" transform="translate(-34.252 -2.557)" fill="#01215c"/><path id="Pfad_147" data-name="Pfad 147" d="M70.565,17.277c0-4.489-2.95-7.374-7.47-7.374-4.97,0-8.272,3.431-8.272,8.561,0,5.034,3.206,8.24,8.24,8.24a12.265,12.265,0,0,0,6.541-1.86l-.93-2.789a8.689,8.689,0,0,1-4.585,1.315c-2.662,0-4.271-1.347-4.634-3.783H70.308a11.071,11.071,0,0,0,.256-2.308Zm-11.151-.609c.438-2.162,1.714-3.431,3.584-3.431h0a3.247,3.247,0,0,1,3.3,3.431Z" transform="translate(-19.074 -2.721)" fill="#01215c"/><path id="Pfad_148" data-name="Pfad 148" d="M91.577,17.277c0-4.489-2.95-7.374-7.47-7.374-4.97,0-8.272,3.431-8.272,8.561,0,5.034,3.206,8.24,8.24,8.24a12.265,12.265,0,0,0,6.541-1.86l-.93-2.789A8.689,8.689,0,0,1,85.1,23.368c-2.662,0-4.271-1.347-4.634-3.783H91.321a11.072,11.072,0,0,0,.256-2.308Zm-11.151-.609c.438-2.162,1.714-3.431,3.584-3.431h0a3.247,3.247,0,0,1,3.3,3.431Z" transform="translate(-3.568 -2.721)" fill="#01215c"/><path id="Pfad_149" data-name="Pfad 149" d="M103.227,12.925a6.276,6.276,0,0,0-5.194,2.73V5.807H93.416V29.34h3.912l.17-2.061a5.952,5.952,0,0,0,5.024,2.446c4.457,0,7.823-3.687,7.823-8.561,0-4.681-3.078-8.24-7.118-8.24Zm-1.475,13.53c-2.276,0-3.88-1.892-3.88-4.649v-.577c0-2.821,1.667-4.873,3.976-4.873,2.276,0,3.783,1.988,3.783,4.97C105.631,24.4,104.092,26.455,101.752,26.455Z" transform="translate(9.405 -5.743)" fill="#01215c"/><path id="Pfad_150" data-name="Pfad 150" d="M120.1,17.277c0-4.489-2.95-7.374-7.47-7.374-4.97,0-8.272,3.431-8.272,8.561,0,5.034,3.206,8.24,8.24,8.24a12.265,12.265,0,0,0,6.541-1.86l-.93-2.789a8.689,8.689,0,0,1-4.585,1.315c-2.662,0-4.271-1.347-4.634-3.783h10.854a11.071,11.071,0,0,0,.256-2.308Zm-11.151-.609c.438-2.162,1.714-3.431,3.584-3.431h0a3.247,3.247,0,0,1,3.3,3.431h-6.88Z" transform="translate(17.478 -2.721)" fill="#01215c"/><path id="Pfad_151" data-name="Pfad 151" d="M134.234,10.287l-.17,2.061A5.952,5.952,0,0,0,129.04,9.9c-4.457,0-7.823,3.687-7.823,8.561,0,4.681,3.078,8.24,7.118,8.24a6.276,6.276,0,0,0,5.194-2.73v1.64c0,3.27-1.86,5.13-5.226,5.13a12.538,12.538,0,0,1-5.611-1.411l-.673,3.238a17.127,17.127,0,0,0,7.022,1.571c5.643,0,9.106-3.4,9.106-8.945V10.287h-3.912Zm-.545,8.112c0,2.821-1.667,4.873-3.976,4.873-2.276,0-3.783-1.988-3.783-4.97,0-3.078,1.539-5.13,3.88-5.13,2.276,0,3.879,1.892,3.879,4.649Z" transform="translate(29.92 -2.721)" fill="#01215c"/><path id="Pfad_152" data-name="Pfad 152" d="M148.324,17.277c0-4.489-2.95-7.374-7.47-7.374-4.97,0-8.272,3.431-8.272,8.561,0,5.034,3.206,8.24,8.24,8.24a12.265,12.265,0,0,0,6.541-1.86l-.93-2.789a8.689,8.689,0,0,1-4.585,1.315c-2.662,0-4.271-1.347-4.634-3.783h10.854a11.071,11.071,0,0,0,.257-2.308Zm-11.151-.609c.438-2.162,1.714-3.431,3.584-3.431h0a3.247,3.247,0,0,1,3.3,3.431Z" transform="translate(38.306 -2.721)" fill="#01215c"/></g><g id="Gruppe_12" data-name="Gruppe 12" transform="translate(1 0.187)"><path id="Pfad_153" data-name="Pfad 153" d="M4.738,8.567h6.379l4.393,16.792L19.8,8.567h5.586l4.3,16.792L33.993,8.567H40L32.55,30.26H25.657L22.228,16.135,18.263,30.26H11.53Z" transform="translate(1.759 5.996)" fill="#01215c"/><path id="Pfad_154" data-name="Pfad 154" d="M25.048.187A24.048,24.048,0,1,0,49.1,24.235,24.048,24.048,0,0,0,25.048.187m0,1.2a22.835,22.835,0,0,1,16.152,39,22.842,22.842,0,1,1-25.043-37.2,22.682,22.682,0,0,1,8.891-1.8" transform="translate(-1 -0.187)" fill="#01215c"/></g></g></svg>