<svg xmlns="http://www.w3.org/2000/svg" width="116.453" height="75.168" viewBox="0 0 116.453 75.168"><g id="wolfshoer_tonwerke" transform="translate(-1183 -832)"><g id="Ebene_1" data-name="Ebene 1" transform="translate(1183 832)"><g id="Gruppe_17" data-name="Gruppe 17" transform="translate(0 0)"><g id="Gruppe_13" data-name="Gruppe 13" transform="translate(0 45.478)"><path id="Pfad_155" data-name="Pfad 155" d="M18.988,71.466,15.59,84.18H12.02l-1.769-6.516c-.159-.592-.35-1.381-.566-2.367l-.178-.783H9.424l-.185.789-.178.783c-.134.528-.267,1.056-.42,1.584L6.828,84.18H3.3L0,71.466H2.456L4.289,78.44q.162.668.42,1.852l.2.929.185.929h.083c.1-.407.172-.719.223-.929l.223-.923q.172-.725.5-1.852L8.069,71.46H10.9l1.909,6.987q.239.9.477,1.852l.216.923.223.929H13.8l.2-.929.2-.929c.159-.751.305-1.374.439-1.864l1.884-6.968h2.469Z" transform="translate(0 -71.46)" fill="#01215c"/><path id="Pfad_156" data-name="Pfad 156" d="M34.379,78.976c-.891,0-1.451.159-1.693.484a4.319,4.319,0,0,0-.363,2.24,5.506,5.506,0,0,0,.344,2.513c.229.337.8.5,1.724.5s1.451-.178,1.68-.528a5.625,5.625,0,0,0,.35-2.552,4.111,4.111,0,0,0-.363-2.176c-.242-.318-.8-.477-1.674-.477M34.4,77.3q2.577,0,3.379.821t.8,3.481c0,1.973-.261,3.271-.783,3.882s-1.623.923-3.3.923q-2.73,0-3.532-.859c-.535-.573-.808-1.826-.808-3.773s.261-3.08.789-3.64,1.674-.84,3.449-.84" transform="translate(-10.969 -73.58)" fill="#01215c"/></g><path id="Pfad_157" data-name="Pfad 157" d="M48.212,69.28l.07,14.107H46.144L46.08,69.28Z" transform="translate(-16.758 -25.189)" fill="#01215c"/><g id="Gruppe_14" data-name="Gruppe 14" transform="translate(32.93 44.091)"><path id="Pfad_158" data-name="Pfad 158" d="M53.01,84.107V76.821H51.75V75.2h1.26v-.948a3.024,3.024,0,0,1,.732-2.342,4.058,4.058,0,0,1,2.647-.649c.216,0,.522.013.9.025v1.667a3.265,3.265,0,0,0-.744-.1,1.24,1.24,0,0,0-1.406,1.4V75.2h2.214v1.623H55.142v7.286H53.01Z" transform="translate(-51.75 -70)" fill="#01215c"/><path id="Pfad_159" data-name="Pfad 159" d="M70.17,79.852H68.082c-.013-.076-.019-.134-.025-.165-.045-.426-.165-.694-.369-.8a3.981,3.981,0,0,0-1.464-.159c-1.114,0-1.667.363-1.667,1.082,0,.49.1.783.293.878a8.316,8.316,0,0,0,1.985.223,6.344,6.344,0,0,1,2.972.6,2.382,2.382,0,0,1,.687,2.024,2.547,2.547,0,0,1-.916,2.259,6.173,6.173,0,0,1-3.29.63,5.888,5.888,0,0,1-3.118-.566,2.386,2.386,0,0,1-.84-2.125v-.223h2.214a1.968,1.968,0,0,0-.057.3c-.089.789.522,1.184,1.826,1.184s2.024-.395,2.024-1.171-.42-1.126-1.266-1.126a8.453,8.453,0,0,1-3.767-.541,2.412,2.412,0,0,1-.91-2.246,2.29,2.29,0,0,1,.827-2.068,6.4,6.4,0,0,1,3.188-.541,5.809,5.809,0,0,1,2.991.522,2.318,2.318,0,0,1,.77,2.043" transform="translate(-55.598 -72.197)" fill="#01215c"/><path id="Pfad_160" data-name="Pfad 160" d="M79.9,69.28v6.675l.045.013a2.584,2.584,0,0,1,2.736-1.584q3.121,0,3.118,2.953v6.051H83.669V77.635a1.394,1.394,0,0,0-1.591-1.565q-2.176,0-2.176,2.265v5.059H77.77V69.286H79.9Z" transform="translate(-61.213 -69.28)" fill="#01215c"/><path id="Pfad_161" data-name="Pfad 161" d="M99.94,74.189H98.291V72.7H99.94Zm-2.571,3.118c-.891,0-1.451.159-1.693.484a4.319,4.319,0,0,0-.363,2.24,5.506,5.506,0,0,0,.344,2.513c.229.337.8.5,1.724.5s1.451-.178,1.68-.528a5.626,5.626,0,0,0,.35-2.552,4.111,4.111,0,0,0-.363-2.176c-.242-.318-.8-.477-1.674-.477m-.948-3.124H94.779V72.7h1.648Zm.961,1.438q2.577,0,3.379.821t.8,3.481c0,1.973-.261,3.271-.783,3.882s-1.623.923-3.3.923q-2.73,0-3.532-.859c-.535-.573-.808-1.826-.808-3.773s.261-3.08.789-3.64,1.674-.84,3.449-.84" transform="translate(-66.806 -70.524)" fill="#01215c"/><path id="Pfad_162" data-name="Pfad 162" d="M111.312,69.28v6.675l.045.013a2.584,2.584,0,0,1,2.736-1.584q3.121,0,3.118,2.953v6.051h-2.132V77.635a1.394,1.394,0,0,0-1.591-1.565q-2.176,0-2.176,2.265v5.059H109.18V69.286h2.132Z" transform="translate(-72.636 -69.28)" fill="#01215c"/><path id="Pfad_163" data-name="Pfad 163" d="M130.633,80.92v-.356a1.892,1.892,0,0,0-.375-1.381,2.688,2.688,0,0,0-1.6-.318,2.169,2.169,0,0,0-1.553.382,2.6,2.6,0,0,0-.356,1.667h3.882Zm-.019,2.526h2.144v.344q0,2.606-3.913,2.609-2.653,0-3.474-.9c-.547-.6-.821-1.877-.821-3.831q0-2.6.859-3.493c.573-.6,1.686-.891,3.347-.891s2.653.293,3.194.872.808,1.724.808,3.423v.655h-6.026c-.013.2-.019.331-.019.388a2.656,2.656,0,0,0,.407,1.75,2.2,2.2,0,0,0,1.616.439,2.882,2.882,0,0,0,1.527-.255,1.321,1.321,0,0,0,.35-1.1" transform="translate(-78.226 -72.189)" fill="#01215c"/><path id="Pfad_164" data-name="Pfad 164" d="M140.27,77.38H142.4l-.127,1.247h.045a2.558,2.558,0,0,1,2.405-1.387q2.348,0,2.348,2.959l.025,1.954h-2.011c.025-.242.013-1.724.013-1.8,0-.948-.369-1.425-1.107-1.425-1.056,0-1.584.706-1.584,2.113v5.243h-2.132v-8.9Z" transform="translate(-83.943 -72.175)" fill="#01215c"/></g><path id="Pfad_165" data-name="Pfad 165" d="M6.489,99.41v10.97H3.982V99.41H.17V97.17H10.44v2.24Z" transform="translate(-0.062 -35.332)" fill="#01215c"/><g id="Gruppe_15" data-name="Gruppe 15" transform="translate(11.097 61.717)"><path id="Pfad_166" data-name="Pfad 166" d="M23.358,99.131c-1.686,0-2.666.216-2.953.649s-.426,1.928-.426,4.492q0,2.844.5,3.43c.331.388,1.311.579,2.94.579s2.488-.216,2.8-.655.465-1.756.465-3.964-.146-3.519-.439-3.926-1.254-.6-2.876-.6m.191-2.151q3.6,0,4.639,1.2t1.037,5.351c0,3.029-.344,4.931-1.037,5.721s-2.373,1.184-5.04,1.184q-3.6,0-4.658-1.164c-.7-.776-1.056-2.488-1.056-5.135q0-4.725,1.037-5.937t5.084-1.209" transform="translate(-17.44 -96.98)" fill="#01215c"/><path id="Pfad_167" data-name="Pfad 167" d="M78.539,97.156l-3.532,13.21H71.3l-1.839-6.777c-.165-.611-.363-1.432-.592-2.456l-.185-.815h-.089l-.191.821-.185.814c-.134.547-.28,1.094-.433,1.648l-1.89,6.764H62.223L58.8,97.156h2.558l1.909,7.248c.115.465.261,1.107.433,1.928l.2.967.191.967h.089c.1-.426.185-.751.235-.967l.229-.961q.181-.754.515-1.928l2.03-7.26h2.94l1.985,7.26q.248.926.5,1.928l.223.961.235.967h.076l.21-.967.2-.967c.165-.783.318-1.425.452-1.934l1.954-7.241h2.564Z" transform="translate(-32.482 -97.042)" fill="#01215c"/></g><path id="Pfad_168" data-name="Pfad 168" d="M94.3,99.273v3.411h6.2v1.845H94.3v3.735h6.592v2.113h-9.1V97.16h9.042v2.113Z" transform="translate(-33.382 -35.329)" fill="#01215c"/><path id="Pfad_169" data-name="Pfad 169" d="M130.777,97.16v5.383h1.177l4.4-5.383h3.118l-5.339,6.421,5.9,6.8h-3.213l-4.842-5.721h-1.2v5.721H128.27V97.16Z" transform="translate(-46.649 -35.329)" fill="#01215c"/><path id="Pfad_170" data-name="Pfad 170" d="M150.787,99.273v3.411h6.191v1.845h-6.191v3.735h6.586v2.113H148.28V97.16h9.036v2.113Z" transform="translate(-53.926 -35.329)" fill="#01215c"/><path id="Pfad_171" data-name="Pfad 171" d="M38.72,110.316l.019-13.286h2.825l5.791,8.851h.057l.045-8.851h2.5l-.025,13.286-2.507-.013-6.147-9.354-.057.006v9.36Z" transform="translate(-14.082 -35.281)" fill="#01215c"/><path id="Pfad_172" data-name="Pfad 172" d="M62.9,44.21A63.1,63.1,0,0,0,28.96,57.834v.121H35A55.859,55.859,0,0,1,69.634,46.31c31.81,0,47.126,23.875,51.9,33.235h5.447S113.572,47.716,76.391,44.21h-13.5Z" transform="translate(-10.532 -16.072)" fill="#01215c"/><g id="Gruppe_16" data-name="Gruppe 16" transform="translate(45.091)"><path id="Pfad_173" data-name="Pfad 173" d="M116.406,103.337a2.346,2.346,0,0,1-1.712.458H111.08V99.239h3.786a2.187,2.187,0,0,1,1.6.414,3.045,3.045,0,0,1,.363,1.833,2.836,2.836,0,0,1-.42,1.852m.63,1.464h0a3.1,3.1,0,0,0,1.877-.961,5.425,5.425,0,0,0,.471-2.813,4.044,4.044,0,0,0-.923-3.061,5.065,5.065,0,0,0-3.36-.846H108.56v13.261h2.52v-4.467h3.691l1.852,4.467h2.723l-2.31-5.581Z" transform="translate(-84.572 -35.314)" fill="#01215c"/><path id="Pfad_174" data-name="Pfad 174" d="M99.622,17.508a3.868,3.868,0,0,1-1.731.293l-1.508-.649q-1.317-.655-2.138-1.133a37.493,37.493,0,0,1,.846,5.421v.025c-.051.509,1.145,1.063,1.553,1.514-.051.8.191,5.1,0,5.148a5.442,5.442,0,0,1-1.6,1.069,1.7,1.7,0,0,1-.554-.274c-.28-.235-.172-.484-.14-.751.21-.248.019-.363,1.1-.643a17.055,17.055,0,0,0-.554-3.576c-3.271-1.68-3.544-2.469-3.544-2.469-.655,2.106-.185,1.3.547,2.437-.509.961-2.622,4.4-2.622,4.4a12.266,12.266,0,0,1-1.9-.165c-.038-.038-.325-.21-.325-.42s.286-.465.414-.592c.261-.261,1.024-.032,1.024-.032.98-.611,1.5-3.182,1.5-3.182a16.42,16.42,0,0,0-1.222-1.54c-.668-.865-.967-1.088-.744-3.118-.121-.28-.827-1.266-1.005-1.731a24.228,24.228,0,0,0-6.624,1.527s-.445,8.056-.445,8.088c.165.668.21.63.076,1.056-.064.6-1.642.407-2.144.471a4.067,4.067,0,0,1-.159-.573c.255-.382.083-.223.369-.617.229-.115.305-.038.42-.172.356-.6-.3-6.968-.3-7.871-.49-.56-1.126-.789-1.4-.573-.42,4.263-.369,6.72-.515,8.762a11.253,11.253,0,0,1-.248,1.368,7.519,7.519,0,0,1-2.068.21c-.267.025-.286-.083-.439-.414a5.355,5.355,0,0,1,.293-.8c.515-.305.484,0,.954-.3a31.727,31.727,0,0,0-.045-4.709c-.064-1.642-.051-2.844-.248-4.543-.013,0-.395-.395-.414-.388-.98-1.133-2.673-3.576-2.634-5.237,0-.019.293-1.152.3-1.177a4.99,4.99,0,0,1-.7-.827,6.188,6.188,0,0,1,.2-3.582c-.089-.178.064-1.521,0-1.82A15.94,15.94,0,0,1,73.9,2.631,4.944,4.944,0,0,1,75.207-.01,7.089,7.089,0,0,0,76,1.778c.846.076,1.6-.318,2.412-.216a2.935,2.935,0,0,0,.668.515c.312.064,1.858-.547,3.124-.585a2.786,2.786,0,0,1-.395,1.591A20.391,20.391,0,0,0,79.871,4.26a8.839,8.839,0,0,0,1.915-.127c.2.49.267.884-.515,1.285-.566.07-1.234.185-1.54.248-.636.49-.452.719-.98,1.324h0a9.028,9.028,0,0,1,.814.535c1.33.751,1.311,1.324,2.011,1.578a32.342,32.342,0,0,0,5.409,1.177c2.157.42,2.768,1.114,4.575,1.247.9-.076,1.565.28,2.723,1.33a26.632,26.632,0,0,0,2.743,1.915,6.539,6.539,0,0,0,4.925-.172c0,.025.057-.045.057.051a1.937,1.937,0,0,1-.395,1.184,3.537,3.537,0,0,1-2,1.654" transform="translate(-70.862 0.01)" fill="#01215c"/></g></g></g></g></svg>