<svg xmlns="http://www.w3.org/2000/svg" id="xeral" width="172.755" height="48.095" viewBox="0 0 172.755 48.095"><g id="Gruppe_20" data-name="Gruppe 20"><g id="Gruppe_18" data-name="Gruppe 18" transform="translate(0 38.931)"><path id="Pfad_175" data-name="Pfad 175" d="M0,34.036H2.264v7.973H3.338V34.036H5.626v-.9H0Z" transform="translate(0 -32.987)" fill="#01215c"/><path id="Pfad_176" data-name="Pfad 176" d="M12.868,37.02H7.761V33.14H6.7v8.869H7.761V37.94h5.107v4.069h1.073V33.14H12.868Z" transform="translate(1.202 -32.987)" fill="#01215c"/><path id="Pfad_177" data-name="Pfad 177" d="M16.32,37.94h3.986v-.908H16.32v-3h4.258v-.9H15.27v8.869h5.555v-.9H16.32Z" transform="translate(2.739 -32.987)" fill="#01215c"/><path id="Pfad_178" data-name="Pfad 178" d="M29.435,37.645l-3.479-4.482-.024-.024h-1v8.869h1.05V34.791l3.161,4.081.024.024h.519l3.184-4.128v7.241h1.061V33.14H32.891Z" transform="translate(4.472 -32.987)" fill="#01215c"/><rect id="Rechteck_15" data-name="Rechteck 15" width="1.061" height="8.869" transform="translate(41.266 0.153)" fill="#01215c"/><path id="Pfad_179" data-name="Pfad 179" d="M45.031,40.275l-5.673-7.112-.012-.024H38.32v8.869h1.05V34.8l5.744,7.182.024.024H46.1V33.14H45.031Z" transform="translate(6.874 -32.987)" fill="#01215c"/><path id="Pfad_180" data-name="Pfad 180" d="M48.411,37.94h3.975v-.908H48.411v-3h4.246v-.9H47.35v8.869H52.9v-.9H48.411Z" transform="translate(8.494 -32.987)" fill="#01215c"/><path id="Pfad_181" data-name="Pfad 181" d="M57.021,38.26c1.769,0,3.1-1.109,3.1-2.571S58.8,33.13,56.985,33.13h-2.8V42h1.05V37.954l3.975,4.033.024.024h1.392l-3.715-3.75h.094Zm-.236-.826H55.24v-3.4h1.639c1.238,0,2.146.684,2.146,1.639,0,1.073-.885,1.769-2.241,1.769Z" transform="translate(9.721 -32.988)" fill="#01215c"/><path id="Pfad_182" data-name="Pfad 182" d="M65.377,33.072h-.649L60.99,42.023h1.132l1.262-3.114H66.7l1.238,3.066v.035h1.191L65.389,33.1V33.06Zm.944,4.942H63.75l1.286-3.231,1.286,3.231Z" transform="translate(10.94 -33.001)" fill="#01215c"/><path id="Pfad_183" data-name="Pfad 183" d="M71,33.14H69.95v8.869h5.177v-.9H71Z" transform="translate(12.548 -32.987)" fill="#01215c"/><rect id="Rechteck_16" data-name="Rechteck 16" width="1.061" height="8.869" transform="translate(93.183 0.153)" fill="#01215c"/><path id="Pfad_184" data-name="Pfad 184" d="M89.051,40.275l-5.673-7.112-.012-.024H82.34v8.869H83.4V34.8l5.732,7.182.024.024h.967V33.14H89.051Z" transform="translate(14.77 -32.987)" fill="#01215c"/><path id="Pfad_185" data-name="Pfad 185" d="M94.282,37.112l-.224-.106c-1.12-.519-1.863-.861-1.863-1.8,0-.873.814-1.262,1.569-1.262a2.653,2.653,0,0,1,1.946.672l.047.047.66-.731-.047-.047a3.863,3.863,0,0,0-2.606-.861c-1.58,0-2.677.92-2.677,2.229,0,1.5,1.286,2.088,2.524,2.654l.059.024c.955.436,1.934.9,1.934,1.887,0,.837-.767,1.415-1.852,1.415a3.4,3.4,0,0,1-2.076-.708l-.047-.035-.649.719.059.047a4.448,4.448,0,0,0,2.748.908c1.663,0,2.925-1.038,2.925-2.394,0-1.545-1.286-2.135-2.406-2.654Z" transform="translate(16.32 -33.008)" fill="#01215c"/><path id="Pfad_186" data-name="Pfad 186" d="M104.107,38.707a2.518,2.518,0,0,1-2.654,2.536,2.472,2.472,0,0,1-2.63-2.536V33.14H97.75v5.567a3.421,3.421,0,0,0,3.691,3.444,3.461,3.461,0,0,0,3.715-3.444V33.14H104.1v5.567Z" transform="translate(17.534 -32.987)" fill="#01215c"/><path id="Pfad_187" data-name="Pfad 187" d="M107.471,33.14H106.41v8.869H111.6v-.9h-4.128Z" transform="translate(19.088 -32.987)" fill="#01215c"/><path id="Pfad_188" data-name="Pfad 188" d="M116.567,33.072h-.649l-3.739,8.951h1.132l1.262-3.114h3.314l1.238,3.066v.035h1.191L116.579,33.1V33.06Zm.943,4.942H114.94l1.286-3.231,1.286,3.231Z" transform="translate(20.123 -33.001)" fill="#01215c"/><path id="Pfad_189" data-name="Pfad 189" d="M119.73,34.036h2.264v7.973h1.061V34.036h2.3v-.9H119.73Z" transform="translate(21.477 -32.987)" fill="#01215c"/><rect id="Rechteck_17" data-name="Rechteck 17" width="1.061" height="8.869" transform="translate(149.109 0.153)" fill="#01215c"/><path id="Pfad_190" data-name="Pfad 190" d="M134.343,33.01a4.593,4.593,0,1,0,5,4.564A4.716,4.716,0,0,0,134.343,33.01Zm0,.944a3.651,3.651,0,1,1,.035,7.289,3.721,3.721,0,0,1-3.88-3.656,3.671,3.671,0,0,1,3.845-3.632Z" transform="translate(23.21 -33.01)" fill="#01215c"/><path id="Pfad_191" data-name="Pfad 191" d="M146.591,33.14v7.135l-5.673-7.112-.012-.024H139.88v8.869h1.05V34.8l5.744,7.182.024.024h.967V33.14Z" transform="translate(25.091 -32.987)" fill="#01215c"/></g><g id="Gruppe_19" data-name="Gruppe 19" transform="translate(0.066)"><rect id="Rechteck_18" data-name="Rechteck 18" width="15.167" height="5.343" rx="1.89" transform="translate(44.609 12.065)" fill="#01215c"/><path id="Pfad_192" data-name="Pfad 192" d="M5.568.826A2.24,2.24,0,0,0,3.847,0H2.962A2.889,2.889,0,0,0,.7,4.694l7.713,9.647a2.23,2.23,0,0,1,.071,2.689L.992,27.385a2.9,2.9,0,0,0,2.347,4.588H4.472A2.193,2.193,0,0,0,6.3,31.006l5.578-8.079a2.224,2.224,0,0,1,3.562-.142l6.77,8.362a2.245,2.245,0,0,0,1.734.826h.932a2.891,2.891,0,0,0,2.241-4.718Z" transform="translate(-0.056)" fill="#01215c"/><path id="Pfad_193" data-name="Pfad 193" d="M22.357,0h-.932a2.252,2.252,0,0,0-1.769.873L15.139,6.805a2.233,2.233,0,0,0,.047,2.76l1.12,1.38a2.228,2.228,0,0,0,3.479-.035L24.633,4.67A2.888,2.888,0,0,0,22.357,0Z" transform="translate(2.568)" fill="#01215c"/><path id="Pfad_194" data-name="Pfad 194" d="M55.1,26.312H38.374a2.227,2.227,0,0,1-2.229-2.229V7.914a2.227,2.227,0,0,1,2.229-2.229H54.661A2.227,2.227,0,0,0,56.89,3.456V2.217A2.222,2.222,0,0,0,54.673,0H32.559A2.894,2.894,0,0,0,29.67,2.889V29.083a2.894,2.894,0,0,0,2.889,2.889H55.1a2.235,2.235,0,0,0,2.229-2.229V28.529A2.227,2.227,0,0,0,55.1,26.3Z" transform="translate(5.256)" fill="#01215c"/><path id="Pfad_195" data-name="Pfad 195" d="M148.035,26.288H135.227a3.554,3.554,0,0,1-3.55-3.55V2.229A2.227,2.227,0,0,0,129.448,0h-1.368a2.894,2.894,0,0,0-2.889,2.889V29.744a2.227,2.227,0,0,0,2.229,2.229h19.967a2.894,2.894,0,0,0,2.889-2.889v-.566a2.227,2.227,0,0,0-2.229-2.229Z" transform="translate(22.39)" fill="#01215c"/><path id="Pfad_196" data-name="Pfad 196" d="M87.436,2.984A12.276,12.276,0,0,0,82.954.767,23.7,23.7,0,0,0,76.574,0H63.2A2.894,2.894,0,0,0,60.31,2.889V29.744a2.235,2.235,0,0,0,2.229,2.229h2.029A2.227,2.227,0,0,0,66.8,29.744V22.868h.024v-5.6H66.8V7.878a2.227,2.227,0,0,1,2.229-2.229h7.713a8.788,8.788,0,0,1,5.543,1.462,4.994,4.994,0,0,1,1.84,4.14,6.452,6.452,0,0,1-.46,2.488,4.7,4.7,0,0,1-1.392,1.887,6.607,6.607,0,0,1-2.312,1.2,10.981,10.981,0,0,1-3.22.425h-4.6a2.235,2.235,0,0,0-2.229,2.229v1.168a2.227,2.227,0,0,0,2.229,2.229h4.67l5.354,8.079a2.223,2.223,0,0,0,1.852,1h2.536a2.226,2.226,0,0,0,1.84-3.479l-3.149-4.635a2.222,2.222,0,0,1,.7-3.149c.366-.224.708-.46,1.038-.708a10.271,10.271,0,0,0,2.241-2.406,10.013,10.013,0,0,0,1.321-2.96,13.177,13.177,0,0,0,.425-3.385,12.248,12.248,0,0,0-.873-4.729,8.887,8.887,0,0,0-2.654-3.538Z" transform="translate(10.752)" fill="#01215c"/><path id="Pfad_197" data-name="Pfad 197" d="M112.026,1.628A2.907,2.907,0,0,0,109.42,0H106.2a2.9,2.9,0,0,0-2.618,1.663L90.833,28.8a2.228,2.228,0,0,0,2.017,3.173h1.9a2.234,2.234,0,0,0,2.029-1.3l1.286-2.783a2.234,2.234,0,0,1,2.029-1.3h10.52a2.228,2.228,0,0,0,2.017-3.173l-.413-.885a2.239,2.239,0,0,0-2.017-1.286h-5.567a2.223,2.223,0,0,1-2.017-3.161l3.267-7.064A2.23,2.23,0,0,1,109.915,11l8.975,18.823.413.861a2.229,2.229,0,0,0,2.017,1.274h1.852a2.227,2.227,0,0,0,2-3.2Z" transform="translate(16.189)" fill="#01215c"/></g></g></svg>