<svg xmlns="http://www.w3.org/2000/svg" width="228.846" height="48.095" viewBox="0 0 228.846 48.095"><g id="zigelwerk_bellenberg" transform="translate(-1741 27.1)"><path id="Pfad_198" data-name="Pfad 198" d="M7.47,37.76H9.594c1.4,0,2.677.464,2.677,1.961S10.791,41.65,9.415,41.65H7.462V37.76Zm0,8.04H9.562c1.457,0,2.913.317,2.913,2.051,0,1.554-1.546,2.075-2.97,2.075H7.47ZM.13,54.077H11.922c4.224,0,8.358-.521,8.358-5.591A4.982,4.982,0,0,0,15.706,43.9v-.057c2.71-.692,4.191-2.165,4.191-4.932,0-3.833-3.467-4.956-6.99-4.956H.13V54.085Z" transform="translate(1740.976 -33.424)" fill="#01215c"/><path id="Pfad_200" data-name="Pfad 200" d="M29.43,54.075H47.252V49.233H37.063V46.491h9.546V41.648H37.063V38.792h9.985V33.95H29.43Zm22.534,0H69.346V48.134H59.768V33.95h-7.8Zm20.3,0H89.642V48.134H80.064V33.95h-7.8Zm20.621,0H110.7V49.233H100.507V46.491h9.554V41.648h-9.554V38.792h9.985V33.95H92.881Zm22.672,0h6.7V39.484h.057l3.963,14.591h11.474V33.95h-6.7V48.134h-.057l-3.76-14.184H115.554Z" transform="translate(1735.52 -33.422)" fill="#01215c"/><path id="Pfad_201" data-name="Pfad 201" d="M176.479,37.76H178.6c1.4,0,2.677.464,2.677,1.961s-1.481,1.929-2.856,1.929H176.47V37.76Zm0,8.04h2.091c1.457,0,2.913.317,2.913,2.051,0,1.554-1.546,2.075-2.97,2.075h-2.034V45.8Zm-7.34,8.276H180.93c4.224,0,8.358-.521,8.358-5.591a4.982,4.982,0,0,0-4.574-4.582v-.057c2.71-.692,4.191-2.165,4.191-4.932,0-3.833-3.467-4.956-6.99-4.956H169.13V54.085Z" transform="translate(1709.507 -33.424)" fill="#01215c"/><path id="Pfad_203" data-name="Pfad 203" d="M198.8,54.075h17.814V49.233H206.425V46.491h9.554V41.648h-9.554V38.792h9.985V33.95H198.8Z" transform="translate(1703.982 -33.422)" fill="#01215c"/><path id="Pfad_204" data-name="Pfad 204" d="M233.974,38.372h2.157c1.571,0,3.06.26,3.06,2.075,0,2.043-1.571,2.222-3.174,2.222h-2.043ZM226.52,54h7.8V47.161h1.75c.96,0,1.75.114,2.214,1.042.643,1.213.724,4.354,1.074,5.794h8.122c-.814-1.961-.724-5.07-1.921-7.21a4.906,4.906,0,0,0-3.434-2.165v-.057c2.913-.692,4.866-2.246,4.866-5.33,0-3.866-3-5.363-7.861-5.363H226.528V54Zm44.051-10.2h-6.7v5.363a5.21,5.21,0,0,1-1.66.171c-3.117,0-4.248-2.425-4.248-5.192,0-3.662,2.563-5.591,6.437-5.591a11.787,11.787,0,0,1,5.355,1.156v-5.42a29.355,29.355,0,0,0-7.6-.749c-6.518,0-12.166,3.377-12.166,10.115,0,7.178,5.412,10.693,12.166,10.693a28.588,28.588,0,0,0,8.415-1.1V43.784Z" transform="translate(1698.82 -33.344)" fill="#01215c"/><path id="Pfad_206" data-name="Pfad 206" d="M.35.43V5.614H9.855L0,14.435v6.112H18.6V15.184H8.732l9.546-8.642V.43Zm22.591,0h7.723V20.555H22.941Zm13.55,0V20.547H54.133V15.7H44.042V12.971H53.5V8.12H44.042V5.272H53.93V.43Z" transform="translate(1741 -27.18)" fill="#01215c"/><path id="Pfad_207" data-name="Pfad 207" d="M91.535,10.262H84.9v5.363a5.133,5.133,0,0,1-1.644.171c-3.084,0-4.207-2.417-4.207-5.192,0-3.662,2.539-5.591,6.372-5.591A11.586,11.586,0,0,1,90.73,6.169V.749A28.839,28.839,0,0,0,83.2,0C76.741,0,71.15,3.377,71.15,10.115c0,7.178,5.363,10.693,12.052,10.693a28.069,28.069,0,0,0,8.333-1.1Z" transform="translate(1727.751 -27.1)" fill="#01215c"/><path id="Pfad_209" data-name="Pfad 209" d="M102.32.43V20.547h17.643V15.7H109.872V12.971h9.456V8.12h-9.456V5.272h9.9V.43H102.32ZM125.5.43V20.547h17.212V14.606H133.22V.43H125.5Zm43.1,0-2.474,12.85h-.057L162.915.43h-7.406l-3.231,12.85h-.057L149.772.43h-7.235l4.7,20.117h8.48l3.2-13.143h.057l3.369,13.143h8.309L175.488.43Zm9.92,0V20.547h17.643V15.7H186.067V12.971h9.456V8.12h-9.456V5.272h9.888V.43h-17.44Z" transform="translate(1721.947 -27.18)" fill="#01215c"/><path id="Pfad_210" data-name="Pfad 210" d="M231.131,4.922h2.132c1.554,0,3.027.26,3.027,2.075,0,2.043-1.554,2.222-3.141,2.222h-2.018ZM223.75,20.547h7.723V13.719h1.733c.952,0,1.733.114,2.189,1.042.635,1.213.724,4.354,1.066,5.794h8.048c-.806-1.961-.724-5.07-1.9-7.21a4.871,4.871,0,0,0-3.4-2.165v-.057c2.881-.692,4.818-2.246,4.818-5.33,0-3.866-2.97-5.363-7.788-5.363H223.75V20.547Z" transform="translate(1699.336 -27.18)" fill="#01215c"/><path id="Pfad_212" data-name="Pfad 212" d="M266.737.43l-4.81,7.894h-.057V.43H254.14V20.547h7.731V12.018h.057l5.013,8.529h9.228L268.756,9.854,275.535.43Z" transform="translate(1693.677 -27.18)" fill="#01215c"/></g></svg>