<?xml version="1.0" encoding="UTF-8"?><svg xmlns="http://www.w3.org/2000/svg" id="Ebene_2" data-name="Ebene 2" viewBox="0 0 2219.2896 2219.2896"><g id="_Шар_1" data-name="Шар 1"><g><rect width="2219.2896" height="2219.2896" style="fill: #cdcdcd;"/><g><path d="M1981.5498,1109.6399c0,207.3599-72.3901,397.8199-193.28,547.48-42.51,52.6299-91.02,100.21-144.49,141.71-147.55,114.53-332.87,182.72-534.13,182.72-200.01,0-384.2899-67.35-531.4-180.59-53.73-41.37-102.5-88.85-145.27-141.42-122.06-150.02-195.24-341.4199-195.24-549.8999,0-481.54,390.37-871.9001,871.91-871.9001s871.9,390.3601,871.9,871.9001Z" style="fill: #fff;"/><path d="M1643.7798,1798.8299c-147.55,114.53-332.87,182.72-534.13,182.72-200.01,0-384.2899-67.35-531.4-180.59,59.13-21.64,119.3301-42.96,140.6201-61.21,24.48-20.98,48.96-121.8299,58.7699-166.3199,2.86-12.9401,12.9401-23.0601,25.87-25.9501l54.28-12.16,5.6499-95.99s-96-135.53-100.5199-231.53c0,0-34.17,56.75-42.64-16.95-8.47-73.6899-25.4099-83.01-33.03-112.65-7.6299-29.65-11.86-90.64.8501-101.65,12.7-11.01,21.1699-11.01,21.1699-11.01,0,0-17.79-37.27-25.41-52.52-7.62-15.25,5.93-77.9299,4.2401-91.48-1.7001-13.5499-17.79-83.01-.8501-164.3298,16.9399-81.3201,38.1201-128.75,66.0701-149.0801,27.95-20.3301,109.27-68.6101,114.35-77.0901,5.08-8.47,17.7899-15.24,33.0399-23.71,15.24-8.47,59.29-5.0901,66.0701-5.9299,6.77-.8501,23.15-30.5,38.21-33.51,15.0601-3.01,93.9301,6.97,118.78,12.05,24.8401,5.0798,81.88,15.8098,95.4299,9.5999,13.55-6.21,20.3301-2.8201,41.79,9.6001,21.46,12.4199,54.77,40.0901,57.03,47.4299,2.26,7.3501-2.8201,18.6401,5.0901,26.55,7.8999,7.8999,63.8099,2.8201,80.1799-2.26,16.38-5.0901,6.22,16.3701,11.3,20.3301,5.08,3.95,65.5,5.9299,76.52,150.77,11.01,144.8499,1.4099,313.9799-33.04,343.3398,0,0,5.9299,25.1301-.8501,51.39-6.77,26.26-11.01,23.7201-10.1599,37.27.85,13.5499.85,106.73-21.1801,118.59-22.0199,11.8601-30.49,12.7-30.49,12.7,0,0-11.2999,126.2201-75.67,186.6401l11.29,144.5599,58.5901,10.4401c14.2,2.53,25.27,13.7,27.6699,27.9199,7.0801,42.0701,22.87,126.9,37.41,142.07,10.7999,11.27,104.16,44.13,189.1,81.95Z" style="fill: #cdcdcd;"/></g></g></g></svg>