<?xml version="1.0" encoding="UTF-8"?><svg xmlns="http://www.w3.org/2000/svg" id="Ebene_2" data-name="Ebene 2" viewBox="0 0 2219.2896 2219.2896"><g id="_Шар_1" data-name="Шар 1"><g><rect width="2219.2896" height="2219.2896" style="fill: #cdcdcd;"/><path d="M1981.55,1109.6399c0,232.71-91.1704,444.1399-239.75,600.4999-31.75,33.42-66.1201,64.32-102.79,92.37-146.7703,112.31-330.2803,179.04-529.3601,179.04-189.7302,0-365.3-60.61-508.4202-163.51-47.23-33.95-90.9199-72.5-130.4199-115.01-144.6299-155.6299-233.0701-364.18-233.0701-593.39,0-481.54,390.3701-871.9001,871.9102-871.9001s871.9001,390.3601,871.9001,871.9001Z" style="fill: #fff;"/></g><g><path d="M1686.0792,1216.9873v-11.0111c0-3.0271,2.4586-11.1955,3.7086-14.2187,8.8495-21.4029,36.788-21.722,52.9016-8.0444,6.7542,5.7331,7.9367,12.4743,18.9204,11.1967,8.8635-1.031,25.222-14.8351,26.7301-23.4758,2.3367-13.3889-10.2663-18.6656-14.8797-29.7407-5.0888-12.2163-4.6418-21.3413,2.2864-32.5232,6.2109-10.024,11.666-14.1911,23.8462-15.0909,11.5927-.8564,20.8599,3.9091,26.1195-9.746,2.5466-6.6115,2.6808-23.8625.4097-30.6087-3.6912-10.9647-19.6567-7.3158-28.4533-8.95-15.451-2.8705-28.1719-24.4173-25.2716-39.3318,2.5712-13.2223,11.3855-16.1336,17.1055-25.4131,9.1031-14.7678-11.2479-38.8891-26.3279-37.5754-5.9328.5168-8.3466,5.1829-11.9939,8.4947-22.696,20.6081-54.755,9.728-58.8898-21.0809-.8293-6.1792.2314-14.8767-3.2198-20.3408-6.164-9.7591-33.0785-9.3209-41.4061-2.6242-5.1935,4.1764-3.5735,16.8932-4.1812,22.965-2.1798,21.7811-27.6304,36.155-47.6184,26.2048-12.6422-6.2934-18.252-24.9973-34.9778-15.0299-5.7571,3.4308-17.4242,14.9499-19.0775,21.3931-3.6558,14.2465,11.2265,17.5875,15.1418,27.4061,3.54,8.8774,1.5117,18.1673,1.5282,27.4089h26.391c2.2999-4.2238,4.7358-7.9352,7.9294-11.5368,21.3621-24.0906,47.7749-34.2315,80.2063-32.5025,41.3818,2.2062,78.5848,42.5548,81.2227,83.2236,2.3628,36.4277-10.442,69.9283-43.0293,88.0945-4.5505,2.5368-23.1293,11.0001-27.4269,11.0001H462.869v61.4573h1223.2102Z" style="fill: #fff;"/><path d="M1686.0792,1216.9873H462.869v-61.4573h1220.9042c4.2976,0,22.8763-8.4634,27.4269-11.0001,32.5872-18.1663,45.3921-51.6668,43.0293-88.0945-2.6379-40.6688-39.8408-81.0175-81.2227-83.2236-32.4314-1.729-58.8442,8.4119-80.2063,32.5025-3.1936,3.6016-5.6295,7.313-7.9294,11.5368h-26.391c-.0165-9.2416,2.0118-18.5315-1.5282-27.4089-3.9153-9.8186-18.7975-13.1596-15.1418-27.4061,1.6534-6.4432,13.3204-17.9623,19.0775-21.3931,16.7258-9.9673,22.3356,8.7365,34.9778,15.0299,19.988,9.9502,45.4386-4.4237,47.6184-26.2048.6077-6.0717-1.0123-18.7886,4.1812-22.965,8.3276-6.6967,35.2421-7.1349,41.4061,2.6242,3.4512,5.4641,2.3905,14.1615,3.2198,20.3408,4.1349,30.809,36.1938,41.6891,58.8898,21.0809,3.6474-3.3118,6.0611-7.9779,11.9939-8.4947,15.0801-1.3137,35.431,22.8076,26.3279,37.5754-5.72,9.2795-14.5343,12.1908-17.1055,25.4131-2.9003,14.9145,9.8206,36.4613,25.2716,39.3318,8.7966,1.6342,24.762-2.0146,28.4533,8.95,2.2711,6.7462,2.1369,23.9971-.4097,30.6087-5.2597,13.6551-14.5268,8.8896-26.1195,9.746-12.1802.8998-17.6353,5.0668-23.8462,15.0909-6.9282,11.1819-7.3752,20.3069-2.2864,32.5232,4.6134,11.0751,17.2164,16.3519,14.8797,29.7407-1.508,8.6407-17.8666,22.4448-26.7301,23.4758-10.9837,1.2776-12.1663-5.4636-18.9204-11.1967-16.1136-13.6776-44.0521-13.3584-52.9016,8.0444-1.25,3.0231-3.7086,11.1916-3.7086,14.2187v11.0111Z" style="fill: #cdcdcd;"/><g><polygon points="974.547 1023.3967 1003.2495 1066.4201 1004.1587 1065.7695 1032.4535 1023.3967 1070.1183 1023.3967 1070.1183 1144.2628 1027.0728 1144.2628 1027.5801 1091.5121 1003.2496 1126.8491 978.9079 1090.9999 979.9277 1144.2628 936.8822 1144.2628 936.8822 1023.3967 974.547 1023.3967" style="fill: #01215c;"/><polygon points="1595.8886 1023.3967 1642.0036 1075.6353 1640.4714 1023.3967 1684.0294 1023.3967 1684.0294 1144.2628 1647.9019 1144.2628 1601.5306 1092.5363 1603.0628 1144.2628 1559.5049 1144.2628 1559.5049 1023.3967 1595.8886 1023.3967" style="fill: #01215c;"/><polygon points="620.7026 1023.3967 620.7026 1064.8804 653.2429 1064.8804 654.0116 1064.1122 654.0116 1023.3967 696.5447 1023.3967 696.5447 1144.2628 654.0116 1144.2628 654.0116 1101.2426 620.7026 1101.2426 620.7026 1144.2628 578.1695 1144.2628 578.1695 1023.3967 620.7026 1023.3967" style="fill: #01215c;"/><path d="M928.1706,1144.2628h-43.0455c-2.5189-7.5594-5.2618-15.2631-8.3272-22.6625-2.6759-6.4593-7.5824-19.1729-13.2272-23.1428-.4219-.2967-3.1107-1.8241-3.2993-1.8241h-8.4554v47.6294h-43.0455v-120.8661h70.4614c3.7527,0,13.1407,3.0866,16.6776,4.8423,22.1147,10.9778,25.0789,43.3102,5.1121,57.8953,4.5945,4.4473,7.4814,10.2471,10.166,15.9488,6.4311,13.6587,11.2316,28.2276,16.983,42.1797ZM851.816,1072.0504h11.0176c.4253,0,3.8628-1.2782,4.5475-1.6009,7.6283-3.5948,8.2718-16.2391.859-20.1911-.9046-.4823-4.615-1.7667-5.4066-1.7667h-11.0176v23.5586Z" style="fill: #01215c;"/><path d="M1133.5592,1022.0139c43.2889-3.654,70.1658,25.663,67.2276,68.2123-2.7904,40.4107-37.4595,63.4658-76.3516,53.7828-60.6056-15.089-55.8657-116.5093,9.1239-121.9951ZM1137.6385,1062.4531c-17.079,2.4594-17.1734,40.1091-.0105,42.7638,11.4449,1.7703,18.8237-4.8799,20.0647-16.0637,1.5779-14.2208-2.8252-29.1812-20.0541-26.7001Z" style="fill: #01215c;"/><path d="M1409.8704,1144.2628l49.2646-120.7969,42.2274-.1041,49.9433,120.901h-42.7893l-6.9896-18.3658-42.0066.2325-6.8604,18.1332h-42.7893ZM1469.8267,1098.1698h21.5228l-10.5103-30.7319-11.0124,30.7319Z" style="fill: #01215c;"/><polygon points="795.4469 1023.3967 795.4469 1054.1254 754.4511 1054.1254 754.4511 1067.4411 792.3722 1067.4411 792.3722 1097.9137 791.6035 1098.6819 754.4511 1098.6819 754.4511 1113.5341 796.4718 1113.5341 796.4718 1144.2628 711.4056 1144.2628 711.4056 1023.3967 795.4469 1023.3967" style="fill: #01215c;"/><path d="M1254.5991,1103.8034v40.4594h-43.0455v-120.8661h64.3121c4.1972,0,14.1817,3.4453,18.022,5.5472,25.3279,13.8628,24.4018,54.5084-.3329,68.4674-11.8481,6.6865-25.6925,6.6334-38.9557,6.3921ZM1254.0866,1051.5646v23.3026l.7687.7682h7.6867c.4878,0,4.0745-1.1072,4.7153-1.4332,6.4599-3.2863,7.0429-17.8608.6147-21.3066-.423-.2267-3.1032-1.331-3.2802-1.331h-10.5052Z" style="fill: #01215c;"/><polygon points="569.9703 1023.3967 569.9703 1058.7347 537.6862 1058.7347 537.6862 1144.2628 494.6407 1144.2628 494.6407 1058.7347 462.3565 1058.7347 462.3565 1023.3967 569.9703 1023.3967" style="fill: #01215c;"/><polygon points="1363.7502 1023.3967 1363.7502 1108.9248 1404.2335 1108.9248 1404.2335 1144.2628 1320.7047 1144.2628 1320.7047 1023.3967 1363.7502 1023.3967" style="fill: #01215c;"/></g><g><path d="M502.6435,1196.8467h-4.9867l-1.9823-5.2076h-9.0752l-1.8739,5.2076h-4.8628l8.8429-22.9305h4.8473l9.0907,22.9305ZM494.2032,1187.7736l-3.1283-8.5073-3.0664,8.5073h6.1947Z" style="fill: #01215c;"/><path d="M510.5716,1196.8467v-22.9305h4.4602l9.292,15.3132v-15.3132h4.2588v22.9305h-4.5995l-9.1526-14.9539v14.9539h-4.2588Z" style="fill: #01215c;"/><path d="M539.003,1196.8467v-22.7426h4.584v18.8792h11.3982v3.8634h-15.9822Z" style="fill: #01215c;"/><path d="M584.3241,1196.8467h-4.9867l-1.9823-5.2076h-9.0752l-1.8739,5.2076h-4.8628l8.8429-22.9305h4.8473l9.0907,22.9305ZM575.8839,1187.7736l-3.1283-8.5073-3.0664,8.5073h6.1947Z" style="fill: #01215c;"/><path d="M602.7677,1188.4158v-3.8634h9.8805v9.1351c-.9602.9375-2.3519,1.7655-4.1742,2.4779-1.8223.7145-3.6672,1.0717-5.536,1.0717-2.3746,0-4.4447-.5018-6.2101-1.5094-1.7655-1.0056-3.0922-2.4448-3.9801-4.3156-.8879-1.8729-1.3319-3.9088-1.3319-6.1079,0-2.3891.4956-4.5097,1.4867-6.366s2.4417-3.2811,4.3517-4.2702c1.4557-.7619,3.2677-1.1419,5.4358-1.1419,2.8186,0,5.0197.5968,6.6056,1.7903,1.5838,1.1935,2.6038,2.8433,3.0581,4.9495l-4.5531.8611c-.3201-1.1254-.9209-2.0153-1.8047-2.6658-.8817-.6525-1.9844-.9788-3.3059-.9788-2.0029,0-3.596.6422-4.7781,1.9245s-1.7727,3.1861-1.7727,5.7094c0,2.7215.5988,4.7616,1.7965,6.1224s2.7669,2.0422,4.7079,2.0422c.9602,0,1.9224-.19,2.8877-.572.9653-.3799,1.7944-.8404,2.4861-1.3835v-2.9094h-5.25Z" style="fill: #01215c;"/><path d="M622.4636,1196.8467v-22.9305h16.834v3.8799h-12.2499v5.0837h11.3982v3.8634h-11.3982v6.2401h12.6836v3.8634h-17.2676Z" style="fill: #01215c;"/><path d="M649.1729,1196.8467v-22.9305h4.4602l9.292,15.3132v-15.3132h4.2588v22.9305h-4.5995l-9.1526-14.9539v14.9539h-4.2588Z" style="fill: #01215c;"/><path d="M677.4969,1173.9162h9.0752c1.7965,0,3.1366.0764,4.0183.2271.8838.1507,1.6726.4667,2.3705.9457.6959.4811,1.2771,1.1192,1.7417,1.9162s.6969,1.6932.6969,2.6823c0,1.0737-.287,2.0608-.859,2.9569-.574.8962-1.3504,1.5693-2.3313,2.0174,1.3835.4068,2.4469,1.1006,3.1902,2.0814.7434.9788,1.115,2.131,1.115,3.4566,0,1.0428-.2395,2.0566-.7206,3.0416-.4791.985-1.1357,1.7737-1.9658,2.3622-.8322.5885-1.8563.9519-3.0746,1.0861-.764.0847-2.6069.1363-5.5287.1569h-7.7278v-22.9305ZM682.081,1177.7321v5.3026h3.0044c1.7861,0,2.896-.0248,3.3296-.0785.7847-.0929,1.401-.3675,1.8512-.8198.4481-.4543.6732-1.051.6732-1.7923,0-.7083-.1941-1.2844-.5802-1.7283-.3882-.4419-.9633-.7103-1.7273-.8053-.4543-.0516-1.7603-.0785-3.9181-.0785h-2.6327ZM682.081,1186.8527v6.1306h4.2433c1.6519,0,2.6998-.0475,3.1438-.1404.6814-.126,1.2358-.4316,1.6653-.9147.4274-.4852.6422-1.1357.6422-1.9472,0-.6897-.1652-1.272-.4956-1.7531-.3304-.4791-.8084-.828-1.433-1.0469s-1.9792-.3283-4.0647-.3283h-3.7013Z" style="fill: #01215c;"/><path d="M726.3087,1196.8467h-4.9867l-1.9823-5.2076h-9.0752l-1.8739,5.2076h-4.8628l8.8429-22.9305h4.8473l9.0907,22.9305ZM717.8685,1187.7736l-3.1283-8.5073-3.0664,8.5073h6.1947Z" style="fill: #01215c;"/><path d="M734.1594,1173.9162h4.584v12.4203c0,1.9699.0568,3.2481.1704,3.8304.1962.9395.6628,1.6932,1.4021,2.261.7372.5678,1.7469.8528,3.0271.8528,1.3009,0,2.2817-.2684,2.9425-.8053s1.0583-1.1976,1.1925-1.9782c.1342-.7826.2013-2.0814.2013-3.8964v-12.6846h4.584v12.0445c0,2.7525-.1239,4.6976-.3717,5.8333-.2478,1.1378-.7041,2.0959-1.3711,2.8784-.6649.7826-1.5559,1.4062-2.6709,1.8687-1.115.4646-2.5708.6959-4.3672.6959-2.1681,0-3.8128-.2519-4.932-.7578-1.1212-.5059-2.006-1.1625-2.6565-1.9699-.6504-.8094-1.0789-1.656-1.2854-2.5419-.2994-1.3153-.4491-3.2543-.4491-5.8188v-12.2324Z" style="fill: #01215c;"/><path d="M776.4183,1190.7305v-4.3941h8.5486v4.3941h-8.5486Z" style="fill: #01215c;"/><path d="M807.435,1196.8467v-22.9305h16.834v3.8799h-12.2499v5.0837h11.3982v3.8634h-11.3982v6.2401h12.6836v3.8634h-17.2676Z" style="fill: #01215c;"/><path d="M834.2217,1196.8467v-22.7426h4.584v18.8792h11.3982v3.8634h-15.9822Z" style="fill: #01215c;"/><path d="M859.0695,1196.8467v-22.9305h16.834v3.8799h-12.2499v5.0837h11.3982v3.8634h-11.3982v6.2401h12.6836v3.8634h-17.2676Z" style="fill: #01215c;"/><path d="M885.7943,1196.8467v-22.9305h4.584v10.1819l9.261-10.1819h6.1637l-8.5486,8.9306,9.0132,13.9999h-5.9314l-6.2411-10.7622-3.7168,3.8324v6.9298h-4.584Z" style="fill: #01215c;"/><path d="M919.1979,1196.8467v-19.0506h-6.7367v-3.8799h18.0419v3.8799h-6.7212v19.0506h-4.584Z" style="fill: #01215c;"/><path d="M939.0745,1196.8467v-22.9305h9.6482c2.4262,0,4.1886.2065,5.2892.6174,1.0985.413,1.9792,1.146,2.64,2.1991s.9911,2.2569.9911,3.6115c0,1.7221-.5007,3.1428-1.5022,4.264-1.0015,1.1192-2.4985,1.8274-4.4911,2.1186.9911.5844,1.8088,1.2245,2.4551,1.9245.6442.6979,1.5146,1.9389,2.609,3.723l2.7721,4.4725h-5.4823l-3.3141-4.9888c-1.177-1.7841-1.9823-2.9074-2.4159-3.372-.4336-.4625-.8931-.7826-1.3783-.954s-1.2544-.2581-2.3075-.2581h-.9292v9.5728h-4.584ZM943.6585,1183.6149h3.3916c2.1991,0,3.5723-.095,4.1194-.2829s.9757-.51,1.2854-.9684c.3097-.4605.4646-1.0324.4646-1.7221,0-.7702-.2044-1.3938-.6112-1.8687-.4088-.4749-.9839-.7743-1.7273-.8982-.3717-.0537-1.4867-.0785-3.3451-.0785h-3.5774v5.8188Z" style="fill: #01215c;"/><path d="M966.4848,1185.5229c0-2.3354.3459-4.297,1.0376-5.8808.5162-1.1687,1.2203-2.2177,2.1144-3.1448.892-.9271,1.8708-1.6168,2.9342-2.0649,1.4144-.605,3.0457-.9065,4.8938-.9065,3.3451,0,6.0212,1.0469,8.0303,3.1428,2.0071,2.0959,3.0116,5.0115,3.0116,8.7448,0,3.7003-.9963,6.5973-2.9889,8.689-1.9926,2.0897-4.6563,3.1345-7.9911,3.1345-3.3761,0-6.0604-1.0386-8.0531-3.12-1.9926-2.0793-2.9889-4.9454-2.9889-8.5941ZM971.2082,1185.366c0,2.5956.5937,4.5655,1.781,5.9056,1.1873,1.338,2.6947,2.0091,4.5221,2.0091s3.3265-.6649,4.4984-1.9947,1.7582-3.3245,1.7582-5.982c0-2.6286-.5709-4.5882-1.7108-5.8829-1.1419-1.2926-2.6565-1.9389-4.5458-1.9389s-3.4122.6546-4.5686,1.9637-1.7345,3.2811-1.7345,5.92Z" style="fill: #01215c;"/><path d="M1002.7814,1196.8467v-19.0506h-6.7367v-3.8799h18.0419v3.8799h-6.7212v19.0506h-4.584Z" style="fill: #01215c;"/><path d="M1022.6425,1196.8467v-22.9305h16.834v3.8799h-12.2499v5.0837h11.3982v3.8634h-11.3982v6.2401h12.6836v3.8634h-17.2676Z" style="fill: #01215c;"/><path d="M1063.8328,1188.4158l4.4447,1.4227c-.6814,2.5026-1.815,4.3631-3.3988,5.5773-1.5858,1.2142-3.596,1.8212-6.0326,1.8212-3.0147,0-5.4926-1.0386-7.4336-3.12-1.941-2.0793-2.9115-4.9248-2.9115-8.5321,0-3.8159.9757-6.7811,2.927-8.8914,1.9513-2.1124,4.5169-3.1675,7.6969-3.1675,2.7773,0,5.0332.828,6.7677,2.4861,1.0324.9808,1.8068,2.3891,2.323,4.2227l-4.5376,1.0965c-.2684-1.1894-.8291-2.1289-1.6798-2.8165-.8528-.6876-1.8873-1.0324-3.1056-1.0324-1.6829,0-3.0488.6112-4.0967,1.8295-1.0479,1.2203-1.5714,3.1964-1.5714,5.9283,0,2.8991.5162,4.964,1.5487,6.1947s2.3746,1.846,4.0265,1.846c1.2183,0,2.2662-.3903,3.1438-1.1729s1.5074-2.0133,1.8894-3.692Z" style="fill: #01215c;"/><path d="M1077.6758,1196.8467v-22.9305h4.584v9.0256h8.9823v-9.0256h4.584v22.9305h-4.584v-10.0271h-8.9823v10.0271h-4.584Z" style="fill: #01215c;"/><path d="M1106.0618,1196.8467v-22.9305h4.4602l9.292,15.3132v-15.3132h4.2588v22.9305h-4.5995l-9.1526-14.9539v14.9539h-4.2588Z" style="fill: #01215c;"/><path d="M1134.2309,1196.8467v-22.9305h4.584v22.9305h-4.584Z" style="fill: #01215c;"/><path d="M1148.8317,1196.8467v-22.9305h4.584v10.1819l9.261-10.1819h6.1637l-8.5486,8.9306,9.0132,13.9999h-5.9324l-6.2401-10.7622-3.7168,3.8324v6.9298h-4.584Z" style="fill: #01215c;"/><path d="M1190.9967,1190.7305v-4.3941h8.5486v4.3941h-8.5486Z" style="fill: #01215c;"/><path d="M1227.8053,1196.8467l-8.115-22.9305h4.9722l5.7445,16.9713,5.5607-16.9713h4.8628l-8.1315,22.9305h-4.8938Z" style="fill: #01215c;"/><path d="M1248.6772,1196.8467v-22.9305h16.8329v3.8799h-12.2489v5.0837h11.3982v3.8634h-11.3982v6.2401h12.6825v3.8634h-17.2666Z" style="fill: #01215c;"/><path d="M1275.3555,1196.8467v-22.9305h9.6492c2.4242,0,4.1876.2065,5.2882.6174,1.0985.413,1.9782,1.146,2.641,2.1991.6587,1.0531.9911,2.2569.9911,3.6115,0,1.7221-.5018,3.1428-1.5032,4.264-1.0015,1.1192-2.4985,1.8274-4.4911,2.1186.9911.5844,1.8088,1.2245,2.4551,1.9245.6442.6979,1.5136,1.9389,2.61,3.723l2.7711,4.4725h-5.4823l-3.3141-4.9888c-1.177-1.7841-1.9823-2.9074-2.4159-3.372-.4336-.4625-.8941-.7826-1.3793-.954s-1.2534-.2581-2.3065-.2581h-.9292v9.5728h-4.584ZM1279.9395,1183.6149h3.3926c2.197,0,3.5702-.095,4.1174-.2829s.9767-.51,1.2864-.9684c.3097-.4605.4646-1.0324.4646-1.7221,0-.7702-.2044-1.3938-.6112-1.8687-.4088-.4749-.9829-.7743-1.7262-.8982-.3717-.0537-1.4867-.0785-3.3451-.0785h-3.5784v5.8188Z" style="fill: #01215c;"/><path d="M1303.7249,1196.8467v-22.9305h15.5651v3.8799h-10.9811v5.4265h9.4778v3.8799h-9.4778v9.7442h-4.584Z" style="fill: #01215c;"/><path d="M1347.4468,1196.8467h-4.9846l-1.9823-5.2076h-9.0772l-1.8729,5.2076h-4.8628l8.8418-22.9305h4.8484l9.0896,22.9305ZM1339.0076,1187.7736l-3.1283-8.5073-3.0664,8.5073h6.1947Z" style="fill: #01215c;"/><path d="M1355.345,1196.8467v-22.9305h4.5841v9.0256h8.9823v-9.0256h4.584v22.9305h-4.584v-10.0271h-8.9823v10.0271h-4.5841Z" style="fill: #01215c;"/><path d="M1383.7,1196.8467v-22.9305h9.6492c2.4242,0,4.1876.2065,5.2882.6174,1.0985.413,1.9782,1.146,2.641,2.1991.6587,1.0531.9911,2.2569.9911,3.6115,0,1.7221-.5018,3.1428-1.5032,4.264-1.0015,1.1192-2.4985,1.8274-4.4911,2.1186.9911.5844,1.8088,1.2245,2.4551,1.9245.6442.6979,1.5136,1.9389,2.61,3.723l2.7711,4.4725h-5.4823l-3.3141-4.9888c-1.177-1.7841-1.9823-2.9074-2.4159-3.372-.4336-.4625-.8941-.7826-1.3793-.954s-1.2534-.2581-2.3065-.2581h-.9292v9.5728h-4.584ZM1388.2841,1183.6149h3.3926c2.197,0,3.5702-.095,4.1174-.2829s.9767-.51,1.2864-.9684c.3097-.4605.4646-1.0324.4646-1.7221,0-.7702-.2044-1.3938-.6112-1.8687-.4088-.4749-.9829-.7743-1.7262-.8982-.3717-.0537-1.4867-.0785-3.3451-.0785h-3.5784v5.8188Z" style="fill: #01215c;"/><path d="M1412.0385,1196.8467v-22.9305h16.8329v3.8799h-12.2489v5.0837h11.3982v3.8634h-11.3982v6.2401h12.6825v3.8634h-17.2666Z" style="fill: #01215c;"/><path d="M1438.7478,1196.8467v-22.9305h4.4602l9.292,15.3132v-15.3132h4.2578v22.9305h-4.5985l-9.1536-14.9539v14.9539h-4.2578Z" style="fill: #01215c;"/><path d="M1465.8948,1189.3863l4.4602-.4378c.2684,1.5115.8136,2.6224,1.6333,3.3307.8218.7103,1.9286,1.0634,3.3224,1.0634,1.4764,0,2.5894-.3139,3.3369-.9457.7496-.6319,1.1233-1.369,1.1233-2.2136,0-.541-.1569-1.0035-.4729-1.3835-.3139-.382-.8652-.7124-1.6478-.9932-.5389-.1879-1.7613-.5224-3.6714-1.0015-2.4572-.6153-4.1814-1.3711-5.1725-2.2693-1.3938-1.2596-2.0917-2.7979-2.0917-4.613,0-1.1687.3283-2.261.985-3.277.6546-1.0159,1.6003-1.7903,2.833-2.323,1.2348-.5327,2.7236-.797,4.4684-.797,2.8495,0,4.995.6298,6.4342,1.8914,1.4413,1.2616,2.197,2.9466,2.2693,5.0528l-4.584.2024c-.1962-1.177-.6174-2.0257-1.2616-2.5398-.6463-.5162-1.6147-.7743-2.9053-.7743-1.3298,0-2.3746.2746-3.1262.828-.4873.3552-.7289.828-.7289,1.4227,0,.5431.2271,1.0077.6814,1.3938.5782.4894,1.9823.9994,4.2124,1.5321,2.2301.5307,3.8799,1.082,4.9475,1.6498,1.0696.5678,1.9059,1.3442,2.5088,2.3313.605.985.9065,2.2032.9065,3.6507,0,1.3153-.3614,2.546-1.0841,3.692-.7227,1.1481-1.7448,2.0009-3.0664,2.5584s-2.9693.8363-4.9413.8363c-2.8702,0-5.0734-.669-6.6118-2.0091s-2.4572-3.2935-2.7566-5.8581Z" style="fill: #01215c;"/><path d="M1498.8297,1196.8467v-19.0506h-6.7357v-3.8799h18.043v3.8799h-6.7233v19.0506h-4.584Z" style="fill: #01215c;"/><path d="M1518.6919,1196.8467v-22.9305h16.8329v3.8799h-12.2489v5.0837h11.3982v3.8634h-11.3982v6.2401h12.6825v3.8634h-17.2666Z" style="fill: #01215c;"/><path d="M1559.8801,1188.4158l4.4457,1.4227c-.6814,2.5026-1.815,4.3631-3.3988,5.5773-1.5858,1.2142-3.597,1.8212-6.0316,1.8212-3.0168,0-5.4946-1.0386-7.4336-3.12-1.9431-2.0793-2.9115-4.9248-2.9115-8.5321,0-3.8159.9746-6.7811,2.9259-8.8914,1.9513-2.1124,4.5159-3.1675,7.6958-3.1675,2.7773,0,5.0342.828,6.7687,2.4861,1.0324.9808,1.8068,2.3891,2.323,4.2227l-4.5366,1.0965c-.2705-1.1894-.8301-2.1289-1.6808-2.8165-.8528-.6876-1.8873-1.0324-3.1056-1.0324-1.6829,0-3.0478.6112-4.0967,1.8295-1.0469,1.2203-1.5714,3.1964-1.5714,5.9283,0,2.8991.5162,4.964,1.5487,6.1947s2.3746,1.846,4.0265,1.846c1.2183,0,2.2652-.3903,3.1448-1.1729.8755-.7826,1.5053-2.0133,1.8873-3.692Z" style="fill: #01215c;"/><path d="M1573.7252,1196.8467v-22.9305h4.584v9.0256h8.9823v-9.0256h4.584v22.9305h-4.584v-10.0271h-8.9823v10.0271h-4.584Z" style="fill: #01215c;"/><path d="M1602.1091,1196.8467v-22.9305h4.4602l9.292,15.3132v-15.3132h4.2578v22.9305h-4.5985l-9.1536-14.9539v14.9539h-4.2578Z" style="fill: #01215c;"/><path d="M1630.2783,1196.8467v-22.9305h4.584v22.9305h-4.584Z" style="fill: #01215c;"/><path d="M1644.8811,1196.8467v-22.9305h4.584v10.1819l9.2589-10.1819h6.1657l-8.5486,8.9306,9.0112,13.9999h-5.9304l-6.2401-10.7622-3.7168,3.8324v6.9298h-4.584Z" style="fill: #01215c;"/></g></g></g></svg>