<?xml version="1.0" encoding="UTF-8"?><svg xmlns="http://www.w3.org/2000/svg" id="Ebene_2" data-name="Ebene 2" viewBox="0 0 2219.2896 2219.2896"><g id="_Шар_1" data-name="Шар 1"><g><rect width="2219.2896" height="2219.2896" style="fill: #cdcdcd;"/><g><path d="M1981.55,1109.6399c0,232.71-91.1704,444.1399-239.75,600.4999-31.75,33.42-66.1201,64.32-102.79,92.37-146.7703,112.31-330.2803,179.04-529.3601,179.04-189.7302,0-365.3-60.61-508.4202-163.51-47.23-33.95-90.9199-72.5-130.4199-115.01-144.6299-155.6299-233.0701-364.18-233.0701-593.39,0-481.54,390.3701-871.9001,871.9102-871.9001s871.9001,390.3601,871.9001,871.9001Z" style="fill: #fff;"/><path d="M1697.3,1460.3799c-22.9102,20.45-62.7705,17.3-82.1902-6.5,12.0598,14.78,11.53,43.59,7.1799,60.8099-4.8799,19.35-14.99,37.15-31.24,49.17l-41.8201,5.75c-27.8398,11.6399-60.9399,9.83-86.0298-7.03-22.3-14.98-40.1501-36.23-63.9502-49.05-11.54-6.21-24.4099-9.75-37.53-7.5599-26.75,4.48-44.8999,32.6-45.28,59.72-.3799,27.11,13.3101,52.59,30.1802,73.8199,60.3101,75.8701,158.1299,108.5601,248.23,144.2801,14.6799,5.82,29.5,12.02,44.1602,18.72-146.7703,112.31-330.2803,179.04-529.3601,179.04-189.7302,0-365.3-60.61-508.4202-163.51,85.4302-46.03,178.21-83.9,260.29-135.0401,38.3601-23.8999,78.04-56.5599,82.1301-101.5599-109.8701,31.63-238.6702-36-275.01-144.4-28.77-85.83-3.73-180.1799-15.55-269.9199-14.2-107.78-80.75-218.17-37.5-317.91,37.1399-85.65,148.1599-137.33,148.8799-230.6801.3501-45.3799-27.1499-92.7-7.9199-133.7998,13.8401-29.5701,47.03-43.9502,77.53-55.5801,98.6201-37.5901,203.0898-73.0701,307.6099-58.4399,129.8801,18.1699,236.0701,109.9299,329.4102,202.0498,84.5898,83.4702,171.2998,185.8501,162.1001,304.3301,39.6797,12.5601,61.6196,57.15,62.6699,98.77,1.04,41.61-13.9199,81.6899-25.6899,121.61-16.4399,55.7899-26.9399,113.3199-31.2603,171.3199-1.8198,24.3701-.8799,52.6901,18.27,67.8801,17.5,13.8999,50.5503-1.8801,47.0601-21.05,13.2002,41.72-15.3101,92.7-58.54,101.78,5.3301,23.46,27.5601,41.97,51.5903,42.98Z" style="fill: #cdcdcd;"/></g></g></g></svg>