<?xml version="1.0" encoding="UTF-8"?>
<svg id="Ebene_2" data-name="Ebene 2" xmlns="http://www.w3.org/2000/svg" xmlns:xlink="http://www.w3.org/1999/xlink" viewBox="0 0 116.3743 116.3743">
  <defs>
    <linearGradient id="Unbenannter_Verlauf_3" data-name="Unbenannter Verlauf 3" x1="87.2856" y1="7.7872" x2="29.0887" y2="108.5871" gradientUnits="userSpaceOnUse">
      <stop offset="0" stop-color="#009fe3"/>
      <stop offset="1" stop-color="#1d71b8"/>
    </linearGradient>
    <linearGradient id="Unbenannter_Verlauf_3-2" data-name="Unbenannter Verlauf 3" x1="75.1027" y1="28.8884" x2="41.2715" y2="87.4859" xlink:href="#Unbenannter_Verlauf_3"/>
  </defs>
  <g id="Ebene_1-2" data-name="Ebene 1">
    <g>
      <path d="M58.1871,0C26.0513,0,0,26.0513,0,58.1871s26.0513,58.1871,58.1871,58.1871,58.1871-26.0513,58.1871-58.1871S90.323,0,58.1871,0ZM58.1871,96.1132c-20.946,0-37.9261-16.98-37.9261-37.926S37.2411,20.2611,58.1871,20.2611s37.926,16.98,37.926,37.926-16.9801,37.926-37.926,37.926Z" style="fill: url(#Unbenannter_Verlauf_3);"/>
      <circle cx="58.1871" cy="58.1872" r="33.8256" style="fill: url(#Unbenannter_Verlauf_3-2);"/>
      <g>
        <path d="M28.7678,22.845l-3.252-5.2524,1.292-1.1831,4.3652,7.5703-1.3047,1.1948-4.8779-3.271,2.8301,5.1465-1.3057,1.1953-7.1572-5.0137,1.292-1.1836,4.9434,3.689-3.0547-5.418,1.0977-1.0049,5.1318,3.5308Z" style="fill: #fff;"/>
        <path d="M36.1389,18.657l-2.6377,1.5947.4082,1.8071-1.5996.9673-1.6953-8.9443,1.3936-.8423,7.1465,5.6489-1.5996.9668-1.416-1.1982ZM33.1711,18.7874l1.8252-1.103-2.5693-2.1782.7441,3.2812Z" style="fill: #fff;"/>
        <path d="M42.9162,15.0647c-.1211-.3091-.3232-.5034-.6055-.5835-.2832-.0801-.7451-.1006-1.3838-.062-.6396.0386-1.1602.0332-1.5605-.0151-1.0928-.1343-1.8008-.6138-2.124-1.4395-.1689-.4292-.1973-.8594-.0879-1.2905.1104-.4312.3555-.8301.7334-1.1968.3789-.3662.8506-.6602,1.4141-.8809.5674-.2222,1.1133-.3174,1.6377-.2861.5244.0317.9824.187,1.375.4653.3916.2788.6816.6562.8682,1.1323l-1.6367.6411c-.1426-.3633-.3682-.6016-.6768-.7134-.3076-.1123-.6689-.0869-1.084.0752-.4004.1567-.6777.3633-.833.6191-.1562.2563-.1797.5225-.0713.7988.1006.2583.3154.4238.6445.4966.3281.0728.7754.0864,1.3408.041,1.04-.0845,1.8545-.0029,2.4424.2451.5889.2476,1.0039.6812,1.2461,1.2993.2686.6875.2197,1.3286-.1475,1.9233-.3662.5947-.9902,1.0645-1.8701,1.4092-.6113.2393-1.2119.3452-1.8008.3184-.5898-.0273-1.0928-.1836-1.5088-.4697-.416-.2856-.7246-.6851-.9258-1.1978l1.6426-.6436c.3428.8765,1.0391,1.1099,2.0859.6997.3896-.1528.6621-.3506.8184-.5942s.1787-.5073.0674-.7915Z" style="fill: #fff;"/>
        <path d="M50.093,13.1672c-.0693-.3247-.2373-.5498-.5029-.6748-.2666-.125-.7188-.2207-1.3555-.2866s-1.1494-.1558-1.5371-.269c-1.0566-.3105-1.6768-.8989-1.8613-1.7666-.0957-.4507-.0547-.8799.124-1.2876.1787-.4072.4854-.7607.9189-1.061.4336-.2998.9463-.5127,1.5381-.6387.5957-.127,1.1504-.1318,1.6621-.0151s.9395.3442,1.2803.6826c.3418.3389.5664.7583.6729,1.2588l-1.7197.3662c-.0811-.3823-.2646-.6538-.5508-.8145-.2852-.1606-.6465-.1948-1.082-.1021-.4199.0894-.7275.2476-.9229.4746-.1953.2275-.2617.4863-.2002.7769.0576.271.2422.4692.5547.5947.3125.125.751.2114,1.3164.2588,1.04.0864,1.8311.2993,2.3701.6396.54.3408.8789.8354,1.0176,1.4854.1533.7217.001,1.3467-.458,1.8735s-1.1514.8887-2.0752,1.0854c-.6426.1367-1.252.1436-1.8291.021-.5771-.123-1.0479-.3594-1.4121-.709-.3643-.3501-.6035-.7944-.7178-1.333l1.7246-.3672c.1963.9209.8447,1.2642,1.9453,1.0303.4082-.0874.71-.2383.9033-.4531.1943-.2148.2598-.4717.1963-.7695Z" style="fill: #fff;"/>
        <path d="M58.091,10.9524l-3.3691.1841.124,2.2817,3.9551-.2163.0771,1.4102-5.71.312-.4658-8.5186,5.6982-.3115.0781,1.4219-3.9434.2153.1113,2.0303,3.3691-.1841.0752,1.375Z" style="fill: #fff;"/>
        <path d="M63.0754,11.8464l-1.3936-.1426-.3174,3.1064-1.749-.1787.8691-8.4868,3.1533.3228c1.002.1025,1.7529.4053,2.251.9077s.7061,1.1621.6221,1.978c-.0596.5791-.2344,1.0488-.5244,1.4102-.29.3608-.7012.6299-1.2334.8071l1.4805,3.6562-.0078.0815-1.877-.1924-1.2734-3.2695ZM61.8273,10.2874l1.4102.1445c.4395.0449.791-.0322,1.0547-.231s.416-.4941.4561-.8867c.041-.4004-.041-.7266-.2441-.9795-.2041-.2524-.541-.4028-1.0117-.4507l-1.4043-.144-.2607,2.5474Z" style="fill: #fff;"/>
        <path d="M71.7346,14.4939c.0879-.3203.042-.5972-.1367-.8306-.1797-.2334-.5371-.5254-1.0723-.877-.5361-.3511-.9502-.666-1.2422-.9443-.7959-.7612-1.0771-1.5688-.8428-2.4243.1221-.4443.3555-.8066.7021-1.0864.3457-.2798.7803-.4536,1.3027-.521s1.0762-.021,1.6602.1387c.5879.1611,1.082.4111,1.4834.7495.4014.3389.6758.7373.8242,1.1948.1475.458.1543.9336.0195,1.4268l-1.6953-.4644c.1025-.3765.0645-.7021-.1162-.9761-.1797-.2739-.4844-.4702-.9141-.5879-.4141-.1133-.7607-.1138-1.0381-.0015-.2783.1118-.4561.3115-.5342.5977-.0732.2676,0,.5283.2197.7832.2197.2544.5693.5327,1.0498.8345.8848.5542,1.4893,1.1064,1.8125,1.6567s.3975,1.1455.2217,1.7861c-.1953.7119-.6172,1.1968-1.2676,1.4541-.6494.2573-1.4297.2612-2.3418.0117-.6328-.1738-1.1777-.4473-1.6338-.8213-.457-.3745-.7666-.8003-.9287-1.2783-.1631-.478-.1719-.9824-.0264-1.5137l1.7012.4658c-.249.9082.1699,1.5107,1.2549,1.8081.4023.1104.7402.1143,1.0107.0127.2715-.1021.4463-.3003.5273-.5938Z" style="fill: #fff;"/>
        <path d="M82.4738,13.6755l-2.374-1.0928-2.9727,6.4561-1.5967-.7354,2.9727-6.4561-2.3418-1.0781.5957-1.2935,6.3115,2.9062-.5947,1.2935Z" style="fill: #fff;"/>
        <path d="M88.0285,20.9973c-.4746.6929-1.0137,1.2163-1.6162,1.5703s-1.2295.5166-1.8789.4878c-.6504-.0288-1.2705-.2456-1.8604-.6499-.583-.3994-1.0078-.8965-1.2725-1.4902-.2656-.5942-.3457-1.2373-.2402-1.9297.1055-.6929.3877-1.3784.8486-2.0571l.2383-.3481c.4756-.6929,1.0176-1.2168,1.6289-1.5728.6104-.3555,1.2402-.5181,1.8896-.4873.6494.0303,1.2666.2466,1.8535.6484.5859.4023,1.0107.9004,1.2734,1.4946.2627.5947.3389,1.2407.2275,1.9385-.1123.6982-.4043,1.3921-.877,2.0815l-.2148.314ZM86.7775,19.6711c.5059-.7378.7578-1.3887.7568-1.9531-.001-.5649-.2471-1.0146-.7363-1.3506-.4873-.3335-.9922-.4014-1.5156-.2041-.5234.1978-1.0381.6611-1.542,1.3901l-.2354.3433c-.4932.7183-.7432,1.3662-.75,1.9438-.0078.5771.2363,1.0361.7334,1.376.4863.3335.9902.3989,1.5137.1963.5225-.2031,1.0361-.6689,1.541-1.3984l.2344-.3433Z" style="fill: #fff;"/>
        <path d="M92.5451,26.073l-2.4375-2.3345-2.4121,2.5181-1.2695-1.2158,5.9014-6.1616,4.0117,3.8423-.9854,1.0283-2.7422-2.6265-1.5234,1.5913,2.4375,2.3345-.9805,1.0239Z" style="fill: #fff;"/>
        <path d="M96.8098,31.3459l-2.0781-2.6592-2.7471,2.147-1.083-1.3848,6.7217-5.2539,3.4209,4.376-1.1221.877-2.3379-2.9912-1.7354,1.3569,2.0781,2.6587-1.1172.8735Z" style="fill: #fff;"/>
      </g>
      <g>
        <path d="M38.7326,105.8196c-.4502.2012-.9814.2686-1.5928.2021s-1.2324-.2539-1.8643-.563c-.6631-.3247-1.1738-.7539-1.5312-1.2881-.3584-.5342-.5391-1.1431-.541-1.8271-.0029-.6841.1748-1.3994.5312-2.147l.2549-.521c.375-.7646.8281-1.3638,1.3594-1.7974.5322-.4331,1.1133-.6792,1.7441-.7383.6309-.0586,1.2734.0718,1.9258.3911.9082.4448,1.5127,1.0093,1.8135,1.6934.2998.6841.2949,1.4629-.0156,2.3374l-1.5371-.752c.1445-.4731.1465-.8701.0059-1.1909-.1406-.3213-.4219-.585-.8428-.791-.5371-.2627-1.0439-.2607-1.5225.0054s-.9141.7964-1.3066,1.5913l-.2402.4893c-.3926.8037-.5371,1.4854-.4326,2.0449.1035.5601.4512.9844,1.04,1.2729.5928.29,1.0781.3706,1.4541.2417l.6465-1.3213-1.4365-.7031.5693-1.1631,3.0156,1.4761-1.4971,3.0576Z" style="fill: #fff;"/>
        <path d="M46.3635,105.5144l-3.2275-.9849-.667,2.186,3.7881,1.1558-.4121,1.3506-5.4697-1.6689,2.4893-8.1597,5.459,1.6655-.415,1.3618-3.7773-1.1528-.5938,1.9448,3.2285.9849-.4023,1.3169Z" style="fill: #fff;"/>
        <path d="M53.217,106.7063l-3.3359-.5127-.3467,2.2588,3.915.6016-.2148,1.3955-5.6523-.8682,1.2949-8.4326,5.6416.8667-.2168,1.4072-3.9033-.5996-.3086,2.0098,3.3359.5122-.209,1.3613Z" style="fill: #fff;"/>
        <path d="M56.6643,110.5745l-1.7559-.0791.3848-8.5229,1.7559.0796-.3848,8.5225Z" style="fill: #fff;"/>
        <path d="M65.592,109.095c-.2871.4023-.71.7295-1.2705.9819-.5605.2529-1.1914.4062-1.8926.46-.7354.0566-1.3936-.0542-1.9736-.333-.5791-.2783-1.0439-.7119-1.3926-1.3003s-.5586-1.2949-.6299-2.1201l-.0449-.5781c-.0654-.8491.0215-1.5952.2598-2.2388.2383-.6431.6152-1.1499,1.1289-1.5205.5146-.3706,1.1338-.5835,1.8584-.6396,1.0088-.0771,1.8154.1025,2.4209.54.6055.437.9971,1.1113,1.1729,2.0225l-1.7061.1309c-.1152-.4805-.3154-.8237-.5996-1.0293-.2842-.2051-.6602-.29-1.127-.2539-.5957.0454-1.0322.3047-1.3096.7764s-.3838,1.1499-.3193,2.0342l.041.5435c.0693.8921.29,1.5527.6641,1.9824s.8877.6191,1.542.5688c.6582-.0508,1.1172-.2271,1.376-.5288l-.1133-1.4663-1.5947.1226-.0986-1.291,3.3467-.2573.2617,3.394Z" style="fill: #fff;"/>
        <path d="M74.674,108.0632l-1.7021.4395-4.7168-4.5801,1.4033,5.4351-1.7021.4395-2.1318-8.2603,1.7021-.4395,4.7246,4.5898-1.4062-5.4468,1.6963-.438,2.1328,8.2607Z" style="fill: #fff;"/>
        <path d="M80.0949,101.7712l-3.0889,1.3599.9209,2.0913,3.625-1.5957.5693,1.2925-5.2344,2.3037-3.4375-7.8081,5.2236-2.2993.5732,1.3032-3.6143,1.5913.8193,1.8608,3.0889-1.3599.5547,1.2603Z" style="fill: #fff;"/>
        <path d="M85.4357,94.5378l-2.2031,1.4053,3.8232,5.9922-1.4824.9453-3.8223-5.9917-2.1738,1.3862-.7656-1.2002,5.8584-3.7373.7656,1.2002Z" style="fill: #fff;"/>
      </g>
      <g>
        <path d="M63.4113,71.9832h-6.4307v-13.374h-12.5381v13.374h-6.4297v-31.2065h6.4297v12.6455h12.5381v-12.6455h6.4307v31.2065Z" style="fill: #fff;"/>
        <path d="M81.093,71.9832h-13.2881v-2.9575l6.1514-5.5083c.7998-.7031,1.375-1.356,1.7256-1.9585.3496-.6025.5244-1.0688.5244-1.3994,0-1.2046-.6787-1.8076-2.0361-1.8076-.7139,0-1.2822.2236-1.7031.6704-.4219.4473-.6328,1.0093-.6328,1.687h-4.415c0-1.6572.6113-3.0503,1.833-4.1792,1.2217-1.1284,2.7969-1.6934,4.7256-1.6934,2.1143,0,3.7471.4609,4.8975,1.3828,1.1504.9214,1.7256,2.2324,1.7256,3.9326,0,1.0005-.2578,1.915-.7715,2.7437-.5146.8286-1.5439,1.8647-3.0869,3.1074l-3.1719,2.4648h7.5225v3.5151Z" style="fill: #fff;"/>
      </g>
    </g>
  </g>
</svg>